G04 Layer: TopPasteMaskLayer*
G04 EasyEDA v6.3.22, 2020-01-22T11:07:26+01:00*
G04 c2129058598944f0bb6b3e408993b306,6ac03ef627a24f5ab7c901ca926ad83b,10*
G04 Gerber Generator version 0.2*
G04 Scale: 100 percent, Rotated: No, Reflected: No *
G04 Dimensions in millimeters *
G04 leading zeros omitted , absolute positions ,3 integer and 3 decimal *
%FSLAX33Y33*%
%MOMM*%
G90*
G71D02*

%ADD16R,3.499993X8.000009*%
%ADD17R,8.000009X3.499993*%

%LPD*%
G36*
G01X20729Y36674D02*
G01X21730Y36674D01*
G01X21730Y36125D01*
G01X20729Y36125D01*
G01X20729Y36674D01*
G37*
G36*
G01X20729Y35724D02*
G01X21730Y35724D01*
G01X21730Y35175D01*
G01X20729Y35175D01*
G01X20729Y35724D01*
G37*
G36*
G01X20729Y34774D02*
G01X21730Y34774D01*
G01X21730Y34225D01*
G01X20729Y34225D01*
G01X20729Y34774D01*
G37*
G36*
G01X23429Y34774D02*
G01X24430Y34774D01*
G01X24430Y34225D01*
G01X23429Y34225D01*
G01X23429Y34774D01*
G37*
G36*
G01X23429Y36674D02*
G01X24430Y36674D01*
G01X24430Y36125D01*
G01X23429Y36125D01*
G01X23429Y36674D01*
G37*
G36*
G01X23429Y35724D02*
G01X24430Y35724D01*
G01X24430Y35175D01*
G01X23429Y35175D01*
G01X23429Y35724D01*
G37*
G54D16*
G01X34180Y41650D03*
G01X11679Y41650D03*
G01X34089Y4229D03*
G01X11590Y4229D03*
G01X34070Y29279D03*
G01X11569Y29279D03*
G01X34049Y12600D03*
G01X11549Y12600D03*
G54D17*
G01X41409Y11289D03*
G01X41409Y33789D03*
G01X4580Y11549D03*
G01X4580Y34050D03*
G54D16*
G01X33999Y20940D03*
G01X11499Y20940D03*
M00*
M02*
