G04 Layer: BottomPasteMaskLayer*
G04 EasyEDA v6.3.22, 2020-01-22T11:07:26+01:00*
G04 c2129058598944f0bb6b3e408993b306,6ac03ef627a24f5ab7c901ca926ad83b,10*
G04 Gerber Generator version 0.2*
G04 Scale: 100 percent, Rotated: No, Reflected: No *
G04 Dimensions in millimeters *
G04 leading zeros omitted , absolute positions ,3 integer and 3 decimal *
%FSLAX33Y33*%
%MOMM*%
G90*
G71D02*

%ADD19R,1.999996X0.999998*%
%ADD20R,2.999994X1.199998*%

%LPD*%
G54D19*
G01X20059Y36439D03*
G01X20069Y38579D03*
G01X20139Y34540D03*
G54D20*
G01X24818Y13699D03*
G01X24818Y16249D03*
G36*
G01X30830Y15974D02*
G01X29770Y15974D01*
G01X29770Y15324D01*
G01X30830Y15324D01*
G01X30830Y15974D01*
G37*
G36*
G01X30830Y15024D02*
G01X29770Y15024D01*
G01X29770Y14374D01*
G01X30830Y14374D01*
G01X30830Y15024D01*
G37*
G36*
G01X30830Y14075D02*
G01X29770Y14075D01*
G01X29770Y13424D01*
G01X30830Y13424D01*
G01X30830Y14075D01*
G37*
G36*
G01X28630Y14075D02*
G01X27570Y14075D01*
G01X27570Y13424D01*
G01X28630Y13424D01*
G01X28630Y14075D01*
G37*
G36*
G01X28630Y15974D02*
G01X27570Y15974D01*
G01X27570Y15324D01*
G01X28630Y15324D01*
G01X28630Y15974D01*
G37*
G36*
G01X30669Y12400D02*
G01X29669Y12400D01*
G01X29669Y11300D01*
G01X30669Y11300D01*
G01X30669Y12400D01*
G37*
G36*
G01X29269Y12400D02*
G01X28269Y12400D01*
G01X28269Y11300D01*
G01X29269Y11300D01*
G01X29269Y12400D01*
G37*
G36*
G01X30989Y18120D02*
G01X29989Y18120D01*
G01X29989Y17120D01*
G01X30989Y17120D01*
G01X30989Y18120D01*
G37*
G36*
G01X28589Y18120D02*
G01X27589Y18120D01*
G01X27589Y17120D01*
G01X28589Y17120D01*
G01X28589Y18120D01*
G37*
G36*
G01X25920Y19030D02*
G01X24920Y19030D01*
G01X24920Y17930D01*
G01X25920Y17930D01*
G01X25920Y19030D01*
G37*
G36*
G01X24520Y19030D02*
G01X23520Y19030D01*
G01X23520Y17930D01*
G01X24520Y17930D01*
G01X24520Y19030D01*
G37*
G36*
G01X24569Y35880D02*
G01X25569Y35880D01*
G01X25569Y36980D01*
G01X24569Y36980D01*
G01X24569Y35880D01*
G37*
G36*
G01X25969Y35880D02*
G01X26969Y35880D01*
G01X26969Y36980D01*
G01X25969Y36980D01*
G01X25969Y35880D01*
G37*
G36*
G01X21585Y31794D02*
G01X20985Y31794D01*
G01X20985Y31145D01*
G01X21585Y31145D01*
G01X21585Y31794D01*
G37*
G36*
G01X22434Y31794D02*
G01X21834Y31794D01*
G01X21834Y31145D01*
G01X22434Y31145D01*
G01X22434Y31794D01*
G37*
M00*
M02*
