;Layer: Drill PTH
;EasyEDA v6.3.22, 2020-01-22T11:07:26+01:00
;c2129058598944f0bb6b3e408993b306,6ac03ef627a24f5ab7c901ca926ad83b,10
;Gerber Generator version 0.2
M48
METRIC,LZ,000.000
;Holesize 1 = 0.305 METRIC
T01C0.305
;Holesize 2 = 2.101 METRIC
T02C2.101
%
G05
G90
T01
X+011569Y+035309
X+020079Y+036430
X+022640Y+036970
X+022629Y+032720
X+025089Y+036419
X+034070Y+035640
X+041509Y+033800
X+021230Y+032730
T02
X+002199Y+043800
X+007199Y+043800
X+002209Y+038810
X+043809Y+043810
X+038799Y+043810
X+043819Y+038840
X+002229Y+007210
X+002199Y+002220
X+007209Y+002220
X+043809Y+002210
X+038819Y+002200
X+043809Y+007200
M30
