G04 Layer: BottomSilkLayer*
G04 EasyEDA v6.3.22, 2020-01-22T11:07:26+01:00*
G04 c2129058598944f0bb6b3e408993b306,6ac03ef627a24f5ab7c901ca926ad83b,10*
G04 Gerber Generator version 0.2*
G04 Scale: 100 percent, Rotated: No, Reflected: No *
G04 Dimensions in millimeters *
G04 leading zeros omitted , absolute positions ,3 integer and 3 decimal *
%FSLAX33Y33*%
%MOMM*%
G90*
G71D02*

%ADD10C,0.254000*%
%ADD25C,0.200000*%
%ADD26C,0.119990*%
%ADD27C,0.152400*%
%ADD28C,0.203200*%

%LPD*%
G54D26*
G01X30100Y13089D02*
G01X28300Y13089D01*
G01X28300Y16309D02*
G01X30750Y16309D01*
G54D25*
G01X29069Y12650D02*
G01X27969Y12650D01*
G01X27969Y11050D01*
G01X29069Y11050D01*
G01X29869Y12650D02*
G01X30969Y12650D01*
G01X30969Y11650D01*
G01X30969Y11050D01*
G01X29869Y11050D01*
G54D10*
G01X28289Y16820D02*
G01X30289Y16820D01*
G01X28289Y18420D02*
G01X30289Y18420D01*
G01X28938Y16820D02*
G01X28938Y18420D01*
G54D25*
G01X24320Y19280D02*
G01X23220Y19280D01*
G01X23220Y17680D01*
G01X24320Y17680D01*
G01X25120Y19280D02*
G01X26220Y19280D01*
G01X26220Y18280D01*
G01X26220Y17680D01*
G01X25120Y17680D01*
G01X26169Y35629D02*
G01X27269Y35629D01*
G01X27269Y37230D01*
G01X26169Y37230D01*
G01X25369Y35629D02*
G01X24269Y35629D01*
G01X24269Y36629D01*
G01X24269Y37230D01*
G01X25369Y37230D01*
G54D27*
G01X21895Y31901D02*
G01X22530Y31901D01*
G01X22530Y31038D01*
G01X21996Y31038D01*
G01X21895Y31038D01*
G01X21514Y31038D02*
G01X20904Y31038D01*
G01X20904Y31901D01*
G01X21438Y31901D01*
G01X21514Y31901D01*
G54D28*
G01X25896Y5507D02*
G01X25896Y4925D01*
G01X25932Y4816D01*
G01X25969Y4780D01*
G01X26041Y4743D01*
G01X26114Y4743D01*
G01X26187Y4780D01*
G01X26223Y4816D01*
G01X26259Y4925D01*
G01X26259Y4998D01*
G01X25656Y5252D02*
G01X25656Y4889D01*
G01X25619Y4780D01*
G01X25547Y4743D01*
G01X25438Y4743D01*
G01X25365Y4780D01*
G01X25256Y4889D01*
G01X25256Y5252D02*
G01X25256Y4743D01*
G01X25016Y5507D02*
G01X25016Y4743D01*
G01X24776Y5507D02*
G01X24739Y5471D01*
G01X24703Y5507D01*
G01X24739Y5543D01*
G01X24776Y5507D01*
G01X24739Y5252D02*
G01X24739Y4743D01*
G01X24281Y5252D02*
G01X24354Y5216D01*
G01X24427Y5143D01*
G01X24463Y5034D01*
G01X24463Y4961D01*
G01X24427Y4852D01*
G01X24354Y4780D01*
G01X24281Y4743D01*
G01X24172Y4743D01*
G01X24099Y4780D01*
G01X24027Y4852D01*
G01X23990Y4961D01*
G01X23990Y5034D01*
G01X24027Y5143D01*
G01X24099Y5216D01*
G01X24172Y5252D01*
G01X24281Y5252D01*
G01X22645Y5325D02*
G01X22681Y5398D01*
G01X22754Y5471D01*
G01X22827Y5507D01*
G01X22972Y5507D01*
G01X23045Y5471D01*
G01X23118Y5398D01*
G01X23154Y5325D01*
G01X23190Y5216D01*
G01X23190Y5034D01*
G01X23154Y4925D01*
G01X23118Y4852D01*
G01X23045Y4780D01*
G01X22972Y4743D01*
G01X22827Y4743D01*
G01X22754Y4780D01*
G01X22681Y4852D01*
G01X22645Y4925D01*
G01X22645Y5034D01*
G01X22827Y5034D02*
G01X22645Y5034D01*
G01X21969Y5252D02*
G01X21969Y4743D01*
G01X21969Y5143D02*
G01X22041Y5216D01*
G01X22114Y5252D01*
G01X22223Y5252D01*
G01X22296Y5216D01*
G01X22369Y5143D01*
G01X22405Y5034D01*
G01X22405Y4961D01*
G01X22369Y4852D01*
G01X22296Y4780D01*
G01X22223Y4743D01*
G01X22114Y4743D01*
G01X22041Y4780D01*
G01X21969Y4852D01*
G01X21729Y5507D02*
G01X21729Y4743D01*
G01X21489Y5507D02*
G01X21489Y4743D01*
G01X21249Y5034D02*
G01X20812Y5034D01*
G01X20812Y5107D01*
G01X20849Y5180D01*
G01X20885Y5216D01*
G01X20958Y5252D01*
G01X21067Y5252D01*
G01X21139Y5216D01*
G01X21212Y5143D01*
G01X21249Y5034D01*
G01X21249Y4961D01*
G01X21212Y4852D01*
G01X21139Y4780D01*
G01X21067Y4743D01*
G01X20958Y4743D01*
G01X20885Y4780D01*
G01X20812Y4852D01*
G01X20136Y5252D02*
G01X20136Y4671D01*
G01X20172Y4561D01*
G01X20209Y4525D01*
G01X20281Y4489D01*
G01X20390Y4489D01*
G01X20463Y4525D01*
G01X20136Y5143D02*
G01X20209Y5216D01*
G01X20281Y5252D01*
G01X20390Y5252D01*
G01X20463Y5216D01*
G01X20536Y5143D01*
G01X20572Y5034D01*
G01X20572Y4961D01*
G01X20536Y4852D01*
G01X20463Y4780D01*
G01X20390Y4743D01*
G01X20281Y4743D01*
G01X20209Y4780D01*
G01X20136Y4852D01*
G01X19714Y5252D02*
G01X19787Y5216D01*
G01X19859Y5143D01*
G01X19896Y5034D01*
G01X19896Y4961D01*
G01X19859Y4852D01*
G01X19787Y4780D01*
G01X19714Y4743D01*
G01X19605Y4743D01*
G01X19532Y4780D01*
G01X19459Y4852D01*
G01X19423Y4961D01*
G01X19423Y5034D01*
G01X19459Y5143D01*
G01X19532Y5216D01*
G01X19605Y5252D01*
G01X19714Y5252D01*
G01X18783Y5143D02*
G01X18819Y5216D01*
G01X18929Y5252D01*
G01X19038Y5252D01*
G01X19147Y5216D01*
G01X19183Y5143D01*
G01X19147Y5071D01*
G01X19074Y5034D01*
G01X18892Y4998D01*
G01X18819Y4961D01*
G01X18783Y4889D01*
G01X18783Y4852D01*
G01X18819Y4780D01*
G01X18929Y4743D01*
G01X19038Y4743D01*
G01X19147Y4780D01*
G01X19183Y4852D01*
G01X27366Y4097D02*
G01X27366Y3515D01*
G01X27402Y3406D01*
G01X27439Y3370D01*
G01X27511Y3333D01*
G01X27584Y3333D01*
G01X27657Y3370D01*
G01X27693Y3406D01*
G01X27729Y3515D01*
G01X27729Y3588D01*
G01X26944Y3842D02*
G01X27017Y3806D01*
G01X27089Y3733D01*
G01X27126Y3624D01*
G01X27126Y3551D01*
G01X27089Y3442D01*
G01X27017Y3370D01*
G01X26944Y3333D01*
G01X26835Y3333D01*
G01X26762Y3370D01*
G01X26689Y3442D01*
G01X26653Y3551D01*
G01X26653Y3624D01*
G01X26689Y3733D01*
G01X26762Y3806D01*
G01X26835Y3842D01*
G01X26944Y3842D01*
G01X26013Y3733D02*
G01X26049Y3806D01*
G01X26159Y3842D01*
G01X26268Y3842D01*
G01X26377Y3806D01*
G01X26413Y3733D01*
G01X26377Y3661D01*
G01X26304Y3624D01*
G01X26122Y3588D01*
G01X26049Y3551D01*
G01X26013Y3479D01*
G01X26013Y3442D01*
G01X26049Y3370D01*
G01X26159Y3333D01*
G01X26268Y3333D01*
G01X26377Y3370D01*
G01X26413Y3442D01*
G01X25773Y3624D02*
G01X25337Y3624D01*
G01X25337Y3697D01*
G01X25373Y3770D01*
G01X25409Y3806D01*
G01X25482Y3842D01*
G01X25591Y3842D01*
G01X25664Y3806D01*
G01X25737Y3733D01*
G01X25773Y3624D01*
G01X25773Y3551D01*
G01X25737Y3442D01*
G01X25664Y3370D01*
G01X25591Y3333D01*
G01X25482Y3333D01*
G01X25409Y3370D01*
G01X25337Y3442D01*
G01X24537Y4097D02*
G01X24537Y3333D01*
G01X24537Y4097D02*
G01X24246Y3333D01*
G01X23955Y4097D02*
G01X24246Y3333D01*
G01X23955Y4097D02*
G01X23955Y3333D01*
G01X23279Y3842D02*
G01X23279Y3333D01*
G01X23279Y3733D02*
G01X23351Y3806D01*
G01X23424Y3842D01*
G01X23533Y3842D01*
G01X23606Y3806D01*
G01X23679Y3733D01*
G01X23715Y3624D01*
G01X23715Y3551D01*
G01X23679Y3442D01*
G01X23606Y3370D01*
G01X23533Y3333D01*
G01X23424Y3333D01*
G01X23351Y3370D01*
G01X23279Y3442D01*
G01X23039Y3842D02*
G01X23039Y3333D01*
G01X23039Y3697D02*
G01X22929Y3806D01*
G01X22857Y3842D01*
G01X22748Y3842D01*
G01X22675Y3806D01*
G01X22639Y3697D01*
G01X22639Y3333D01*
G01X22399Y3842D02*
G01X22399Y3479D01*
G01X22362Y3370D01*
G01X22289Y3333D01*
G01X22180Y3333D01*
G01X22108Y3370D01*
G01X21999Y3479D01*
G01X21999Y3842D02*
G01X21999Y3333D01*
G01X21759Y3624D02*
G01X21322Y3624D01*
G01X21322Y3697D01*
G01X21359Y3770D01*
G01X21395Y3806D01*
G01X21468Y3842D01*
G01X21577Y3842D01*
G01X21649Y3806D01*
G01X21722Y3733D01*
G01X21759Y3624D01*
G01X21759Y3551D01*
G01X21722Y3442D01*
G01X21649Y3370D01*
G01X21577Y3333D01*
G01X21468Y3333D01*
G01X21395Y3370D01*
G01X21322Y3442D01*
G01X21082Y4097D02*
G01X21082Y3333D01*
G01X19737Y3915D02*
G01X19773Y3988D01*
G01X19846Y4061D01*
G01X19919Y4097D01*
G01X20064Y4097D01*
G01X20137Y4061D01*
G01X20209Y3988D01*
G01X20246Y3915D01*
G01X20282Y3806D01*
G01X20282Y3624D01*
G01X20246Y3515D01*
G01X20209Y3442D01*
G01X20137Y3370D01*
G01X20064Y3333D01*
G01X19919Y3333D01*
G01X19846Y3370D01*
G01X19773Y3442D01*
G01X19737Y3515D01*
G01X19737Y3624D01*
G01X19919Y3624D02*
G01X19737Y3624D01*
G01X19133Y4097D02*
G01X19497Y3588D01*
G01X18951Y3588D01*
G01X19133Y4097D02*
G01X19133Y3333D01*
G01X18711Y4097D02*
G01X18711Y3333D01*
G01X18471Y4097D02*
G01X18435Y4061D01*
G01X18399Y4097D01*
G01X18435Y4133D01*
G01X18471Y4097D01*
G01X18435Y3842D02*
G01X18435Y3333D01*
G01X18159Y4097D02*
G01X18159Y3333D01*
G01X17919Y3624D02*
G01X17482Y3624D01*
G01X17482Y3697D01*
G01X17519Y3770D01*
G01X17555Y3806D01*
G01X17628Y3842D01*
G01X17737Y3842D01*
G01X17809Y3806D01*
G01X17882Y3733D01*
G01X17919Y3624D01*
G01X17919Y3551D01*
G01X17882Y3442D01*
G01X17809Y3370D01*
G01X17737Y3333D01*
G01X17628Y3333D01*
G01X17555Y3370D01*
G01X17482Y3442D01*
G01X17024Y4097D02*
G01X17133Y4061D01*
G01X17206Y3951D01*
G01X17242Y3770D01*
G01X17242Y3661D01*
G01X17206Y3479D01*
G01X17133Y3370D01*
G01X17024Y3333D01*
G01X16951Y3333D01*
G01X16842Y3370D01*
G01X16769Y3479D01*
G01X16733Y3661D01*
G01X16733Y3770D01*
G01X16769Y3951D01*
G01X16842Y4061D01*
G01X16951Y4097D01*
G01X17024Y4097D01*
G01X28429Y6807D02*
G01X28429Y6043D01*
G01X28429Y6807D02*
G01X28139Y6043D01*
G01X27848Y6807D02*
G01X28139Y6043D01*
G01X27848Y6807D02*
G01X27848Y6043D01*
G01X27171Y6552D02*
G01X27171Y6043D01*
G01X27171Y6443D02*
G01X27244Y6516D01*
G01X27317Y6552D01*
G01X27426Y6552D01*
G01X27499Y6516D01*
G01X27571Y6443D01*
G01X27608Y6334D01*
G01X27608Y6261D01*
G01X27571Y6152D01*
G01X27499Y6080D01*
G01X27426Y6043D01*
G01X27317Y6043D01*
G01X27244Y6080D01*
G01X27171Y6152D01*
G01X26931Y6552D02*
G01X26931Y6043D01*
G01X26931Y6334D02*
G01X26895Y6443D01*
G01X26822Y6516D01*
G01X26749Y6552D01*
G01X26640Y6552D01*
G01X26400Y6807D02*
G01X26364Y6771D01*
G01X26328Y6807D01*
G01X26364Y6843D01*
G01X26400Y6807D01*
G01X26364Y6552D02*
G01X26364Y6043D01*
G01X25651Y6552D02*
G01X25651Y6043D01*
G01X25651Y6443D02*
G01X25724Y6516D01*
G01X25797Y6552D01*
G01X25906Y6552D01*
G01X25979Y6516D01*
G01X26051Y6443D01*
G01X26088Y6334D01*
G01X26088Y6261D01*
G01X26051Y6152D01*
G01X25979Y6080D01*
G01X25906Y6043D01*
G01X25797Y6043D01*
G01X25724Y6080D01*
G01X25651Y6152D01*
G01X24306Y6625D02*
G01X24342Y6698D01*
G01X24415Y6771D01*
G01X24488Y6807D01*
G01X24633Y6807D01*
G01X24706Y6771D01*
G01X24779Y6698D01*
G01X24815Y6625D01*
G01X24851Y6516D01*
G01X24851Y6334D01*
G01X24815Y6225D01*
G01X24779Y6152D01*
G01X24706Y6080D01*
G01X24633Y6043D01*
G01X24488Y6043D01*
G01X24415Y6080D01*
G01X24342Y6152D01*
G01X24306Y6225D01*
G01X23629Y6552D02*
G01X23629Y6043D01*
G01X23629Y6443D02*
G01X23702Y6516D01*
G01X23775Y6552D01*
G01X23884Y6552D01*
G01X23957Y6516D01*
G01X24029Y6443D01*
G01X24066Y6334D01*
G01X24066Y6261D01*
G01X24029Y6152D01*
G01X23957Y6080D01*
G01X23884Y6043D01*
G01X23775Y6043D01*
G01X23702Y6080D01*
G01X23629Y6152D01*
G01X23389Y6552D02*
G01X23389Y6043D01*
G01X23389Y6334D02*
G01X23353Y6443D01*
G01X23280Y6516D01*
G01X23208Y6552D01*
G01X23099Y6552D01*
G01X22859Y6552D02*
G01X22859Y6043D01*
G01X22859Y6407D02*
G01X22749Y6516D01*
G01X22677Y6552D01*
G01X22568Y6552D01*
G01X22495Y6516D01*
G01X22459Y6407D01*
G01X22459Y6043D01*
G01X22459Y6407D02*
G01X22349Y6516D01*
G01X22277Y6552D01*
G01X22168Y6552D01*
G01X22095Y6516D01*
G01X22059Y6407D01*
G01X22059Y6043D01*
G01X21819Y6334D02*
G01X21382Y6334D01*
G01X21382Y6407D01*
G01X21419Y6480D01*
G01X21455Y6516D01*
G01X21528Y6552D01*
G01X21637Y6552D01*
G01X21709Y6516D01*
G01X21782Y6443D01*
G01X21819Y6334D01*
G01X21819Y6261D01*
G01X21782Y6152D01*
G01X21709Y6080D01*
G01X21637Y6043D01*
G01X21528Y6043D01*
G01X21455Y6080D01*
G01X21382Y6152D01*
G01X21142Y6552D02*
G01X21142Y6043D01*
G01X21142Y6407D02*
G01X21033Y6516D01*
G01X20960Y6552D01*
G01X20851Y6552D01*
G01X20779Y6516D01*
G01X20742Y6407D01*
G01X20742Y6043D01*
G01X19397Y6625D02*
G01X19433Y6698D01*
G01X19506Y6771D01*
G01X19579Y6807D01*
G01X19724Y6807D01*
G01X19797Y6771D01*
G01X19869Y6698D01*
G01X19906Y6625D01*
G01X19942Y6516D01*
G01X19942Y6334D01*
G01X19906Y6225D01*
G01X19869Y6152D01*
G01X19797Y6080D01*
G01X19724Y6043D01*
G01X19579Y6043D01*
G01X19506Y6080D01*
G01X19433Y6152D01*
G01X19397Y6225D01*
G01X18975Y6552D02*
G01X19048Y6516D01*
G01X19120Y6443D01*
G01X19157Y6334D01*
G01X19157Y6261D01*
G01X19120Y6152D01*
G01X19048Y6080D01*
G01X18975Y6043D01*
G01X18866Y6043D01*
G01X18793Y6080D01*
G01X18720Y6152D01*
G01X18684Y6261D01*
G01X18684Y6334D01*
G01X18720Y6443D01*
G01X18793Y6516D01*
G01X18866Y6552D01*
G01X18975Y6552D01*
G01X18408Y6552D02*
G01X18189Y6043D01*
G01X17971Y6552D02*
G01X18189Y6043D01*
G01X18262Y5898D01*
G01X18335Y5825D01*
G01X18408Y5789D01*
G01X18444Y5789D01*
G01X17295Y6552D02*
G01X17295Y6043D01*
G01X17295Y6443D02*
G01X17368Y6516D01*
G01X17440Y6552D01*
G01X17549Y6552D01*
G01X17622Y6516D01*
G01X17695Y6443D01*
G01X17731Y6334D01*
G01X17731Y6261D01*
G01X17695Y6152D01*
G01X17622Y6080D01*
G01X17549Y6043D01*
G01X17440Y6043D01*
G01X17368Y6080D01*
G01X17295Y6152D01*
G01X27929Y8087D02*
G01X28219Y7323D01*
G01X27929Y8087D02*
G01X27638Y7323D01*
G01X28110Y7578D02*
G01X27747Y7578D01*
G01X27398Y7832D02*
G01X27398Y7323D01*
G01X27398Y7687D02*
G01X27289Y7796D01*
G01X27216Y7832D01*
G01X27107Y7832D01*
G01X27034Y7796D01*
G01X26998Y7687D01*
G01X26998Y7323D01*
G01X26321Y7832D02*
G01X26321Y7251D01*
G01X26358Y7141D01*
G01X26394Y7105D01*
G01X26467Y7069D01*
G01X26576Y7069D01*
G01X26649Y7105D01*
G01X26321Y7723D02*
G01X26394Y7796D01*
G01X26467Y7832D01*
G01X26576Y7832D01*
G01X26649Y7796D01*
G01X26721Y7723D01*
G01X26758Y7614D01*
G01X26758Y7541D01*
G01X26721Y7432D01*
G01X26649Y7360D01*
G01X26576Y7323D01*
G01X26467Y7323D01*
G01X26394Y7360D01*
G01X26321Y7432D01*
G01X26081Y7614D02*
G01X25645Y7614D01*
G01X25645Y7687D01*
G01X25681Y7760D01*
G01X25718Y7796D01*
G01X25790Y7832D01*
G01X25899Y7832D01*
G01X25972Y7796D01*
G01X26045Y7723D01*
G01X26081Y7614D01*
G01X26081Y7541D01*
G01X26045Y7432D01*
G01X25972Y7360D01*
G01X25899Y7323D01*
G01X25790Y7323D01*
G01X25718Y7360D01*
G01X25645Y7432D01*
G01X25405Y8087D02*
G01X25405Y7323D01*
G01X24605Y8087D02*
G01X24605Y7323D01*
G01X24605Y7323D02*
G01X24169Y7323D01*
G01X23929Y7832D02*
G01X23929Y7469D01*
G01X23892Y7360D01*
G01X23819Y7323D01*
G01X23710Y7323D01*
G01X23638Y7360D01*
G01X23529Y7469D01*
G01X23529Y7832D02*
G01X23529Y7323D01*
G01X23289Y8087D02*
G01X23252Y8051D01*
G01X23216Y8087D01*
G01X23252Y8123D01*
G01X23289Y8087D01*
G01X23252Y7832D02*
G01X23252Y7323D01*
G01X22576Y7723D02*
G01X22612Y7796D01*
G01X22721Y7832D01*
G01X22830Y7832D01*
G01X22939Y7796D01*
G01X22976Y7723D01*
G01X22939Y7651D01*
G01X22867Y7614D01*
G01X22685Y7578D01*
G01X22612Y7541D01*
G01X22576Y7469D01*
G01X22576Y7432D01*
G01X22612Y7360D01*
G01X22721Y7323D01*
G01X22830Y7323D01*
G01X22939Y7360D01*
G01X22976Y7432D01*
G01X21485Y8087D02*
G01X21776Y7323D01*
G01X21485Y8087D02*
G01X21194Y7323D01*
G01X21667Y7578D02*
G01X21303Y7578D01*
G01X20954Y8087D02*
G01X20954Y7323D01*
G01X20714Y7832D02*
G01X20496Y7323D01*
G01X20278Y7832D02*
G01X20496Y7323D01*
G01X19601Y7832D02*
G01X19601Y7323D01*
G01X19601Y7723D02*
G01X19674Y7796D01*
G01X19747Y7832D01*
G01X19856Y7832D01*
G01X19929Y7796D01*
G01X20001Y7723D01*
G01X20038Y7614D01*
G01X20038Y7541D01*
G01X20001Y7432D01*
G01X19929Y7360D01*
G01X19856Y7323D01*
G01X19747Y7323D01*
G01X19674Y7360D01*
G01X19601Y7432D01*
G01X19361Y7832D02*
G01X19361Y7323D01*
G01X19361Y7614D02*
G01X19325Y7723D01*
G01X19252Y7796D01*
G01X19179Y7832D01*
G01X19070Y7832D01*
G01X18830Y7614D02*
G01X18394Y7614D01*
G01X18394Y7687D01*
G01X18430Y7760D01*
G01X18467Y7796D01*
G01X18539Y7832D01*
G01X18649Y7832D01*
G01X18721Y7796D01*
G01X18794Y7723D01*
G01X18830Y7614D01*
G01X18830Y7541D01*
G01X18794Y7432D01*
G01X18721Y7360D01*
G01X18649Y7323D01*
G01X18539Y7323D01*
G01X18467Y7360D01*
G01X18394Y7432D01*
G01X17754Y7832D02*
G01X18154Y7323D01*
G01X18154Y7832D02*
G01X17754Y7832D01*
G01X18154Y7323D02*
G01X17754Y7323D01*
G01X29564Y9375D02*
G01X29600Y9448D01*
G01X29673Y9520D01*
G01X29746Y9557D01*
G01X29891Y9557D01*
G01X29964Y9520D01*
G01X30037Y9448D01*
G01X30073Y9375D01*
G01X30109Y9266D01*
G01X30109Y9084D01*
G01X30073Y8975D01*
G01X30037Y8902D01*
G01X29964Y8830D01*
G01X29891Y8793D01*
G01X29746Y8793D01*
G01X29673Y8830D01*
G01X29600Y8902D01*
G01X29564Y8975D01*
G01X29564Y9084D01*
G01X29746Y9084D02*
G01X29564Y9084D01*
G01X29324Y9302D02*
G01X29324Y8793D01*
G01X29324Y9084D02*
G01X29288Y9193D01*
G01X29215Y9266D01*
G01X29142Y9302D01*
G01X29033Y9302D01*
G01X28357Y9302D02*
G01X28357Y8793D01*
G01X28357Y9193D02*
G01X28429Y9266D01*
G01X28502Y9302D01*
G01X28611Y9302D01*
G01X28684Y9266D01*
G01X28757Y9193D01*
G01X28793Y9084D01*
G01X28793Y9011D01*
G01X28757Y8902D01*
G01X28684Y8830D01*
G01X28611Y8793D01*
G01X28502Y8793D01*
G01X28429Y8830D01*
G01X28357Y8902D01*
G01X27680Y9193D02*
G01X27753Y9266D01*
G01X27826Y9302D01*
G01X27935Y9302D01*
G01X28008Y9266D01*
G01X28080Y9193D01*
G01X28117Y9084D01*
G01X28117Y9011D01*
G01X28080Y8902D01*
G01X28008Y8830D01*
G01X27935Y8793D01*
G01X27826Y8793D01*
G01X27753Y8830D01*
G01X27680Y8902D01*
G01X27440Y9557D02*
G01X27404Y9520D01*
G01X27368Y9557D01*
G01X27404Y9593D01*
G01X27440Y9557D01*
G01X27404Y9302D02*
G01X27404Y8793D01*
G01X26691Y9302D02*
G01X26691Y8793D01*
G01X26691Y9193D02*
G01X26764Y9266D01*
G01X26837Y9302D01*
G01X26946Y9302D01*
G01X27019Y9266D01*
G01X27091Y9193D01*
G01X27128Y9084D01*
G01X27128Y9011D01*
G01X27091Y8902D01*
G01X27019Y8830D01*
G01X26946Y8793D01*
G01X26837Y8793D01*
G01X26764Y8830D01*
G01X26691Y8902D01*
G01X26451Y9302D02*
G01X26451Y8793D01*
G01X26451Y9157D02*
G01X26342Y9266D01*
G01X26269Y9302D01*
G01X26160Y9302D01*
G01X26088Y9266D01*
G01X26051Y9157D01*
G01X26051Y8793D01*
G01X25629Y9302D02*
G01X25702Y9266D01*
G01X25775Y9193D01*
G01X25811Y9084D01*
G01X25811Y9011D01*
G01X25775Y8902D01*
G01X25702Y8830D01*
G01X25629Y8793D01*
G01X25520Y8793D01*
G01X25448Y8830D01*
G01X25375Y8902D01*
G01X25339Y9011D01*
G01X25339Y9084D01*
G01X25375Y9193D01*
G01X25448Y9266D01*
G01X25520Y9302D01*
G01X25629Y9302D01*
G01X24539Y9557D02*
G01X24539Y8793D01*
G01X24539Y9557D02*
G01X24248Y8793D01*
G01X23957Y9557D02*
G01X24248Y8793D01*
G01X23957Y9557D02*
G01X23957Y8793D01*
G01X23280Y9302D02*
G01X23280Y8793D01*
G01X23280Y9193D02*
G01X23353Y9266D01*
G01X23426Y9302D01*
G01X23535Y9302D01*
G01X23608Y9266D01*
G01X23680Y9193D01*
G01X23717Y9084D01*
G01X23717Y9011D01*
G01X23680Y8902D01*
G01X23608Y8830D01*
G01X23535Y8793D01*
G01X23426Y8793D01*
G01X23353Y8830D01*
G01X23280Y8902D01*
G01X23040Y9302D02*
G01X23040Y8793D01*
G01X23040Y9084D02*
G01X23004Y9193D01*
G01X22931Y9266D01*
G01X22859Y9302D01*
G01X22749Y9302D01*
G01X22400Y9557D02*
G01X22400Y8939D01*
G01X22364Y8830D01*
G01X22291Y8793D01*
G01X22219Y8793D01*
G01X22509Y9302D02*
G01X22255Y9302D01*
G01X21979Y9557D02*
G01X21942Y9520D01*
G01X21906Y9557D01*
G01X21942Y9593D01*
G01X21979Y9557D01*
G01X21942Y9302D02*
G01X21942Y8793D01*
G01X21666Y9302D02*
G01X21666Y8793D01*
G01X21666Y9157D02*
G01X21557Y9266D01*
G01X21484Y9302D01*
G01X21375Y9302D01*
G01X21302Y9266D01*
G01X21266Y9157D01*
G01X21266Y8793D01*
G01X21026Y9084D02*
G01X20589Y9084D01*
G01X20589Y9157D01*
G01X20626Y9230D01*
G01X20662Y9266D01*
G01X20735Y9302D01*
G01X20844Y9302D01*
G01X20917Y9266D01*
G01X20989Y9193D01*
G01X21026Y9084D01*
G01X21026Y9011D01*
G01X20989Y8902D01*
G01X20917Y8830D01*
G01X20844Y8793D01*
G01X20735Y8793D01*
G01X20662Y8830D01*
G01X20589Y8902D01*
G01X19949Y9302D02*
G01X20349Y8793D01*
G01X20349Y9302D02*
G01X19949Y9302D01*
G01X20349Y8793D02*
G01X19949Y8793D01*
G01X19149Y9557D02*
G01X19149Y8793D01*
G01X19149Y9557D02*
G01X18677Y9557D01*
G01X19149Y9193D02*
G01X18859Y9193D01*
G01X18437Y9302D02*
G01X18437Y8939D01*
G01X18400Y8830D01*
G01X18328Y8793D01*
G01X18219Y8793D01*
G01X18146Y8830D01*
G01X18037Y8939D01*
G01X18037Y9302D02*
G01X18037Y8793D01*
G01X17797Y9084D02*
G01X17360Y9084D01*
G01X17360Y9157D01*
G01X17397Y9230D01*
G01X17433Y9266D01*
G01X17506Y9302D01*
G01X17615Y9302D01*
G01X17688Y9266D01*
G01X17760Y9193D01*
G01X17797Y9084D01*
G01X17797Y9011D01*
G01X17760Y8902D01*
G01X17688Y8830D01*
G01X17615Y8793D01*
G01X17506Y8793D01*
G01X17433Y8830D01*
G01X17360Y8902D01*
G01X17120Y9302D02*
G01X17120Y8793D01*
G01X17120Y9157D02*
G01X17011Y9266D01*
G01X16939Y9302D01*
G01X16829Y9302D01*
G01X16757Y9266D01*
G01X16720Y9157D01*
G01X16720Y8793D01*
G01X16371Y9557D02*
G01X16371Y8939D01*
G01X16335Y8830D01*
G01X16262Y8793D01*
G01X16189Y8793D01*
G01X16480Y9302D02*
G01X16226Y9302D01*
G01X15949Y9084D02*
G01X15513Y9084D01*
G01X15513Y9157D01*
G01X15549Y9230D01*
G01X15586Y9266D01*
G01X15659Y9302D01*
G01X15768Y9302D01*
G01X15840Y9266D01*
G01X15913Y9193D01*
G01X15949Y9084D01*
G01X15949Y9011D01*
G01X15913Y8902D01*
G01X15840Y8830D01*
G01X15768Y8793D01*
G01X15659Y8793D01*
G01X15586Y8830D01*
G01X15513Y8902D01*
G01X24121Y2697D02*
G01X24194Y2661D01*
G01X24267Y2588D01*
G01X24303Y2515D01*
G01X24339Y2406D01*
G01X24339Y2224D01*
G01X24303Y2115D01*
G01X24267Y2042D01*
G01X24194Y1970D01*
G01X24121Y1933D01*
G01X23976Y1933D01*
G01X23903Y1970D01*
G01X23830Y2042D01*
G01X23794Y2115D01*
G01X23758Y2224D01*
G01X23758Y2406D01*
G01X23794Y2515D01*
G01X23830Y2588D01*
G01X23903Y2661D01*
G01X23976Y2697D01*
G01X24121Y2697D01*
G01X23118Y2333D02*
G01X23154Y2406D01*
G01X23263Y2442D01*
G01X23372Y2442D01*
G01X23481Y2406D01*
G01X23518Y2333D01*
G01X23481Y2261D01*
G01X23409Y2224D01*
G01X23227Y2188D01*
G01X23154Y2151D01*
G01X23118Y2079D01*
G01X23118Y2042D01*
G01X23154Y1970D01*
G01X23263Y1933D01*
G01X23372Y1933D01*
G01X23481Y1970D01*
G01X23518Y2042D01*
G01X22441Y2333D02*
G01X22514Y2406D01*
G01X22587Y2442D01*
G01X22696Y2442D01*
G01X22769Y2406D01*
G01X22841Y2333D01*
G01X22878Y2224D01*
G01X22878Y2151D01*
G01X22841Y2042D01*
G01X22769Y1970D01*
G01X22696Y1933D01*
G01X22587Y1933D01*
G01X22514Y1970D01*
G01X22441Y2042D01*
G01X21765Y2442D02*
G01X21765Y1933D01*
G01X21765Y2333D02*
G01X21838Y2406D01*
G01X21910Y2442D01*
G01X22019Y2442D01*
G01X22092Y2406D01*
G01X22165Y2333D01*
G01X22201Y2224D01*
G01X22201Y2151D01*
G01X22165Y2042D01*
G01X22092Y1970D01*
G01X22019Y1933D01*
G01X21910Y1933D01*
G01X21838Y1970D01*
G01X21765Y2042D01*
G01X21525Y2442D02*
G01X21525Y1933D01*
G01X21525Y2224D02*
G01X21489Y2333D01*
G01X21416Y2406D01*
G01X21343Y2442D01*
G01X21234Y2442D01*
G01X20434Y2697D02*
G01X20434Y1933D01*
G01X20434Y1933D02*
G01X19998Y1933D01*
G01X19721Y2115D02*
G01X19758Y2079D01*
G01X19721Y2042D01*
G01X19685Y2079D01*
G01X19721Y2115D01*
G01X25524Y1335D02*
G01X25560Y1408D01*
G01X25633Y1481D01*
G01X25706Y1517D01*
G01X25851Y1517D01*
G01X25924Y1481D01*
G01X25997Y1408D01*
G01X26033Y1335D01*
G01X26069Y1226D01*
G01X26069Y1044D01*
G01X26033Y935D01*
G01X25997Y862D01*
G01X25924Y790D01*
G01X25851Y753D01*
G01X25706Y753D01*
G01X25633Y790D01*
G01X25560Y862D01*
G01X25524Y935D01*
G01X25524Y1044D01*
G01X25706Y1044D02*
G01X25524Y1044D01*
G01X25284Y1044D02*
G01X24848Y1044D01*
G01X24848Y1117D01*
G01X24884Y1190D01*
G01X24920Y1226D01*
G01X24993Y1262D01*
G01X25102Y1262D01*
G01X25175Y1226D01*
G01X25248Y1153D01*
G01X25284Y1044D01*
G01X25284Y971D01*
G01X25248Y862D01*
G01X25175Y790D01*
G01X25102Y753D01*
G01X24993Y753D01*
G01X24920Y790D01*
G01X24848Y862D01*
G01X24608Y1262D02*
G01X24608Y753D01*
G01X24608Y1044D02*
G01X24571Y1153D01*
G01X24499Y1226D01*
G01X24426Y1262D01*
G01X24317Y1262D01*
G01X24077Y1262D02*
G01X24077Y753D01*
G01X24077Y1117D02*
G01X23968Y1226D01*
G01X23895Y1262D01*
G01X23786Y1262D01*
G01X23713Y1226D01*
G01X23677Y1117D01*
G01X23677Y753D01*
G01X23677Y1117D02*
G01X23568Y1226D01*
G01X23495Y1262D01*
G01X23386Y1262D01*
G01X23313Y1226D01*
G01X23277Y1117D01*
G01X23277Y753D01*
G01X22600Y1262D02*
G01X22600Y753D01*
G01X22600Y1153D02*
G01X22673Y1226D01*
G01X22746Y1262D01*
G01X22855Y1262D01*
G01X22928Y1226D01*
G01X23000Y1153D01*
G01X23037Y1044D01*
G01X23037Y971D01*
G01X23000Y862D01*
G01X22928Y790D01*
G01X22855Y753D01*
G01X22746Y753D01*
G01X22673Y790D01*
G01X22600Y862D01*
G01X22360Y1262D02*
G01X22360Y753D01*
G01X22360Y1117D02*
G01X22251Y1226D01*
G01X22179Y1262D01*
G01X22069Y1262D01*
G01X21997Y1226D01*
G01X21960Y1117D01*
G01X21960Y753D01*
G01X21160Y1517D02*
G01X21160Y753D01*
G01X21160Y1517D02*
G01X20869Y753D01*
G01X20579Y1517D02*
G01X20869Y753D01*
G01X20579Y1517D02*
G01X20579Y753D01*
G01X19902Y1262D02*
G01X19902Y753D01*
G01X19902Y1153D02*
G01X19975Y1226D01*
G01X20048Y1262D01*
G01X20157Y1262D01*
G01X20229Y1226D01*
G01X20302Y1153D01*
G01X20339Y1044D01*
G01X20339Y971D01*
G01X20302Y862D01*
G01X20229Y790D01*
G01X20157Y753D01*
G01X20048Y753D01*
G01X19975Y790D01*
G01X19902Y862D01*
G01X19662Y1262D02*
G01X19662Y753D01*
G01X19662Y1044D02*
G01X19626Y1153D01*
G01X19553Y1226D01*
G01X19480Y1262D01*
G01X19371Y1262D01*
G01X19022Y1517D02*
G01X19022Y899D01*
G01X18986Y790D01*
G01X18913Y753D01*
G01X18840Y753D01*
G01X19131Y1262D02*
G01X18877Y1262D01*
G01X18600Y1517D02*
G01X18564Y1481D01*
G01X18528Y1517D01*
G01X18564Y1553D01*
G01X18600Y1517D01*
G01X18564Y1262D02*
G01X18564Y753D01*
G01X18288Y1262D02*
G01X18288Y753D01*
G01X18288Y1117D02*
G01X18179Y1226D01*
G01X18106Y1262D01*
G01X17997Y1262D01*
G01X17924Y1226D01*
G01X17888Y1117D01*
G01X17888Y753D01*
G01X30089Y45067D02*
G01X30089Y44303D01*
G01X30089Y45067D02*
G01X29617Y45067D01*
G01X30089Y44703D02*
G01X29799Y44703D01*
G01X29159Y45067D02*
G01X29231Y45030D01*
G01X29304Y44958D01*
G01X29340Y44885D01*
G01X29377Y44776D01*
G01X29377Y44594D01*
G01X29340Y44485D01*
G01X29304Y44412D01*
G01X29231Y44340D01*
G01X29159Y44303D01*
G01X29013Y44303D01*
G01X28940Y44340D01*
G01X28868Y44412D01*
G01X28831Y44485D01*
G01X28795Y44594D01*
G01X28795Y44776D01*
G01X28831Y44885D01*
G01X28868Y44958D01*
G01X28940Y45030D01*
G01X29013Y45067D01*
G01X29159Y45067D01*
G01X28046Y44958D02*
G01X28119Y45030D01*
G01X28228Y45067D01*
G01X28373Y45067D01*
G01X28482Y45030D01*
G01X28555Y44958D01*
G01X28555Y44885D01*
G01X28519Y44812D01*
G01X28482Y44776D01*
G01X28409Y44740D01*
G01X28191Y44667D01*
G01X28119Y44630D01*
G01X28082Y44594D01*
G01X28046Y44521D01*
G01X28046Y44412D01*
G01X28119Y44340D01*
G01X28228Y44303D01*
G01X28373Y44303D01*
G01X28482Y44340D01*
G01X28555Y44412D01*
G01X27297Y44958D02*
G01X27369Y45030D01*
G01X27479Y45067D01*
G01X27624Y45067D01*
G01X27733Y45030D01*
G01X27806Y44958D01*
G01X27806Y44885D01*
G01X27769Y44812D01*
G01X27733Y44776D01*
G01X27660Y44740D01*
G01X27442Y44667D01*
G01X27369Y44630D01*
G01X27333Y44594D01*
G01X27297Y44521D01*
G01X27297Y44412D01*
G01X27369Y44340D01*
G01X27479Y44303D01*
G01X27624Y44303D01*
G01X27733Y44340D01*
G01X27806Y44412D01*
G01X27057Y44630D02*
G01X26402Y44630D01*
G01X26162Y44921D02*
G01X26089Y44958D01*
G01X25980Y45067D01*
G01X25980Y44303D01*
G01X25740Y45067D02*
G01X25740Y44303D01*
G01X25740Y45067D02*
G01X25413Y45067D01*
G01X25304Y45030D01*
G01X25268Y44994D01*
G01X25231Y44921D01*
G01X25231Y44849D01*
G01X25268Y44776D01*
G01X25304Y44740D01*
G01X25413Y44703D01*
G01X25740Y44703D02*
G01X25413Y44703D01*
G01X25304Y44667D01*
G01X25268Y44630D01*
G01X25231Y44558D01*
G01X25231Y44449D01*
G01X25268Y44376D01*
G01X25304Y44340D01*
G01X25413Y44303D01*
G01X25740Y44303D01*
G01X23922Y45067D02*
G01X24431Y44303D01*
G01X24431Y45067D02*
G01X23922Y45067D01*
G01X24431Y44303D02*
G01X23922Y44303D01*
G01X23682Y44049D02*
G01X23028Y44049D01*
G01X22788Y45067D02*
G01X22788Y44303D01*
G01X22788Y45067D02*
G01X22460Y45067D01*
G01X22351Y45030D01*
G01X22315Y44994D01*
G01X22279Y44921D01*
G01X22279Y44812D01*
G01X22315Y44740D01*
G01X22351Y44703D01*
G01X22460Y44667D01*
G01X22788Y44667D01*
G01X21748Y45067D02*
G01X22039Y44303D01*
G01X21748Y45067D02*
G01X21457Y44303D01*
G01X21929Y44558D02*
G01X21566Y44558D01*
G01X21217Y45067D02*
G01X21217Y44303D01*
G01X21217Y45067D02*
G01X20708Y44303D01*
G01X20708Y45067D02*
G01X20708Y44303D01*
G01X20468Y45067D02*
G01X20468Y44303D01*
G01X20468Y45067D02*
G01X19995Y45067D01*
G01X20468Y44703D02*
G01X20177Y44703D01*
G01X20468Y44303D02*
G01X19995Y44303D01*
G01X19755Y45067D02*
G01X19755Y44303D01*
G01X19755Y44303D02*
G01X19319Y44303D01*
G01X18482Y44885D02*
G01X18482Y44921D01*
G01X18446Y44994D01*
G01X18409Y45030D01*
G01X18337Y45067D01*
G01X18191Y45067D01*
G01X18119Y45030D01*
G01X18082Y44994D01*
G01X18046Y44921D01*
G01X18046Y44849D01*
G01X18082Y44776D01*
G01X18155Y44667D01*
G01X18519Y44303D01*
G01X18009Y44303D01*
G01X17551Y45067D02*
G01X17660Y45030D01*
G01X17733Y44921D01*
G01X17769Y44740D01*
G01X17769Y44630D01*
G01X17733Y44449D01*
G01X17660Y44340D01*
G01X17551Y44303D01*
G01X17479Y44303D01*
G01X17369Y44340D01*
G01X17297Y44449D01*
G01X17260Y44630D01*
G01X17260Y44740D01*
G01X17297Y44921D01*
G01X17369Y45030D01*
G01X17479Y45067D01*
G01X17551Y45067D01*
G01X16984Y44885D02*
G01X16984Y44921D01*
G01X16948Y44994D01*
G01X16911Y45030D01*
G01X16839Y45067D01*
G01X16693Y45067D01*
G01X16620Y45030D01*
G01X16584Y44994D01*
G01X16548Y44921D01*
G01X16548Y44849D01*
G01X16584Y44776D01*
G01X16657Y44667D01*
G01X17020Y44303D01*
G01X16511Y44303D01*
G01X16053Y45067D02*
G01X16162Y45030D01*
G01X16235Y44921D01*
G01X16271Y44740D01*
G01X16271Y44630D01*
G01X16235Y44449D01*
G01X16162Y44340D01*
G01X16053Y44303D01*
G01X15980Y44303D01*
G01X15871Y44340D01*
G01X15799Y44449D01*
G01X15762Y44630D01*
G01X15762Y44740D01*
G01X15799Y44921D01*
G01X15871Y45030D01*
G01X15980Y45067D01*
G01X16053Y45067D01*
G01X26236Y43517D02*
G01X26236Y42935D01*
G01X26272Y42826D01*
G01X26309Y42790D01*
G01X26381Y42753D01*
G01X26454Y42753D01*
G01X26527Y42790D01*
G01X26563Y42826D01*
G01X26599Y42935D01*
G01X26599Y43008D01*
G01X25996Y43517D02*
G01X25996Y42753D01*
G01X25996Y42753D02*
G01X25559Y42753D01*
G01X24774Y43335D02*
G01X24810Y43408D01*
G01X24883Y43480D01*
G01X24956Y43517D01*
G01X25101Y43517D01*
G01X25174Y43480D01*
G01X25247Y43408D01*
G01X25283Y43335D01*
G01X25319Y43226D01*
G01X25319Y43044D01*
G01X25283Y42935D01*
G01X25247Y42862D01*
G01X25174Y42790D01*
G01X25101Y42753D01*
G01X24956Y42753D01*
G01X24883Y42790D01*
G01X24810Y42862D01*
G01X24774Y42935D01*
G01X24170Y43517D02*
G01X24170Y42935D01*
G01X24207Y42826D01*
G01X24243Y42790D01*
G01X24316Y42753D01*
G01X24389Y42753D01*
G01X24461Y42790D01*
G01X24498Y42826D01*
G01X24534Y42935D01*
G01X24534Y43008D01*
G01X23930Y43517D02*
G01X23930Y42753D01*
G01X23930Y42753D02*
G01X23494Y42753D01*
G01X22709Y43335D02*
G01X22745Y43408D01*
G01X22818Y43480D01*
G01X22890Y43517D01*
G01X23036Y43517D01*
G01X23109Y43480D01*
G01X23181Y43408D01*
G01X23218Y43335D01*
G01X23254Y43226D01*
G01X23254Y43044D01*
G01X23218Y42935D01*
G01X23181Y42862D01*
G01X23109Y42790D01*
G01X23036Y42753D01*
G01X22890Y42753D01*
G01X22818Y42790D01*
G01X22745Y42862D01*
G01X22709Y42935D01*
G01X22105Y43517D02*
G01X22105Y42935D01*
G01X22141Y42826D01*
G01X22178Y42790D01*
G01X22250Y42753D01*
G01X22323Y42753D01*
G01X22396Y42790D01*
G01X22432Y42826D01*
G01X22469Y42935D01*
G01X22469Y43008D01*
G01X21865Y43517D02*
G01X21865Y42753D01*
G01X21865Y42753D02*
G01X21429Y42753D01*
G01X20643Y43335D02*
G01X20679Y43408D01*
G01X20752Y43480D01*
G01X20825Y43517D01*
G01X20970Y43517D01*
G01X21043Y43480D01*
G01X21116Y43408D01*
G01X21152Y43335D01*
G01X21189Y43226D01*
G01X21189Y43044D01*
G01X21152Y42935D01*
G01X21116Y42862D01*
G01X21043Y42790D01*
G01X20970Y42753D01*
G01X20825Y42753D01*
G01X20752Y42790D01*
G01X20679Y42862D01*
G01X20643Y42935D01*
G01X20039Y43517D02*
G01X20039Y42935D01*
G01X20076Y42826D01*
G01X20112Y42790D01*
G01X20185Y42753D01*
G01X20258Y42753D01*
G01X20330Y42790D01*
G01X20367Y42826D01*
G01X20403Y42935D01*
G01X20403Y43008D01*
G01X19799Y43517D02*
G01X19799Y42753D01*
G01X19799Y42753D02*
G01X19363Y42753D01*
G01X18578Y43335D02*
G01X18614Y43408D01*
G01X18687Y43480D01*
G01X18759Y43517D01*
G01X18905Y43517D01*
G01X18978Y43480D01*
G01X19050Y43408D01*
G01X19087Y43335D01*
G01X19123Y43226D01*
G01X19123Y43044D01*
G01X19087Y42935D01*
G01X19050Y42862D01*
G01X18978Y42790D01*
G01X18905Y42753D01*
G01X18759Y42753D01*
G01X18687Y42790D01*
G01X18614Y42862D01*
G01X18578Y42935D01*
M00*
M02*
