G04 Layer: TopLayer*
G04 EasyEDA v6.3.22, 2020-01-22T11:07:26+01:00*
G04 c2129058598944f0bb6b3e408993b306,6ac03ef627a24f5ab7c901ca926ad83b,10*
G04 Gerber Generator version 0.2*
G04 Scale: 100 percent, Rotated: No, Reflected: No *
G04 Dimensions in millimeters *
G04 leading zeros omitted , absolute positions ,3 integer and 3 decimal *
%FSLAX33Y33*%
%MOMM*%
G90*
G71D02*

%ADD11C,1.999996*%
%ADD12C,0.499999*%
%ADD13C,0.599999*%
%ADD14C,0.799998*%
%ADD16R,3.499993X8.000009*%
%ADD17R,8.000009X3.499993*%
%ADD18C,3.499993*%

%LPD*%
G54D11*
G01X11569Y29279D02*
G01X11569Y34049D01*
G01X4579Y34049D01*
G01X11590Y4229D02*
G01X11569Y29279D01*
G01X11678Y41648D02*
G01X11569Y41539D01*
G01X11569Y35310D01*
G01X11569Y35310D02*
G01X11569Y29279D01*
G54D12*
G01X20078Y36429D02*
G01X20109Y36398D01*
G01X21229Y36398D01*
G01X21229Y35449D02*
G01X23929Y35449D01*
G54D11*
G01X34180Y41648D02*
G01X34079Y41547D01*
G01X34069Y35639D01*
G01X34070Y35640D02*
G01X34090Y35620D01*
G01X34090Y4230D01*
G01X41409Y11290D02*
G01X34051Y11290D01*
G01X34051Y12599D01*
G54D13*
G01X25089Y36419D02*
G01X25089Y34819D01*
G01X24770Y34500D01*
G01X23929Y34500D01*
G01X22640Y36970D02*
G01X23209Y36400D01*
G01X23929Y36400D01*
G54D12*
G01X22613Y35450D02*
G01X22613Y32736D01*
G01X22629Y32720D01*
G54D13*
G01X21229Y34500D02*
G01X21229Y32730D01*
G36*
G01X20729Y36674D02*
G01X21730Y36674D01*
G01X21730Y36125D01*
G01X20729Y36125D01*
G01X20729Y36674D01*
G37*
G36*
G01X20729Y35724D02*
G01X21730Y35724D01*
G01X21730Y35175D01*
G01X20729Y35175D01*
G01X20729Y35724D01*
G37*
G36*
G01X20729Y34774D02*
G01X21730Y34774D01*
G01X21730Y34225D01*
G01X20729Y34225D01*
G01X20729Y34774D01*
G37*
G36*
G01X23429Y34774D02*
G01X24430Y34774D01*
G01X24430Y34225D01*
G01X23429Y34225D01*
G01X23429Y34774D01*
G37*
G36*
G01X23429Y36674D02*
G01X24430Y36674D01*
G01X24430Y36125D01*
G01X23429Y36125D01*
G01X23429Y36674D01*
G37*
G36*
G01X23429Y35724D02*
G01X24430Y35724D01*
G01X24430Y35175D01*
G01X23429Y35175D01*
G01X23429Y35724D01*
G37*
G54D16*
G01X34180Y41650D03*
G01X11679Y41650D03*
G01X34089Y4229D03*
G01X11590Y4229D03*
G01X34070Y29279D03*
G01X11569Y29279D03*
G01X34049Y12600D03*
G01X11549Y12600D03*
G54D17*
G01X41409Y11289D03*
G01X41409Y33789D03*
G01X4580Y11549D03*
G01X4580Y34050D03*
G54D16*
G01X33999Y20940D03*
G01X11499Y20940D03*
G54D18*
G01X2199Y43800D03*
G01X7199Y43799D03*
G01X2210Y38810D03*
G01X43809Y43810D03*
G01X38800Y43810D03*
G01X43819Y38840D03*
G01X2230Y7210D03*
G01X2199Y2220D03*
G01X7210Y2220D03*
G01X43809Y2210D03*
G01X38820Y2199D03*
G01X43809Y7199D03*
G54D11*
G01X11569Y35309D03*
G54D14*
G01X20079Y36430D03*
G01X22640Y36970D03*
G01X22629Y32720D03*
G01X25089Y36419D03*
G54D11*
G01X34070Y35640D03*
G01X41509Y33800D03*
G54D14*
G01X21230Y32730D03*
M00*
M02*
