G04 Layer: TopSolderMaskLayer*
G04 EasyEDA v6.3.22, 2020-01-22T11:07:26+01:00*
G04 c2129058598944f0bb6b3e408993b306,6ac03ef627a24f5ab7c901ca926ad83b,10*
G04 Gerber Generator version 0.2*
G04 Scale: 100 percent, Rotated: No, Reflected: No *
G04 Dimensions in millimeters *
G04 leading zeros omitted , absolute positions ,3 integer and 3 decimal *
%FSLAX33Y33*%
%MOMM*%
G90*
G71D02*

%ADD29C,3.703193*%

%LPD*%
G54D29*
G01X2199Y43800D03*
G01X7199Y43799D03*
G01X2210Y38810D03*
G01X43809Y43810D03*
G01X38800Y43810D03*
G01X43819Y38840D03*
G01X2230Y7210D03*
G01X2199Y2220D03*
G01X7210Y2220D03*
G01X43809Y2210D03*
G01X38820Y2199D03*
G01X43809Y7199D03*
G36*
G01X20627Y36022D02*
G01X20627Y36774D01*
G01X21831Y36774D01*
G01X21831Y36022D01*
G01X20627Y36022D01*
G37*
G36*
G01X20627Y35072D02*
G01X20627Y35824D01*
G01X21831Y35824D01*
G01X21831Y35072D01*
G01X20627Y35072D01*
G37*
G36*
G01X20627Y34122D02*
G01X20627Y34874D01*
G01X21831Y34874D01*
G01X21831Y34122D01*
G01X20627Y34122D01*
G37*
G36*
G01X23327Y34122D02*
G01X23327Y34874D01*
G01X24531Y34874D01*
G01X24531Y34122D01*
G01X23327Y34122D01*
G37*
G36*
G01X23327Y36022D02*
G01X23327Y36774D01*
G01X24531Y36774D01*
G01X24531Y36022D01*
G01X23327Y36022D01*
G37*
G36*
G01X23327Y35072D02*
G01X23327Y35824D01*
G01X24531Y35824D01*
G01X24531Y35072D01*
G01X23327Y35072D01*
G37*
G36*
G01X32329Y37549D02*
G01X32329Y45751D01*
G01X36032Y45751D01*
G01X36032Y37549D01*
G01X32329Y37549D01*
G37*
G36*
G01X9827Y37549D02*
G01X9827Y45751D01*
G01X13530Y45751D01*
G01X13530Y37549D01*
G01X9827Y37549D01*
G37*
G36*
G01X32237Y127D02*
G01X32237Y8331D01*
G01X35941Y8331D01*
G01X35941Y127D01*
G01X32237Y127D01*
G37*
G36*
G01X9738Y127D02*
G01X9738Y8331D01*
G01X13441Y8331D01*
G01X13441Y127D01*
G01X9738Y127D01*
G37*
G36*
G01X32217Y25179D02*
G01X32217Y33381D01*
G01X35920Y33381D01*
G01X35920Y25179D01*
G01X32217Y25179D01*
G37*
G36*
G01X9718Y25179D02*
G01X9718Y33381D01*
G01X13421Y33381D01*
G01X13421Y25179D01*
G01X9718Y25179D01*
G37*
G36*
G01X32199Y8499D02*
G01X32199Y16701D01*
G01X35900Y16701D01*
G01X35900Y8499D01*
G01X32199Y8499D01*
G37*
G36*
G01X9697Y8499D02*
G01X9697Y16701D01*
G01X13401Y16701D01*
G01X13401Y8499D01*
G01X9697Y8499D01*
G37*
G36*
G01X37307Y9439D02*
G01X37307Y13142D01*
G01X45511Y13142D01*
G01X45511Y9439D01*
G01X37307Y9439D01*
G37*
G36*
G01X37307Y31938D02*
G01X37307Y35641D01*
G01X45511Y35641D01*
G01X45511Y31938D01*
G01X37307Y31938D01*
G37*
G36*
G01X477Y9698D02*
G01X477Y13401D01*
G01X8681Y13401D01*
G01X8681Y9698D01*
G01X477Y9698D01*
G37*
G36*
G01X477Y32197D02*
G01X477Y35900D01*
G01X8681Y35900D01*
G01X8681Y32197D01*
G01X477Y32197D01*
G37*
G36*
G01X32148Y16838D02*
G01X32148Y25042D01*
G01X35852Y25042D01*
G01X35852Y16838D01*
G01X32148Y16838D01*
G37*
G36*
G01X9649Y16838D02*
G01X9649Y25042D01*
G01X13352Y25042D01*
G01X13352Y16838D01*
G01X9649Y16838D01*
G37*
M00*
M02*
