G04 Layer: TopSilkLayer*
G04 EasyEDA v6.3.22, 2020-01-22T11:07:26+01:00*
G04 6c73b54d2adc4a05a2782a56d08821ed,6ac03ef627a24f5ab7c901ca926ad83b,10*
G04 Gerber Generator version 0.2*
G04 Scale: 100 percent, Rotated: No, Reflected: No *
G04 Dimensions in millimeters *
G04 leading zeros omitted , absolute positions ,3 integer and 3 decimal *
%FSLAX33Y33*%
%MOMM*%
G90*
G71D02*

%ADD22C,0.203200*%

%LPD*%
G54D22*
G01X1479Y43270D02*
G01X1479Y42314D01*
G01X1479Y43270D02*
G01X2071Y43270D01*
G01X1479Y42815D02*
G01X1843Y42815D01*
G01X2643Y43270D02*
G01X2551Y43224D01*
G01X2462Y43132D01*
G01X2417Y43041D01*
G01X2371Y42906D01*
G01X2371Y42678D01*
G01X2417Y42541D01*
G01X2462Y42452D01*
G01X2551Y42360D01*
G01X2643Y42314D01*
G01X2826Y42314D01*
G01X2917Y42360D01*
G01X3006Y42452D01*
G01X3052Y42541D01*
G01X3097Y42678D01*
G01X3097Y42906D01*
G01X3052Y43041D01*
G01X3006Y43132D01*
G01X2917Y43224D01*
G01X2826Y43270D01*
G01X2643Y43270D01*
G01X4035Y43132D02*
G01X3943Y43224D01*
G01X3806Y43270D01*
G01X3626Y43270D01*
G01X3489Y43224D01*
G01X3397Y43132D01*
G01X3397Y43041D01*
G01X3443Y42949D01*
G01X3489Y42906D01*
G01X3580Y42861D01*
G01X3852Y42769D01*
G01X3943Y42723D01*
G01X3989Y42678D01*
G01X4035Y42586D01*
G01X4035Y42452D01*
G01X3943Y42360D01*
G01X3806Y42314D01*
G01X3626Y42314D01*
G01X3489Y42360D01*
G01X3397Y42452D01*
G01X4969Y43132D02*
G01X4881Y43224D01*
G01X4743Y43270D01*
G01X4561Y43270D01*
G01X4426Y43224D01*
G01X4334Y43132D01*
G01X4334Y43041D01*
G01X4380Y42949D01*
G01X4426Y42906D01*
G01X4515Y42861D01*
G01X4789Y42769D01*
G01X4881Y42723D01*
G01X4926Y42678D01*
G01X4969Y42586D01*
G01X4969Y42452D01*
G01X4881Y42360D01*
G01X4743Y42314D01*
G01X4561Y42314D01*
G01X4426Y42360D01*
G01X4334Y42452D01*
G01X5635Y43270D02*
G01X5272Y42314D01*
G01X5635Y43270D02*
G01X5998Y42314D01*
G01X5406Y42632D02*
G01X5861Y42632D01*
G01X6298Y42723D02*
G01X7116Y42723D01*
G01X7415Y43087D02*
G01X7507Y43132D01*
G01X7644Y43270D01*
G01X7644Y42314D01*
G01X7944Y43270D02*
G01X7944Y42314D01*
G01X7944Y43270D02*
G01X8353Y43270D01*
G01X8490Y43224D01*
G01X8533Y43178D01*
G01X8579Y43087D01*
G01X8579Y42995D01*
G01X8533Y42906D01*
G01X8490Y42861D01*
G01X8353Y42815D01*
G01X7944Y42815D02*
G01X8353Y42815D01*
G01X8490Y42769D01*
G01X8533Y42723D01*
G01X8579Y42632D01*
G01X8579Y42495D01*
G01X8533Y42406D01*
G01X8490Y42360D01*
G01X8353Y42314D01*
G01X7944Y42314D01*
M00*
M02*
