G04 Layer: BottomPasteMaskLayer*
G04 EasyEDA v6.3.22, 2020-01-22T11:07:26+01:00*
G04 6c73b54d2adc4a05a2782a56d08821ed,6ac03ef627a24f5ab7c901ca926ad83b,10*
G04 Gerber Generator version 0.2*
G04 Scale: 100 percent, Rotated: No, Reflected: No *
G04 Dimensions in millimeters *
G04 leading zeros omitted , absolute positions ,3 integer and 3 decimal *
%FSLAX33Y33*%
%MOMM*%
G90*
G71D02*

%ADD17R,2.499995X3.499993*%

%LPD*%
G54D17*
G01X26089Y23000D03*
G01X20809Y23000D03*
G36*
G01X26154Y34760D02*
G01X26154Y33460D01*
G01X26704Y33460D01*
G01X26704Y34760D01*
G01X26154Y34760D01*
G37*
G36*
G01X27105Y34760D02*
G01X27105Y33460D01*
G01X27654Y33460D01*
G01X27654Y34760D01*
G01X27105Y34760D01*
G37*
G36*
G01X28054Y34760D02*
G01X28054Y33460D01*
G01X28604Y33460D01*
G01X28604Y34760D01*
G01X28054Y34760D01*
G37*
G36*
G01X28054Y32260D02*
G01X28054Y30960D01*
G01X28604Y30960D01*
G01X28604Y32260D01*
G01X28054Y32260D01*
G37*
G36*
G01X26154Y32260D02*
G01X26154Y30960D01*
G01X26704Y30960D01*
G01X26704Y32260D01*
G01X26154Y32260D01*
G37*
G36*
G01X32324Y34910D02*
G01X32324Y33610D01*
G01X32874Y33610D01*
G01X32874Y34910D01*
G01X32324Y34910D01*
G37*
G36*
G01X33274Y34910D02*
G01X33274Y33610D01*
G01X33824Y33610D01*
G01X33824Y34910D01*
G01X33274Y34910D01*
G37*
G36*
G01X34224Y34910D02*
G01X34224Y33610D01*
G01X34774Y33610D01*
G01X34774Y34910D01*
G01X34224Y34910D01*
G37*
G36*
G01X34224Y32410D02*
G01X34224Y31110D01*
G01X34774Y31110D01*
G01X34774Y32410D01*
G01X34224Y32410D01*
G37*
G36*
G01X32324Y32410D02*
G01X32324Y31110D01*
G01X32874Y31110D01*
G01X32874Y32410D01*
G01X32324Y32410D01*
G37*
G36*
G01X17205Y34679D02*
G01X17205Y33379D01*
G01X17755Y33379D01*
G01X17755Y34679D01*
G01X17205Y34679D01*
G37*
G36*
G01X18155Y34679D02*
G01X18155Y33379D01*
G01X18705Y33379D01*
G01X18705Y34679D01*
G01X18155Y34679D01*
G37*
G36*
G01X19105Y34679D02*
G01X19105Y33379D01*
G01X19655Y33379D01*
G01X19655Y34679D01*
G01X19105Y34679D01*
G37*
G36*
G01X19105Y32179D02*
G01X19105Y30879D01*
G01X19655Y30879D01*
G01X19655Y32179D01*
G01X19105Y32179D01*
G37*
G36*
G01X17205Y32179D02*
G01X17205Y30879D01*
G01X17755Y30879D01*
G01X17755Y32179D01*
G01X17205Y32179D01*
G37*
G36*
G01X11384Y34780D02*
G01X11384Y33480D01*
G01X11934Y33480D01*
G01X11934Y34780D01*
G01X11384Y34780D01*
G37*
G36*
G01X12334Y34780D02*
G01X12334Y33480D01*
G01X12884Y33480D01*
G01X12884Y34780D01*
G01X12334Y34780D01*
G37*
G36*
G01X13284Y34780D02*
G01X13284Y33480D01*
G01X13834Y33480D01*
G01X13834Y34780D01*
G01X13284Y34780D01*
G37*
G36*
G01X13284Y32280D02*
G01X13284Y30980D01*
G01X13834Y30980D01*
G01X13834Y32280D01*
G01X13284Y32280D01*
G37*
G36*
G01X11384Y32280D02*
G01X11384Y30980D01*
G01X11934Y30980D01*
G01X11934Y32280D01*
G01X11384Y32280D01*
G37*
G36*
G01X14970Y34570D02*
G01X14970Y33570D01*
G01X15970Y33570D01*
G01X15970Y34570D01*
G01X14970Y34570D01*
G37*
G36*
G01X14970Y32170D02*
G01X14970Y31170D01*
G01X15970Y31170D01*
G01X15970Y32170D01*
G01X14970Y32170D01*
G37*
G36*
G01X20740Y34570D02*
G01X20740Y33570D01*
G01X21740Y33570D01*
G01X21740Y34570D01*
G01X20740Y34570D01*
G37*
G36*
G01X20740Y32170D02*
G01X20740Y31170D01*
G01X21740Y31170D01*
G01X21740Y32170D01*
G01X20740Y32170D01*
G37*
G36*
G01X29780Y34630D02*
G01X29780Y33630D01*
G01X30780Y33630D01*
G01X30780Y34630D01*
G01X29780Y34630D01*
G37*
G36*
G01X29780Y32230D02*
G01X29780Y31230D01*
G01X30780Y31230D01*
G01X30780Y32230D01*
G01X29780Y32230D01*
G37*
G36*
G01X35930Y34670D02*
G01X35930Y33670D01*
G01X36930Y33670D01*
G01X36930Y34670D01*
G01X35930Y34670D01*
G37*
G36*
G01X35930Y32270D02*
G01X35930Y31270D01*
G01X36930Y31270D01*
G01X36930Y32270D01*
G01X35930Y32270D01*
G37*
G36*
G01X13894Y16430D02*
G01X13894Y17730D01*
G01X13344Y17730D01*
G01X13344Y16430D01*
G01X13894Y16430D01*
G37*
G36*
G01X12944Y16430D02*
G01X12944Y17730D01*
G01X12394Y17730D01*
G01X12394Y16430D01*
G01X12944Y16430D01*
G37*
G36*
G01X11994Y16430D02*
G01X11994Y17730D01*
G01X11444Y17730D01*
G01X11444Y16430D01*
G01X11994Y16430D01*
G37*
G36*
G01X11994Y18930D02*
G01X11994Y20230D01*
G01X11444Y20230D01*
G01X11444Y18930D01*
G01X11994Y18930D01*
G37*
G36*
G01X13894Y18930D02*
G01X13894Y20230D01*
G01X13344Y20230D01*
G01X13344Y18930D01*
G01X13894Y18930D01*
G37*
G36*
G01X13039Y35660D02*
G01X14039Y35660D01*
G01X14039Y36760D01*
G01X13039Y36760D01*
G01X13039Y35660D01*
G37*
G36*
G01X14439Y35660D02*
G01X15439Y35660D01*
G01X15439Y36760D01*
G01X14439Y36760D01*
G01X14439Y35660D01*
G37*
G36*
G01X19099Y35710D02*
G01X20099Y35710D01*
G01X20099Y36810D01*
G01X19099Y36810D01*
G01X19099Y35710D01*
G37*
G36*
G01X20499Y35710D02*
G01X21499Y35710D01*
G01X21499Y36810D01*
G01X20499Y36810D01*
G01X20499Y35710D01*
G37*
G36*
G01X27659Y35700D02*
G01X28659Y35700D01*
G01X28659Y36800D01*
G01X27659Y36800D01*
G01X27659Y35700D01*
G37*
G36*
G01X29059Y35700D02*
G01X30059Y35700D01*
G01X30059Y36800D01*
G01X29059Y36800D01*
G01X29059Y35700D01*
G37*
G36*
G01X33350Y36800D02*
G01X32350Y36800D01*
G01X32350Y35700D01*
G01X33350Y35700D01*
G01X33350Y36800D01*
G37*
G36*
G01X31950Y36800D02*
G01X30950Y36800D01*
G01X30950Y35700D01*
G01X31950Y35700D01*
G01X31950Y36800D01*
G37*
G36*
G01X10249Y16739D02*
G01X10249Y17739D01*
G01X9149Y17739D01*
G01X9149Y16739D01*
G01X10249Y16739D01*
G37*
G36*
G01X10249Y18139D02*
G01X10249Y19139D01*
G01X9149Y19139D01*
G01X9149Y18139D01*
G01X10249Y18139D01*
G37*
G36*
G01X16259Y16640D02*
G01X16259Y17640D01*
G01X15259Y17640D01*
G01X15259Y16640D01*
G01X16259Y16640D01*
G37*
G36*
G01X16259Y19040D02*
G01X16259Y20040D01*
G01X15259Y20040D01*
G01X15259Y19040D01*
G01X16259Y19040D01*
G37*
G36*
G01X13085Y23707D02*
G01X13792Y24414D01*
G01X13014Y25192D01*
G01X12307Y24485D01*
G01X13085Y23707D01*
G37*
G36*
G01X14075Y24697D02*
G01X14782Y25404D01*
G01X14004Y26182D01*
G01X13297Y25475D01*
G01X14075Y24697D01*
G37*
M00*
M02*
