G04 Layer: TopSolderMaskLayer*
G04 EasyEDA v6.3.22, 2020-01-22T11:07:26+01:00*
G04 6c73b54d2adc4a05a2782a56d08821ed,6ac03ef627a24f5ab7c901ca926ad83b,10*
G04 Gerber Generator version 0.2*
G04 Scale: 100 percent, Rotated: No, Reflected: No *
G04 Dimensions in millimeters *
G04 leading zeros omitted , absolute positions ,3 integer and 3 decimal *
%FSLAX33Y33*%
%MOMM*%
G90*
G71D02*

%ADD24C,3.703193*%

%LPD*%
G54D24*
G01X4999Y7140D03*
G01X40999Y7140D03*
G01X41999Y47499D03*
G01X3999Y47499D03*
G36*
G01X32377Y3779D02*
G01X32377Y11981D01*
G01X36080Y11981D01*
G01X36080Y3779D01*
G01X32377Y3779D01*
G37*
G36*
G01X9878Y3779D02*
G01X9878Y11981D01*
G01X13581Y11981D01*
G01X13581Y3779D01*
G01X9878Y3779D01*
G37*
G36*
G01X37508Y12349D02*
G01X37508Y16050D01*
G01X45712Y16050D01*
G01X45712Y12349D01*
G01X37508Y12349D01*
G37*
G36*
G01X37508Y34848D02*
G01X37508Y38552D01*
G01X45712Y38552D01*
G01X45712Y34848D01*
G01X37508Y34848D01*
G37*
G36*
G01X10078Y12349D02*
G01X10078Y16050D01*
G01X18280Y16050D01*
G01X18280Y12349D01*
G01X10078Y12349D01*
G37*
G36*
G01X10078Y34848D02*
G01X10078Y38552D01*
G01X18280Y38552D01*
G01X18280Y34848D01*
G01X10078Y34848D01*
G37*
G36*
G01X838Y12349D02*
G01X838Y16050D01*
G01X9042Y16050D01*
G01X9042Y12349D01*
G01X838Y12349D01*
G37*
G36*
G01X838Y34848D02*
G01X838Y38552D01*
G01X9042Y38552D01*
G01X9042Y34848D01*
G01X838Y34848D01*
G37*
G36*
G01X32268Y40899D02*
G01X32268Y49100D01*
G01X35971Y49100D01*
G01X35971Y40899D01*
G01X32268Y40899D01*
G37*
G36*
G01X9768Y40899D02*
G01X9768Y49100D01*
G01X13472Y49100D01*
G01X13472Y40899D01*
G01X9768Y40899D01*
G37*
G36*
G01X28608Y12349D02*
G01X28608Y16050D01*
G01X36812Y16050D01*
G01X36812Y12349D01*
G01X28608Y12349D01*
G37*
G36*
G01X28608Y34848D02*
G01X28608Y38552D01*
G01X36812Y38552D01*
G01X36812Y34848D01*
G01X28608Y34848D01*
G37*
G36*
G01X19309Y12349D02*
G01X19309Y16050D01*
G01X27510Y16050D01*
G01X27510Y12349D01*
G01X19309Y12349D01*
G37*
G36*
G01X19309Y34848D02*
G01X19309Y38552D01*
G01X27510Y38552D01*
G01X27510Y34848D01*
G01X19309Y34848D01*
G37*
M00*
M02*
