;Layer: Drill PTH
;EasyEDA v6.3.22, 2020-01-22T11:07:26+01:00
;fe9f39e87b364ab5b5230e9583c1109d,6ac03ef627a24f5ab7c901ca926ad83b,10
;Gerber Generator version 0.2
M48
METRIC,LZ,000.000
;Holesize 1 = 0.305 METRIC
T01C0.305
;Holesize 2 = 0.310 METRIC
T02C0.310
;Holesize 3 = 0.316 METRIC
T03C0.316
;Holesize 4 = 0.351 METRIC
T04C0.351
;Holesize 5 = 0.889 METRIC
T05C0.889
;Holesize 6 = 1.200 METRIC
T06C1.200
;Holesize 7 = 2.050 METRIC
T07C2.050
%
G05
G90
T01
X+020509Y+002229
X+025219Y+018670
X+029429Y+009769
X+029319Y+004810
X+034159Y+004750
X+018759Y+002180
X+015120Y+002270
X+013340Y+002260
X+009739Y+002290
X+001070Y+009670
X+001050Y+006009
X+005180Y+006350
X+005210Y+009700
X+005370Y+016260
X+015059Y+024880
X+011189Y+026310
T02
X+020860Y+027029
X+022739Y+022789
T03
X+013759Y+019700
X+012929Y+020149
T04
X+017189Y+021920
X+011320Y+020270
X+016949Y+016230
X+017439Y+018940
X+018839Y+018950
X+024159Y+005870
X+026278Y+010349
X+009759Y+018340
X+020830Y+028759
X+012119Y+024359
X+012780Y+025519
X+011260Y+032599
X+012150Y+033229
X+011889Y+028549
X+013130Y+027670
X+014400Y+029089
X+013400Y+029100
X+020009Y+022849
X+032189Y+014760
X+032180Y+013199
X+028789Y+023329
X+033049Y+034109
X+008679Y+031240
X+001620Y+029320
X+004929Y+028959
X+024759Y+028039
X+026539Y+015959
X+006830Y+022830
X+001620Y+030720
X+004890Y+030380
X+005089Y+033169
X+015720Y+026160
X+023139Y+028249
X+027990Y+028659
X+036040Y+030650
X+028830Y+025229
X+021391Y+019285
X+024809Y+011720
X+024459Y+008840
X+030499Y+015030
X+026169Y+024620
X+022750Y+032409
X+027230Y+033720
X+028199Y+032059
X+031469Y+022329
X+030450Y+023279
X+032869Y+022300
T05
X+036519Y+009790
X+007519Y+036389
X+025479Y+036340
X+022939Y+036340
X+020399Y+036340
X+017859Y+036340
X+015319Y+036340
X+012779Y+036340
T06
X+001499Y+012650
X+001499Y+015190
X+001499Y+017730
X+001499Y+020270
X+001499Y+022810
X+001499Y+025350
X+036500Y+012650
X+036500Y+015190
X+036500Y+017730
X+036500Y+020270
X+036500Y+022810
X+036500Y+025350
T07
X+002499Y+035500
X+035500Y+035500
X+035500Y+002500
X+002499Y+002499
M30
