G04 Layer: TopSolderMaskLayer*
G04 EasyEDA v6.3.22, 2020-01-22T11:07:26+01:00*
G04 fe9f39e87b364ab5b5230e9583c1109d,6ac03ef627a24f5ab7c901ca926ad83b,10*
G04 Gerber Generator version 0.2*
G04 Scale: 100 percent, Rotated: No, Reflected: No *
G04 Dimensions in millimeters *
G04 leading zeros omitted , absolute positions ,3 integer and 3 decimal *
%FSLAX33Y33*%
%MOMM*%
G90*
G71D02*

%ADD54C,1.778000*%
%ADD55C,2.703195*%
%ADD72C,2.003196*%

%LPD*%
G54D54*
G01X36519Y9789D03*
G54D55*
G01X2500Y35499D03*
G01X35500Y35499D03*
G01X35500Y2499D03*
G01X2500Y2499D03*
G54D54*
G01X7519Y36389D03*
G36*
G01X4770Y13542D02*
G01X4770Y14395D01*
G01X5572Y14395D01*
G01X5572Y13542D01*
G01X4770Y13542D01*
G37*
G36*
G01X3921Y13542D02*
G01X3921Y14395D01*
G01X4724Y14395D01*
G01X4724Y13542D01*
G01X3921Y13542D01*
G37*
G36*
G01X24950Y1853D02*
G01X24950Y2706D01*
G01X25753Y2706D01*
G01X25753Y1853D01*
G01X24950Y1853D01*
G37*
G36*
G01X24102Y1853D02*
G01X24102Y2706D01*
G01X24904Y2706D01*
G01X24904Y1853D01*
G01X24102Y1853D01*
G37*
G36*
G01X7650Y28810D02*
G01X7650Y29419D01*
G01X9885Y29419D01*
G01X9885Y28810D01*
G01X7650Y28810D01*
G37*
G36*
G01X7650Y28022D02*
G01X7650Y28632D01*
G01X9885Y28632D01*
G01X9885Y28022D01*
G01X7650Y28022D01*
G37*
G36*
G01X7650Y27210D02*
G01X7650Y27819D01*
G01X9885Y27819D01*
G01X9885Y27210D01*
G01X7650Y27210D01*
G37*
G36*
G01X7650Y26422D02*
G01X7650Y27032D01*
G01X9885Y27032D01*
G01X9885Y26422D01*
G01X7650Y26422D01*
G37*
G36*
G01X7650Y25609D02*
G01X7650Y26219D01*
G01X9885Y26219D01*
G01X9885Y25609D01*
G01X7650Y25609D01*
G37*
G36*
G01X7650Y24822D02*
G01X7650Y25432D01*
G01X9885Y25432D01*
G01X9885Y24822D01*
G01X7650Y24822D01*
G37*
G36*
G01X7650Y24009D02*
G01X7650Y24619D01*
G01X9885Y24619D01*
G01X9885Y24009D01*
G01X7650Y24009D01*
G37*
G36*
G01X7650Y23222D02*
G01X7650Y23831D01*
G01X9885Y23831D01*
G01X9885Y23222D01*
G01X7650Y23222D01*
G37*
G36*
G01X10241Y20631D02*
G01X10241Y22866D01*
G01X10850Y22866D01*
G01X10850Y20631D01*
G01X10241Y20631D01*
G37*
G36*
G01X11028Y20631D02*
G01X11028Y22866D01*
G01X11638Y22866D01*
G01X11638Y20631D01*
G01X11028Y20631D01*
G37*
G36*
G01X11841Y20631D02*
G01X11841Y22866D01*
G01X12451Y22866D01*
G01X12451Y20631D01*
G01X11841Y20631D01*
G37*
G36*
G01X12628Y20631D02*
G01X12628Y22866D01*
G01X13238Y22866D01*
G01X13238Y20631D01*
G01X12628Y20631D01*
G37*
G36*
G01X13441Y20631D02*
G01X13441Y22866D01*
G01X14051Y22866D01*
G01X14051Y20631D01*
G01X13441Y20631D01*
G37*
G36*
G01X14229Y20631D02*
G01X14229Y22866D01*
G01X14838Y22866D01*
G01X14838Y20631D01*
G01X14229Y20631D01*
G37*
G36*
G01X15041Y20631D02*
G01X15041Y22866D01*
G01X15651Y22866D01*
G01X15651Y20631D01*
G01X15041Y20631D01*
G37*
G36*
G01X15829Y20631D02*
G01X15829Y22866D01*
G01X16438Y22866D01*
G01X16438Y20631D01*
G01X15829Y20631D01*
G37*
G36*
G01X16794Y23222D02*
G01X16794Y23831D01*
G01X19029Y23831D01*
G01X19029Y23222D01*
G01X16794Y23222D01*
G37*
G36*
G01X16794Y24009D02*
G01X16794Y24619D01*
G01X19029Y24619D01*
G01X19029Y24009D01*
G01X16794Y24009D01*
G37*
G36*
G01X16794Y24822D02*
G01X16794Y25432D01*
G01X19029Y25432D01*
G01X19029Y24822D01*
G01X16794Y24822D01*
G37*
G36*
G01X16794Y25609D02*
G01X16794Y26219D01*
G01X19029Y26219D01*
G01X19029Y25609D01*
G01X16794Y25609D01*
G37*
G36*
G01X16794Y26422D02*
G01X16794Y27032D01*
G01X19029Y27032D01*
G01X19029Y26422D01*
G01X16794Y26422D01*
G37*
G36*
G01X16794Y27210D02*
G01X16794Y27819D01*
G01X19029Y27819D01*
G01X19029Y27210D01*
G01X16794Y27210D01*
G37*
G36*
G01X16794Y28022D02*
G01X16794Y28632D01*
G01X19029Y28632D01*
G01X19029Y28022D01*
G01X16794Y28022D01*
G37*
G36*
G01X16794Y28810D02*
G01X16794Y29419D01*
G01X19029Y29419D01*
G01X19029Y28810D01*
G01X16794Y28810D01*
G37*
G36*
G01X15829Y29775D02*
G01X15829Y32010D01*
G01X16438Y32010D01*
G01X16438Y29775D01*
G01X15829Y29775D01*
G37*
G36*
G01X15041Y29775D02*
G01X15041Y32010D01*
G01X15651Y32010D01*
G01X15651Y29775D01*
G01X15041Y29775D01*
G37*
G36*
G01X14229Y29775D02*
G01X14229Y32010D01*
G01X14838Y32010D01*
G01X14838Y29775D01*
G01X14229Y29775D01*
G37*
G36*
G01X13441Y29775D02*
G01X13441Y32010D01*
G01X14051Y32010D01*
G01X14051Y29775D01*
G01X13441Y29775D01*
G37*
G36*
G01X12628Y29775D02*
G01X12628Y32010D01*
G01X13238Y32010D01*
G01X13238Y29775D01*
G01X12628Y29775D01*
G37*
G36*
G01X11841Y29775D02*
G01X11841Y32010D01*
G01X12451Y32010D01*
G01X12451Y29775D01*
G01X11841Y29775D01*
G37*
G36*
G01X11028Y29775D02*
G01X11028Y32010D01*
G01X11638Y32010D01*
G01X11638Y29775D01*
G01X11028Y29775D01*
G37*
G36*
G01X10241Y29775D02*
G01X10241Y32010D01*
G01X10850Y32010D01*
G01X10850Y29775D01*
G01X10241Y29775D01*
G37*
G36*
G01X21849Y25909D02*
G01X21849Y27111D01*
G01X23152Y27111D01*
G01X23152Y25909D01*
G01X21849Y25909D01*
G37*
G36*
G01X21849Y24507D02*
G01X21849Y25711D01*
G01X23152Y25711D01*
G01X23152Y24507D01*
G01X21849Y24507D01*
G37*
G36*
G01X967Y30118D02*
G01X967Y31322D01*
G01X2270Y31322D01*
G01X2270Y30118D01*
G01X967Y30118D01*
G37*
G36*
G01X967Y28718D02*
G01X967Y29922D01*
G01X2270Y29922D01*
G01X2270Y28718D01*
G01X967Y28718D01*
G37*
G36*
G01X4259Y29747D02*
G01X4259Y30951D01*
G01X5562Y30951D01*
G01X5562Y29747D01*
G01X4259Y29747D01*
G37*
G36*
G01X4259Y28348D02*
G01X4259Y29551D01*
G01X5562Y29551D01*
G01X5562Y28348D01*
G01X4259Y28348D01*
G37*
G36*
G01X21457Y30407D02*
G01X21457Y31611D01*
G01X22760Y31611D01*
G01X22760Y30407D01*
G01X21457Y30407D01*
G37*
G36*
G01X21457Y29008D02*
G01X21457Y30212D01*
G01X22760Y30212D01*
G01X22760Y29008D01*
G01X21457Y29008D01*
G37*
G36*
G01X24229Y9699D02*
G01X24229Y11002D01*
G01X25430Y11002D01*
G01X25430Y9699D01*
G01X24229Y9699D01*
G37*
G36*
G01X25628Y9699D02*
G01X25628Y11002D01*
G01X26832Y11002D01*
G01X26832Y9699D01*
G01X25628Y9699D01*
G37*
G36*
G01X3759Y21568D02*
G01X3759Y22272D01*
G01X6461Y22272D01*
G01X6461Y21568D01*
G01X3759Y21568D01*
G37*
G36*
G01X4208Y22767D02*
G01X4208Y23471D01*
G01X6012Y23471D01*
G01X6012Y22767D01*
G01X4208Y22767D01*
G37*
G36*
G01X3759Y23966D02*
G01X3759Y24670D01*
G01X6461Y24670D01*
G01X6461Y23966D01*
G01X3759Y23966D01*
G37*
G36*
G01X5908Y34149D02*
G01X5908Y34751D01*
G01X7170Y34751D01*
G01X7170Y34149D01*
G01X5908Y34149D01*
G37*
G36*
G01X5908Y33499D02*
G01X5908Y34101D01*
G01X7170Y34101D01*
G01X7170Y33499D01*
G01X5908Y33499D01*
G37*
G36*
G01X5908Y32838D02*
G01X5908Y33440D01*
G01X7170Y33440D01*
G01X7170Y32838D01*
G01X5908Y32838D01*
G37*
G36*
G01X5908Y32188D02*
G01X5908Y32790D01*
G01X7170Y32790D01*
G01X7170Y32188D01*
G01X5908Y32188D01*
G37*
G36*
G01X8107Y32188D02*
G01X8107Y32790D01*
G01X9372Y32790D01*
G01X9372Y32188D01*
G01X8107Y32188D01*
G37*
G36*
G01X8107Y32838D02*
G01X8107Y33440D01*
G01X9372Y33440D01*
G01X9372Y32838D01*
G01X8107Y32838D01*
G37*
G36*
G01X8107Y33499D02*
G01X8107Y34101D01*
G01X9372Y34101D01*
G01X9372Y33499D01*
G01X8107Y33499D01*
G37*
G36*
G01X8107Y34149D02*
G01X8107Y34751D01*
G01X9372Y34751D01*
G01X9372Y34149D01*
G01X8107Y34149D01*
G37*
G01X25480Y36340D03*
G01X22940Y36340D03*
G01X20400Y36340D03*
G01X17860Y36340D03*
G01X15320Y36340D03*
G36*
G01X11889Y35449D02*
G01X11889Y37227D01*
G01X13667Y37227D01*
G01X13667Y35449D01*
G01X11889Y35449D01*
G37*
G36*
G01X13037Y33077D02*
G01X13037Y34380D01*
G01X14241Y34380D01*
G01X14241Y33077D01*
G01X13037Y33077D01*
G37*
G36*
G01X14437Y33077D02*
G01X14437Y34380D01*
G01X15641Y34380D01*
G01X15641Y33077D01*
G01X14437Y33077D01*
G37*
G36*
G01X19418Y21423D02*
G01X19418Y22175D01*
G01X20622Y22175D01*
G01X20622Y21423D01*
G01X19418Y21423D01*
G37*
G36*
G01X19418Y20474D02*
G01X19418Y21225D01*
G01X20622Y21225D01*
G01X20622Y20474D01*
G01X19418Y20474D01*
G37*
G36*
G01X19418Y19524D02*
G01X19418Y20275D01*
G01X20622Y20275D01*
G01X20622Y19524D01*
G01X19418Y19524D01*
G37*
G36*
G01X22118Y19524D02*
G01X22118Y20275D01*
G01X23322Y20275D01*
G01X23322Y19524D01*
G01X22118Y19524D01*
G37*
G36*
G01X22118Y21423D02*
G01X22118Y22175D01*
G01X23322Y22175D01*
G01X23322Y21423D01*
G01X22118Y21423D01*
G37*
G36*
G01X22118Y20474D02*
G01X22118Y21225D01*
G01X23322Y21225D01*
G01X23322Y20474D01*
G01X22118Y20474D01*
G37*
G36*
G01X360Y6747D02*
G01X360Y9150D01*
G01X1762Y9150D01*
G01X1762Y6747D01*
G01X360Y6747D01*
G37*
G36*
G01X2308Y5648D02*
G01X2308Y7151D01*
G01X3812Y7151D01*
G01X3812Y5648D01*
G01X2308Y5648D01*
G37*
G36*
G01X4361Y6747D02*
G01X4361Y9150D01*
G01X5763Y9150D01*
G01X5763Y6747D01*
G01X4361Y6747D01*
G37*
G36*
G01X19288Y33039D02*
G01X19288Y34342D01*
G01X20492Y34342D01*
G01X20492Y33039D01*
G01X19288Y33039D01*
G37*
G36*
G01X20688Y33039D02*
G01X20688Y34342D01*
G01X21892Y34342D01*
G01X21892Y33039D01*
G01X20688Y33039D01*
G37*
G36*
G01X29547Y23913D02*
G01X29547Y24667D01*
G01X30751Y24667D01*
G01X30751Y23913D01*
G01X29547Y23913D01*
G37*
G36*
G01X29547Y24863D02*
G01X29547Y25617D01*
G01X30751Y25617D01*
G01X30751Y24863D01*
G01X29547Y24863D01*
G37*
G36*
G01X29547Y25813D02*
G01X29547Y26567D01*
G01X30751Y26567D01*
G01X30751Y25813D01*
G01X29547Y25813D01*
G37*
G36*
G01X26847Y25813D02*
G01X26847Y26567D01*
G01X28051Y26567D01*
G01X28051Y25813D01*
G01X26847Y25813D01*
G37*
G36*
G01X26847Y23913D02*
G01X26847Y24667D01*
G01X28051Y24667D01*
G01X28051Y23913D01*
G01X26847Y23913D01*
G37*
G36*
G01X26847Y24863D02*
G01X26847Y25617D01*
G01X28051Y25617D01*
G01X28051Y24863D01*
G01X26847Y24863D01*
G37*
G36*
G01X28818Y28017D02*
G01X28818Y29320D01*
G01X30022Y29320D01*
G01X30022Y28017D01*
G01X28818Y28017D01*
G37*
G36*
G01X27419Y28017D02*
G01X27419Y29320D01*
G01X28620Y29320D01*
G01X28620Y28017D01*
G01X27419Y28017D01*
G37*
G36*
G01X32009Y25048D02*
G01X32009Y26252D01*
G01X33312Y26252D01*
G01X33312Y25048D01*
G01X32009Y25048D01*
G37*
G36*
G01X32009Y23649D02*
G01X32009Y24850D01*
G01X33312Y24850D01*
G01X33312Y23649D01*
G01X32009Y23649D01*
G37*
G36*
G01X23997Y30499D02*
G01X23997Y31700D01*
G01X25300Y31700D01*
G01X25300Y30499D01*
G01X23997Y30499D01*
G37*
G36*
G01X23997Y29097D02*
G01X23997Y30301D01*
G01X25300Y30301D01*
G01X25300Y29097D01*
G01X23997Y29097D01*
G37*
G36*
G01X23233Y17166D02*
G01X23233Y17674D01*
G01X24985Y17674D01*
G01X24985Y17166D01*
G01X23233Y17166D01*
G37*
G36*
G01X23233Y16666D02*
G01X23233Y17174D01*
G01X24985Y17174D01*
G01X24985Y16666D01*
G01X23233Y16666D01*
G37*
G36*
G01X23233Y16166D02*
G01X23233Y16674D01*
G01X24985Y16674D01*
G01X24985Y16166D01*
G01X23233Y16166D01*
G37*
G36*
G01X23233Y15665D02*
G01X23233Y16173D01*
G01X24985Y16173D01*
G01X24985Y15665D01*
G01X23233Y15665D01*
G37*
G36*
G01X23233Y15165D02*
G01X23233Y15673D01*
G01X24985Y15673D01*
G01X24985Y15165D01*
G01X23233Y15165D01*
G37*
G36*
G01X28135Y15165D02*
G01X28135Y15673D01*
G01X29888Y15673D01*
G01X29888Y15165D01*
G01X28135Y15165D01*
G37*
G36*
G01X28135Y15665D02*
G01X28135Y16173D01*
G01X29888Y16173D01*
G01X29888Y15665D01*
G01X28135Y15665D01*
G37*
G36*
G01X28135Y16166D02*
G01X28135Y16674D01*
G01X29888Y16674D01*
G01X29888Y16166D01*
G01X28135Y16166D01*
G37*
G36*
G01X28135Y16666D02*
G01X28135Y17174D01*
G01X29888Y17174D01*
G01X29888Y16666D01*
G01X28135Y16666D01*
G37*
G36*
G01X28135Y17166D02*
G01X28135Y17674D01*
G01X29888Y17674D01*
G01X29888Y17166D01*
G01X28135Y17166D01*
G37*
G36*
G01X31922Y18985D02*
G01X31922Y20347D01*
G01X33576Y20347D01*
G01X33576Y18985D01*
G01X31922Y18985D01*
G37*
G36*
G01X31922Y16953D02*
G01X31922Y18315D01*
G01X33576Y18315D01*
G01X33576Y16953D01*
G01X31922Y16953D01*
G37*
G36*
G01X25598Y12539D02*
G01X25598Y13842D01*
G01X26802Y13842D01*
G01X26802Y12539D01*
G01X25598Y12539D01*
G37*
G36*
G01X24198Y12539D02*
G01X24198Y13842D01*
G01X25402Y13842D01*
G01X25402Y12539D01*
G01X24198Y12539D01*
G37*
G36*
G01X24317Y25937D02*
G01X24317Y27141D01*
G01X25620Y27141D01*
G01X25620Y25937D01*
G01X24317Y25937D01*
G37*
G36*
G01X24317Y24538D02*
G01X24317Y25741D01*
G01X25620Y25741D01*
G01X25620Y24538D01*
G01X24317Y24538D01*
G37*
G36*
G01X28829Y32843D02*
G01X28829Y33595D01*
G01X30030Y33595D01*
G01X30030Y32843D01*
G01X28829Y32843D01*
G37*
G36*
G01X28829Y31893D02*
G01X28829Y32645D01*
G01X30030Y32645D01*
G01X30030Y31893D01*
G01X28829Y31893D01*
G37*
G36*
G01X28829Y30943D02*
G01X28829Y31695D01*
G01X30030Y31695D01*
G01X30030Y30943D01*
G01X28829Y30943D01*
G37*
G36*
G01X31529Y30943D02*
G01X31529Y31695D01*
G01X32730Y31695D01*
G01X32730Y30943D01*
G01X31529Y30943D01*
G37*
G36*
G01X31529Y32843D02*
G01X31529Y33595D01*
G01X32730Y33595D01*
G01X32730Y32843D01*
G01X31529Y32843D01*
G37*
G36*
G01X31529Y31893D02*
G01X31529Y32645D01*
G01X32730Y32645D01*
G01X32730Y31893D01*
G01X31529Y31893D01*
G37*
G36*
G01X23667Y33057D02*
G01X23667Y34362D01*
G01X24871Y34362D01*
G01X24871Y33057D01*
G01X23667Y33057D01*
G37*
G36*
G01X25067Y33057D02*
G01X25067Y34362D01*
G01X26271Y34362D01*
G01X26271Y33057D01*
G01X25067Y33057D01*
G37*
G36*
G01X30198Y35399D02*
G01X30198Y36702D01*
G01X31402Y36702D01*
G01X31402Y35399D01*
G01X30198Y35399D01*
G37*
G36*
G01X28798Y35399D02*
G01X28798Y36702D01*
G01X30002Y36702D01*
G01X30002Y35399D01*
G01X28798Y35399D01*
G37*
G36*
G01X34008Y28708D02*
G01X34008Y30011D01*
G01X35212Y30011D01*
G01X35212Y28708D01*
G01X34008Y28708D01*
G37*
G36*
G01X35407Y28708D02*
G01X35407Y30011D01*
G01X36611Y30011D01*
G01X36611Y28708D01*
G01X35407Y28708D01*
G37*
G36*
G01X34018Y31347D02*
G01X34018Y32650D01*
G01X35222Y32650D01*
G01X35222Y31347D01*
G01X34018Y31347D01*
G37*
G36*
G01X35417Y31347D02*
G01X35417Y32650D01*
G01X36621Y32650D01*
G01X36621Y31347D01*
G01X35417Y31347D01*
G37*
G36*
G01X30896Y7212D02*
G01X30896Y8025D01*
G01X32100Y8025D01*
G01X32100Y7212D01*
G01X30896Y7212D01*
G37*
G36*
G01X30896Y6262D02*
G01X30896Y7075D01*
G01X32100Y7075D01*
G01X32100Y6262D01*
G01X30896Y6262D01*
G37*
G36*
G01X30896Y5312D02*
G01X30896Y6125D01*
G01X32100Y6125D01*
G01X32100Y5312D01*
G01X30896Y5312D01*
G37*
G36*
G01X33497Y5312D02*
G01X33497Y6125D01*
G01X34701Y6125D01*
G01X34701Y5312D01*
G01X33497Y5312D01*
G37*
G36*
G01X33497Y6262D02*
G01X33497Y7075D01*
G01X34701Y7075D01*
G01X34701Y6262D01*
G01X33497Y6262D01*
G37*
G36*
G01X33497Y7212D02*
G01X33497Y8025D01*
G01X34701Y8025D01*
G01X34701Y7212D01*
G01X33497Y7212D01*
G37*
G36*
G01X31183Y11368D02*
G01X31183Y12272D01*
G01X32636Y12272D01*
G01X32636Y11368D01*
G01X31183Y11368D01*
G37*
G36*
G01X28684Y10418D02*
G01X28684Y11322D01*
G01X30137Y11322D01*
G01X30137Y10418D01*
G01X28684Y10418D01*
G37*
G36*
G01X28684Y12318D02*
G01X28684Y13222D01*
G01X30137Y13222D01*
G01X30137Y12318D01*
G01X28684Y12318D01*
G37*
G36*
G01X23507Y6669D02*
G01X23507Y7870D01*
G01X24810Y7870D01*
G01X24810Y6669D01*
G01X23507Y6669D01*
G37*
G36*
G01X23507Y5269D02*
G01X23507Y6470D01*
G01X24810Y6470D01*
G01X24810Y5269D01*
G01X23507Y5269D01*
G37*
G36*
G01X26108Y7243D02*
G01X26108Y8055D01*
G01X27312Y8055D01*
G01X27312Y7243D01*
G01X26108Y7243D01*
G37*
G36*
G01X26108Y6293D02*
G01X26108Y7105D01*
G01X27312Y7105D01*
G01X27312Y6293D01*
G01X26108Y6293D01*
G37*
G36*
G01X26108Y5343D02*
G01X26108Y6156D01*
G01X27312Y6156D01*
G01X27312Y5343D01*
G01X26108Y5343D01*
G37*
G36*
G01X28709Y5343D02*
G01X28709Y6156D01*
G01X29913Y6156D01*
G01X29913Y5343D01*
G01X28709Y5343D01*
G37*
G36*
G01X28709Y6293D02*
G01X28709Y7105D01*
G01X29913Y7105D01*
G01X29913Y6293D01*
G01X28709Y6293D01*
G37*
G36*
G01X28709Y7243D02*
G01X28709Y8055D01*
G01X29913Y8055D01*
G01X29913Y7243D01*
G01X28709Y7243D01*
G37*
G54D72*
G01X1500Y12650D03*
G01X1500Y15190D03*
G01X1500Y17730D03*
G01X1500Y20270D03*
G01X1500Y22810D03*
G36*
G01X497Y24347D02*
G01X497Y26351D01*
G01X2501Y26351D01*
G01X2501Y24347D01*
G01X497Y24347D01*
G37*
G01X36500Y12650D03*
G01X36500Y15190D03*
G01X36500Y17730D03*
G01X36500Y20270D03*
G01X36500Y22810D03*
G36*
G01X35499Y24347D02*
G01X35499Y26351D01*
G01X37500Y26351D01*
G01X37500Y24347D01*
G01X35499Y24347D01*
G37*
G36*
G01X27487Y21048D02*
G01X27487Y22252D01*
G01X28790Y22252D01*
G01X28790Y21048D01*
G01X27487Y21048D01*
G37*
G36*
G01X27487Y19648D02*
G01X27487Y20852D01*
G01X28790Y20852D01*
G01X28790Y19648D01*
G01X27487Y19648D01*
G37*
G36*
G01X24297Y19597D02*
G01X24297Y20801D01*
G01X25600Y20801D01*
G01X25600Y19597D01*
G01X24297Y19597D01*
G37*
G36*
G01X24297Y20997D02*
G01X24297Y22201D01*
G01X25600Y22201D01*
G01X25600Y20997D01*
G01X24297Y20997D01*
G37*
G36*
G01X7112Y626D02*
G01X7112Y3831D01*
G01X8717Y3831D01*
G01X8717Y626D01*
G01X7112Y626D01*
G37*
G36*
G01X8912Y626D02*
G01X8912Y3831D01*
G01X10515Y3831D01*
G01X10515Y626D01*
G01X8912Y626D01*
G37*
G36*
G01X10713Y626D02*
G01X10713Y3831D01*
G01X12316Y3831D01*
G01X12316Y626D01*
G01X10713Y626D01*
G37*
G36*
G01X12512Y626D02*
G01X12512Y3831D01*
G01X14117Y3831D01*
G01X14117Y626D01*
G01X12512Y626D01*
G37*
G36*
G01X14312Y626D02*
G01X14312Y3831D01*
G01X15915Y3831D01*
G01X15915Y626D01*
G01X14312Y626D01*
G37*
G36*
G01X16113Y626D02*
G01X16113Y3831D01*
G01X17716Y3831D01*
G01X17716Y626D01*
G01X16113Y626D01*
G37*
G36*
G01X17912Y626D02*
G01X17912Y3831D01*
G01X19517Y3831D01*
G01X19517Y626D01*
G01X17912Y626D01*
G37*
G36*
G01X19712Y626D02*
G01X19712Y3831D01*
G01X21315Y3831D01*
G01X21315Y626D01*
G01X19712Y626D01*
G37*
G36*
G01X7112Y14626D02*
G01X7112Y17829D01*
G01X8717Y17829D01*
G01X8717Y14626D01*
G01X7112Y14626D01*
G37*
G36*
G01X8912Y14626D02*
G01X8912Y17829D01*
G01X10515Y17829D01*
G01X10515Y14626D01*
G01X8912Y14626D01*
G37*
G36*
G01X10713Y14626D02*
G01X10713Y17829D01*
G01X12316Y17829D01*
G01X12316Y14626D01*
G01X10713Y14626D01*
G37*
G36*
G01X12512Y14626D02*
G01X12512Y17829D01*
G01X14117Y17829D01*
G01X14117Y14626D01*
G01X12512Y14626D01*
G37*
G36*
G01X14312Y14626D02*
G01X14312Y17829D01*
G01X15915Y17829D01*
G01X15915Y14626D01*
G01X14312Y14626D01*
G37*
G36*
G01X16113Y14626D02*
G01X16113Y17829D01*
G01X17716Y17829D01*
G01X17716Y14626D01*
G01X16113Y14626D01*
G37*
G36*
G01X17912Y14626D02*
G01X17912Y17829D01*
G01X19517Y17829D01*
G01X19517Y14626D01*
G01X17912Y14626D01*
G37*
G36*
G01X19712Y14626D02*
G01X19712Y17829D01*
G01X21315Y17829D01*
G01X21315Y14626D01*
G01X19712Y14626D01*
G37*
M00*
M02*
