G04 Layer: TopSilkLayer*
G04 EasyEDA v6.3.22, 2020-01-22T11:07:26+01:00*
G04 fe9f39e87b364ab5b5230e9583c1109d,6ac03ef627a24f5ab7c901ca926ad83b,10*
G04 Gerber Generator version 0.2*
G04 Scale: 100 percent, Rotated: No, Reflected: No *
G04 Dimensions in millimeters *
G04 leading zeros omitted , absolute positions ,3 integer and 3 decimal *
%FSLAX33Y33*%
%MOMM*%
G90*
G71D02*

%ADD10C,0.254000*%
%ADD47C,0.101600*%
%ADD48C,0.200000*%
%ADD49C,0.119990*%
%ADD50C,0.203200*%
%ADD51C,0.202999*%
%ADD52C,0.199898*%
%ADD53C,0.152400*%

%LPD*%

%LPD*%
G36*
G01X32751Y2568D02*
G01X32682Y2569D01*
G01X32632Y2565D01*
G01X32602Y2556D01*
G01X32588Y2540D01*
G01X32583Y2524D01*
G01X32572Y2492D01*
G01X32557Y2446D01*
G01X32537Y2387D01*
G01X32514Y2318D01*
G01X32488Y2241D01*
G01X32460Y2157D01*
G01X32431Y2069D01*
G01X32285Y1634D01*
G01X32419Y1634D01*
G01X32494Y1636D01*
G01X32538Y1646D01*
G01X32562Y1671D01*
G01X32579Y1717D01*
G01X32597Y1763D01*
G01X32622Y1788D01*
G01X32668Y1798D01*
G01X32751Y1799D01*
G01X32834Y1798D01*
G01X32879Y1789D01*
G01X32901Y1764D01*
G01X32923Y1670D01*
G01X32944Y1645D01*
G01X32987Y1635D01*
G01X33068Y1634D01*
G01X33209Y1634D01*
G01X32903Y2559D01*
G01X32751Y2568D01*
G37*

%LPC*%
G36*
G01X32757Y2289D02*
G01X32748Y2297D01*
G01X32729Y2267D01*
G01X32705Y2196D01*
G01X32683Y2114D01*
G01X32674Y2052D01*
G01X32680Y2040D01*
G01X32696Y2030D01*
G01X32719Y2023D01*
G01X32748Y2021D01*
G01X32795Y2025D01*
G01X32817Y2048D01*
G01X32815Y2099D01*
G01X32793Y2190D01*
G01X32781Y2232D01*
G01X32768Y2266D01*
G01X32757Y2289D01*
G37*

%LPD*%
G36*
G01X29546Y2573D02*
G01X28881Y2573D01*
G01X28881Y1634D01*
G01X29152Y1634D01*
G01X29152Y2021D01*
G01X29497Y2021D01*
G01X29497Y2241D01*
G01X29325Y2241D01*
G01X29232Y2243D01*
G01X29180Y2251D01*
G01X29157Y2267D01*
G01X29152Y2297D01*
G01X29158Y2327D01*
G01X29183Y2343D01*
G01X29242Y2351D01*
G01X29349Y2352D01*
G01X29546Y2352D01*
G01X29546Y2573D01*
G37*

%LPD*%
G36*
G01X30140Y2597D02*
G01X30088Y2601D01*
G01X30034Y2596D01*
G01X29976Y2584D01*
G01X29919Y2564D01*
G01X29866Y2539D01*
G01X29819Y2507D01*
G01X29777Y2467D01*
G01X29741Y2422D01*
G01X29711Y2372D01*
G01X29687Y2318D01*
G01X29668Y2260D01*
G01X29655Y2200D01*
G01X29648Y2138D01*
G01X29647Y2076D01*
G01X29652Y2014D01*
G01X29663Y1953D01*
G01X29680Y1893D01*
G01X29703Y1838D01*
G01X29733Y1785D01*
G01X29769Y1737D01*
G01X29811Y1696D01*
G01X29864Y1662D01*
G01X29929Y1637D01*
G01X30004Y1621D01*
G01X30083Y1613D01*
G01X30161Y1616D01*
G01X30235Y1627D01*
G01X30300Y1647D01*
G01X30351Y1677D01*
G01X30392Y1714D01*
G01X30427Y1755D01*
G01X30457Y1798D01*
G01X30482Y1844D01*
G01X30501Y1891D01*
G01X30516Y1941D01*
G01X30526Y1991D01*
G01X30532Y2042D01*
G01X30533Y2094D01*
G01X30529Y2145D01*
G01X30522Y2196D01*
G01X30509Y2245D01*
G01X30494Y2293D01*
G01X30474Y2339D01*
G01X30451Y2383D01*
G01X30423Y2424D01*
G01X30392Y2462D01*
G01X30358Y2496D01*
G01X30320Y2526D01*
G01X30280Y2552D01*
G01X30236Y2573D01*
G01X30189Y2588D01*
G01X30140Y2597D01*
G37*

%LPC*%
G36*
G01X30122Y2375D02*
G01X30088Y2380D01*
G01X30050Y2373D01*
G01X30017Y2356D01*
G01X29987Y2328D01*
G01X29961Y2292D01*
G01X29941Y2250D01*
G01X29925Y2202D01*
G01X29916Y2150D01*
G01X29912Y2098D01*
G01X29915Y2044D01*
G01X29925Y1993D01*
G01X29942Y1944D01*
G01X29967Y1900D01*
G01X30012Y1855D01*
G01X30068Y1830D01*
G01X30126Y1827D01*
G01X30177Y1848D01*
G01X30209Y1884D01*
G01X30233Y1934D01*
G01X30250Y1994D01*
G01X30259Y2061D01*
G01X30260Y2130D01*
G01X30252Y2196D01*
G01X30235Y2257D01*
G01X30209Y2307D01*
G01X30183Y2339D01*
G01X30153Y2361D01*
G01X30122Y2375D01*
G37*

%LPD*%
G36*
G01X31008Y2596D02*
G01X30957Y2596D01*
G01X30906Y2590D01*
G01X30857Y2579D01*
G01X30812Y2561D01*
G01X30764Y2534D01*
G01X30724Y2504D01*
G01X30693Y2471D01*
G01X30669Y2436D01*
G01X30654Y2399D01*
G01X30646Y2361D01*
G01X30645Y2323D01*
G01X30652Y2284D01*
G01X30666Y2245D01*
G01X30687Y2207D01*
G01X30716Y2170D01*
G01X30751Y2135D01*
G01X30793Y2102D01*
G01X30841Y2071D01*
G01X30897Y2043D01*
G01X30958Y2019D01*
G01X31050Y1986D01*
G01X31099Y1959D01*
G01X31118Y1930D01*
G01X31118Y1888D01*
G01X31103Y1846D01*
G01X31074Y1819D01*
G01X31035Y1807D01*
G01X30992Y1808D01*
G01X30949Y1821D01*
G01X30912Y1847D01*
G01X30886Y1883D01*
G01X30876Y1930D01*
G01X30866Y1952D01*
G01X30840Y1965D01*
G01X30802Y1969D01*
G01X30759Y1965D01*
G01X30715Y1955D01*
G01X30676Y1938D01*
G01X30648Y1917D01*
G01X30634Y1891D01*
G01X30634Y1843D01*
G01X30647Y1799D01*
G01X30669Y1759D01*
G01X30700Y1723D01*
G01X30740Y1691D01*
G01X30786Y1664D01*
G01X30838Y1642D01*
G01X30893Y1626D01*
G01X30950Y1616D01*
G01X31010Y1611D01*
G01X31069Y1613D01*
G01X31127Y1622D01*
G01X31182Y1637D01*
G01X31233Y1660D01*
G01X31279Y1690D01*
G01X31318Y1729D01*
G01X31349Y1770D01*
G01X31373Y1813D01*
G01X31389Y1854D01*
G01X31397Y1896D01*
G01X31398Y1937D01*
G01X31392Y1976D01*
G01X31380Y2015D01*
G01X31360Y2052D01*
G01X31333Y2088D01*
G01X31300Y2123D01*
G01X31260Y2155D01*
G01X31214Y2186D01*
G01X31162Y2213D01*
G01X31103Y2239D01*
G01X31039Y2262D01*
G01X30969Y2281D01*
G01X30938Y2292D01*
G01X30917Y2307D01*
G01X30905Y2327D01*
G01X30901Y2353D01*
G01X30926Y2397D01*
G01X30985Y2412D01*
G01X31051Y2396D01*
G01X31098Y2352D01*
G01X31145Y2316D01*
G01X31225Y2296D01*
G01X31306Y2295D01*
G01X31353Y2318D01*
G01X31365Y2351D01*
G01X31367Y2383D01*
G01X31359Y2415D01*
G01X31342Y2446D01*
G01X31317Y2475D01*
G01X31285Y2502D01*
G01X31248Y2526D01*
G01X31206Y2548D01*
G01X31160Y2566D01*
G01X31111Y2580D01*
G01X31060Y2590D01*
G01X31008Y2596D01*
G37*

%LPD*%
G36*
G01X31916Y2601D02*
G01X31858Y2608D01*
G01X31800Y2607D01*
G01X31743Y2599D01*
G01X31689Y2581D01*
G01X31641Y2558D01*
G01X31601Y2530D01*
G01X31569Y2499D01*
G01X31543Y2465D01*
G01X31525Y2428D01*
G01X31514Y2389D01*
G01X31510Y2349D01*
G01X31513Y2308D01*
G01X31523Y2268D01*
G01X31540Y2228D01*
G01X31563Y2190D01*
G01X31593Y2152D01*
G01X31629Y2118D01*
G01X31671Y2086D01*
G01X31720Y2059D01*
G01X31775Y2035D01*
G01X31885Y1989D01*
G01X31952Y1945D01*
G01X31981Y1898D01*
G01X31977Y1845D01*
G01X31957Y1816D01*
G01X31925Y1801D01*
G01X31887Y1798D01*
G01X31845Y1808D01*
G01X31805Y1826D01*
G01X31771Y1853D01*
G01X31747Y1887D01*
G01X31738Y1926D01*
G01X31708Y1952D01*
G01X31639Y1966D01*
G01X31560Y1964D01*
G01X31500Y1944D01*
G01X31486Y1921D01*
G01X31486Y1887D01*
G01X31497Y1845D01*
G01X31517Y1798D01*
G01X31545Y1751D01*
G01X31578Y1707D01*
G01X31613Y1671D01*
G01X31650Y1647D01*
G01X31703Y1625D01*
G01X31756Y1610D01*
G01X31809Y1602D01*
G01X31861Y1599D01*
G01X31912Y1602D01*
G01X31961Y1610D01*
G01X32008Y1624D01*
G01X32051Y1643D01*
G01X32092Y1666D01*
G01X32128Y1694D01*
G01X32161Y1726D01*
G01X32189Y1762D01*
G01X32211Y1802D01*
G01X32228Y1845D01*
G01X32238Y1891D01*
G01X32242Y1941D01*
G01X32238Y2001D01*
G01X32225Y2053D01*
G01X32201Y2098D01*
G01X32165Y2138D01*
G01X32115Y2173D01*
G01X32050Y2206D01*
G01X31968Y2237D01*
G01X31867Y2269D01*
G01X31818Y2286D01*
G01X31786Y2304D01*
G01X31768Y2326D01*
G01X31763Y2353D01*
G01X31790Y2398D01*
G01X31851Y2413D01*
G01X31915Y2397D01*
G01X31953Y2352D01*
G01X31969Y2323D01*
G01X32001Y2303D01*
G01X32042Y2292D01*
G01X32087Y2289D01*
G01X32132Y2295D01*
G01X32170Y2309D01*
G01X32196Y2331D01*
G01X32206Y2361D01*
G01X32200Y2403D01*
G01X32182Y2444D01*
G01X32155Y2481D01*
G01X32119Y2515D01*
G01X32075Y2544D01*
G01X32026Y2569D01*
G01X31973Y2588D01*
G01X31916Y2601D01*
G37*

%LPD*%
G36*
G01X27337Y3424D02*
G01X27330Y3430D01*
G01X27323Y3424D01*
G01X27307Y3407D01*
G01X27281Y3380D01*
G01X27248Y3344D01*
G01X27206Y3300D01*
G01X27158Y3247D01*
G01X27104Y3187D01*
G01X27044Y3121D01*
G01X26979Y3049D01*
G01X26910Y2972D01*
G01X26838Y2892D01*
G01X26763Y2808D01*
G01X26209Y2186D01*
G01X26770Y1558D01*
G01X27330Y930D01*
G01X28450Y2186D01*
G01X27896Y2808D01*
G01X27821Y2892D01*
G01X27749Y2972D01*
G01X27680Y3049D01*
G01X27615Y3121D01*
G01X27555Y3187D01*
G01X27502Y3247D01*
G01X27453Y3300D01*
G01X27412Y3344D01*
G01X27378Y3380D01*
G01X27353Y3407D01*
G01X27337Y3424D01*
G37*

%LPC*%
G36*
G01X28120Y2072D02*
G01X28105Y2073D01*
G01X28083Y2070D01*
G01X28043Y2065D01*
G01X27988Y2056D01*
G01X27920Y2046D01*
G01X27758Y2019D01*
G01X27669Y2004D01*
G01X27577Y1988D01*
G01X27487Y1973D01*
G01X27399Y1957D01*
G01X27318Y1943D01*
G01X27245Y1930D01*
G01X27183Y1918D01*
G01X27135Y1909D01*
G01X27103Y1902D01*
G01X27091Y1898D01*
G01X27093Y1882D01*
G01X27106Y1841D01*
G01X27126Y1780D01*
G01X27152Y1704D01*
G01X27182Y1619D01*
G01X27214Y1528D01*
G01X27246Y1438D01*
G01X27278Y1353D01*
G01X27306Y1278D01*
G01X27329Y1218D01*
G01X27346Y1179D01*
G01X27354Y1164D01*
G01X27365Y1174D01*
G01X27391Y1200D01*
G01X27431Y1242D01*
G01X27482Y1298D01*
G01X27544Y1366D01*
G01X27614Y1443D01*
G01X27691Y1529D01*
G01X27773Y1620D01*
G01X27859Y1717D01*
G01X27931Y1798D01*
G01X27991Y1867D01*
G01X28039Y1923D01*
G01X28076Y1968D01*
G01X28103Y2004D01*
G01X28121Y2030D01*
G01X28132Y2049D01*
G01X28134Y2062D01*
G01X28129Y2069D01*
G01X28120Y2072D01*
G37*
G36*
G01X26961Y1896D02*
G01X26509Y2044D01*
G01X26826Y1687D01*
G01X26890Y1616D01*
G01X26950Y1548D01*
G01X27005Y1488D01*
G01X27053Y1435D01*
G01X27123Y1358D01*
G01X27142Y1337D01*
G01X27150Y1330D01*
G01X27152Y1336D01*
G01X27140Y1375D01*
G01X27105Y1478D01*
G01X27037Y1675D01*
G01X26961Y1896D01*
G37*
G36*
G01X27199Y3077D02*
G01X27200Y3087D01*
G01X27190Y3080D01*
G01X27166Y3056D01*
G01X27128Y3017D01*
G01X27079Y2964D01*
G01X27020Y2900D01*
G01X26953Y2826D01*
G01X26879Y2744D01*
G01X26801Y2656D01*
G01X26708Y2551D01*
G01X26629Y2461D01*
G01X26565Y2384D01*
G01X26514Y2321D01*
G01X26476Y2271D01*
G01X26453Y2235D01*
G01X26442Y2212D01*
G01X26444Y2202D01*
G01X26477Y2190D01*
G01X26540Y2168D01*
G01X26720Y2108D01*
G01X26960Y2029D01*
G01X26983Y2128D01*
G01X26990Y2157D01*
G01X27001Y2200D01*
G01X27014Y2257D01*
G01X27030Y2324D01*
G01X27047Y2399D01*
G01X27066Y2480D01*
G01X27087Y2565D01*
G01X27107Y2653D01*
G01X27127Y2739D01*
G01X27145Y2819D01*
G01X27176Y2956D01*
G01X27187Y3009D01*
G01X27195Y3050D01*
G01X27199Y3077D01*
G37*
G36*
G01X27355Y3102D02*
G01X27344Y3126D01*
G01X27340Y3114D01*
G01X27330Y3079D01*
G01X27317Y3025D01*
G01X27299Y2956D01*
G01X27280Y2873D01*
G01X27258Y2781D01*
G01X27235Y2683D01*
G01X27211Y2582D01*
G01X27188Y2480D01*
G01X27165Y2381D01*
G01X27144Y2289D01*
G01X27126Y2206D01*
G01X27110Y2136D01*
G01X27092Y2046D01*
G01X27091Y2033D01*
G01X27100Y2033D01*
G01X27125Y2036D01*
G01X27163Y2041D01*
G01X27213Y2049D01*
G01X27272Y2059D01*
G01X27340Y2070D01*
G01X27414Y2083D01*
G01X27492Y2097D01*
G01X27575Y2112D01*
G01X27659Y2127D01*
G01X27742Y2143D01*
G01X27824Y2158D01*
G01X27902Y2173D01*
G01X27976Y2188D01*
G01X28042Y2201D01*
G01X28101Y2212D01*
G01X28149Y2223D01*
G01X28185Y2231D01*
G01X28208Y2237D01*
G01X28216Y2240D01*
G01X28209Y2252D01*
G01X28188Y2278D01*
G01X28155Y2318D01*
G01X28111Y2369D01*
G01X28058Y2430D01*
G01X27997Y2500D01*
G01X27930Y2576D01*
G01X27858Y2656D01*
G01X27783Y2740D01*
G01X27715Y2813D01*
G01X27656Y2875D01*
G01X27607Y2925D01*
G01X27568Y2962D01*
G01X27540Y2986D01*
G01X27524Y2995D01*
G01X27523Y2988D01*
G01X27538Y2943D01*
G01X27562Y2873D01*
G01X27591Y2788D01*
G01X27623Y2696D01*
G01X27699Y2474D01*
G01X27884Y2413D01*
G01X27965Y2383D01*
G01X28023Y2357D01*
G01X28057Y2332D01*
G01X28069Y2309D01*
G01X28057Y2270D01*
G01X28020Y2252D01*
G01X27959Y2257D01*
G01X27871Y2283D01*
G01X27781Y2311D01*
G01X27721Y2314D01*
G01X27686Y2289D01*
G01X27670Y2236D01*
G01X27648Y2180D01*
G01X27612Y2167D01*
G01X27580Y2194D01*
G01X27569Y2258D01*
G01X27575Y2343D01*
G01X27458Y2322D01*
G01X27354Y2304D01*
G01X27290Y2301D01*
G01X27256Y2313D01*
G01X27239Y2341D01*
G01X27237Y2381D01*
G01X27265Y2410D01*
G01X27329Y2432D01*
G01X27435Y2450D01*
G01X27496Y2460D01*
G01X27539Y2472D01*
G01X27564Y2485D01*
G01X27568Y2500D01*
G01X27555Y2536D01*
G01X27530Y2610D01*
G01X27494Y2711D01*
G01X27454Y2829D01*
G01X27413Y2944D01*
G01X27379Y3038D01*
G01X27355Y3102D01*
G37*

%LPD*%
G36*
G01X26891Y2346D02*
G01X26846Y2347D01*
G01X26790Y2340D01*
G01X26726Y2328D01*
G01X26693Y2317D01*
G01X26670Y2301D01*
G01X26657Y2281D01*
G01X26652Y2255D01*
G01X26688Y2219D01*
G01X26770Y2206D01*
G01X26863Y2219D01*
G01X26933Y2255D01*
G01X26952Y2284D01*
G01X26958Y2307D01*
G01X26948Y2325D01*
G01X26926Y2338D01*
G01X26891Y2346D01*
G37*

%LPD*%
G36*
G01X27540Y1851D02*
G01X27510Y1854D01*
G01X27482Y1844D01*
G01X27465Y1820D01*
G01X27440Y1745D01*
G01X27420Y1674D01*
G01X27404Y1608D01*
G01X27392Y1547D01*
G01X27384Y1493D01*
G01X27380Y1446D01*
G01X27380Y1407D01*
G01X27385Y1376D01*
G01X27393Y1354D01*
G01X27406Y1343D01*
G01X27423Y1342D01*
G01X27445Y1352D01*
G01X27460Y1378D01*
G01X27479Y1432D01*
G01X27501Y1505D01*
G01X27522Y1588D01*
G01X27541Y1671D01*
G01X27555Y1746D01*
G01X27563Y1803D01*
G01X27561Y1832D01*
G01X27540Y1851D01*
G37*

%LPD*%
G54D47*
G01X4562Y14401D02*
G01X3927Y14401D01*
G01X3927Y13538D01*
G01X4460Y13538D01*
G01X4562Y13538D01*
G01X4943Y13538D02*
G01X5552Y13538D01*
G01X5552Y14401D01*
G01X5019Y14401D01*
G01X4943Y14401D01*
G01X24742Y2711D02*
G01X24107Y2711D01*
G01X24107Y1848D01*
G01X24640Y1848D01*
G01X24742Y1848D01*
G01X25123Y1848D02*
G01X25732Y1848D01*
G01X25732Y2711D01*
G01X25199Y2711D01*
G01X25123Y2711D01*
G54D10*
G01X16845Y29825D02*
G01X16845Y22814D01*
G01X16845Y22814D02*
G01X9834Y22814D01*
G01X9834Y22814D02*
G01X9834Y29469D01*
G01X10190Y29825D02*
G01X16845Y29825D01*
G01X10190Y29825D02*
G01X9834Y29469D01*
G54D48*
G01X23300Y25410D02*
G01X23300Y24310D01*
G01X21699Y24310D01*
G01X21699Y25410D01*
G01X23300Y26209D02*
G01X23300Y27310D01*
G01X22300Y27310D01*
G01X21699Y27310D01*
G01X21699Y26209D01*
G01X2420Y29620D02*
G01X2420Y28520D01*
G01X819Y28520D01*
G01X819Y29620D01*
G01X2420Y30419D02*
G01X2420Y31520D01*
G01X1420Y31520D01*
G01X819Y31520D01*
G01X819Y30419D01*
G01X5710Y29250D02*
G01X5710Y28150D01*
G01X4109Y28150D01*
G01X4109Y29250D01*
G01X5710Y30049D02*
G01X5710Y31150D01*
G01X4710Y31150D01*
G01X4109Y31150D01*
G01X4109Y30049D01*
G01X22910Y29910D02*
G01X22910Y28810D01*
G01X21309Y28810D01*
G01X21309Y29910D01*
G01X22910Y30709D02*
G01X22910Y31810D01*
G01X21910Y31810D01*
G01X21309Y31810D01*
G01X21309Y30709D01*
G01X25929Y11150D02*
G01X27029Y11150D01*
G01X27029Y9549D01*
G01X25929Y9549D01*
G01X25129Y11150D02*
G01X24029Y11150D01*
G01X24029Y10150D01*
G01X24029Y9549D01*
G01X25129Y9549D01*
G54D10*
G01X4460Y21520D02*
G01X4460Y24719D01*
G01X5759Y24719D02*
G01X4460Y24719D01*
G01X5759Y24719D02*
G01X5759Y21520D01*
G01X4460Y21520D02*
G01X5759Y21520D01*
G54D49*
G01X6740Y31860D02*
G01X8540Y31860D01*
G01X8540Y35080D02*
G01X6090Y35080D01*
G54D50*
G01X13414Y37610D02*
G01X11509Y37610D01*
G01X11509Y35070D01*
G01X26749Y35070D01*
G01X26749Y37610D01*
G54D51*
G01X26749Y37610D02*
G01X13414Y37610D01*
G54D48*
G01X14739Y34530D02*
G01X15839Y34530D01*
G01X15839Y32929D01*
G01X14739Y32929D01*
G01X13940Y34530D02*
G01X12839Y34530D01*
G01X12839Y33530D01*
G01X12839Y32929D01*
G01X13940Y32929D01*
G01X22382Y20885D02*
G01X22382Y22485D01*
G01X22382Y22485D02*
G01X21391Y22485D01*
G01X22382Y20885D02*
G01X22382Y19285D01*
G01X22382Y19285D02*
G01X21391Y19285D01*
G01X21391Y19285D02*
G01X20400Y19285D01*
G01X20400Y19285D02*
G01X20400Y20885D01*
G01X21391Y22485D02*
G01X20400Y22485D01*
G01X20400Y22485D02*
G01X20400Y20885D01*
G54D10*
G01X1510Y9449D02*
G01X4610Y9449D01*
G01X4609Y9449D02*
G01X4609Y6449D01*
G01X1510Y9449D02*
G01X1510Y6449D01*
G01X1509Y6449D02*
G01X4609Y6449D01*
G01X2789Y8090D02*
G01X2789Y9630D01*
G01X3309Y9630D01*
G01X3309Y8130D01*
G01X1519Y9050D02*
G01X1510Y9060D01*
G01X1899Y9060D01*
G01X1899Y6810D01*
G01X1510Y6810D01*
G01X4576Y6832D02*
G01X4586Y6822D01*
G01X4196Y6822D01*
G01X4196Y9072D01*
G01X4586Y9072D01*
G54D48*
G01X20989Y34490D02*
G01X22089Y34490D01*
G01X22089Y32889D01*
G01X20989Y32889D01*
G01X20190Y34490D02*
G01X19089Y34490D01*
G01X19089Y33490D01*
G01X19089Y32889D01*
G01X20190Y32889D01*
G01X27787Y25204D02*
G01X27787Y23604D01*
G01X27787Y23604D02*
G01X28778Y23604D01*
G01X27787Y25204D02*
G01X27787Y26804D01*
G01X27787Y26804D02*
G01X28778Y26804D01*
G01X28778Y26804D02*
G01X29768Y26804D01*
G01X29768Y26804D02*
G01X29768Y25204D01*
G01X28778Y23604D02*
G01X29768Y23604D01*
G01X29768Y23604D02*
G01X29768Y25204D01*
G01X28320Y27869D02*
G01X27219Y27869D01*
G01X27219Y29470D01*
G01X28320Y29470D01*
G01X29119Y27869D02*
G01X30219Y27869D01*
G01X30219Y28869D01*
G01X30219Y29470D01*
G01X29119Y29470D01*
G01X33460Y24550D02*
G01X33460Y23450D01*
G01X31859Y23450D01*
G01X31859Y24550D01*
G01X33460Y25349D02*
G01X33460Y26450D01*
G01X32460Y26450D01*
G01X31859Y26450D01*
G01X31859Y25349D01*
G01X25450Y30000D02*
G01X25450Y28900D01*
G01X23849Y28900D01*
G01X23849Y30000D01*
G01X25450Y30799D02*
G01X25450Y31900D01*
G01X24450Y31900D01*
G01X23849Y31900D01*
G01X23849Y30799D01*
G54D10*
G01X25455Y14931D02*
G01X27654Y14931D01*
G01X25023Y17918D02*
G01X25023Y14921D01*
G01X28096Y14921D01*
G01X28096Y17944D01*
G01X25023Y17918D02*
G01X26013Y17918D01*
G01X27106Y17944D02*
G01X28096Y17944D01*
G54D52*
G01X31715Y18095D02*
G01X31715Y16775D01*
G01X33785Y16775D01*
G01X33785Y18095D01*
G01X31715Y19227D02*
G01X31715Y20547D01*
G01X33785Y20547D01*
G01X33785Y19227D01*
G54D48*
G01X25100Y12389D02*
G01X23999Y12389D01*
G01X23999Y13990D01*
G01X25100Y13990D01*
G01X25899Y12389D02*
G01X26999Y12389D01*
G01X26999Y13389D01*
G01X26999Y13990D01*
G01X25899Y13990D01*
G01X25770Y25440D02*
G01X25770Y24340D01*
G01X24169Y24340D01*
G01X24169Y25440D01*
G01X25770Y26239D02*
G01X25770Y27340D01*
G01X24770Y27340D01*
G01X24169Y27340D01*
G01X24169Y26239D01*
G01X31792Y32305D02*
G01X31792Y33905D01*
G01X31792Y33905D02*
G01X30801Y33905D01*
G01X31792Y32305D02*
G01X31792Y30705D01*
G01X31792Y30705D02*
G01X30801Y30705D01*
G01X30801Y30705D02*
G01X29810Y30705D01*
G01X29810Y30705D02*
G01X29810Y32305D01*
G01X30801Y33905D02*
G01X29810Y33905D01*
G01X29810Y33905D02*
G01X29810Y32305D01*
G01X25369Y34510D02*
G01X26469Y34510D01*
G01X26469Y32909D01*
G01X25369Y32909D01*
G01X24570Y34510D02*
G01X23469Y34510D01*
G01X23469Y33510D01*
G01X23469Y32909D01*
G01X24570Y32909D01*
G01X29700Y35249D02*
G01X28599Y35249D01*
G01X28599Y36850D01*
G01X29700Y36850D01*
G01X30499Y35249D02*
G01X31599Y35249D01*
G01X31599Y36249D01*
G01X31599Y36850D01*
G01X30499Y36850D01*
G01X35709Y30160D02*
G01X36809Y30160D01*
G01X36809Y28559D01*
G01X35709Y28559D01*
G01X34909Y30160D02*
G01X33809Y30160D01*
G01X33809Y29160D01*
G01X33809Y28559D01*
G01X34909Y28559D01*
G01X35719Y32800D02*
G01X36819Y32800D01*
G01X36819Y31199D01*
G01X35719Y31199D01*
G01X34919Y32800D02*
G01X33819Y32800D01*
G01X33819Y31800D01*
G01X33819Y31199D01*
G01X34919Y31199D01*
G54D10*
G01X33351Y8171D02*
G01X33351Y5168D01*
G01X33351Y5168D02*
G01X32248Y5168D01*
G01X32248Y5168D02*
G01X32248Y8171D01*
G01X32248Y8171D02*
G01X33351Y8171D01*
G01X31309Y11019D02*
G01X31309Y10360D01*
G01X31309Y11019D01*
G01X31309Y10360D01*
G01X30494Y10360D01*
G01X30494Y13280D02*
G01X31309Y13280D01*
G01X31309Y12620D01*
G54D48*
G01X29760Y12120D02*
G01X29760Y11520D01*
G01X24960Y6170D02*
G01X24960Y5070D01*
G01X23359Y5070D01*
G01X23359Y6170D01*
G01X24960Y6970D02*
G01X24960Y8070D01*
G01X23960Y8070D01*
G01X23359Y8070D01*
G01X23359Y6970D01*
G54D10*
G01X28561Y8201D02*
G01X28561Y5198D01*
G01X28561Y5198D02*
G01X27458Y5198D01*
G01X27458Y5198D02*
G01X27458Y8201D01*
G01X27458Y8201D02*
G01X28561Y8201D01*
G54D50*
G01X2769Y24715D02*
G01X2769Y26620D01*
G01X229Y26620D01*
G01X229Y11380D01*
G01X2769Y11380D01*
G54D51*
G01X2769Y11380D02*
G01X2769Y24715D01*
G54D50*
G01X37770Y24715D02*
G01X37770Y26620D01*
G01X35230Y26620D01*
G01X35230Y11380D01*
G01X37770Y11380D01*
G54D51*
G01X37770Y11380D02*
G01X37770Y24715D01*
G54D48*
G01X28940Y20550D02*
G01X28940Y19450D01*
G01X27339Y19450D01*
G01X27339Y20550D01*
G01X28940Y21349D02*
G01X28940Y22450D01*
G01X27940Y22450D01*
G01X27339Y22450D01*
G01X27339Y21349D01*
G01X24149Y21299D02*
G01X24149Y22400D01*
G01X25750Y22400D01*
G01X25750Y21299D01*
G01X24149Y20500D02*
G01X24149Y19400D01*
G01X25149Y19400D01*
G01X25750Y19400D01*
G01X25750Y20500D01*
G54D10*
G01X6390Y2229D02*
G01X6390Y16326D01*
G01X22265Y16453D02*
G01X22265Y2229D01*
G75*
G01X27106Y17944D02*
G02X26014Y17919I-546J-2D01*
G01*
G75*
G01X10952Y29063D02*
G03X10952Y29063I-356J0D01*
G01*
G54D48*
G75*
G01X21138Y21876D02*
G03X21138Y21876I-254J0D01*
G01*
G54D10*
G75*
G01X3360Y7950D02*
G03X3360Y7950I-300J0D01*
G01*
G54D48*
G75*
G01X29540Y24214D02*
G03X29540Y24214I-254J0D01*
G01*
G75*
G01X30548Y33296D02*
G03X30548Y33296I-254J0D01*
G01*
G54D53*
G75*
G01X32752Y7770D02*
G03X32752Y7770I-152J0D01*
G01*
G75*
G01X27962Y7800D02*
G03X27962Y7800I-152J0D01*
G01*
G54D10*
G75*
G01X6369Y2229D02*
G03X6369Y2229I-359J0D01*
G01*
M00*
M02*
