G04 Layer: TopPasteMaskLayer*
G04 EasyEDA v6.3.22, 2020-01-22T11:07:26+01:00*
G04 fe9f39e87b364ab5b5230e9583c1109d,6ac03ef627a24f5ab7c901ca926ad83b,10*
G04 Gerber Generator version 0.2*
G04 Scale: 100 percent, Rotated: No, Reflected: No *
G04 Dimensions in millimeters *
G04 leading zeros omitted , absolute positions ,3 integer and 3 decimal *
%FSLAX33Y33*%
%MOMM*%
G90*
G71D02*

%ADD26R,0.599948X0.649986*%
%ADD27R,2.032000X0.406400*%
%ADD28R,0.406400X2.032000*%
%ADD29R,1.099998X0.999998*%
%ADD30R,0.999998X1.099998*%
%ADD31R,2.499995X0.499999*%
%ADD32R,1.599997X0.499999*%
%ADD33R,1.059993X0.399999*%
%ADD34R,0.999998X0.550012*%
%ADD35R,1.199896X2.199996*%
%ADD36R,1.299997X1.299997*%
%ADD37R,1.549908X0.304800*%
%ADD38R,1.450010X1.160018*%
%ADD39R,1.000760X0.609600*%
%ADD40R,1.250010X0.699999*%
%ADD41R,1.399997X2.999994*%

%LPD*%
G54D26*
G01X5171Y13970D03*
G01X4323Y13970D03*
G01X25351Y2279D03*
G01X24503Y2279D03*
G54D27*
G01X8768Y29114D03*
G01X8768Y28326D03*
G01X8768Y27513D03*
G01X8768Y26726D03*
G01X8768Y25913D03*
G01X8768Y25126D03*
G01X8768Y24313D03*
G01X8768Y23526D03*
G54D28*
G01X10546Y21748D03*
G01X11333Y21748D03*
G01X12146Y21748D03*
G01X12933Y21748D03*
G01X13746Y21748D03*
G01X14533Y21748D03*
G01X15346Y21748D03*
G01X16134Y21748D03*
G54D27*
G01X17912Y23526D03*
G01X17912Y24313D03*
G01X17912Y25126D03*
G01X17912Y25913D03*
G01X17912Y26726D03*
G01X17912Y27513D03*
G01X17912Y28326D03*
G01X17912Y29114D03*
G54D28*
G01X16134Y30892D03*
G01X15346Y30892D03*
G01X14533Y30892D03*
G01X13746Y30892D03*
G01X12933Y30892D03*
G01X12146Y30892D03*
G01X11333Y30892D03*
G01X10546Y30892D03*
G54D29*
G01X22499Y26510D03*
G01X22499Y25110D03*
G01X1620Y30720D03*
G01X1620Y29320D03*
G01X4910Y30350D03*
G01X4910Y28949D03*
G01X22109Y31009D03*
G01X22109Y29610D03*
G54D30*
G01X24830Y10350D03*
G01X26230Y10350D03*
G54D31*
G01X5109Y21921D03*
G54D32*
G01X5109Y23119D03*
G54D31*
G01X5109Y24318D03*
G54D33*
G01X6539Y34450D03*
G01X6539Y33800D03*
G01X6539Y33139D03*
G01X6539Y32489D03*
G01X8739Y32489D03*
G01X8739Y33139D03*
G01X8739Y33800D03*
G01X8739Y34450D03*
G54D30*
G01X13640Y33730D03*
G01X15040Y33730D03*
G54D34*
G01X20020Y21800D03*
G01X20020Y20850D03*
G01X20020Y19900D03*
G01X22719Y19900D03*
G01X22719Y21800D03*
G01X22719Y20850D03*
G54D35*
G01X1060Y7950D03*
G54D36*
G01X3059Y6400D03*
G54D35*
G01X5061Y7950D03*
G54D30*
G01X19889Y33689D03*
G01X21290Y33689D03*
G54D34*
G01X30149Y24290D03*
G01X30149Y25240D03*
G01X30149Y26190D03*
G01X27450Y26190D03*
G01X27450Y24290D03*
G01X27450Y25240D03*
G54D30*
G01X29420Y28670D03*
G01X28020Y28670D03*
G54D29*
G01X32659Y25650D03*
G01X32659Y24249D03*
G01X24649Y31100D03*
G01X24649Y29700D03*
G54D37*
G01X24108Y17419D03*
G01X24108Y16920D03*
G01X24108Y16419D03*
G01X24108Y15920D03*
G01X24108Y15419D03*
G01X29011Y15419D03*
G01X29011Y15920D03*
G01X29011Y16419D03*
G01X29011Y16920D03*
G01X29011Y17419D03*
G54D38*
G01X32749Y19666D03*
G01X32749Y17634D03*
G54D30*
G01X26199Y13190D03*
G01X24800Y13190D03*
G54D29*
G01X24969Y26540D03*
G01X24969Y25139D03*
G54D34*
G01X29429Y33219D03*
G01X29429Y32270D03*
G01X29429Y31320D03*
G01X32129Y31320D03*
G01X32129Y33219D03*
G01X32129Y32270D03*
G54D30*
G01X24269Y33709D03*
G01X25670Y33709D03*
G01X30800Y36050D03*
G01X29399Y36050D03*
G01X34610Y29359D03*
G01X36009Y29359D03*
G01X34619Y32000D03*
G01X36019Y32000D03*
G54D39*
G01X31499Y7620D03*
G01X31499Y6670D03*
G01X31499Y5720D03*
G01X34100Y5720D03*
G01X34100Y6670D03*
G01X34100Y7620D03*
G54D40*
G01X31909Y11819D03*
G01X29410Y10870D03*
G01X29410Y12769D03*
G54D29*
G01X24159Y7270D03*
G01X24159Y5870D03*
G54D39*
G01X26709Y7650D03*
G01X26709Y6700D03*
G01X26709Y5750D03*
G01X29310Y5750D03*
G01X29310Y6700D03*
G01X29310Y7650D03*
G54D29*
G01X28139Y21650D03*
G01X28139Y20249D03*
G01X24949Y20199D03*
G01X24949Y21599D03*
G54D41*
G01X7914Y2229D03*
G01X9714Y2229D03*
G01X11514Y2229D03*
G01X13314Y2229D03*
G01X15114Y2229D03*
G01X16914Y2229D03*
G01X18714Y2229D03*
G01X20514Y2229D03*
G01X7914Y16229D03*
G01X9714Y16229D03*
G01X11514Y16229D03*
G01X13314Y16229D03*
G01X15114Y16229D03*
G01X16914Y16229D03*
G01X18714Y16229D03*
G01X20514Y16229D03*
M00*
M02*
