G04 Layer: TopSolderMaskLayer*
G04 EasyEDA v6.3.22, 2020-01-22T11:07:26+01:00*
G04 dbe5752f4b9e44bf826be982e50114fc,6ac03ef627a24f5ab7c901ca926ad83b,10*
G04 Gerber Generator version 0.2*
G04 Scale: 100 percent, Rotated: No, Reflected: No *
G04 Dimensions in millimeters *
G04 leading zeros omitted , absolute positions ,3 integer and 3 decimal *
%FSLAX33Y33*%
%MOMM*%
G90*
G71D02*

%ADD37C,2.703195*%
%ADD38C,1.727200*%
%ADD45C,2.003196*%
%ADD47C,2.203196*%

%LPD*%
G36*
G01X35537Y8637D02*
G01X35537Y10364D01*
G01X37264Y10364D01*
G01X37264Y8637D01*
G01X35537Y8637D01*
G37*
G54D37*
G01X2500Y2499D03*
G01X35500Y2499D03*
G01X35500Y35499D03*
G01X2500Y35499D03*
G54D38*
G01X30589Y6430D03*
G36*
G01X27335Y5617D02*
G01X27335Y7344D01*
G01X29062Y7344D01*
G01X29062Y5617D01*
G01X27335Y5617D01*
G37*
G36*
G01X8089Y31040D02*
G01X8089Y31650D01*
G01X10096Y31650D01*
G01X10096Y31040D01*
G01X8089Y31040D01*
G37*
G36*
G01X8089Y30380D02*
G01X8089Y30989D01*
G01X10096Y30989D01*
G01X10096Y30380D01*
G01X8089Y30380D01*
G37*
G36*
G01X8089Y29745D02*
G01X8089Y30354D01*
G01X10096Y30354D01*
G01X10096Y29745D01*
G01X8089Y29745D01*
G37*
G36*
G01X8089Y29084D02*
G01X8089Y29694D01*
G01X10096Y29694D01*
G01X10096Y29084D01*
G01X8089Y29084D01*
G37*
G36*
G01X13881Y29084D02*
G01X13881Y29694D01*
G01X15887Y29694D01*
G01X15887Y29084D01*
G01X13881Y29084D01*
G37*
G36*
G01X13881Y29745D02*
G01X13881Y30354D01*
G01X15887Y30354D01*
G01X15887Y29745D01*
G01X13881Y29745D01*
G37*
G36*
G01X13881Y30380D02*
G01X13881Y30989D01*
G01X15887Y30989D01*
G01X15887Y30380D01*
G01X13881Y30380D01*
G37*
G36*
G01X13881Y31040D02*
G01X13881Y31650D01*
G01X15887Y31650D01*
G01X15887Y31040D01*
G01X13881Y31040D01*
G37*
G36*
G01X5468Y35708D02*
G01X5468Y37011D01*
G01X6672Y37011D01*
G01X6672Y35708D01*
G01X5468Y35708D01*
G37*
G36*
G01X6868Y35708D02*
G01X6868Y37011D01*
G01X8072Y37011D01*
G01X8072Y35708D01*
G01X6868Y35708D01*
G37*
G36*
G01X29852Y32267D02*
G01X29852Y33572D01*
G01X31054Y33572D01*
G01X31054Y32267D01*
G01X29852Y32267D01*
G37*
G36*
G01X31252Y32267D02*
G01X31252Y33572D01*
G01X32453Y33572D01*
G01X32453Y32267D01*
G01X31252Y32267D01*
G37*
G36*
G01X25407Y29600D02*
G01X25407Y30905D01*
G01X26609Y30905D01*
G01X26609Y29600D01*
G01X25407Y29600D01*
G37*
G36*
G01X26807Y29600D02*
G01X26807Y30905D01*
G01X28008Y30905D01*
G01X28008Y29600D01*
G01X26807Y29600D01*
G37*
G36*
G01X8851Y10720D02*
G01X8851Y11330D01*
G01X10858Y11330D01*
G01X10858Y10720D01*
G01X8851Y10720D01*
G37*
G36*
G01X8851Y10060D02*
G01X8851Y10669D01*
G01X10858Y10669D01*
G01X10858Y10060D01*
G01X8851Y10060D01*
G37*
G36*
G01X8851Y9425D02*
G01X8851Y10034D01*
G01X10858Y10034D01*
G01X10858Y9425D01*
G01X8851Y9425D01*
G37*
G36*
G01X8851Y8764D02*
G01X8851Y9374D01*
G01X10858Y9374D01*
G01X10858Y8764D01*
G01X8851Y8764D01*
G37*
G36*
G01X14643Y8764D02*
G01X14643Y9374D01*
G01X16649Y9374D01*
G01X16649Y8764D01*
G01X14643Y8764D01*
G37*
G36*
G01X14643Y9425D02*
G01X14643Y10034D01*
G01X16649Y10034D01*
G01X16649Y9425D01*
G01X14643Y9425D01*
G37*
G36*
G01X14643Y10060D02*
G01X14643Y10669D01*
G01X16649Y10669D01*
G01X16649Y10060D01*
G01X14643Y10060D01*
G37*
G36*
G01X14643Y10720D02*
G01X14643Y11330D01*
G01X16649Y11330D01*
G01X16649Y10720D01*
G01X14643Y10720D01*
G37*
G36*
G01X5087Y14614D02*
G01X5087Y15919D01*
G01X6289Y15919D01*
G01X6289Y14614D01*
G01X5087Y14614D01*
G37*
G36*
G01X6487Y14614D02*
G01X6487Y15919D01*
G01X7688Y15919D01*
G01X7688Y14614D01*
G01X6487Y14614D01*
G37*
G36*
G01X22077Y6097D02*
G01X22077Y7400D01*
G01X23281Y7400D01*
G01X23281Y6097D01*
G01X22077Y6097D01*
G37*
G36*
G01X23477Y6097D02*
G01X23477Y7400D01*
G01X24681Y7400D01*
G01X24681Y6097D01*
G01X23477Y6097D01*
G37*
G36*
G01X15628Y5978D02*
G01X15628Y7283D01*
G01X16830Y7283D01*
G01X16830Y5978D01*
G01X15628Y5978D01*
G37*
G36*
G01X17028Y5978D02*
G01X17028Y7283D01*
G01X18229Y7283D01*
G01X18229Y5978D01*
G01X17028Y5978D01*
G37*
G36*
G01X10756Y21642D02*
G01X10756Y22252D01*
G01X12763Y22252D01*
G01X12763Y21642D01*
G01X10756Y21642D01*
G37*
G36*
G01X10756Y20982D02*
G01X10756Y21591D01*
G01X12763Y21591D01*
G01X12763Y20982D01*
G01X10756Y20982D01*
G37*
G36*
G01X10756Y20347D02*
G01X10756Y20956D01*
G01X12763Y20956D01*
G01X12763Y20347D01*
G01X10756Y20347D01*
G37*
G36*
G01X10756Y19686D02*
G01X10756Y20296D01*
G01X12763Y20296D01*
G01X12763Y19686D01*
G01X10756Y19686D01*
G37*
G36*
G01X16548Y19686D02*
G01X16548Y20296D01*
G01X18554Y20296D01*
G01X18554Y19686D01*
G01X16548Y19686D01*
G37*
G36*
G01X16548Y20347D02*
G01X16548Y20956D01*
G01X18554Y20956D01*
G01X18554Y20347D01*
G01X16548Y20347D01*
G37*
G36*
G01X16548Y20982D02*
G01X16548Y21591D01*
G01X18554Y21591D01*
G01X18554Y20982D01*
G01X16548Y20982D01*
G37*
G36*
G01X16548Y21642D02*
G01X16548Y22252D01*
G01X18554Y22252D01*
G01X18554Y21642D01*
G01X16548Y21642D01*
G37*
G36*
G01X6865Y25663D02*
G01X6865Y26968D01*
G01X8067Y26968D01*
G01X8067Y25663D01*
G01X6865Y25663D01*
G37*
G36*
G01X8265Y25663D02*
G01X8265Y26968D01*
G01X9466Y26968D01*
G01X9466Y25663D01*
G01X8265Y25663D01*
G37*
G36*
G01X25547Y26478D02*
G01X25547Y27781D01*
G01X26751Y27781D01*
G01X26751Y26478D01*
G01X25547Y26478D01*
G37*
G36*
G01X26949Y26478D02*
G01X26949Y27781D01*
G01X28150Y27781D01*
G01X28150Y26478D01*
G01X26949Y26478D01*
G37*
G36*
G01X18318Y16328D02*
G01X18318Y17532D01*
G01X19621Y17532D01*
G01X19621Y16328D01*
G01X18318Y16328D01*
G37*
G36*
G01X18318Y17728D02*
G01X18318Y18932D01*
G01X19621Y18932D01*
G01X19621Y17728D01*
G01X18318Y17728D01*
G37*
G36*
G01X5468Y33369D02*
G01X5468Y34672D01*
G01X6672Y34672D01*
G01X6672Y33369D01*
G01X5468Y33369D01*
G37*
G36*
G01X6868Y33369D02*
G01X6868Y34672D01*
G01X8072Y34672D01*
G01X8072Y33369D01*
G01X6868Y33369D01*
G37*
G36*
G01X10294Y32902D02*
G01X10294Y34207D01*
G01X11496Y34207D01*
G01X11496Y32902D01*
G01X10294Y32902D01*
G37*
G36*
G01X11694Y32902D02*
G01X11694Y34207D01*
G01X12895Y34207D01*
G01X12895Y32902D01*
G01X11694Y32902D01*
G37*
G36*
G01X29979Y29473D02*
G01X29979Y30778D01*
G01X31181Y30778D01*
G01X31181Y29473D01*
G01X29979Y29473D01*
G37*
G36*
G01X31379Y29473D02*
G01X31379Y30778D01*
G01X32580Y30778D01*
G01X32580Y29473D01*
G01X31379Y29473D01*
G37*
G36*
G01X12506Y26425D02*
G01X12506Y27730D01*
G01X13708Y27730D01*
G01X13708Y26425D01*
G01X12506Y26425D01*
G37*
G36*
G01X11107Y26425D02*
G01X11107Y27730D01*
G01X12308Y27730D01*
G01X12308Y26425D01*
G01X11107Y26425D01*
G37*
G36*
G01X7119Y5851D02*
G01X7119Y7156D01*
G01X8321Y7156D01*
G01X8321Y5851D01*
G01X7119Y5851D01*
G37*
G36*
G01X8519Y5851D02*
G01X8519Y7156D01*
G01X9720Y7156D01*
G01X9720Y5851D01*
G01X8519Y5851D01*
G37*
G36*
G01X22077Y8279D02*
G01X22077Y9582D01*
G01X23281Y9582D01*
G01X23281Y8279D01*
G01X22077Y8279D01*
G37*
G36*
G01X23477Y8279D02*
G01X23477Y9582D01*
G01X24681Y9582D01*
G01X24681Y8279D01*
G01X23477Y8279D01*
G37*
G36*
G01X15374Y24139D02*
G01X15374Y25444D01*
G01X16576Y25444D01*
G01X16576Y24139D01*
G01X15374Y24139D01*
G37*
G36*
G01X16774Y24139D02*
G01X16774Y25444D01*
G01X17975Y25444D01*
G01X17975Y24139D01*
G01X16774Y24139D01*
G37*
G36*
G01X5087Y12201D02*
G01X5087Y13506D01*
G01X6289Y13506D01*
G01X6289Y12201D01*
G01X5087Y12201D01*
G37*
G36*
G01X6487Y12201D02*
G01X6487Y13506D01*
G01X7688Y13506D01*
G01X7688Y12201D01*
G01X6487Y12201D01*
G37*
G36*
G01X6865Y23250D02*
G01X6865Y24555D01*
G01X8067Y24555D01*
G01X8067Y23250D01*
G01X6865Y23250D01*
G37*
G36*
G01X8265Y23250D02*
G01X8265Y24555D01*
G01X9466Y24555D01*
G01X9466Y23250D01*
G01X8265Y23250D01*
G37*
G36*
G01X11183Y12963D02*
G01X11183Y14268D01*
G01X12385Y14268D01*
G01X12385Y12963D01*
G01X11183Y12963D01*
G37*
G36*
G01X12583Y12963D02*
G01X12583Y14268D01*
G01X13784Y14268D01*
G01X13784Y12963D01*
G01X12583Y12963D01*
G37*
G36*
G01X20327Y28711D02*
G01X20327Y30016D01*
G01X21529Y30016D01*
G01X21529Y28711D01*
G01X20327Y28711D01*
G37*
G36*
G01X21727Y28711D02*
G01X21727Y30016D01*
G01X22928Y30016D01*
G01X22928Y28711D01*
G01X21727Y28711D01*
G37*
G36*
G01X11310Y16265D02*
G01X11310Y17570D01*
G01X12512Y17570D01*
G01X12512Y16265D01*
G01X11310Y16265D01*
G37*
G36*
G01X12710Y16265D02*
G01X12710Y17570D01*
G01X13911Y17570D01*
G01X13911Y16265D01*
G01X12710Y16265D01*
G37*
G36*
G01X673Y5648D02*
G01X673Y10151D01*
G01X2377Y10151D01*
G01X2377Y5648D01*
G01X673Y5648D01*
G37*
G36*
G01X4279Y5648D02*
G01X4279Y10151D01*
G01X5984Y10151D01*
G01X5984Y5648D01*
G01X4279Y5648D01*
G37*
G36*
G01X3848Y17586D02*
G01X3848Y22089D01*
G01X5552Y22089D01*
G01X5552Y17586D01*
G01X3848Y17586D01*
G37*
G36*
G01X7454Y17586D02*
G01X7454Y22089D01*
G01X9159Y22089D01*
G01X9159Y17586D01*
G01X7454Y17586D01*
G37*
G36*
G01X673Y27619D02*
G01X673Y32122D01*
G01X2377Y32122D01*
G01X2377Y27619D01*
G01X673Y27619D01*
G37*
G36*
G01X4279Y27619D02*
G01X4279Y32122D01*
G01X5984Y32122D01*
G01X5984Y27619D01*
G01X4279Y27619D01*
G37*
G36*
G01X31244Y12986D02*
G01X31244Y14281D01*
G01X33606Y14281D01*
G01X33606Y12986D01*
G01X31244Y12986D01*
G37*
G36*
G01X31244Y15297D02*
G01X31244Y16592D01*
G01X33606Y16592D01*
G01X33606Y15297D01*
G01X31244Y15297D01*
G37*
G36*
G01X31244Y17583D02*
G01X31244Y18878D01*
G01X33606Y18878D01*
G01X33606Y17583D01*
G01X31244Y17583D01*
G37*
G36*
G01X25046Y14090D02*
G01X25046Y17799D01*
G01X27409Y17799D01*
G01X27409Y14090D01*
G01X25046Y14090D01*
G37*
G36*
G01X29319Y9247D02*
G01X29319Y10552D01*
G01X30520Y10552D01*
G01X30520Y9247D01*
G01X29319Y9247D01*
G37*
G36*
G01X27917Y9247D02*
G01X27917Y10552D01*
G01X29121Y10552D01*
G01X29121Y9247D01*
G01X27917Y9247D01*
G37*
G36*
G01X32318Y22869D02*
G01X32318Y24174D01*
G01X33520Y24174D01*
G01X33520Y22869D01*
G01X32318Y22869D01*
G37*
G36*
G01X30919Y22869D02*
G01X30919Y24174D01*
G01X32120Y24174D01*
G01X32120Y22869D01*
G01X30919Y22869D01*
G37*
G36*
G01X15374Y26552D02*
G01X15374Y27857D01*
G01X16576Y27857D01*
G01X16576Y26552D01*
G01X15374Y26552D01*
G37*
G36*
G01X16774Y26552D02*
G01X16774Y27857D01*
G01X17975Y27857D01*
G01X17975Y26552D01*
G01X16774Y26552D01*
G37*
G36*
G01X11310Y5851D02*
G01X11310Y7156D01*
G01X12512Y7156D01*
G01X12512Y5851D01*
G01X11310Y5851D01*
G37*
G36*
G01X12710Y5851D02*
G01X12710Y7156D01*
G01X13911Y7156D01*
G01X13911Y5851D01*
G01X12710Y5851D01*
G37*
G36*
G01X14869Y16277D02*
G01X14869Y17580D01*
G01X16070Y17580D01*
G01X16070Y16277D01*
G01X14869Y16277D01*
G37*
G36*
G01X16268Y16277D02*
G01X16268Y17580D01*
G01X17472Y17580D01*
G01X17472Y16277D01*
G01X16268Y16277D01*
G37*
G36*
G01X20327Y25282D02*
G01X20327Y26587D01*
G01X21529Y26587D01*
G01X21529Y25282D01*
G01X20327Y25282D01*
G37*
G36*
G01X21727Y25282D02*
G01X21727Y26587D01*
G01X22928Y26587D01*
G01X22928Y25282D01*
G01X21727Y25282D01*
G37*
G36*
G01X18270Y10374D02*
G01X18270Y11576D01*
G01X19575Y11576D01*
G01X19575Y10374D01*
G01X18270Y10374D01*
G37*
G36*
G01X18270Y8975D02*
G01X18270Y10176D01*
G01X19575Y10176D01*
G01X19575Y8975D01*
G01X18270Y8975D01*
G37*
G36*
G01X20218Y32218D02*
G01X20218Y33521D01*
G01X21422Y33521D01*
G01X21422Y32218D01*
G01X20218Y32218D01*
G37*
G36*
G01X21617Y32218D02*
G01X21617Y33521D01*
G01X22821Y33521D01*
G01X22821Y32218D01*
G01X21617Y32218D01*
G37*
G36*
G01X17332Y12963D02*
G01X17332Y14268D01*
G01X18534Y14268D01*
G01X18534Y12963D01*
G01X17332Y12963D01*
G37*
G36*
G01X15933Y12963D02*
G01X15933Y14268D01*
G01X17134Y14268D01*
G01X17134Y12963D01*
G01X15933Y12963D01*
G37*
G36*
G01X20447Y10639D02*
G01X20447Y11942D01*
G01X21650Y11942D01*
G01X21650Y10639D01*
G01X20447Y10639D01*
G37*
G36*
G01X21849Y10639D02*
G01X21849Y11942D01*
G01X23050Y11942D01*
G01X23050Y10639D01*
G01X21849Y10639D01*
G37*
G36*
G01X16263Y32902D02*
G01X16263Y34207D01*
G01X17465Y34207D01*
G01X17465Y32902D01*
G01X16263Y32902D01*
G37*
G36*
G01X17663Y32902D02*
G01X17663Y34207D01*
G01X18864Y34207D01*
G01X18864Y32902D01*
G01X17663Y32902D01*
G37*
G36*
G01X25407Y32267D02*
G01X25407Y33572D01*
G01X26609Y33572D01*
G01X26609Y32267D01*
G01X25407Y32267D01*
G37*
G36*
G01X26807Y32267D02*
G01X26807Y33572D01*
G01X28008Y33572D01*
G01X28008Y32267D01*
G01X26807Y32267D01*
G37*
G36*
G01X20388Y22767D02*
G01X20388Y24070D01*
G01X21592Y24070D01*
G01X21592Y22767D01*
G01X20388Y22767D01*
G37*
G36*
G01X21788Y22767D02*
G01X21788Y24070D01*
G01X22992Y24070D01*
G01X22992Y22767D01*
G01X21788Y22767D01*
G37*
G36*
G01X20238Y17707D02*
G01X20238Y18911D01*
G01X21541Y18911D01*
G01X21541Y17707D01*
G01X20238Y17707D01*
G37*
G36*
G01X20238Y16308D02*
G01X20238Y17512D01*
G01X21541Y17512D01*
G01X21541Y16308D01*
G01X20238Y16308D01*
G37*
G54D45*
G01X1500Y12650D03*
G01X1500Y15190D03*
G01X1500Y17730D03*
G01X1500Y20270D03*
G01X1500Y22810D03*
G36*
G01X497Y24347D02*
G01X497Y26351D01*
G01X2501Y26351D01*
G01X2501Y24347D01*
G01X497Y24347D01*
G37*
G01X36500Y12650D03*
G01X36500Y15190D03*
G01X36500Y17730D03*
G01X36500Y20270D03*
G01X36500Y22810D03*
G36*
G01X35499Y24347D02*
G01X35499Y26351D01*
G01X37500Y26351D01*
G01X37500Y24347D01*
G01X35499Y24347D01*
G37*
G54D47*
G01X16256Y1551D03*
G01X18796Y1551D03*
G01X21336Y1551D03*
G01X23876Y1551D03*
G01X6223Y1551D03*
G01X8763Y1551D03*
G01X11303Y1551D03*
G01X13843Y1551D03*
G01X18542Y36476D03*
G01X16002Y36476D03*
G01X13462Y36476D03*
G01X10922Y36476D03*
G36*
G01X31859Y27898D02*
G01X31859Y29102D01*
G01X33060Y29102D01*
G01X33060Y27898D01*
G01X31859Y27898D01*
G37*
G36*
G01X31859Y25498D02*
G01X31859Y26702D01*
G01X33060Y26702D01*
G01X33060Y25498D01*
G01X31859Y25498D01*
G37*
G36*
G01X23047Y19879D02*
G01X23047Y21081D01*
G01X24251Y21081D01*
G01X24251Y19879D01*
G01X23047Y19879D01*
G37*
G36*
G01X25448Y19879D02*
G01X25448Y21081D01*
G01X26652Y21081D01*
G01X26652Y19879D01*
G01X25448Y19879D01*
G37*
G36*
G01X20109Y13489D02*
G01X20109Y14690D01*
G01X21310Y14690D01*
G01X21310Y13489D01*
G01X20109Y13489D01*
G37*
G36*
G01X22509Y13489D02*
G01X22509Y14690D01*
G01X23710Y14690D01*
G01X23710Y13489D01*
G01X22509Y13489D01*
G37*
M00*
M02*
