G04 Layer: TopPasteMaskLayer*
G04 EasyEDA v6.3.22, 2020-01-22T11:07:26+01:00*
G04 dbe5752f4b9e44bf826be982e50114fc,6ac03ef627a24f5ab7c901ca926ad83b,10*
G04 Gerber Generator version 0.2*
G04 Scale: 100 percent, Rotated: No, Reflected: No *
G04 Dimensions in millimeters *
G04 leading zeros omitted , absolute positions ,3 integer and 3 decimal *
%FSLAX33Y33*%
%MOMM*%
G90*
G71D02*

%ADD19R,1.803400X0.406400*%
%ADD20R,0.999998X1.099998*%
%ADD21R,1.099998X0.999998*%
%ADD22R,1.501140X4.299991*%
%ADD23R,2.159000X1.092200*%
%ADD24R,2.159000X3.505200*%
%ADD25R,0.999998X0.999998*%

%LPD*%
G54D19*
G01X9093Y31345D03*
G01X9093Y30684D03*
G01X9093Y30049D03*
G01X9093Y29389D03*
G01X14884Y29389D03*
G01X14884Y30049D03*
G01X14884Y30684D03*
G01X14884Y31345D03*
G54D20*
G01X6070Y36359D03*
G01X7469Y36359D03*
G01X30453Y32920D03*
G01X31853Y32920D03*
G01X26008Y30253D03*
G01X27408Y30253D03*
G54D19*
G01X9855Y11025D03*
G01X9855Y10364D03*
G01X9855Y9729D03*
G01X9855Y9069D03*
G01X15646Y9069D03*
G01X15646Y9729D03*
G01X15646Y10364D03*
G01X15646Y11025D03*
G54D20*
G01X5688Y15267D03*
G01X7088Y15267D03*
G01X22679Y6750D03*
G01X24079Y6750D03*
G01X16229Y6631D03*
G01X17629Y6631D03*
G54D19*
G01X11760Y21947D03*
G01X11760Y21286D03*
G01X11760Y20651D03*
G01X11760Y19991D03*
G01X17551Y19991D03*
G01X17551Y20651D03*
G01X17551Y21286D03*
G01X17551Y21947D03*
G54D20*
G01X7466Y26316D03*
G01X8866Y26316D03*
G01X26150Y27130D03*
G01X27549Y27130D03*
G54D21*
G01X18969Y16929D03*
G01X18969Y18329D03*
G54D20*
G01X6070Y34020D03*
G01X7469Y34020D03*
G01X10895Y33555D03*
G01X12295Y33555D03*
G01X30580Y30126D03*
G01X31980Y30126D03*
G01X13107Y27078D03*
G01X11708Y27078D03*
G01X7720Y6504D03*
G01X9120Y6504D03*
G01X22679Y8929D03*
G01X24079Y8929D03*
G01X15975Y24792D03*
G01X17375Y24792D03*
G01X5688Y12854D03*
G01X7088Y12854D03*
G01X7466Y23903D03*
G01X8866Y23903D03*
G01X11784Y13616D03*
G01X13184Y13616D03*
G01X20928Y29364D03*
G01X22328Y29364D03*
G01X11911Y16918D03*
G01X13311Y16918D03*
G54D22*
G01X1524Y7901D03*
G01X5130Y7901D03*
G01X4699Y19839D03*
G01X8305Y19839D03*
G01X1524Y29872D03*
G01X5130Y29872D03*
G54D23*
G01X32426Y13634D03*
G01X32426Y15945D03*
G01X32426Y18231D03*
G54D24*
G01X26228Y15945D03*
G54D20*
G01X29919Y9899D03*
G01X28519Y9899D03*
G01X32919Y23522D03*
G01X31520Y23522D03*
G01X15975Y27205D03*
G01X17375Y27205D03*
G01X11911Y6504D03*
G01X13311Y6504D03*
G01X15469Y16929D03*
G01X16869Y16929D03*
G01X20928Y25935D03*
G01X22328Y25935D03*
G54D21*
G01X18923Y10975D03*
G01X18923Y9575D03*
G54D20*
G01X20819Y32869D03*
G01X22219Y32869D03*
G01X17933Y13616D03*
G01X16534Y13616D03*
G01X21049Y11290D03*
G01X22449Y11290D03*
G01X16864Y33555D03*
G01X18264Y33555D03*
G01X26008Y32920D03*
G01X27408Y32920D03*
G01X20989Y23419D03*
G01X22389Y23419D03*
G54D21*
G01X20889Y18310D03*
G01X20889Y16910D03*
G54D25*
G01X32459Y28499D03*
G01X32459Y26100D03*
G01X23649Y20480D03*
G01X26049Y20480D03*
G01X20709Y14089D03*
G01X23109Y14089D03*
M00*
M02*
