G04 Layer: TopLayer*
G04 EasyEDA v6.3.22, 2020-01-22T11:07:26+01:00*
G04 dbe5752f4b9e44bf826be982e50114fc,6ac03ef627a24f5ab7c901ca926ad83b,10*
G04 Gerber Generator version 0.2*
G04 Scale: 100 percent, Rotated: No, Reflected: No *
G04 Dimensions in millimeters *
G04 leading zeros omitted , absolute positions ,3 integer and 3 decimal *
%FSLAX33Y33*%
%MOMM*%
G90*
G71D02*

%ADD11C,0.899998*%
%ADD12C,0.799998*%
%ADD13C,0.399999*%
%ADD14C,0.599999*%
%ADD15C,0.750011*%
%ADD16C,0.499999*%
%ADD17C,0.999998*%
%ADD18C,0.610006*%
%ADD19R,1.803400X0.406400*%
%ADD20R,0.999998X1.099998*%
%ADD21R,1.099998X0.999998*%
%ADD22R,1.501140X4.299991*%
%ADD23R,2.159000X1.092200*%
%ADD24R,2.159000X3.505200*%
%ADD25R,0.999998X0.999998*%
%ADD26R,1.524000X1.524000*%
%ADD27C,2.499995*%
%ADD28C,1.524000*%
%ADD29C,1.799996*%
%ADD30R,1.799996X1.799996*%
%ADD31C,1.999996*%

%LPD*%
G54D11*
G01X36299Y9600D02*
G01X36400Y9499D01*
G01X30589Y6430D02*
G01X33330Y6430D01*
G01X34849Y7950D01*
G01X34848Y7949D02*
G01X35910Y7949D01*
G01X36400Y8442D01*
G01X36400Y9498D01*
G54D12*
G01X36499Y20270D02*
G01X35229Y20270D01*
G01X34510Y19551D01*
G01X34510Y8149D01*
G01X34511Y7611D01*
G54D11*
G01X23876Y1551D02*
G01X26740Y1551D01*
G01X28199Y3010D01*
G01X28199Y6480D01*
G54D13*
G01X20820Y32869D02*
G01X20820Y34436D01*
G01X20828Y34444D01*
G01X20193Y35079D01*
G01X17272Y35079D01*
G01X16864Y34671D01*
G01X16864Y33555D01*
G01X1501Y20270D02*
G01X1549Y20220D01*
G01X2540Y20220D01*
G01X3302Y20982D01*
G01X3302Y24284D01*
G01X6731Y27713D01*
G01X8255Y27713D01*
G01X8890Y27713D01*
G01X8305Y19839D02*
G01X9525Y19839D01*
G01X10020Y20334D01*
G01X10337Y20651D01*
G01X11760Y20651D01*
G01X13311Y16918D02*
G01X13311Y19608D01*
G01X12954Y19966D01*
G01X12928Y19991D01*
G01X11760Y19991D01*
G01X13311Y16918D02*
G01X13323Y16929D01*
G01X15469Y16929D01*
G01X16869Y16929D02*
G01X16869Y16929D01*
G01X18969Y16929D01*
G01X6070Y36359D02*
G01X6070Y34020D01*
G01X6070Y34020D01*
G54D14*
G01X1524Y29872D02*
G01X1524Y31142D01*
G01X2921Y32539D01*
G01X2921Y32539D02*
G01X4402Y34020D01*
G01X6070Y34020D01*
G54D13*
G01X9093Y30049D02*
G01X7289Y30049D01*
G01X7112Y29872D01*
G01X5130Y29872D01*
G01X9093Y29389D02*
G01X11150Y29389D01*
G01X11684Y28856D01*
G01X11707Y28832D01*
G01X11707Y27078D01*
G01X7466Y26316D02*
G01X7466Y23903D01*
G01X7466Y23903D01*
G54D14*
G01X7465Y23903D02*
G01X5242Y23903D01*
G01X4699Y23359D01*
G01X4699Y19839D01*
G54D13*
G01X11760Y21947D02*
G01X11760Y23421D01*
G01X8866Y26316D01*
G01X15975Y24792D02*
G01X15975Y23523D01*
G01X17551Y21947D01*
G01X11707Y28279D02*
G01X11776Y28348D01*
G01X14478Y28348D01*
G01X14478Y28348D02*
G01X15494Y28348D01*
G01X16002Y27840D01*
G01X15975Y27813D01*
G01X15975Y27205D01*
G01X26150Y27130D02*
G01X25440Y27840D01*
G01X21463Y27840D01*
G01X20927Y28375D01*
G01X20927Y29364D01*
G01X26008Y30253D02*
G01X25500Y30761D01*
G01X20066Y30761D01*
G01X17375Y28070D01*
G01X17375Y27205D01*
G01X30453Y32920D02*
G01X30453Y30253D01*
G01X30580Y30126D01*
G01X30580Y30126D02*
G01X27535Y30126D01*
G01X27408Y30253D01*
G54D14*
G01X32519Y28450D02*
G01X31970Y28650D01*
G01X28956Y28650D01*
G01X29718Y25068D02*
G01X30731Y26089D01*
G01X31970Y26089D01*
G01X32519Y26050D01*
G54D13*
G01X14884Y30049D02*
G01X17957Y30049D01*
G01X19357Y31449D01*
G01X21569Y31450D01*
G01X21579Y31450D01*
G01X21579Y31450D01*
G01X26007Y32920D02*
G01X26057Y32869D01*
G01X22219Y32869D01*
G01X27408Y32920D02*
G01X27432Y32896D01*
G01X27432Y31904D01*
G54D15*
G01X36499Y22810D02*
G01X36121Y23189D01*
G01X32824Y23189D01*
G01X32920Y23522D01*
G54D12*
G01X13311Y6504D02*
G01X16102Y6504D01*
G01X16229Y6631D01*
G01X17630Y6631D02*
G01X19685Y6631D01*
G01X19939Y6885D01*
G01X22680Y6885D01*
G01X22680Y6750D01*
G54D14*
G01X22451Y11289D02*
G01X22451Y10669D01*
G01X19806Y8028D01*
G01X16510Y8028D01*
G01X16228Y7746D01*
G01X16228Y6631D01*
G54D13*
G01X15646Y9729D02*
G01X17602Y9729D01*
G01X17797Y9549D01*
G01X19034Y9574D01*
G01X18923Y9574D01*
G01X15646Y10364D02*
G01X17068Y10364D01*
G01X17653Y10949D01*
G01X17679Y10975D01*
G01X18923Y10975D01*
G01X17933Y13616D02*
G01X18923Y12626D01*
G01X18923Y12219D01*
G01X18923Y10975D01*
G01X9855Y9069D02*
G01X12852Y9069D01*
G01X13462Y9679D01*
G01X13462Y11203D01*
G01X14478Y12219D01*
G01X16256Y12219D01*
G01X16533Y12496D01*
G01X16533Y13616D01*
G01X9855Y9729D02*
G01X6959Y9729D01*
G01X5130Y7901D01*
G01X9855Y9069D02*
G01X9120Y8334D01*
G01X9120Y6504D01*
G54D12*
G01X9120Y6504D02*
G01X11911Y6504D01*
G54D13*
G01X5688Y15267D02*
G01X5688Y12854D01*
G54D16*
G01X1524Y7901D02*
G01X1524Y9552D01*
G01X4826Y12854D01*
G01X5687Y12854D01*
G01X15367Y8282D02*
G01X15646Y8561D01*
G01X15646Y9069D01*
G01X15646Y11025D02*
G01X16459Y11025D01*
G01X17145Y11711D01*
G54D13*
G01X22179Y20651D02*
G01X22179Y20714D01*
G01X23799Y22335D01*
G01X23799Y25500D01*
G01X23249Y26050D01*
G01X23134Y25935D01*
G01X22328Y25935D01*
G01X22219Y32869D02*
G01X22219Y31840D01*
G01X21828Y31449D01*
G01X21569Y31449D01*
G54D16*
G01X18971Y18330D02*
G01X18971Y18680D01*
G01X18862Y18680D01*
G01X17551Y19991D01*
G01X17551Y19991D02*
G01X15722Y19991D01*
G01X15367Y20347D01*
G01X7470Y36359D02*
G01X7990Y36359D01*
G01X10795Y33555D01*
G01X10895Y33555D01*
G01X27432Y31904D02*
G01X27051Y31523D01*
G01X26416Y31523D01*
G01X25781Y30888D01*
G01X25781Y30253D01*
G01X26007Y30253D01*
G54D13*
G01X9093Y31345D02*
G01X14884Y31345D01*
G01X10895Y33555D02*
G01X10885Y33545D01*
G01X10885Y31345D01*
G01X14884Y30684D02*
G01X16306Y30684D01*
G01X16764Y31142D01*
G01X16764Y33454D01*
G01X16864Y33555D01*
G01X20928Y25935D02*
G01X20928Y23481D01*
G01X20989Y23419D01*
G01X14884Y29389D02*
G01X14909Y29364D01*
G01X16383Y29364D01*
G01X16637Y29110D01*
G01X9093Y31345D02*
G01X9042Y31396D01*
G01X7874Y31396D01*
G01X7366Y31904D01*
G01X15975Y24792D02*
G01X14478Y24792D01*
G01X13081Y24792D01*
G01X11760Y23471D01*
G01X11760Y23421D01*
G54D14*
G01X1501Y12650D02*
G01X1549Y12600D01*
G01X2794Y12600D01*
G01X3556Y13362D01*
G01X3556Y16156D01*
G01X4699Y17299D01*
G01X4699Y19839D01*
G54D13*
G01X11784Y13616D02*
G01X9855Y11687D01*
G01X9855Y11025D01*
G54D14*
G01X1524Y7901D02*
G01X1524Y5869D01*
G01X2667Y4726D01*
G01X14434Y4726D01*
G01X16256Y2904D01*
G01X16256Y1551D01*
G01X16510Y1551D02*
G01X18796Y1551D01*
G54D13*
G01X20889Y18310D02*
G01X20889Y19362D01*
G01X22179Y20651D01*
G54D12*
G01X22680Y8929D02*
G01X22680Y6750D01*
G01X22680Y6750D01*
G54D15*
G01X32919Y23522D02*
G01X32893Y23495D01*
G01X32893Y20855D01*
G01X32426Y20388D01*
G01X32426Y18231D01*
G54D12*
G01X31496Y24919D02*
G01X31496Y23545D01*
G01X31519Y23522D01*
G54D13*
G01X12295Y33555D02*
G01X13335Y33555D01*
G01X13970Y32920D01*
G01X13970Y32412D01*
G01X7470Y34020D02*
G01X8297Y34020D01*
G01X9017Y33301D01*
G01X9017Y32412D01*
G01X9093Y30684D02*
G01X11252Y30684D01*
G01X11557Y30380D01*
G54D12*
G01X17375Y24792D02*
G01X18796Y24792D01*
G54D13*
G01X8866Y23903D02*
G01X9906Y22863D01*
G01X9906Y22379D01*
G01X11760Y21286D02*
G01X10236Y21286D01*
G01X9906Y21617D01*
G01X9906Y22379D01*
G01X11911Y16918D02*
G01X11938Y16891D01*
G01X11938Y15775D01*
G01X12573Y15140D01*
G01X12700Y15140D01*
G01X12700Y15140D02*
G01X13184Y14655D01*
G01X13184Y13616D01*
G54D12*
G01X7747Y8028D02*
G01X7747Y6530D01*
G01X7720Y6504D01*
G54D13*
G01X7088Y12854D02*
G01X7112Y12830D01*
G01X7112Y11584D01*
G01X7747Y10949D01*
G01X9855Y10364D02*
G01X8331Y10364D01*
G01X7747Y10949D01*
G54D12*
G01X22328Y29364D02*
G01X23495Y29364D01*
G01X23876Y28983D01*
G54D13*
G01X31853Y32920D02*
G01X32004Y32769D01*
G01X32004Y31650D01*
G01X31980Y30126D02*
G01X32004Y30149D01*
G01X32004Y31650D01*
G54D12*
G01X27550Y27130D02*
G01X27550Y25690D01*
G01X27539Y25679D01*
G01X28520Y9900D02*
G01X27019Y9900D01*
G01X26999Y9880D01*
G54D13*
G01X26199Y15959D02*
G01X26214Y15959D01*
G01X26228Y15945D01*
G54D12*
G01X26228Y15945D02*
G01X31158Y15945D01*
G01X32426Y15945D01*
G54D13*
G01X13107Y27078D02*
G01X13208Y26977D01*
G01X13208Y25681D01*
G54D12*
G01X24080Y8929D02*
G01X24080Y7850D01*
G01X24070Y7840D01*
G01X24080Y6750D02*
G01X24080Y7829D01*
G01X24070Y7840D01*
G54D13*
G01X17551Y21286D02*
G01X20497Y21286D01*
G01X20955Y21769D01*
G01X20955Y23419D01*
G01X20989Y23419D01*
G54D12*
G01X30279Y13220D02*
G01X29428Y13219D01*
G01X23980Y13219D01*
G01X23108Y14090D01*
G54D13*
G01X8890Y27713D02*
G01X8866Y27689D01*
G01X8866Y26316D01*
G01X18970Y16929D02*
G01X19010Y16970D01*
G01X20830Y16970D01*
G01X20889Y16910D01*
G54D14*
G01X26008Y30253D02*
G01X26008Y29161D01*
G01X26519Y28650D01*
G01X28956Y28650D01*
G54D12*
G01X27549Y27130D02*
G01X30690Y27130D01*
G01X30699Y27139D01*
G54D13*
G01X17551Y20651D02*
G01X22180Y20651D01*
G54D14*
G01X30607Y21490D02*
G01X28011Y21490D01*
G01X27000Y20479D01*
G01X26050Y20479D01*
G01X18923Y9575D02*
G01X19875Y9575D01*
G01X21049Y10750D01*
G01X21049Y11290D01*
G01X20708Y14090D02*
G01X20708Y13699D01*
G01X21569Y12841D01*
G01X22179Y12841D01*
G01X22459Y12520D01*
G01X22451Y12516D01*
G01X22451Y11289D01*
G54D13*
G01X20889Y16910D02*
G01X22700Y16910D01*
G01X23649Y17859D01*
G01X23649Y20480D01*
G54D14*
G01X26049Y20480D02*
G01X26049Y21400D01*
G01X29718Y25068D01*
G54D11*
G01X29919Y9900D02*
G01X29919Y12859D01*
G01X30279Y13220D01*
G01X30279Y13220D02*
G01X30693Y13634D01*
G01X32426Y13634D01*
G54D19*
G01X9093Y31345D03*
G01X9093Y30684D03*
G01X9093Y30049D03*
G01X9093Y29389D03*
G01X14884Y29389D03*
G01X14884Y30049D03*
G01X14884Y30684D03*
G01X14884Y31345D03*
G54D20*
G01X6070Y36359D03*
G01X7469Y36359D03*
G01X30453Y32920D03*
G01X31853Y32920D03*
G01X26008Y30253D03*
G01X27408Y30253D03*
G54D19*
G01X9855Y11025D03*
G01X9855Y10364D03*
G01X9855Y9729D03*
G01X9855Y9069D03*
G01X15646Y9069D03*
G01X15646Y9729D03*
G01X15646Y10364D03*
G01X15646Y11025D03*
G54D20*
G01X5688Y15267D03*
G01X7088Y15267D03*
G01X22679Y6750D03*
G01X24079Y6750D03*
G01X16229Y6631D03*
G01X17629Y6631D03*
G54D19*
G01X11760Y21947D03*
G01X11760Y21286D03*
G01X11760Y20651D03*
G01X11760Y19991D03*
G01X17551Y19991D03*
G01X17551Y20651D03*
G01X17551Y21286D03*
G01X17551Y21947D03*
G54D20*
G01X7466Y26316D03*
G01X8866Y26316D03*
G01X26150Y27130D03*
G01X27549Y27130D03*
G54D21*
G01X18969Y16929D03*
G01X18969Y18329D03*
G54D20*
G01X6070Y34020D03*
G01X7469Y34020D03*
G01X10895Y33555D03*
G01X12295Y33555D03*
G01X30580Y30126D03*
G01X31980Y30126D03*
G01X13107Y27078D03*
G01X11708Y27078D03*
G01X7720Y6504D03*
G01X9120Y6504D03*
G01X22679Y8929D03*
G01X24079Y8929D03*
G01X15975Y24792D03*
G01X17375Y24792D03*
G01X5688Y12854D03*
G01X7088Y12854D03*
G01X7466Y23903D03*
G01X8866Y23903D03*
G01X11784Y13616D03*
G01X13184Y13616D03*
G01X20928Y29364D03*
G01X22328Y29364D03*
G01X11911Y16918D03*
G01X13311Y16918D03*
G54D22*
G01X1524Y7901D03*
G01X5130Y7901D03*
G01X4699Y19839D03*
G01X8305Y19839D03*
G01X1524Y29872D03*
G01X5130Y29872D03*
G54D23*
G01X32426Y13634D03*
G01X32426Y15945D03*
G01X32426Y18231D03*
G54D24*
G01X26228Y15945D03*
G54D20*
G01X29919Y9899D03*
G01X28519Y9899D03*
G01X32919Y23522D03*
G01X31520Y23522D03*
G01X15975Y27205D03*
G01X17375Y27205D03*
G01X11911Y6504D03*
G01X13311Y6504D03*
G01X15469Y16929D03*
G01X16869Y16929D03*
G01X20928Y25935D03*
G01X22328Y25935D03*
G54D21*
G01X18923Y10975D03*
G01X18923Y9575D03*
G54D20*
G01X20819Y32869D03*
G01X22219Y32869D03*
G01X17933Y13616D03*
G01X16534Y13616D03*
G01X21049Y11290D03*
G01X22449Y11290D03*
G01X16864Y33555D03*
G01X18264Y33555D03*
G01X26008Y32920D03*
G01X27408Y32920D03*
G01X20989Y23419D03*
G01X22389Y23419D03*
G54D21*
G01X20889Y18310D03*
G01X20889Y16910D03*
G54D25*
G01X32459Y28499D03*
G01X32459Y26100D03*
G01X23649Y20480D03*
G01X26049Y20480D03*
G01X20709Y14089D03*
G01X23109Y14089D03*
G54D26*
G01X36399Y9499D03*
G54D27*
G01X2500Y2499D03*
G01X35500Y2499D03*
G01X35500Y35499D03*
G01X2500Y35499D03*
G54D28*
G01X30589Y6430D03*
G54D26*
G01X28199Y6480D03*
G54D29*
G01X1500Y12650D03*
G01X1500Y15190D03*
G01X1500Y17730D03*
G01X1500Y20270D03*
G01X1500Y22810D03*
G54D30*
G01X1500Y25350D03*
G54D29*
G01X36500Y12650D03*
G01X36500Y15190D03*
G01X36500Y17730D03*
G01X36500Y20270D03*
G01X36500Y22810D03*
G54D30*
G01X36500Y25350D03*
G54D31*
G01X16256Y1551D03*
G01X18796Y1551D03*
G01X21336Y1551D03*
G01X23876Y1551D03*
G01X6223Y1551D03*
G01X8763Y1551D03*
G01X11303Y1551D03*
G01X13843Y1551D03*
G01X18542Y36476D03*
G01X16002Y36476D03*
G01X13462Y36476D03*
G01X10922Y36476D03*
G54D12*
G01X17629Y6631D03*
G01X15367Y8282D03*
G01X17145Y11711D03*
G01X11811Y13616D03*
G01X22400Y23450D03*
G01X15379Y16940D03*
G01X15367Y20347D03*
G01X20955Y29364D03*
G01X27408Y30253D03*
G01X16637Y29110D03*
G01X14478Y28348D03*
G01X18288Y33555D03*
G01X7112Y15267D03*
G01X7366Y31904D03*
G01X8890Y27713D03*
G01X2921Y32539D03*
G01X30607Y21490D03*
G01X31496Y24919D03*
G01X27539Y25679D03*
G01X32004Y31650D03*
G01X26999Y9880D03*
G54D17*
G01X26199Y15959D03*
G54D12*
G01X7747Y10949D03*
G01X7747Y8028D03*
G01X12700Y15140D03*
G01X9906Y22379D03*
G54D18*
G01X13208Y25681D03*
G54D12*
G01X18796Y24792D03*
G01X11557Y30380D03*
G01X9017Y32412D03*
G01X13970Y32412D03*
G01X23876Y28983D03*
G01X29389Y15940D03*
G01X24070Y7840D03*
G01X30699Y27139D03*
G01X26049Y20480D03*
G01X23109Y14089D03*
M00*
M02*
