;Layer: Drill PTH
;EasyEDA v6.3.22, 2020-01-22T11:07:26+01:00
;dbe5752f4b9e44bf826be982e50114fc,6ac03ef627a24f5ab7c901ca926ad83b,10
;Gerber Generator version 0.2
M48
METRIC,LZ,000.000
;Holesize 1 = 0.305 METRIC
T01C0.305
;Holesize 2 = 0.306 METRIC
T02C0.306
;Holesize 3 = 0.901 METRIC
T03C0.901
;Holesize 4 = 1.000 METRIC
T04C1.000
;Holesize 5 = 1.200 METRIC
T05C1.200
;Holesize 6 = 2.050 METRIC
T06C2.050
%
G05
G90
T01
X+017629Y+006631
X+015367Y+008282
X+017145Y+011711
X+011811Y+013616
X+022400Y+023450
X+015379Y+016940
X+015367Y+020347
X+020955Y+029364
X+027408Y+030253
X+016637Y+029110
X+014478Y+028348
X+018288Y+033555
X+007112Y+015267
X+007366Y+031904
X+008890Y+027713
X+002921Y+032539
X+030607Y+021490
X+031496Y+024919
X+027539Y+025679
X+032004Y+031650
X+026999Y+009880
X+026199Y+015959
X+007747Y+010949
X+007747Y+008028
X+012700Y+015140
X+009906Y+022379
X+013208Y+025681
X+018796Y+024792
X+011557Y+030380
X+009017Y+032412
X+013970Y+032412
X+023876Y+028983
X+029389Y+015940
X+030699Y+027139
X+026049Y+020480
X+023109Y+014089
T02
X+024070Y+007840
T03
X+036400Y+009499
X+030589Y+006430
X+028199Y+006480
T04
X+016256Y+001551
X+018796Y+001551
X+021336Y+001551
X+023876Y+001551
X+006223Y+001551
X+008763Y+001551
X+011303Y+001551
X+013843Y+001551
X+018542Y+036476
X+016002Y+036476
X+013462Y+036476
X+010922Y+036476
T05
X+001499Y+012650
X+001499Y+015190
X+001499Y+017730
X+001499Y+020270
X+001499Y+022810
X+001499Y+025350
X+036500Y+012650
X+036500Y+015190
X+036500Y+017730
X+036500Y+020270
X+036500Y+022810
X+036500Y+025350
T06
X+002499Y+002499
X+035500Y+002499
X+035500Y+035500
X+002499Y+035500
M30
