G04 Layer: BottomLayer*
G04 EasyEDA v6.3.22, 2020-01-22T11:07:26+01:00*
G04 dbe5752f4b9e44bf826be982e50114fc,6ac03ef627a24f5ab7c901ca926ad83b,10*
G04 Gerber Generator version 0.2*
G04 Scale: 100 percent, Rotated: No, Reflected: No *
G04 Dimensions in millimeters *
G04 leading zeros omitted , absolute positions ,3 integer and 3 decimal *
%FSLAX33Y33*%
%MOMM*%
G90*
G71D02*

%ADD12C,0.799998*%
%ADD13C,0.399999*%
%ADD14C,0.599999*%
%ADD15C,0.750011*%
%ADD16C,0.499999*%
%ADD17C,0.999998*%
%ADD18C,0.610006*%
%ADD26R,1.524000X1.524000*%
%ADD27C,2.499995*%
%ADD28C,1.524000*%
%ADD29C,1.799996*%
%ADD30R,1.799996X1.799996*%
%ADD31C,1.999996*%

%LPD*%
G36*
G01X35999Y37997D02*
G01X1999Y37997D01*
G01X1935Y37996D01*
G01X1871Y37993D01*
G01X1807Y37988D01*
G01X1744Y37981D01*
G01X1680Y37972D01*
G01X1617Y37960D01*
G01X1555Y37947D01*
G01X1493Y37931D01*
G01X1431Y37914D01*
G01X1370Y37895D01*
G01X1310Y37874D01*
G01X1250Y37851D01*
G01X1191Y37826D01*
G01X1133Y37799D01*
G01X1075Y37770D01*
G01X1019Y37740D01*
G01X964Y37707D01*
G01X910Y37673D01*
G01X856Y37638D01*
G01X805Y37600D01*
G01X754Y37561D01*
G01X705Y37520D01*
G01X657Y37478D01*
G01X610Y37435D01*
G01X564Y37389D01*
G01X521Y37342D01*
G01X479Y37294D01*
G01X438Y37245D01*
G01X399Y37194D01*
G01X361Y37143D01*
G01X326Y37089D01*
G01X292Y37035D01*
G01X259Y36980D01*
G01X229Y36924D01*
G01X200Y36866D01*
G01X173Y36808D01*
G01X148Y36749D01*
G01X125Y36689D01*
G01X104Y36629D01*
G01X85Y36568D01*
G01X68Y36506D01*
G01X52Y36444D01*
G01X39Y36382D01*
G01X27Y36319D01*
G01X18Y36255D01*
G01X11Y36192D01*
G01X6Y36128D01*
G01X3Y36064D01*
G01X2Y36000D01*
G01X2Y2000D01*
G01X3Y1936D01*
G01X6Y1872D01*
G01X11Y1808D01*
G01X18Y1744D01*
G01X27Y1681D01*
G01X39Y1618D01*
G01X52Y1555D01*
G01X68Y1493D01*
G01X85Y1431D01*
G01X104Y1370D01*
G01X125Y1310D01*
G01X148Y1250D01*
G01X173Y1191D01*
G01X200Y1133D01*
G01X229Y1076D01*
G01X259Y1019D01*
G01X292Y964D01*
G01X326Y910D01*
G01X361Y857D01*
G01X399Y805D01*
G01X438Y754D01*
G01X479Y705D01*
G01X521Y656D01*
G01X564Y610D01*
G01X610Y564D01*
G01X657Y521D01*
G01X705Y479D01*
G01X754Y438D01*
G01X805Y399D01*
G01X856Y361D01*
G01X910Y325D01*
G01X964Y291D01*
G01X1019Y259D01*
G01X1075Y229D01*
G01X1133Y200D01*
G01X1191Y173D01*
G01X1250Y148D01*
G01X1310Y125D01*
G01X1370Y104D01*
G01X1431Y84D01*
G01X1493Y67D01*
G01X1555Y52D01*
G01X1617Y39D01*
G01X1680Y28D01*
G01X1744Y18D01*
G01X1807Y11D01*
G01X1871Y6D01*
G01X1935Y3D01*
G01X1999Y2D01*
G01X35999Y2D01*
G01X36063Y3D01*
G01X36127Y6D01*
G01X36191Y11D01*
G01X36255Y18D01*
G01X36318Y28D01*
G01X36381Y39D01*
G01X36444Y52D01*
G01X36506Y67D01*
G01X36568Y84D01*
G01X36629Y104D01*
G01X36689Y125D01*
G01X36749Y148D01*
G01X36808Y173D01*
G01X36866Y200D01*
G01X36923Y229D01*
G01X36980Y259D01*
G01X37035Y291D01*
G01X37089Y325D01*
G01X37142Y361D01*
G01X37194Y399D01*
G01X37245Y438D01*
G01X37294Y479D01*
G01X37343Y521D01*
G01X37389Y564D01*
G01X37435Y610D01*
G01X37478Y656D01*
G01X37520Y705D01*
G01X37561Y754D01*
G01X37600Y805D01*
G01X37638Y857D01*
G01X37674Y910D01*
G01X37708Y964D01*
G01X37740Y1019D01*
G01X37770Y1076D01*
G01X37799Y1133D01*
G01X37826Y1191D01*
G01X37851Y1250D01*
G01X37874Y1310D01*
G01X37895Y1370D01*
G01X37915Y1431D01*
G01X37932Y1493D01*
G01X37947Y1555D01*
G01X37960Y1618D01*
G01X37971Y1681D01*
G01X37981Y1744D01*
G01X37988Y1808D01*
G01X37993Y1872D01*
G01X37996Y1936D01*
G01X37997Y2000D01*
G01X37997Y36000D01*
G01X37996Y36064D01*
G01X37993Y36128D01*
G01X37988Y36192D01*
G01X37981Y36255D01*
G01X37971Y36319D01*
G01X37960Y36382D01*
G01X37947Y36444D01*
G01X37932Y36506D01*
G01X37915Y36568D01*
G01X37895Y36629D01*
G01X37874Y36689D01*
G01X37851Y36749D01*
G01X37826Y36808D01*
G01X37799Y36866D01*
G01X37770Y36924D01*
G01X37740Y36980D01*
G01X37708Y37035D01*
G01X37674Y37089D01*
G01X37638Y37143D01*
G01X37600Y37194D01*
G01X37561Y37245D01*
G01X37520Y37294D01*
G01X37478Y37342D01*
G01X37435Y37389D01*
G01X37389Y37435D01*
G01X37343Y37478D01*
G01X37294Y37520D01*
G01X37245Y37561D01*
G01X37194Y37600D01*
G01X37142Y37638D01*
G01X37089Y37673D01*
G01X37035Y37707D01*
G01X36980Y37740D01*
G01X36923Y37770D01*
G01X36866Y37799D01*
G01X36808Y37826D01*
G01X36749Y37851D01*
G01X36689Y37874D01*
G01X36629Y37895D01*
G01X36568Y37914D01*
G01X36506Y37931D01*
G01X36444Y37947D01*
G01X36381Y37960D01*
G01X36318Y37972D01*
G01X36255Y37981D01*
G01X36191Y37988D01*
G01X36127Y37993D01*
G01X36063Y37996D01*
G01X35999Y37997D01*
G37*

%LPC*%
G36*
G01X1548Y13805D02*
G01X1500Y13806D01*
G01X1450Y13805D01*
G01X1402Y13802D01*
G01X1353Y13797D01*
G01X1304Y13789D01*
G01X1256Y13780D01*
G01X1208Y13769D01*
G01X1161Y13755D01*
G01X1115Y13740D01*
G01X1068Y13723D01*
G01X1023Y13703D01*
G01X979Y13682D01*
G01X936Y13659D01*
G01X893Y13634D01*
G01X852Y13608D01*
G01X812Y13579D01*
G01X773Y13549D01*
G01X736Y13518D01*
G01X664Y13450D01*
G01X631Y13414D01*
G01X600Y13376D01*
G01X570Y13337D01*
G01X542Y13297D01*
G01X515Y13256D01*
G01X490Y13214D01*
G01X467Y13170D01*
G01X446Y13126D01*
G01X427Y13081D01*
G01X409Y13035D01*
G01X394Y12988D01*
G01X381Y12941D01*
G01X369Y12893D01*
G01X360Y12845D01*
G01X353Y12797D01*
G01X347Y12748D01*
G01X344Y12699D01*
G01X343Y12649D01*
G01X344Y12601D01*
G01X347Y12551D01*
G01X353Y12502D01*
G01X360Y12454D01*
G01X369Y12406D01*
G01X381Y12358D01*
G01X394Y12311D01*
G01X409Y12264D01*
G01X427Y12219D01*
G01X446Y12173D01*
G01X467Y12129D01*
G01X490Y12085D01*
G01X515Y12043D01*
G01X542Y12002D01*
G01X570Y11962D01*
G01X600Y11923D01*
G01X631Y11885D01*
G01X664Y11849D01*
G01X736Y11781D01*
G01X773Y11750D01*
G01X812Y11720D01*
G01X852Y11691D01*
G01X893Y11665D01*
G01X936Y11640D01*
G01X979Y11617D01*
G01X1023Y11596D01*
G01X1068Y11576D01*
G01X1115Y11559D01*
G01X1161Y11544D01*
G01X1208Y11530D01*
G01X1256Y11519D01*
G01X1304Y11510D01*
G01X1353Y11502D01*
G01X1402Y11497D01*
G01X1450Y11494D01*
G01X1500Y11493D01*
G01X1553Y11494D01*
G01X1607Y11498D01*
G01X1660Y11504D01*
G01X1712Y11513D01*
G01X1765Y11524D01*
G01X1817Y11537D01*
G01X1868Y11553D01*
G01X1918Y11571D01*
G01X1937Y11576D01*
G01X1955Y11578D01*
G01X1971Y11577D01*
G01X1986Y11573D01*
G01X2001Y11567D01*
G01X2015Y11559D01*
G01X2027Y11548D01*
G01X5536Y8039D01*
G01X5546Y8027D01*
G01X5555Y8014D01*
G01X5561Y7999D01*
G01X5565Y7983D01*
G01X5566Y7968D01*
G01X5566Y2677D01*
G01X5565Y2661D01*
G01X5561Y2645D01*
G01X5554Y2629D01*
G01X5545Y2616D01*
G01X5534Y2604D01*
G01X5521Y2593D01*
G01X5479Y2563D01*
G01X5439Y2532D01*
G01X5399Y2499D01*
G01X5361Y2465D01*
G01X5324Y2429D01*
G01X5289Y2392D01*
G01X5256Y2353D01*
G01X5224Y2314D01*
G01X5194Y2272D01*
G01X5165Y2229D01*
G01X5138Y2186D01*
G01X5090Y2096D01*
G01X5069Y2049D01*
G01X5050Y2001D01*
G01X5032Y1953D01*
G01X5017Y1904D01*
G01X5003Y1855D01*
G01X4992Y1805D01*
G01X4982Y1755D01*
G01X4975Y1704D01*
G01X4970Y1653D01*
G01X4967Y1602D01*
G01X4966Y1551D01*
G01X4967Y1500D01*
G01X4970Y1449D01*
G01X4975Y1399D01*
G01X4982Y1349D01*
G01X4991Y1299D01*
G01X5002Y1250D01*
G01X5015Y1201D01*
G01X5047Y1105D01*
G01X5066Y1058D01*
G01X5087Y1012D01*
G01X5110Y967D01*
G01X5134Y922D01*
G01X5160Y879D01*
G01X5188Y837D01*
G01X5218Y796D01*
G01X5249Y756D01*
G01X5282Y717D01*
G01X5316Y680D01*
G01X5352Y644D01*
G01X5389Y610D01*
G01X5428Y577D01*
G01X5468Y546D01*
G01X5509Y516D01*
G01X5551Y488D01*
G01X5594Y462D01*
G01X5639Y438D01*
G01X5684Y415D01*
G01X5730Y394D01*
G01X5777Y375D01*
G01X5873Y343D01*
G01X5922Y330D01*
G01X5971Y319D01*
G01X6021Y310D01*
G01X6071Y303D01*
G01X6121Y298D01*
G01X6172Y295D01*
G01X6223Y294D01*
G01X6274Y295D01*
G01X6325Y298D01*
G01X6376Y303D01*
G01X6427Y310D01*
G01X6477Y320D01*
G01X6527Y331D01*
G01X6576Y345D01*
G01X6625Y360D01*
G01X6673Y378D01*
G01X6721Y397D01*
G01X6768Y418D01*
G01X6858Y466D01*
G01X6901Y493D01*
G01X6944Y522D01*
G01X6986Y552D01*
G01X7025Y584D01*
G01X7064Y617D01*
G01X7101Y652D01*
G01X7137Y689D01*
G01X7171Y727D01*
G01X7204Y767D01*
G01X7235Y807D01*
G01X7265Y849D01*
G01X7276Y862D01*
G01X7288Y873D01*
G01X7301Y882D01*
G01X7317Y889D01*
G01X7333Y893D01*
G01X7349Y894D01*
G01X7636Y894D01*
G01X7652Y893D01*
G01X7668Y889D01*
G01X7684Y882D01*
G01X7697Y873D01*
G01X7709Y862D01*
G01X7720Y849D01*
G01X7750Y807D01*
G01X7781Y767D01*
G01X7814Y727D01*
G01X7848Y689D01*
G01X7884Y652D01*
G01X7921Y617D01*
G01X7960Y584D01*
G01X7999Y552D01*
G01X8041Y522D01*
G01X8084Y493D01*
G01X8127Y466D01*
G01X8217Y418D01*
G01X8264Y397D01*
G01X8312Y378D01*
G01X8360Y360D01*
G01X8409Y345D01*
G01X8458Y331D01*
G01X8508Y320D01*
G01X8558Y310D01*
G01X8609Y303D01*
G01X8660Y298D01*
G01X8711Y295D01*
G01X8763Y294D01*
G01X8813Y295D01*
G01X8864Y298D01*
G01X8914Y303D01*
G01X8964Y310D01*
G01X9014Y320D01*
G01X9063Y330D01*
G01X9112Y343D01*
G01X9208Y375D01*
G01X9255Y395D01*
G01X9301Y415D01*
G01X9347Y438D01*
G01X9391Y462D01*
G01X9434Y489D01*
G01X9476Y517D01*
G01X9517Y546D01*
G01X9558Y577D01*
G01X9596Y610D01*
G01X9633Y644D01*
G01X9669Y680D01*
G01X9703Y717D01*
G01X9736Y756D01*
G01X9767Y796D01*
G01X9797Y837D01*
G01X9825Y879D01*
G01X9851Y923D01*
G01X9875Y967D01*
G01X9898Y1012D01*
G01X9919Y1058D01*
G01X9938Y1105D01*
G01X9944Y1123D01*
G01X9961Y1175D01*
G01X9977Y1227D01*
G01X9990Y1280D01*
G01X10000Y1334D01*
G01X10009Y1387D01*
G01X10014Y1442D01*
G01X10018Y1496D01*
G01X10019Y1551D01*
G01X10018Y1605D01*
G01X10014Y1659D01*
G01X10009Y1714D01*
G01X10000Y1767D01*
G01X9990Y1821D01*
G01X9977Y1874D01*
G01X9961Y1926D01*
G01X9944Y1978D01*
G01X9938Y1996D01*
G01X9919Y2043D01*
G01X9898Y2089D01*
G01X9875Y2134D01*
G01X9851Y2178D01*
G01X9825Y2222D01*
G01X9797Y2264D01*
G01X9767Y2305D01*
G01X9736Y2345D01*
G01X9703Y2384D01*
G01X9669Y2421D01*
G01X9633Y2457D01*
G01X9596Y2491D01*
G01X9558Y2524D01*
G01X9517Y2555D01*
G01X9476Y2584D01*
G01X9434Y2612D01*
G01X9391Y2639D01*
G01X9347Y2663D01*
G01X9301Y2686D01*
G01X9255Y2706D01*
G01X9208Y2726D01*
G01X9112Y2758D01*
G01X9063Y2771D01*
G01X9014Y2781D01*
G01X8964Y2791D01*
G01X8914Y2798D01*
G01X8864Y2803D01*
G01X8813Y2806D01*
G01X8763Y2807D01*
G01X8711Y2806D01*
G01X8660Y2803D01*
G01X8609Y2798D01*
G01X8558Y2791D01*
G01X8508Y2781D01*
G01X8458Y2770D01*
G01X8409Y2756D01*
G01X8360Y2741D01*
G01X8312Y2723D01*
G01X8264Y2704D01*
G01X8217Y2683D01*
G01X8127Y2635D01*
G01X8084Y2608D01*
G01X8041Y2579D01*
G01X7999Y2549D01*
G01X7960Y2517D01*
G01X7921Y2484D01*
G01X7884Y2449D01*
G01X7848Y2412D01*
G01X7814Y2374D01*
G01X7781Y2334D01*
G01X7750Y2294D01*
G01X7720Y2252D01*
G01X7709Y2239D01*
G01X7697Y2228D01*
G01X7684Y2219D01*
G01X7668Y2212D01*
G01X7652Y2208D01*
G01X7636Y2207D01*
G01X7349Y2207D01*
G01X7333Y2208D01*
G01X7317Y2212D01*
G01X7301Y2219D01*
G01X7288Y2228D01*
G01X7276Y2239D01*
G01X7265Y2252D01*
G01X7234Y2296D01*
G01X7201Y2339D01*
G01X7166Y2380D01*
G01X7130Y2420D01*
G01X7092Y2458D01*
G01X7052Y2494D01*
G01X7011Y2529D01*
G01X6968Y2562D01*
G01X6924Y2593D01*
G01X6911Y2604D01*
G01X6900Y2616D01*
G01X6891Y2629D01*
G01X6884Y2645D01*
G01X6880Y2661D01*
G01X6879Y2677D01*
G01X6879Y8282D01*
G01X6878Y8318D01*
G01X6875Y8355D01*
G01X6870Y8391D01*
G01X6863Y8428D01*
G01X6853Y8463D01*
G01X6842Y8498D01*
G01X6829Y8533D01*
G01X6814Y8566D01*
G01X6797Y8599D01*
G01X6778Y8631D01*
G01X6758Y8661D01*
G01X6736Y8691D01*
G01X6712Y8719D01*
G01X6687Y8746D01*
G01X2673Y12760D01*
G01X2662Y12772D01*
G01X2654Y12786D01*
G01X2648Y12801D01*
G01X2644Y12817D01*
G01X2636Y12865D01*
G01X2626Y12912D01*
G01X2614Y12959D01*
G01X2600Y13005D01*
G01X2584Y13052D01*
G01X2566Y13096D01*
G01X2547Y13141D01*
G01X2525Y13184D01*
G01X2502Y13227D01*
G01X2477Y13269D01*
G01X2450Y13309D01*
G01X2422Y13348D01*
G01X2391Y13386D01*
G01X2360Y13423D01*
G01X2327Y13458D01*
G01X2292Y13492D01*
G01X2256Y13525D01*
G01X2218Y13556D01*
G01X2180Y13585D01*
G01X2140Y13612D01*
G01X2099Y13638D01*
G01X2057Y13663D01*
G01X2014Y13685D01*
G01X1971Y13706D01*
G01X1926Y13725D01*
G01X1834Y13757D01*
G01X1788Y13769D01*
G01X1740Y13781D01*
G01X1693Y13790D01*
G01X1645Y13797D01*
G01X1597Y13802D01*
G01X1548Y13805D01*
G37*
G36*
G01X36549Y13805D02*
G01X36500Y13806D01*
G01X36450Y13805D01*
G01X36401Y13802D01*
G01X36352Y13796D01*
G01X36303Y13789D01*
G01X36254Y13780D01*
G01X36206Y13768D01*
G01X36159Y13755D01*
G01X36112Y13739D01*
G01X36066Y13722D01*
G01X36020Y13702D01*
G01X35976Y13681D01*
G01X35932Y13658D01*
G01X35890Y13632D01*
G01X35849Y13605D01*
G01X35808Y13577D01*
G01X35769Y13546D01*
G01X35732Y13514D01*
G01X35696Y13481D01*
G01X35661Y13446D01*
G01X35628Y13409D01*
G01X35596Y13371D01*
G01X35566Y13332D01*
G01X35538Y13291D01*
G01X35511Y13250D01*
G01X35486Y13207D01*
G01X35463Y13163D01*
G01X35455Y13150D01*
G01X35445Y13137D01*
G01X35433Y13127D01*
G01X35419Y13118D01*
G01X35404Y13112D01*
G01X35388Y13108D01*
G01X35373Y13107D01*
G01X34721Y13107D01*
G01X34689Y13105D01*
G01X34656Y13102D01*
G01X34624Y13096D01*
G01X34593Y13088D01*
G01X34562Y13078D01*
G01X34532Y13065D01*
G01X34502Y13051D01*
G01X34474Y13034D01*
G01X34447Y13016D01*
G01X34422Y12995D01*
G01X34399Y12973D01*
G01X32951Y11525D01*
G01X32929Y11502D01*
G01X32908Y11476D01*
G01X32889Y11449D01*
G01X32873Y11421D01*
G01X32858Y11392D01*
G01X32846Y11362D01*
G01X32836Y11331D01*
G01X32827Y11300D01*
G01X32821Y11268D01*
G01X32818Y11235D01*
G01X32817Y11203D01*
G01X32817Y5825D01*
G01X32816Y5810D01*
G01X32812Y5794D01*
G01X32806Y5779D01*
G01X32798Y5766D01*
G01X32787Y5754D01*
G01X31720Y4686D01*
G01X31707Y4676D01*
G01X31694Y4667D01*
G01X31679Y4661D01*
G01X31664Y4657D01*
G01X31648Y4656D01*
G01X19870Y4656D01*
G01X19837Y4655D01*
G01X19805Y4652D01*
G01X19773Y4646D01*
G01X19741Y4638D01*
G01X19710Y4627D01*
G01X19680Y4615D01*
G01X19651Y4601D01*
G01X19623Y4584D01*
G01X19596Y4565D01*
G01X19571Y4545D01*
G01X19547Y4522D01*
G01X18473Y3448D01*
G01X18451Y3425D01*
G01X18430Y3399D01*
G01X18411Y3372D01*
G01X18395Y3344D01*
G01X18380Y3315D01*
G01X18368Y3285D01*
G01X18358Y3254D01*
G01X18349Y3222D01*
G01X18343Y3190D01*
G01X18340Y3158D01*
G01X18339Y3125D01*
G01X18339Y2788D01*
G01X18338Y2774D01*
G01X18335Y2760D01*
G01X18330Y2746D01*
G01X18323Y2734D01*
G01X18314Y2722D01*
G01X18304Y2712D01*
G01X18292Y2703D01*
G01X18279Y2696D01*
G01X18232Y2674D01*
G01X18186Y2649D01*
G01X18141Y2623D01*
G01X18098Y2595D01*
G01X18055Y2566D01*
G01X18014Y2534D01*
G01X17974Y2501D01*
G01X17935Y2466D01*
G01X17898Y2430D01*
G01X17863Y2392D01*
G01X17829Y2353D01*
G01X17796Y2313D01*
G01X17766Y2270D01*
G01X17737Y2227D01*
G01X17710Y2183D01*
G01X17685Y2138D01*
G01X17661Y2091D01*
G01X17640Y2044D01*
G01X17620Y1996D01*
G01X17614Y1982D01*
G01X17605Y1969D01*
G01X17595Y1958D01*
G01X17583Y1948D01*
G01X17570Y1941D01*
G01X17556Y1935D01*
G01X17541Y1932D01*
G01X17526Y1930D01*
G01X17510Y1932D01*
G01X17495Y1935D01*
G01X17481Y1941D01*
G01X17468Y1948D01*
G01X17456Y1958D01*
G01X17446Y1969D01*
G01X17437Y1982D01*
G01X17431Y1996D01*
G01X17412Y2043D01*
G01X17391Y2089D01*
G01X17368Y2134D01*
G01X17344Y2178D01*
G01X17318Y2222D01*
G01X17290Y2264D01*
G01X17260Y2305D01*
G01X17229Y2345D01*
G01X17196Y2384D01*
G01X17162Y2421D01*
G01X17126Y2457D01*
G01X17089Y2491D01*
G01X17051Y2524D01*
G01X17010Y2555D01*
G01X16969Y2584D01*
G01X16927Y2612D01*
G01X16884Y2639D01*
G01X16840Y2663D01*
G01X16794Y2686D01*
G01X16748Y2706D01*
G01X16701Y2726D01*
G01X16605Y2758D01*
G01X16556Y2771D01*
G01X16507Y2781D01*
G01X16457Y2791D01*
G01X16407Y2798D01*
G01X16357Y2803D01*
G01X16306Y2806D01*
G01X16256Y2807D01*
G01X16205Y2806D01*
G01X16154Y2803D01*
G01X16103Y2798D01*
G01X16053Y2791D01*
G01X16003Y2781D01*
G01X15953Y2770D01*
G01X15904Y2757D01*
G01X15855Y2742D01*
G01X15807Y2724D01*
G01X15760Y2705D01*
G01X15714Y2684D01*
G01X15668Y2661D01*
G01X15624Y2637D01*
G01X15580Y2610D01*
G01X15538Y2582D01*
G01X15497Y2552D01*
G01X15457Y2521D01*
G01X15418Y2488D01*
G01X15381Y2453D01*
G01X15345Y2417D01*
G01X15311Y2379D01*
G01X15278Y2340D01*
G01X15247Y2300D01*
G01X15218Y2259D01*
G01X15190Y2216D01*
G01X15163Y2172D01*
G01X15139Y2128D01*
G01X15130Y2113D01*
G01X15119Y2101D01*
G01X15106Y2091D01*
G01X15092Y2082D01*
G01X15076Y2076D01*
G01X15060Y2073D01*
G01X15068Y2060D01*
G01X15075Y2044D01*
G01X15078Y2029D01*
G01X15080Y2012D01*
G01X15078Y1995D01*
G01X15074Y1978D01*
G01X15057Y1926D01*
G01X15041Y1874D01*
G01X15028Y1821D01*
G01X15018Y1767D01*
G01X15009Y1714D01*
G01X15004Y1659D01*
G01X15000Y1605D01*
G01X14999Y1551D01*
G01X15000Y1496D01*
G01X15004Y1442D01*
G01X15009Y1387D01*
G01X15018Y1334D01*
G01X15028Y1280D01*
G01X15041Y1227D01*
G01X15057Y1175D01*
G01X15074Y1123D01*
G01X15078Y1106D01*
G01X15080Y1089D01*
G01X15078Y1072D01*
G01X15075Y1057D01*
G01X15068Y1041D01*
G01X15060Y1028D01*
G01X15076Y1025D01*
G01X15092Y1019D01*
G01X15106Y1010D01*
G01X15119Y1000D01*
G01X15130Y988D01*
G01X15139Y973D01*
G01X15163Y929D01*
G01X15190Y885D01*
G01X15218Y842D01*
G01X15247Y801D01*
G01X15278Y761D01*
G01X15311Y722D01*
G01X15345Y684D01*
G01X15381Y648D01*
G01X15418Y613D01*
G01X15457Y580D01*
G01X15497Y549D01*
G01X15538Y519D01*
G01X15580Y491D01*
G01X15624Y464D01*
G01X15668Y440D01*
G01X15714Y417D01*
G01X15760Y396D01*
G01X15807Y377D01*
G01X15855Y359D01*
G01X15904Y344D01*
G01X15953Y331D01*
G01X16003Y320D01*
G01X16053Y310D01*
G01X16103Y303D01*
G01X16154Y298D01*
G01X16205Y295D01*
G01X16256Y294D01*
G01X16306Y295D01*
G01X16357Y298D01*
G01X16407Y303D01*
G01X16457Y310D01*
G01X16507Y320D01*
G01X16556Y330D01*
G01X16605Y343D01*
G01X16701Y375D01*
G01X16748Y395D01*
G01X16794Y415D01*
G01X16840Y438D01*
G01X16884Y462D01*
G01X16927Y489D01*
G01X16969Y517D01*
G01X17010Y546D01*
G01X17051Y577D01*
G01X17089Y610D01*
G01X17126Y644D01*
G01X17162Y680D01*
G01X17196Y717D01*
G01X17229Y756D01*
G01X17260Y796D01*
G01X17290Y837D01*
G01X17318Y879D01*
G01X17344Y923D01*
G01X17368Y967D01*
G01X17391Y1012D01*
G01X17412Y1058D01*
G01X17431Y1105D01*
G01X17437Y1119D01*
G01X17446Y1132D01*
G01X17456Y1143D01*
G01X17468Y1153D01*
G01X17481Y1160D01*
G01X17495Y1166D01*
G01X17510Y1170D01*
G01X17526Y1171D01*
G01X17541Y1170D01*
G01X17556Y1166D01*
G01X17570Y1160D01*
G01X17583Y1153D01*
G01X17595Y1143D01*
G01X17605Y1132D01*
G01X17614Y1119D01*
G01X17620Y1105D01*
G01X17639Y1058D01*
G01X17660Y1012D01*
G01X17683Y967D01*
G01X17707Y923D01*
G01X17733Y879D01*
G01X17761Y837D01*
G01X17791Y796D01*
G01X17822Y756D01*
G01X17855Y717D01*
G01X17889Y680D01*
G01X17925Y644D01*
G01X17962Y610D01*
G01X18000Y577D01*
G01X18041Y546D01*
G01X18082Y517D01*
G01X18124Y489D01*
G01X18167Y462D01*
G01X18211Y438D01*
G01X18257Y415D01*
G01X18303Y395D01*
G01X18350Y375D01*
G01X18446Y343D01*
G01X18495Y330D01*
G01X18544Y320D01*
G01X18594Y310D01*
G01X18644Y303D01*
G01X18694Y298D01*
G01X18745Y295D01*
G01X18796Y294D01*
G01X18846Y295D01*
G01X18897Y298D01*
G01X18947Y303D01*
G01X18997Y310D01*
G01X19047Y320D01*
G01X19096Y330D01*
G01X19145Y343D01*
G01X19241Y375D01*
G01X19288Y395D01*
G01X19334Y415D01*
G01X19380Y438D01*
G01X19424Y462D01*
G01X19467Y489D01*
G01X19509Y517D01*
G01X19550Y546D01*
G01X19591Y577D01*
G01X19629Y610D01*
G01X19666Y644D01*
G01X19702Y680D01*
G01X19736Y717D01*
G01X19769Y756D01*
G01X19800Y796D01*
G01X19830Y837D01*
G01X19858Y879D01*
G01X19884Y923D01*
G01X19908Y967D01*
G01X19931Y1012D01*
G01X19952Y1058D01*
G01X19971Y1105D01*
G01X19977Y1123D01*
G01X19994Y1175D01*
G01X20010Y1227D01*
G01X20023Y1280D01*
G01X20033Y1334D01*
G01X20042Y1387D01*
G01X20047Y1442D01*
G01X20051Y1496D01*
G01X20052Y1551D01*
G01X20051Y1605D01*
G01X20047Y1659D01*
G01X20042Y1714D01*
G01X20033Y1767D01*
G01X20023Y1821D01*
G01X20010Y1874D01*
G01X19994Y1926D01*
G01X19977Y1978D01*
G01X19971Y1996D01*
G01X19951Y2044D01*
G01X19930Y2091D01*
G01X19906Y2138D01*
G01X19881Y2183D01*
G01X19854Y2227D01*
G01X19825Y2270D01*
G01X19795Y2313D01*
G01X19762Y2353D01*
G01X19728Y2392D01*
G01X19693Y2430D01*
G01X19656Y2466D01*
G01X19617Y2501D01*
G01X19577Y2534D01*
G01X19536Y2566D01*
G01X19493Y2595D01*
G01X19450Y2623D01*
G01X19405Y2649D01*
G01X19359Y2674D01*
G01X19312Y2696D01*
G01X19299Y2703D01*
G01X19287Y2712D01*
G01X19277Y2722D01*
G01X19268Y2734D01*
G01X19261Y2746D01*
G01X19256Y2760D01*
G01X19253Y2774D01*
G01X19252Y2788D01*
G01X19252Y2894D01*
G01X19253Y2910D01*
G01X19257Y2926D01*
G01X19263Y2940D01*
G01X19271Y2954D01*
G01X19282Y2966D01*
G01X20029Y3714D01*
G01X20042Y3724D01*
G01X20055Y3732D01*
G01X20070Y3738D01*
G01X20085Y3742D01*
G01X20101Y3743D01*
G01X31879Y3743D01*
G01X31912Y3745D01*
G01X31944Y3748D01*
G01X31976Y3754D01*
G01X32008Y3762D01*
G01X32039Y3772D01*
G01X32069Y3785D01*
G01X32098Y3799D01*
G01X32126Y3816D01*
G01X32153Y3834D01*
G01X32178Y3855D01*
G01X32202Y3877D01*
G01X33596Y5272D01*
G01X33618Y5295D01*
G01X33639Y5320D01*
G01X33658Y5347D01*
G01X33674Y5375D01*
G01X33689Y5405D01*
G01X33701Y5435D01*
G01X33711Y5466D01*
G01X33720Y5497D01*
G01X33726Y5529D01*
G01X33729Y5562D01*
G01X33730Y5594D01*
G01X33730Y10971D01*
G01X33731Y10987D01*
G01X33735Y11003D01*
G01X33741Y11018D01*
G01X33749Y11031D01*
G01X33760Y11043D01*
G01X34881Y12164D01*
G01X34893Y12174D01*
G01X34906Y12183D01*
G01X34921Y12189D01*
G01X34937Y12193D01*
G01X34952Y12194D01*
G01X35372Y12194D01*
G01X35388Y12193D01*
G01X35404Y12189D01*
G01X35418Y12182D01*
G01X35432Y12174D01*
G01X35444Y12163D01*
G01X35454Y12151D01*
G01X35462Y12137D01*
G01X35485Y12094D01*
G01X35510Y12050D01*
G01X35537Y12009D01*
G01X35565Y11968D01*
G01X35595Y11929D01*
G01X35627Y11891D01*
G01X35660Y11854D01*
G01X35695Y11819D01*
G01X35731Y11785D01*
G01X35769Y11753D01*
G01X35807Y11723D01*
G01X35848Y11694D01*
G01X35889Y11667D01*
G01X35932Y11642D01*
G01X35976Y11619D01*
G01X36020Y11597D01*
G01X36065Y11577D01*
G01X36112Y11560D01*
G01X36158Y11544D01*
G01X36206Y11531D01*
G01X36254Y11519D01*
G01X36303Y11510D01*
G01X36351Y11503D01*
G01X36401Y11497D01*
G01X36450Y11494D01*
G01X36500Y11493D01*
G01X36549Y11494D01*
G01X36598Y11497D01*
G01X36647Y11502D01*
G01X36695Y11510D01*
G01X36743Y11519D01*
G01X36791Y11530D01*
G01X36838Y11544D01*
G01X36885Y11559D01*
G01X36931Y11576D01*
G01X36976Y11596D01*
G01X37020Y11617D01*
G01X37064Y11640D01*
G01X37106Y11665D01*
G01X37147Y11691D01*
G01X37187Y11720D01*
G01X37226Y11750D01*
G01X37264Y11781D01*
G01X37300Y11815D01*
G01X37334Y11849D01*
G01X37368Y11885D01*
G01X37399Y11923D01*
G01X37429Y11962D01*
G01X37458Y12002D01*
G01X37484Y12043D01*
G01X37509Y12085D01*
G01X37532Y12129D01*
G01X37553Y12173D01*
G01X37573Y12219D01*
G01X37590Y12264D01*
G01X37605Y12311D01*
G01X37619Y12358D01*
G01X37630Y12406D01*
G01X37639Y12454D01*
G01X37647Y12502D01*
G01X37652Y12551D01*
G01X37655Y12601D01*
G01X37656Y12649D01*
G01X37655Y12699D01*
G01X37652Y12748D01*
G01X37647Y12797D01*
G01X37639Y12845D01*
G01X37630Y12893D01*
G01X37619Y12941D01*
G01X37605Y12988D01*
G01X37590Y13035D01*
G01X37573Y13081D01*
G01X37553Y13126D01*
G01X37532Y13170D01*
G01X37509Y13214D01*
G01X37484Y13256D01*
G01X37458Y13297D01*
G01X37429Y13337D01*
G01X37399Y13376D01*
G01X37368Y13414D01*
G01X37334Y13450D01*
G01X37300Y13484D01*
G01X37264Y13518D01*
G01X37226Y13549D01*
G01X37187Y13579D01*
G01X37147Y13608D01*
G01X37106Y13634D01*
G01X37064Y13659D01*
G01X37020Y13682D01*
G01X36976Y13703D01*
G01X36931Y13723D01*
G01X36885Y13740D01*
G01X36838Y13755D01*
G01X36791Y13769D01*
G01X36743Y13780D01*
G01X36695Y13789D01*
G01X36647Y13797D01*
G01X36598Y13802D01*
G01X36549Y13805D01*
G37*
G36*
G01X12426Y987D02*
G01X11866Y987D01*
G01X11866Y427D01*
G01X11914Y453D01*
G01X11960Y480D01*
G01X12005Y509D01*
G01X12049Y540D01*
G01X12091Y573D01*
G01X12132Y607D01*
G01X12172Y643D01*
G01X12210Y681D01*
G01X12246Y721D01*
G01X12280Y762D01*
G01X12313Y804D01*
G01X12344Y848D01*
G01X12373Y893D01*
G01X12400Y939D01*
G01X12426Y987D01*
G37*
G36*
G01X10739Y987D02*
G01X10179Y987D01*
G01X10205Y939D01*
G01X10232Y893D01*
G01X10261Y848D01*
G01X10292Y804D01*
G01X10325Y762D01*
G01X10359Y721D01*
G01X10395Y681D01*
G01X10433Y643D01*
G01X10473Y607D01*
G01X10514Y573D01*
G01X10556Y540D01*
G01X10600Y509D01*
G01X10645Y480D01*
G01X10691Y453D01*
G01X10739Y427D01*
G01X10739Y987D01*
G37*
G36*
G01X13279Y987D02*
G01X12719Y987D01*
G01X12745Y939D01*
G01X12772Y893D01*
G01X12801Y848D01*
G01X12832Y804D01*
G01X12865Y762D01*
G01X12899Y721D01*
G01X12935Y681D01*
G01X12973Y643D01*
G01X13013Y607D01*
G01X13054Y573D01*
G01X13096Y540D01*
G01X13140Y509D01*
G01X13185Y480D01*
G01X13231Y453D01*
G01X13279Y427D01*
G01X13279Y987D01*
G37*
G36*
G01X22459Y987D02*
G01X21899Y987D01*
G01X21899Y427D01*
G01X21947Y453D01*
G01X21993Y480D01*
G01X22038Y509D01*
G01X22082Y540D01*
G01X22124Y573D01*
G01X22165Y607D01*
G01X22205Y643D01*
G01X22243Y681D01*
G01X22279Y721D01*
G01X22313Y762D01*
G01X22346Y804D01*
G01X22377Y848D01*
G01X22406Y893D01*
G01X22433Y939D01*
G01X22459Y987D01*
G37*
G36*
G01X24999Y987D02*
G01X24439Y987D01*
G01X24439Y427D01*
G01X24487Y453D01*
G01X24533Y480D01*
G01X24578Y509D01*
G01X24622Y540D01*
G01X24664Y573D01*
G01X24705Y607D01*
G01X24745Y643D01*
G01X24783Y681D01*
G01X24819Y721D01*
G01X24853Y762D01*
G01X24886Y804D01*
G01X24917Y848D01*
G01X24946Y893D01*
G01X24973Y939D01*
G01X24999Y987D01*
G37*
G36*
G01X23312Y987D02*
G01X22752Y987D01*
G01X22778Y939D01*
G01X22805Y893D01*
G01X22834Y848D01*
G01X22865Y804D01*
G01X22898Y762D01*
G01X22932Y721D01*
G01X22968Y681D01*
G01X23006Y643D01*
G01X23046Y607D01*
G01X23087Y573D01*
G01X23129Y540D01*
G01X23173Y509D01*
G01X23218Y480D01*
G01X23264Y453D01*
G01X23312Y427D01*
G01X23312Y987D01*
G37*
G36*
G01X20772Y987D02*
G01X20212Y987D01*
G01X20238Y939D01*
G01X20265Y893D01*
G01X20294Y848D01*
G01X20325Y804D01*
G01X20358Y762D01*
G01X20392Y721D01*
G01X20428Y681D01*
G01X20466Y643D01*
G01X20506Y607D01*
G01X20547Y573D01*
G01X20589Y540D01*
G01X20633Y509D01*
G01X20678Y480D01*
G01X20724Y453D01*
G01X20772Y427D01*
G01X20772Y987D01*
G37*
G36*
G01X14967Y987D02*
G01X14406Y987D01*
G01X14406Y427D01*
G01X14453Y452D01*
G01X14498Y479D01*
G01X14543Y507D01*
G01X14586Y537D01*
G01X14627Y569D01*
G01X14667Y603D01*
G01X14707Y638D01*
G01X14744Y675D01*
G01X14780Y714D01*
G01X14814Y754D01*
G01X14847Y796D01*
G01X14878Y838D01*
G01X14907Y882D01*
G01X14934Y927D01*
G01X14959Y973D01*
G01X14967Y987D01*
G37*
G36*
G01X1811Y1811D02*
G01X1160Y1811D01*
G01X1187Y1759D01*
G01X1217Y1709D01*
G01X1249Y1660D01*
G01X1282Y1612D01*
G01X1318Y1565D01*
G01X1355Y1520D01*
G01X1394Y1476D01*
G01X1434Y1434D01*
G01X1477Y1394D01*
G01X1520Y1355D01*
G01X1566Y1317D01*
G01X1612Y1282D01*
G01X1660Y1249D01*
G01X1709Y1217D01*
G01X1760Y1187D01*
G01X1811Y1159D01*
G01X1811Y1811D01*
G37*
G36*
G01X3839Y1811D02*
G01X3188Y1811D01*
G01X3188Y1159D01*
G01X3240Y1187D01*
G01X3290Y1217D01*
G01X3339Y1249D01*
G01X3387Y1282D01*
G01X3434Y1317D01*
G01X3479Y1355D01*
G01X3522Y1394D01*
G01X3565Y1434D01*
G01X3605Y1476D01*
G01X3644Y1520D01*
G01X3681Y1565D01*
G01X3717Y1612D01*
G01X3751Y1660D01*
G01X3782Y1709D01*
G01X3812Y1759D01*
G01X3839Y1811D01*
G37*
G36*
G01X34811Y1811D02*
G01X34159Y1811D01*
G01X34187Y1759D01*
G01X34217Y1709D01*
G01X34249Y1660D01*
G01X34282Y1612D01*
G01X34317Y1565D01*
G01X34355Y1520D01*
G01X34394Y1476D01*
G01X34434Y1434D01*
G01X34476Y1394D01*
G01X34520Y1355D01*
G01X34565Y1317D01*
G01X34612Y1282D01*
G01X34660Y1249D01*
G01X34709Y1217D01*
G01X34759Y1187D01*
G01X34811Y1159D01*
G01X34811Y1811D01*
G37*
G36*
G01X36840Y1811D02*
G01X36188Y1811D01*
G01X36188Y1159D01*
G01X36240Y1187D01*
G01X36290Y1217D01*
G01X36339Y1249D01*
G01X36387Y1282D01*
G01X36434Y1317D01*
G01X36479Y1355D01*
G01X36523Y1394D01*
G01X36565Y1434D01*
G01X36605Y1476D01*
G01X36644Y1520D01*
G01X36682Y1565D01*
G01X36717Y1612D01*
G01X36750Y1660D01*
G01X36782Y1709D01*
G01X36812Y1759D01*
G01X36840Y1811D01*
G37*
G36*
G01X11914Y2648D02*
G01X11866Y2674D01*
G01X11866Y2114D01*
G01X12426Y2114D01*
G01X12400Y2162D01*
G01X12373Y2208D01*
G01X12344Y2253D01*
G01X12313Y2297D01*
G01X12280Y2339D01*
G01X12246Y2380D01*
G01X12210Y2420D01*
G01X12172Y2458D01*
G01X12132Y2494D01*
G01X12091Y2528D01*
G01X12049Y2561D01*
G01X12005Y2592D01*
G01X11960Y2621D01*
G01X11914Y2648D01*
G37*
G36*
G01X10739Y2114D02*
G01X10739Y2674D01*
G01X10691Y2648D01*
G01X10645Y2621D01*
G01X10600Y2592D01*
G01X10556Y2561D01*
G01X10514Y2528D01*
G01X10473Y2494D01*
G01X10433Y2458D01*
G01X10395Y2420D01*
G01X10359Y2380D01*
G01X10325Y2339D01*
G01X10292Y2297D01*
G01X10261Y2253D01*
G01X10232Y2208D01*
G01X10205Y2162D01*
G01X10179Y2114D01*
G01X10739Y2114D01*
G37*
G36*
G01X13279Y2114D02*
G01X13279Y2674D01*
G01X13231Y2648D01*
G01X13185Y2621D01*
G01X13140Y2592D01*
G01X13096Y2561D01*
G01X13054Y2528D01*
G01X13013Y2494D01*
G01X12973Y2458D01*
G01X12935Y2420D01*
G01X12899Y2380D01*
G01X12865Y2339D01*
G01X12832Y2297D01*
G01X12801Y2253D01*
G01X12772Y2208D01*
G01X12745Y2162D01*
G01X12719Y2114D01*
G01X13279Y2114D01*
G37*
G36*
G01X21947Y2648D02*
G01X21899Y2674D01*
G01X21899Y2114D01*
G01X22459Y2114D01*
G01X22433Y2162D01*
G01X22406Y2208D01*
G01X22377Y2253D01*
G01X22346Y2297D01*
G01X22313Y2339D01*
G01X22279Y2380D01*
G01X22243Y2420D01*
G01X22205Y2458D01*
G01X22165Y2494D01*
G01X22124Y2528D01*
G01X22082Y2561D01*
G01X22038Y2592D01*
G01X21993Y2621D01*
G01X21947Y2648D01*
G37*
G36*
G01X20772Y2114D02*
G01X20772Y2674D01*
G01X20724Y2648D01*
G01X20678Y2621D01*
G01X20633Y2592D01*
G01X20589Y2561D01*
G01X20547Y2528D01*
G01X20506Y2494D01*
G01X20466Y2458D01*
G01X20428Y2420D01*
G01X20392Y2380D01*
G01X20358Y2339D01*
G01X20325Y2297D01*
G01X20294Y2253D01*
G01X20265Y2208D01*
G01X20238Y2162D01*
G01X20212Y2114D01*
G01X20772Y2114D01*
G37*
G36*
G01X23312Y2114D02*
G01X23312Y2674D01*
G01X23264Y2648D01*
G01X23218Y2621D01*
G01X23173Y2592D01*
G01X23129Y2561D01*
G01X23087Y2528D01*
G01X23046Y2494D01*
G01X23006Y2458D01*
G01X22968Y2420D01*
G01X22932Y2380D01*
G01X22898Y2339D01*
G01X22865Y2297D01*
G01X22834Y2253D01*
G01X22805Y2208D01*
G01X22778Y2162D01*
G01X22752Y2114D01*
G01X23312Y2114D01*
G37*
G36*
G01X24487Y2648D02*
G01X24439Y2674D01*
G01X24439Y2114D01*
G01X24999Y2114D01*
G01X24973Y2162D01*
G01X24946Y2208D01*
G01X24917Y2253D01*
G01X24886Y2297D01*
G01X24853Y2339D01*
G01X24819Y2380D01*
G01X24783Y2420D01*
G01X24745Y2458D01*
G01X24705Y2494D01*
G01X24664Y2528D01*
G01X24622Y2561D01*
G01X24578Y2592D01*
G01X24533Y2621D01*
G01X24487Y2648D01*
G37*
G36*
G01X14453Y2649D02*
G01X14406Y2674D01*
G01X14406Y2114D01*
G01X14967Y2114D01*
G01X14959Y2128D01*
G01X14934Y2174D01*
G01X14907Y2219D01*
G01X14878Y2263D01*
G01X14847Y2305D01*
G01X14814Y2347D01*
G01X14780Y2387D01*
G01X14744Y2426D01*
G01X14707Y2463D01*
G01X14667Y2498D01*
G01X14627Y2532D01*
G01X14586Y2564D01*
G01X14543Y2594D01*
G01X14498Y2622D01*
G01X14453Y2649D01*
G37*
G36*
G01X3240Y3812D02*
G01X3188Y3840D01*
G01X3188Y3188D01*
G01X3839Y3188D01*
G01X3812Y3240D01*
G01X3782Y3290D01*
G01X3751Y3339D01*
G01X3717Y3387D01*
G01X3681Y3434D01*
G01X3644Y3479D01*
G01X3605Y3523D01*
G01X3565Y3565D01*
G01X3522Y3605D01*
G01X3479Y3644D01*
G01X3434Y3682D01*
G01X3387Y3717D01*
G01X3339Y3750D01*
G01X3290Y3782D01*
G01X3240Y3812D01*
G37*
G36*
G01X1811Y3188D02*
G01X1811Y3840D01*
G01X1760Y3812D01*
G01X1709Y3782D01*
G01X1660Y3750D01*
G01X1612Y3717D01*
G01X1566Y3682D01*
G01X1520Y3644D01*
G01X1477Y3605D01*
G01X1434Y3565D01*
G01X1394Y3523D01*
G01X1355Y3479D01*
G01X1318Y3434D01*
G01X1282Y3387D01*
G01X1249Y3339D01*
G01X1217Y3290D01*
G01X1187Y3240D01*
G01X1160Y3188D01*
G01X1811Y3188D01*
G37*
G36*
G01X34811Y3188D02*
G01X34811Y3840D01*
G01X34759Y3812D01*
G01X34709Y3782D01*
G01X34660Y3750D01*
G01X34612Y3717D01*
G01X34565Y3682D01*
G01X34520Y3644D01*
G01X34476Y3605D01*
G01X34434Y3565D01*
G01X34394Y3523D01*
G01X34355Y3479D01*
G01X34317Y3434D01*
G01X34282Y3387D01*
G01X34249Y3339D01*
G01X34217Y3290D01*
G01X34187Y3240D01*
G01X34159Y3188D01*
G01X34811Y3188D01*
G37*
G36*
G01X36240Y3812D02*
G01X36188Y3840D01*
G01X36188Y3188D01*
G01X36840Y3188D01*
G01X36812Y3240D01*
G01X36782Y3290D01*
G01X36750Y3339D01*
G01X36717Y3387D01*
G01X36682Y3434D01*
G01X36644Y3479D01*
G01X36605Y3523D01*
G01X36565Y3565D01*
G01X36523Y3605D01*
G01X36479Y3644D01*
G01X36434Y3682D01*
G01X36387Y3717D01*
G01X36339Y3750D01*
G01X36290Y3782D01*
G01X36240Y3812D01*
G37*
G36*
G01X30635Y7447D02*
G01X30590Y7448D01*
G01X30544Y7447D01*
G01X30498Y7444D01*
G01X30453Y7439D01*
G01X30407Y7432D01*
G01X30363Y7422D01*
G01X30318Y7411D01*
G01X30275Y7398D01*
G01X30232Y7383D01*
G01X30189Y7366D01*
G01X30148Y7347D01*
G01X30107Y7326D01*
G01X30067Y7304D01*
G01X30028Y7280D01*
G01X29991Y7254D01*
G01X29954Y7226D01*
G01X29919Y7196D01*
G01X29886Y7166D01*
G01X29853Y7133D01*
G01X29823Y7100D01*
G01X29793Y7065D01*
G01X29765Y7028D01*
G01X29739Y6991D01*
G01X29715Y6952D01*
G01X29693Y6912D01*
G01X29672Y6871D01*
G01X29653Y6830D01*
G01X29636Y6787D01*
G01X29621Y6744D01*
G01X29608Y6701D01*
G01X29597Y6656D01*
G01X29587Y6612D01*
G01X29580Y6566D01*
G01X29575Y6521D01*
G01X29572Y6475D01*
G01X29571Y6429D01*
G01X29572Y6384D01*
G01X29575Y6338D01*
G01X29580Y6293D01*
G01X29587Y6247D01*
G01X29597Y6203D01*
G01X29608Y6159D01*
G01X29621Y6115D01*
G01X29636Y6072D01*
G01X29653Y6029D01*
G01X29672Y5988D01*
G01X29693Y5947D01*
G01X29715Y5907D01*
G01X29739Y5869D01*
G01X29765Y5831D01*
G01X29793Y5794D01*
G01X29823Y5759D01*
G01X29853Y5726D01*
G01X29886Y5693D01*
G01X29919Y5663D01*
G01X29954Y5633D01*
G01X29991Y5605D01*
G01X30028Y5579D01*
G01X30067Y5555D01*
G01X30107Y5533D01*
G01X30148Y5512D01*
G01X30189Y5493D01*
G01X30232Y5476D01*
G01X30275Y5461D01*
G01X30318Y5448D01*
G01X30363Y5437D01*
G01X30407Y5428D01*
G01X30453Y5420D01*
G01X30498Y5415D01*
G01X30544Y5412D01*
G01X30590Y5411D01*
G01X30635Y5412D01*
G01X30681Y5415D01*
G01X30726Y5420D01*
G01X30772Y5428D01*
G01X30816Y5437D01*
G01X30861Y5448D01*
G01X30904Y5461D01*
G01X30947Y5476D01*
G01X30990Y5493D01*
G01X31031Y5512D01*
G01X31072Y5533D01*
G01X31112Y5555D01*
G01X31151Y5579D01*
G01X31188Y5605D01*
G01X31225Y5633D01*
G01X31260Y5663D01*
G01X31293Y5693D01*
G01X31326Y5726D01*
G01X31356Y5759D01*
G01X31386Y5794D01*
G01X31414Y5831D01*
G01X31440Y5869D01*
G01X31464Y5907D01*
G01X31486Y5947D01*
G01X31507Y5988D01*
G01X31526Y6029D01*
G01X31543Y6072D01*
G01X31558Y6115D01*
G01X31571Y6159D01*
G01X31582Y6203D01*
G01X31592Y6247D01*
G01X31599Y6293D01*
G01X31604Y6338D01*
G01X31607Y6384D01*
G01X31608Y6429D01*
G01X31607Y6475D01*
G01X31604Y6521D01*
G01X31599Y6566D01*
G01X31592Y6612D01*
G01X31582Y6656D01*
G01X31571Y6701D01*
G01X31558Y6744D01*
G01X31543Y6787D01*
G01X31526Y6830D01*
G01X31507Y6871D01*
G01X31486Y6912D01*
G01X31464Y6952D01*
G01X31440Y6991D01*
G01X31414Y7028D01*
G01X31386Y7065D01*
G01X31356Y7100D01*
G01X31326Y7133D01*
G01X31293Y7166D01*
G01X31260Y7196D01*
G01X31225Y7226D01*
G01X31188Y7254D01*
G01X31151Y7280D01*
G01X31112Y7304D01*
G01X31072Y7326D01*
G01X31031Y7347D01*
G01X30990Y7366D01*
G01X30947Y7383D01*
G01X30904Y7398D01*
G01X30861Y7411D01*
G01X30816Y7422D01*
G01X30772Y7432D01*
G01X30726Y7439D01*
G01X30681Y7444D01*
G01X30635Y7447D01*
G37*
G36*
G01X27755Y6035D02*
G01X27181Y6035D01*
G01X27181Y5718D01*
G01X27182Y5694D01*
G01X27185Y5670D01*
G01X27191Y5648D01*
G01X27198Y5625D01*
G01X27208Y5603D01*
G01X27219Y5582D01*
G01X27233Y5563D01*
G01X27248Y5545D01*
G01X27264Y5528D01*
G01X27283Y5513D01*
G01X27302Y5500D01*
G01X27323Y5488D01*
G01X27345Y5478D01*
G01X27367Y5471D01*
G01X27390Y5465D01*
G01X27414Y5462D01*
G01X27438Y5461D01*
G01X27755Y5461D01*
G01X27755Y6035D01*
G37*
G36*
G01X29218Y6035D02*
G01X28644Y6035D01*
G01X28644Y5461D01*
G01X28962Y5461D01*
G01X28985Y5462D01*
G01X29008Y5465D01*
G01X29032Y5471D01*
G01X29054Y5478D01*
G01X29076Y5488D01*
G01X29097Y5500D01*
G01X29116Y5513D01*
G01X29134Y5528D01*
G01X29151Y5545D01*
G01X29166Y5563D01*
G01X29180Y5582D01*
G01X29191Y5603D01*
G01X29201Y5625D01*
G01X29208Y5648D01*
G01X29214Y5670D01*
G01X29217Y5694D01*
G01X29218Y5718D01*
G01X29218Y6035D01*
G37*
G36*
G01X15404Y8937D02*
G01X15367Y8938D01*
G01X15330Y8937D01*
G01X15293Y8934D01*
G01X15257Y8929D01*
G01X15220Y8922D01*
G01X15185Y8912D01*
G01X15150Y8901D01*
G01X15115Y8888D01*
G01X15082Y8873D01*
G01X15049Y8856D01*
G01X15017Y8837D01*
G01X14987Y8817D01*
G01X14957Y8795D01*
G01X14929Y8771D01*
G01X14902Y8746D01*
G01X14877Y8719D01*
G01X14853Y8691D01*
G01X14831Y8661D01*
G01X14811Y8631D01*
G01X14792Y8599D01*
G01X14775Y8566D01*
G01X14760Y8533D01*
G01X14747Y8498D01*
G01X14736Y8463D01*
G01X14726Y8428D01*
G01X14719Y8391D01*
G01X14714Y8355D01*
G01X14711Y8318D01*
G01X14710Y8282D01*
G01X14711Y8244D01*
G01X14714Y8207D01*
G01X14719Y8170D01*
G01X14727Y8133D01*
G01X14737Y8097D01*
G01X14748Y8061D01*
G01X14761Y8026D01*
G01X14777Y7992D01*
G01X14794Y7959D01*
G01X14814Y7927D01*
G01X14835Y7896D01*
G01X14857Y7866D01*
G01X14882Y7838D01*
G01X14908Y7812D01*
G01X14936Y7786D01*
G01X14965Y7762D01*
G01X14995Y7740D01*
G01X15026Y7720D01*
G01X15059Y7701D01*
G01X15093Y7685D01*
G01X15127Y7670D01*
G01X15162Y7658D01*
G01X15198Y7647D01*
G01X15234Y7638D01*
G01X15272Y7632D01*
G01X15287Y7628D01*
G01X15302Y7622D01*
G01X15316Y7614D01*
G01X15328Y7603D01*
G01X16659Y6272D01*
G01X16684Y6250D01*
G01X16709Y6229D01*
G01X16736Y6209D01*
G01X16764Y6192D01*
G01X16793Y6176D01*
G01X16823Y6163D01*
G01X16854Y6151D01*
G01X16886Y6141D01*
G01X16918Y6134D01*
G01X16951Y6128D01*
G01X16984Y6125D01*
G01X17018Y6124D01*
G01X17176Y6124D01*
G01X17192Y6123D01*
G01X17208Y6119D01*
G01X17223Y6112D01*
G01X17236Y6104D01*
G01X17268Y6082D01*
G01X17300Y6062D01*
G01X17334Y6044D01*
G01X17369Y6028D01*
G01X17404Y6014D01*
G01X17440Y6002D01*
G01X17477Y5991D01*
G01X17515Y5984D01*
G01X17552Y5978D01*
G01X17591Y5975D01*
G01X17629Y5974D01*
G01X17665Y5975D01*
G01X17702Y5978D01*
G01X17738Y5983D01*
G01X17775Y5990D01*
G01X17810Y6000D01*
G01X17846Y6011D01*
G01X17880Y6024D01*
G01X17914Y6039D01*
G01X17946Y6056D01*
G01X17978Y6075D01*
G01X18009Y6095D01*
G01X18038Y6117D01*
G01X18066Y6141D01*
G01X18093Y6166D01*
G01X18118Y6193D01*
G01X18142Y6221D01*
G01X18164Y6251D01*
G01X18184Y6281D01*
G01X18203Y6313D01*
G01X18220Y6346D01*
G01X18235Y6379D01*
G01X18248Y6414D01*
G01X18260Y6449D01*
G01X18269Y6484D01*
G01X18276Y6521D01*
G01X18281Y6557D01*
G01X18284Y6594D01*
G01X18285Y6631D01*
G01X18284Y6667D01*
G01X18281Y6704D01*
G01X18276Y6740D01*
G01X18269Y6777D01*
G01X18260Y6812D01*
G01X18248Y6847D01*
G01X18235Y6882D01*
G01X18220Y6915D01*
G01X18203Y6948D01*
G01X18184Y6980D01*
G01X18164Y7010D01*
G01X18142Y7040D01*
G01X18118Y7068D01*
G01X18093Y7095D01*
G01X18066Y7120D01*
G01X18038Y7144D01*
G01X18009Y7166D01*
G01X17978Y7186D01*
G01X17946Y7205D01*
G01X17914Y7222D01*
G01X17880Y7237D01*
G01X17846Y7250D01*
G01X17810Y7261D01*
G01X17775Y7271D01*
G01X17738Y7278D01*
G01X17702Y7283D01*
G01X17665Y7286D01*
G01X17629Y7287D01*
G01X17588Y7286D01*
G01X17548Y7282D01*
G01X17509Y7276D01*
G01X17470Y7268D01*
G01X17431Y7256D01*
G01X17393Y7243D01*
G01X17356Y7227D01*
G01X17320Y7210D01*
G01X17285Y7190D01*
G01X17268Y7182D01*
G01X17250Y7177D01*
G01X17232Y7175D01*
G01X17216Y7176D01*
G01X17200Y7180D01*
G01X17186Y7186D01*
G01X17172Y7194D01*
G01X17160Y7205D01*
G01X16045Y8320D01*
G01X16034Y8332D01*
G01X16026Y8346D01*
G01X16020Y8361D01*
G01X16016Y8376D01*
G01X16010Y8414D01*
G01X16001Y8450D01*
G01X15990Y8486D01*
G01X15978Y8521D01*
G01X15963Y8555D01*
G01X15947Y8589D01*
G01X15928Y8622D01*
G01X15908Y8653D01*
G01X15886Y8683D01*
G01X15862Y8712D01*
G01X15836Y8740D01*
G01X15810Y8766D01*
G01X15782Y8791D01*
G01X15752Y8813D01*
G01X15721Y8834D01*
G01X15689Y8854D01*
G01X15656Y8871D01*
G01X15622Y8887D01*
G01X15587Y8900D01*
G01X15551Y8911D01*
G01X15515Y8921D01*
G01X15478Y8929D01*
G01X15441Y8934D01*
G01X15404Y8937D01*
G37*
G36*
G01X27755Y7498D02*
G01X27438Y7498D01*
G01X27414Y7497D01*
G01X27390Y7494D01*
G01X27367Y7489D01*
G01X27345Y7481D01*
G01X27323Y7471D01*
G01X27302Y7460D01*
G01X27283Y7446D01*
G01X27264Y7431D01*
G01X27248Y7414D01*
G01X27233Y7396D01*
G01X27219Y7377D01*
G01X27208Y7356D01*
G01X27198Y7334D01*
G01X27191Y7312D01*
G01X27185Y7289D01*
G01X27182Y7265D01*
G01X27181Y7242D01*
G01X27181Y6924D01*
G01X27755Y6924D01*
G01X27755Y7498D01*
G37*
G36*
G01X28962Y7498D02*
G01X28644Y7498D01*
G01X28644Y6924D01*
G01X29218Y6924D01*
G01X29218Y7242D01*
G01X29217Y7265D01*
G01X29214Y7289D01*
G01X29208Y7312D01*
G01X29201Y7334D01*
G01X29191Y7356D01*
G01X29180Y7377D01*
G01X29166Y7396D01*
G01X29151Y7414D01*
G01X29134Y7431D01*
G01X29116Y7446D01*
G01X29097Y7460D01*
G01X29076Y7471D01*
G01X29054Y7481D01*
G01X29032Y7489D01*
G01X29008Y7494D01*
G01X28985Y7497D01*
G01X28962Y7498D01*
G37*
G36*
G01X37162Y10518D02*
G01X35638Y10518D01*
G01X35614Y10517D01*
G01X35590Y10514D01*
G01X35567Y10508D01*
G01X35545Y10500D01*
G01X35523Y10491D01*
G01X35503Y10480D01*
G01X35483Y10466D01*
G01X35465Y10451D01*
G01X35448Y10434D01*
G01X35433Y10416D01*
G01X35419Y10396D01*
G01X35408Y10376D01*
G01X35398Y10354D01*
G01X35391Y10332D01*
G01X35385Y10308D01*
G01X35382Y10285D01*
G01X35381Y10262D01*
G01X35381Y8738D01*
G01X35382Y8714D01*
G01X35385Y8690D01*
G01X35391Y8667D01*
G01X35398Y8645D01*
G01X35408Y8623D01*
G01X35419Y8603D01*
G01X35433Y8583D01*
G01X35448Y8564D01*
G01X35465Y8548D01*
G01X35483Y8533D01*
G01X35503Y8519D01*
G01X35523Y8508D01*
G01X35545Y8498D01*
G01X35567Y8491D01*
G01X35590Y8485D01*
G01X35614Y8482D01*
G01X35638Y8481D01*
G01X37162Y8481D01*
G01X37185Y8482D01*
G01X37208Y8485D01*
G01X37232Y8491D01*
G01X37254Y8498D01*
G01X37276Y8508D01*
G01X37296Y8519D01*
G01X37316Y8533D01*
G01X37334Y8548D01*
G01X37351Y8564D01*
G01X37366Y8583D01*
G01X37380Y8603D01*
G01X37391Y8623D01*
G01X37400Y8645D01*
G01X37408Y8667D01*
G01X37414Y8690D01*
G01X37417Y8714D01*
G01X37418Y8738D01*
G01X37418Y10262D01*
G01X37417Y10285D01*
G01X37414Y10308D01*
G01X37408Y10332D01*
G01X37400Y10354D01*
G01X37391Y10376D01*
G01X37380Y10396D01*
G01X37366Y10416D01*
G01X37351Y10434D01*
G01X37334Y10451D01*
G01X37316Y10466D01*
G01X37296Y10480D01*
G01X37276Y10491D01*
G01X37254Y10500D01*
G01X37232Y10508D01*
G01X37208Y10514D01*
G01X37185Y10517D01*
G01X37162Y10518D01*
G37*
G36*
G01X1549Y21425D02*
G01X1500Y21426D01*
G01X1450Y21425D01*
G01X1402Y21422D01*
G01X1353Y21417D01*
G01X1304Y21409D01*
G01X1256Y21400D01*
G01X1208Y21389D01*
G01X1161Y21375D01*
G01X1115Y21360D01*
G01X1068Y21343D01*
G01X1023Y21323D01*
G01X979Y21302D01*
G01X936Y21279D01*
G01X893Y21254D01*
G01X852Y21228D01*
G01X812Y21199D01*
G01X773Y21169D01*
G01X736Y21138D01*
G01X664Y21070D01*
G01X631Y21034D01*
G01X600Y20996D01*
G01X570Y20957D01*
G01X542Y20917D01*
G01X515Y20876D01*
G01X490Y20834D01*
G01X467Y20790D01*
G01X446Y20746D01*
G01X427Y20701D01*
G01X409Y20655D01*
G01X394Y20608D01*
G01X381Y20561D01*
G01X369Y20513D01*
G01X360Y20465D01*
G01X353Y20417D01*
G01X347Y20368D01*
G01X344Y20319D01*
G01X343Y20269D01*
G01X344Y20221D01*
G01X347Y20171D01*
G01X353Y20122D01*
G01X360Y20074D01*
G01X369Y20026D01*
G01X381Y19978D01*
G01X394Y19931D01*
G01X409Y19884D01*
G01X427Y19839D01*
G01X446Y19793D01*
G01X467Y19749D01*
G01X490Y19705D01*
G01X515Y19663D01*
G01X542Y19622D01*
G01X570Y19582D01*
G01X600Y19543D01*
G01X631Y19505D01*
G01X664Y19469D01*
G01X736Y19401D01*
G01X773Y19370D01*
G01X812Y19340D01*
G01X852Y19311D01*
G01X893Y19285D01*
G01X936Y19260D01*
G01X979Y19237D01*
G01X1023Y19216D01*
G01X1068Y19196D01*
G01X1115Y19179D01*
G01X1161Y19164D01*
G01X1208Y19150D01*
G01X1256Y19139D01*
G01X1304Y19130D01*
G01X1353Y19122D01*
G01X1402Y19117D01*
G01X1450Y19114D01*
G01X1500Y19113D01*
G01X1549Y19114D01*
G01X1598Y19117D01*
G01X1647Y19122D01*
G01X1696Y19130D01*
G01X1744Y19139D01*
G01X1792Y19151D01*
G01X1840Y19164D01*
G01X1887Y19180D01*
G01X1933Y19197D01*
G01X1978Y19217D01*
G01X2022Y19238D01*
G01X2066Y19261D01*
G01X2109Y19286D01*
G01X2150Y19313D01*
G01X2190Y19342D01*
G01X2229Y19372D01*
G01X2267Y19404D01*
G01X2303Y19437D01*
G01X2338Y19472D01*
G01X2371Y19509D01*
G01X2402Y19547D01*
G01X2432Y19586D01*
G01X2461Y19626D01*
G01X2487Y19668D01*
G01X2512Y19710D01*
G01X2521Y19723D01*
G01X2531Y19735D01*
G01X2543Y19745D01*
G01X2556Y19753D01*
G01X2570Y19758D01*
G01X2586Y19762D01*
G01X2601Y19763D01*
G01X5483Y19763D01*
G01X5499Y19762D01*
G01X5515Y19758D01*
G01X5530Y19752D01*
G01X5543Y19744D01*
G01X5555Y19733D01*
G01X6625Y18663D01*
G01X6636Y18651D01*
G01X6644Y18638D01*
G01X6650Y18623D01*
G01X6654Y18607D01*
G01X6655Y18591D01*
G01X6655Y15780D01*
G01X6654Y15764D01*
G01X6651Y15750D01*
G01X6645Y15736D01*
G01X6638Y15723D01*
G01X6628Y15711D01*
G01X6604Y15683D01*
G01X6581Y15653D01*
G01X6559Y15622D01*
G01X6540Y15590D01*
G01X6522Y15557D01*
G01X6507Y15523D01*
G01X6493Y15487D01*
G01X6482Y15451D01*
G01X6472Y15415D01*
G01X6465Y15379D01*
G01X6459Y15341D01*
G01X6456Y15304D01*
G01X6455Y15267D01*
G01X6456Y15229D01*
G01X6459Y15192D01*
G01X6464Y15156D01*
G01X6472Y15119D01*
G01X6481Y15083D01*
G01X6492Y15048D01*
G01X6506Y15013D01*
G01X6521Y14979D01*
G01X6538Y14946D01*
G01X6557Y14914D01*
G01X6578Y14883D01*
G01X6601Y14854D01*
G01X6625Y14826D01*
G01X6651Y14799D01*
G01X6678Y14774D01*
G01X6707Y14750D01*
G01X6736Y14728D01*
G01X6768Y14707D01*
G01X6800Y14689D01*
G01X6833Y14672D01*
G01X6867Y14657D01*
G01X6902Y14644D01*
G01X6937Y14634D01*
G01X6973Y14625D01*
G01X7010Y14618D01*
G01X7047Y14613D01*
G01X7084Y14611D01*
G01X7099Y14609D01*
G01X7114Y14605D01*
G01X7127Y14599D01*
G01X7140Y14591D01*
G01X7152Y14581D01*
G01X8440Y13293D01*
G01X8463Y13271D01*
G01X8489Y13250D01*
G01X8516Y13231D01*
G01X8544Y13215D01*
G01X8573Y13200D01*
G01X8603Y13188D01*
G01X8634Y13178D01*
G01X8665Y13169D01*
G01X8697Y13163D01*
G01X8730Y13160D01*
G01X8763Y13159D01*
G01X11297Y13159D01*
G01X11313Y13158D01*
G01X11327Y13155D01*
G01X11341Y13149D01*
G01X11354Y13142D01*
G01X11366Y13132D01*
G01X11396Y13106D01*
G01X11427Y13083D01*
G01X11459Y13061D01*
G01X11494Y13040D01*
G01X11528Y13023D01*
G01X11564Y13007D01*
G01X11601Y12993D01*
G01X11638Y12982D01*
G01X11677Y12973D01*
G01X11716Y12966D01*
G01X11731Y12962D01*
G01X11746Y12956D01*
G01X11760Y12948D01*
G01X11772Y12937D01*
G01X13357Y11352D01*
G01X13382Y11330D01*
G01X13407Y11309D01*
G01X13434Y11289D01*
G01X13462Y11272D01*
G01X13491Y11256D01*
G01X13521Y11243D01*
G01X13552Y11231D01*
G01X13584Y11221D01*
G01X13616Y11214D01*
G01X13649Y11208D01*
G01X13682Y11205D01*
G01X13716Y11204D01*
G01X16692Y11204D01*
G01X16708Y11203D01*
G01X16724Y11199D01*
G01X16739Y11192D01*
G01X16752Y11184D01*
G01X16784Y11162D01*
G01X16816Y11142D01*
G01X16850Y11124D01*
G01X16884Y11108D01*
G01X16920Y11094D01*
G01X16956Y11082D01*
G01X16993Y11071D01*
G01X17031Y11064D01*
G01X17068Y11058D01*
G01X17106Y11055D01*
G01X17145Y11054D01*
G01X17181Y11055D01*
G01X17218Y11058D01*
G01X17254Y11063D01*
G01X17291Y11070D01*
G01X17326Y11080D01*
G01X17361Y11091D01*
G01X17396Y11104D01*
G01X17429Y11119D01*
G01X17462Y11136D01*
G01X17494Y11155D01*
G01X17524Y11175D01*
G01X17554Y11197D01*
G01X17582Y11221D01*
G01X17609Y11246D01*
G01X17634Y11273D01*
G01X17658Y11301D01*
G01X17680Y11331D01*
G01X17700Y11361D01*
G01X17719Y11393D01*
G01X17736Y11426D01*
G01X17751Y11459D01*
G01X17764Y11494D01*
G01X17775Y11529D01*
G01X17785Y11564D01*
G01X17792Y11601D01*
G01X17797Y11637D01*
G01X17800Y11674D01*
G01X17801Y11711D01*
G01X17800Y11747D01*
G01X17797Y11784D01*
G01X17792Y11820D01*
G01X17785Y11857D01*
G01X17775Y11892D01*
G01X17764Y11927D01*
G01X17751Y11962D01*
G01X17736Y11995D01*
G01X17719Y12028D01*
G01X17700Y12060D01*
G01X17680Y12090D01*
G01X17658Y12120D01*
G01X17634Y12148D01*
G01X17609Y12175D01*
G01X17582Y12200D01*
G01X17554Y12224D01*
G01X17524Y12246D01*
G01X17494Y12266D01*
G01X17462Y12285D01*
G01X17429Y12302D01*
G01X17396Y12317D01*
G01X17361Y12330D01*
G01X17326Y12341D01*
G01X17291Y12351D01*
G01X17254Y12358D01*
G01X17218Y12363D01*
G01X17181Y12366D01*
G01X17145Y12367D01*
G01X17106Y12366D01*
G01X17068Y12363D01*
G01X17031Y12357D01*
G01X16993Y12350D01*
G01X16956Y12339D01*
G01X16920Y12327D01*
G01X16884Y12313D01*
G01X16850Y12297D01*
G01X16816Y12279D01*
G01X16784Y12259D01*
G01X16752Y12237D01*
G01X16739Y12229D01*
G01X16724Y12222D01*
G01X16708Y12219D01*
G01X16692Y12217D01*
G01X13967Y12217D01*
G01X13952Y12219D01*
G01X13936Y12222D01*
G01X13921Y12228D01*
G01X13908Y12236D01*
G01X13895Y12247D01*
G01X12489Y13654D01*
G01X12478Y13666D01*
G01X12470Y13680D01*
G01X12464Y13695D01*
G01X12460Y13710D01*
G01X12454Y13748D01*
G01X12445Y13784D01*
G01X12434Y13820D01*
G01X12422Y13855D01*
G01X12407Y13889D01*
G01X12391Y13923D01*
G01X12372Y13956D01*
G01X12352Y13987D01*
G01X12330Y14017D01*
G01X12306Y14046D01*
G01X12280Y14074D01*
G01X12254Y14100D01*
G01X12226Y14125D01*
G01X12196Y14147D01*
G01X12165Y14168D01*
G01X12133Y14188D01*
G01X12100Y14205D01*
G01X12066Y14221D01*
G01X12031Y14234D01*
G01X11995Y14245D01*
G01X11959Y14255D01*
G01X11922Y14263D01*
G01X11885Y14268D01*
G01X11848Y14271D01*
G01X11811Y14272D01*
G01X11773Y14271D01*
G01X11736Y14268D01*
G01X11698Y14262D01*
G01X11662Y14255D01*
G01X11626Y14245D01*
G01X11590Y14234D01*
G01X11554Y14220D01*
G01X11520Y14205D01*
G01X11487Y14187D01*
G01X11455Y14168D01*
G01X11424Y14146D01*
G01X11394Y14124D01*
G01X11366Y14099D01*
G01X11354Y14089D01*
G01X11341Y14082D01*
G01X11327Y14076D01*
G01X11313Y14073D01*
G01X11297Y14072D01*
G01X8994Y14072D01*
G01X8978Y14073D01*
G01X8962Y14077D01*
G01X8947Y14083D01*
G01X8934Y14091D01*
G01X8922Y14102D01*
G01X7797Y15226D01*
G01X7787Y15238D01*
G01X7779Y15251D01*
G01X7773Y15264D01*
G01X7769Y15279D01*
G01X7767Y15294D01*
G01X7765Y15333D01*
G01X7760Y15371D01*
G01X7753Y15408D01*
G01X7743Y15445D01*
G01X7732Y15482D01*
G01X7718Y15518D01*
G01X7702Y15553D01*
G01X7685Y15587D01*
G01X7665Y15620D01*
G01X7643Y15652D01*
G01X7620Y15682D01*
G01X7595Y15711D01*
G01X7585Y15723D01*
G01X7578Y15736D01*
G01X7572Y15750D01*
G01X7569Y15764D01*
G01X7568Y15780D01*
G01X7568Y18823D01*
G01X7567Y18855D01*
G01X7564Y18888D01*
G01X7558Y18920D01*
G01X7549Y18951D01*
G01X7539Y18982D01*
G01X7527Y19012D01*
G01X7512Y19041D01*
G01X7496Y19069D01*
G01X7477Y19096D01*
G01X7456Y19122D01*
G01X7434Y19145D01*
G01X6037Y20542D01*
G01X6014Y20564D01*
G01X5988Y20585D01*
G01X5961Y20604D01*
G01X5933Y20620D01*
G01X5904Y20635D01*
G01X5874Y20647D01*
G01X5843Y20657D01*
G01X5812Y20666D01*
G01X5780Y20672D01*
G01X5747Y20675D01*
G01X5715Y20676D01*
G01X2651Y20676D01*
G01X2636Y20677D01*
G01X2622Y20680D01*
G01X2608Y20685D01*
G01X2595Y20692D01*
G01X2573Y20712D01*
G01X2564Y20723D01*
G01X2558Y20737D01*
G01X2537Y20781D01*
G01X2514Y20826D01*
G01X2489Y20868D01*
G01X2463Y20910D01*
G01X2434Y20951D01*
G01X2404Y20990D01*
G01X2373Y21028D01*
G01X2339Y21065D01*
G01X2305Y21100D01*
G01X2269Y21133D01*
G01X2231Y21165D01*
G01X2192Y21196D01*
G01X2151Y21225D01*
G01X2110Y21252D01*
G01X2068Y21277D01*
G01X2024Y21301D01*
G01X1980Y21322D01*
G01X1934Y21341D01*
G01X1888Y21359D01*
G01X1841Y21375D01*
G01X1793Y21388D01*
G01X1745Y21400D01*
G01X1697Y21409D01*
G01X1647Y21416D01*
G01X1599Y21422D01*
G01X1549Y21425D01*
G37*
G36*
G01X26086Y21135D02*
G01X26049Y21136D01*
G01X26007Y21135D01*
G01X25965Y21131D01*
G01X25924Y21124D01*
G01X25882Y21115D01*
G01X25842Y21102D01*
G01X25807Y21090D01*
G01X25772Y21075D01*
G01X25739Y21058D01*
G01X25707Y21040D01*
G01X25676Y21020D01*
G01X25646Y20997D01*
G01X25617Y20973D01*
G01X25589Y20948D01*
G01X25564Y20922D01*
G01X25539Y20893D01*
G01X25517Y20864D01*
G01X25496Y20833D01*
G01X25477Y20801D01*
G01X25459Y20768D01*
G01X25444Y20734D01*
G01X25430Y20699D01*
G01X25419Y20663D01*
G01X25410Y20627D01*
G01X25403Y20591D01*
G01X25397Y20554D01*
G01X25394Y20517D01*
G01X25393Y20480D01*
G01X25393Y20294D01*
G01X25391Y20277D01*
G01X25388Y20262D01*
G01X25382Y20247D01*
G01X25374Y20234D01*
G01X25363Y20222D01*
G01X22555Y17414D01*
G01X22530Y17387D01*
G01X22506Y17359D01*
G01X22484Y17329D01*
G01X22464Y17299D01*
G01X22445Y17267D01*
G01X22428Y17234D01*
G01X22413Y17201D01*
G01X22400Y17166D01*
G01X22389Y17131D01*
G01X22379Y17096D01*
G01X22372Y17060D01*
G01X22367Y17023D01*
G01X22364Y16987D01*
G01X22363Y16950D01*
G01X22363Y14179D01*
G01X22364Y14143D01*
G01X22367Y14106D01*
G01X22372Y14070D01*
G01X22379Y14034D01*
G01X22389Y13998D01*
G01X22400Y13962D01*
G01X22413Y13928D01*
G01X22428Y13894D01*
G01X22445Y13862D01*
G01X22464Y13830D01*
G01X22484Y13799D01*
G01X22506Y13770D01*
G01X22530Y13742D01*
G01X22555Y13715D01*
G01X22645Y13625D01*
G01X22672Y13600D01*
G01X22700Y13576D01*
G01X22729Y13554D01*
G01X22760Y13534D01*
G01X22792Y13515D01*
G01X22824Y13498D01*
G01X22858Y13483D01*
G01X22893Y13470D01*
G01X22928Y13459D01*
G01X22963Y13449D01*
G01X23000Y13442D01*
G01X23036Y13437D01*
G01X23073Y13434D01*
G01X23109Y13433D01*
G01X23146Y13434D01*
G01X23183Y13437D01*
G01X23219Y13442D01*
G01X23256Y13449D01*
G01X23291Y13459D01*
G01X23326Y13470D01*
G01X23361Y13483D01*
G01X23394Y13498D01*
G01X23427Y13515D01*
G01X23459Y13534D01*
G01X23489Y13554D01*
G01X23519Y13576D01*
G01X23547Y13600D01*
G01X23574Y13625D01*
G01X23599Y13652D01*
G01X23623Y13680D01*
G01X23645Y13709D01*
G01X23665Y13740D01*
G01X23684Y13772D01*
G01X23701Y13804D01*
G01X23716Y13838D01*
G01X23729Y13873D01*
G01X23740Y13908D01*
G01X23750Y13943D01*
G01X23757Y13980D01*
G01X23762Y14016D01*
G01X23765Y14053D01*
G01X23766Y14089D01*
G01X23765Y14130D01*
G01X23761Y14170D01*
G01X23755Y14210D01*
G01X23746Y14249D01*
G01X23735Y14288D01*
G01X23722Y14326D01*
G01X23706Y14364D01*
G01X23688Y14400D01*
G01X23681Y14415D01*
G01X23677Y14431D01*
G01X23676Y14448D01*
G01X23676Y16636D01*
G01X23677Y16651D01*
G01X23681Y16667D01*
G01X23687Y16682D01*
G01X23695Y16695D01*
G01X23706Y16707D01*
G01X26514Y19515D01*
G01X26539Y19542D01*
G01X26563Y19570D01*
G01X26585Y19600D01*
G01X26605Y19630D01*
G01X26624Y19662D01*
G01X26641Y19695D01*
G01X26656Y19728D01*
G01X26669Y19763D01*
G01X26680Y19798D01*
G01X26689Y19833D01*
G01X26696Y19869D01*
G01X26702Y19906D01*
G01X26705Y19943D01*
G01X26706Y19980D01*
G01X26706Y20480D01*
G01X26705Y20516D01*
G01X26702Y20553D01*
G01X26697Y20589D01*
G01X26689Y20626D01*
G01X26680Y20661D01*
G01X26669Y20697D01*
G01X26656Y20731D01*
G01X26641Y20765D01*
G01X26624Y20797D01*
G01X26605Y20829D01*
G01X26585Y20860D01*
G01X26563Y20889D01*
G01X26539Y20917D01*
G01X26514Y20944D01*
G01X26487Y20969D01*
G01X26459Y20993D01*
G01X26429Y21015D01*
G01X26399Y21035D01*
G01X26367Y21054D01*
G01X26334Y21071D01*
G01X26301Y21086D01*
G01X26266Y21099D01*
G01X26231Y21111D01*
G01X26196Y21120D01*
G01X26159Y21127D01*
G01X26123Y21132D01*
G01X26086Y21135D01*
G37*
G36*
G01X1549Y16345D02*
G01X1500Y16346D01*
G01X1450Y16345D01*
G01X1402Y16342D01*
G01X1353Y16337D01*
G01X1304Y16329D01*
G01X1256Y16320D01*
G01X1208Y16309D01*
G01X1161Y16295D01*
G01X1115Y16280D01*
G01X1068Y16263D01*
G01X1023Y16243D01*
G01X979Y16222D01*
G01X936Y16199D01*
G01X893Y16174D01*
G01X852Y16148D01*
G01X812Y16119D01*
G01X773Y16089D01*
G01X736Y16058D01*
G01X664Y15990D01*
G01X631Y15954D01*
G01X600Y15916D01*
G01X570Y15877D01*
G01X542Y15837D01*
G01X515Y15796D01*
G01X490Y15754D01*
G01X467Y15710D01*
G01X446Y15666D01*
G01X427Y15621D01*
G01X409Y15575D01*
G01X394Y15528D01*
G01X381Y15481D01*
G01X369Y15433D01*
G01X360Y15385D01*
G01X353Y15337D01*
G01X347Y15288D01*
G01X344Y15239D01*
G01X343Y15189D01*
G01X344Y15141D01*
G01X347Y15091D01*
G01X353Y15042D01*
G01X360Y14994D01*
G01X369Y14946D01*
G01X381Y14898D01*
G01X394Y14851D01*
G01X409Y14804D01*
G01X427Y14759D01*
G01X446Y14713D01*
G01X467Y14669D01*
G01X490Y14625D01*
G01X515Y14583D01*
G01X542Y14542D01*
G01X570Y14502D01*
G01X600Y14463D01*
G01X631Y14425D01*
G01X664Y14389D01*
G01X736Y14321D01*
G01X773Y14290D01*
G01X812Y14260D01*
G01X852Y14231D01*
G01X893Y14205D01*
G01X936Y14180D01*
G01X979Y14157D01*
G01X1023Y14136D01*
G01X1068Y14116D01*
G01X1115Y14099D01*
G01X1161Y14084D01*
G01X1208Y14070D01*
G01X1256Y14059D01*
G01X1304Y14050D01*
G01X1353Y14042D01*
G01X1402Y14037D01*
G01X1450Y14034D01*
G01X1500Y14033D01*
G01X1549Y14034D01*
G01X1598Y14037D01*
G01X1646Y14042D01*
G01X1695Y14050D01*
G01X1743Y14059D01*
G01X1791Y14070D01*
G01X1838Y14084D01*
G01X1885Y14099D01*
G01X1931Y14116D01*
G01X1976Y14136D01*
G01X2020Y14157D01*
G01X2064Y14180D01*
G01X2106Y14205D01*
G01X2147Y14231D01*
G01X2187Y14260D01*
G01X2226Y14290D01*
G01X2264Y14321D01*
G01X2300Y14355D01*
G01X2335Y14389D01*
G01X2368Y14425D01*
G01X2399Y14463D01*
G01X2429Y14502D01*
G01X2458Y14542D01*
G01X2485Y14583D01*
G01X2510Y14625D01*
G01X2554Y14713D01*
G01X2573Y14759D01*
G01X2590Y14804D01*
G01X2606Y14851D01*
G01X2619Y14898D01*
G01X2630Y14946D01*
G01X2640Y14994D01*
G01X2647Y15042D01*
G01X2652Y15091D01*
G01X2655Y15141D01*
G01X2656Y15189D01*
G01X2655Y15239D01*
G01X2652Y15288D01*
G01X2647Y15337D01*
G01X2640Y15385D01*
G01X2630Y15433D01*
G01X2619Y15481D01*
G01X2606Y15528D01*
G01X2590Y15575D01*
G01X2573Y15621D01*
G01X2554Y15666D01*
G01X2510Y15754D01*
G01X2485Y15796D01*
G01X2458Y15837D01*
G01X2429Y15877D01*
G01X2399Y15916D01*
G01X2368Y15954D01*
G01X2335Y15990D01*
G01X2300Y16024D01*
G01X2264Y16058D01*
G01X2226Y16089D01*
G01X2187Y16119D01*
G01X2147Y16148D01*
G01X2106Y16174D01*
G01X2064Y16199D01*
G01X2020Y16222D01*
G01X1976Y16243D01*
G01X1931Y16263D01*
G01X1885Y16280D01*
G01X1838Y16295D01*
G01X1791Y16309D01*
G01X1743Y16320D01*
G01X1695Y16329D01*
G01X1646Y16337D01*
G01X1598Y16342D01*
G01X1549Y16345D01*
G37*
G36*
G01X16053Y37731D02*
G01X16002Y37732D01*
G01X15951Y37731D01*
G01X15900Y37728D01*
G01X15850Y37723D01*
G01X15800Y37716D01*
G01X15750Y37706D01*
G01X15701Y37696D01*
G01X15652Y37683D01*
G01X15556Y37651D01*
G01X15509Y37631D01*
G01X15463Y37611D01*
G01X15417Y37588D01*
G01X15373Y37564D01*
G01X15330Y37537D01*
G01X15288Y37509D01*
G01X15247Y37480D01*
G01X15206Y37449D01*
G01X15168Y37416D01*
G01X15131Y37382D01*
G01X15095Y37346D01*
G01X15061Y37309D01*
G01X15028Y37270D01*
G01X14997Y37230D01*
G01X14967Y37189D01*
G01X14939Y37147D01*
G01X14913Y37103D01*
G01X14889Y37059D01*
G01X14866Y37014D01*
G01X14845Y36968D01*
G01X14826Y36921D01*
G01X14820Y36903D01*
G01X14803Y36851D01*
G01X14787Y36799D01*
G01X14774Y36746D01*
G01X14764Y36692D01*
G01X14755Y36639D01*
G01X14750Y36584D01*
G01X14746Y36530D01*
G01X14745Y36476D01*
G01X14746Y36421D01*
G01X14750Y36367D01*
G01X14755Y36312D01*
G01X14764Y36259D01*
G01X14774Y36205D01*
G01X14787Y36152D01*
G01X14803Y36100D01*
G01X14820Y36048D01*
G01X14826Y36030D01*
G01X14846Y35982D01*
G01X14867Y35934D01*
G01X14891Y35888D01*
G01X14916Y35843D01*
G01X14943Y35798D01*
G01X14972Y35756D01*
G01X15002Y35714D01*
G01X15035Y35673D01*
G01X15069Y35634D01*
G01X15104Y35596D01*
G01X15141Y35560D01*
G01X15180Y35525D01*
G01X15220Y35492D01*
G01X15261Y35460D01*
G01X15304Y35431D01*
G01X15348Y35403D01*
G01X15392Y35376D01*
G01X15406Y35368D01*
G01X15417Y35357D01*
G01X15427Y35346D01*
G01X15435Y35333D01*
G01X15440Y35318D01*
G01X15444Y35303D01*
G01X15445Y35287D01*
G01X15445Y35224D01*
G01X15444Y35208D01*
G01X15440Y35193D01*
G01X15434Y35178D01*
G01X15425Y35164D01*
G01X15415Y35152D01*
G01X14404Y34141D01*
G01X14392Y34131D01*
G01X14378Y34122D01*
G01X14363Y34116D01*
G01X14348Y34112D01*
G01X14332Y34111D01*
G01X3937Y34111D01*
G01X3903Y34110D01*
G01X3869Y34107D01*
G01X3836Y34102D01*
G01X3803Y34095D01*
G01X3771Y34086D01*
G01X3739Y34075D01*
G01X3708Y34062D01*
G01X3678Y34047D01*
G01X3648Y34031D01*
G01X3621Y34013D01*
G01X3593Y33992D01*
G01X3568Y33971D01*
G01X3543Y33948D01*
G01X2793Y33198D01*
G01X2780Y33187D01*
G01X2765Y33178D01*
G01X2748Y33172D01*
G01X2712Y33161D01*
G01X2677Y33148D01*
G01X2643Y33133D01*
G01X2610Y33117D01*
G01X2578Y33098D01*
G01X2546Y33078D01*
G01X2516Y33056D01*
G01X2488Y33032D01*
G01X2460Y33007D01*
G01X2434Y32980D01*
G01X2410Y32952D01*
G01X2388Y32922D01*
G01X2367Y32892D01*
G01X2347Y32860D01*
G01X2330Y32827D01*
G01X2315Y32793D01*
G01X2302Y32757D01*
G01X2290Y32722D01*
G01X2281Y32686D01*
G01X2273Y32650D01*
G01X2268Y32613D01*
G01X2265Y32576D01*
G01X2264Y32539D01*
G01X2265Y32502D01*
G01X2268Y32465D01*
G01X2273Y32429D01*
G01X2280Y32392D01*
G01X2290Y32357D01*
G01X2301Y32322D01*
G01X2314Y32287D01*
G01X2329Y32254D01*
G01X2346Y32221D01*
G01X2365Y32189D01*
G01X2385Y32159D01*
G01X2407Y32129D01*
G01X2431Y32101D01*
G01X2456Y32074D01*
G01X2483Y32049D01*
G01X2511Y32025D01*
G01X2541Y32003D01*
G01X2571Y31983D01*
G01X2603Y31964D01*
G01X2636Y31947D01*
G01X2669Y31932D01*
G01X2704Y31919D01*
G01X2739Y31908D01*
G01X2774Y31898D01*
G01X2811Y31891D01*
G01X2847Y31886D01*
G01X2884Y31883D01*
G01X2921Y31882D01*
G01X2958Y31883D01*
G01X2995Y31886D01*
G01X3032Y31891D01*
G01X3068Y31899D01*
G01X3104Y31908D01*
G01X3139Y31920D01*
G01X3175Y31933D01*
G01X3209Y31948D01*
G01X3242Y31965D01*
G01X3274Y31985D01*
G01X3304Y32006D01*
G01X3334Y32028D01*
G01X3362Y32052D01*
G01X3389Y32078D01*
G01X3414Y32106D01*
G01X3438Y32134D01*
G01X3460Y32164D01*
G01X3480Y32196D01*
G01X3499Y32228D01*
G01X3515Y32261D01*
G01X3530Y32295D01*
G01X3543Y32330D01*
G01X3554Y32366D01*
G01X3560Y32383D01*
G01X3569Y32398D01*
G01X3580Y32411D01*
G01X4137Y32968D01*
G01X4149Y32978D01*
G01X4163Y32987D01*
G01X4178Y32993D01*
G01X4193Y32997D01*
G01X4209Y32998D01*
G01X14605Y32998D01*
G01X14638Y32999D01*
G01X14672Y33002D01*
G01X14705Y33007D01*
G01X14738Y33014D01*
G01X14770Y33023D01*
G01X14802Y33034D01*
G01X14833Y33047D01*
G01X14863Y33062D01*
G01X14893Y33078D01*
G01X14920Y33096D01*
G01X14948Y33117D01*
G01X14973Y33138D01*
G01X14998Y33161D01*
G01X16395Y34558D01*
G01X16418Y34583D01*
G01X16439Y34608D01*
G01X16460Y34636D01*
G01X16478Y34663D01*
G01X16494Y34693D01*
G01X16509Y34723D01*
G01X16522Y34754D01*
G01X16533Y34786D01*
G01X16542Y34818D01*
G01X16549Y34851D01*
G01X16554Y34884D01*
G01X16557Y34918D01*
G01X16558Y34952D01*
G01X16558Y35287D01*
G01X16559Y35303D01*
G01X16563Y35318D01*
G01X16568Y35333D01*
G01X16576Y35346D01*
G01X16586Y35357D01*
G01X16597Y35368D01*
G01X16611Y35376D01*
G01X16657Y35404D01*
G01X16703Y35433D01*
G01X16747Y35464D01*
G01X16789Y35497D01*
G01X16831Y35532D01*
G01X16871Y35568D01*
G01X16909Y35606D01*
G01X16945Y35646D01*
G01X16980Y35687D01*
G01X17013Y35730D01*
G01X17044Y35774D01*
G01X17055Y35787D01*
G01X17067Y35798D01*
G01X17080Y35807D01*
G01X17096Y35814D01*
G01X17112Y35818D01*
G01X17128Y35819D01*
G01X17415Y35819D01*
G01X17431Y35818D01*
G01X17447Y35814D01*
G01X17463Y35807D01*
G01X17476Y35798D01*
G01X17488Y35787D01*
G01X17499Y35774D01*
G01X17529Y35732D01*
G01X17560Y35692D01*
G01X17593Y35652D01*
G01X17627Y35614D01*
G01X17663Y35577D01*
G01X17700Y35542D01*
G01X17739Y35509D01*
G01X17778Y35477D01*
G01X17820Y35447D01*
G01X17863Y35418D01*
G01X17906Y35391D01*
G01X17996Y35343D01*
G01X18043Y35322D01*
G01X18091Y35303D01*
G01X18139Y35285D01*
G01X18188Y35270D01*
G01X18237Y35256D01*
G01X18287Y35245D01*
G01X18337Y35235D01*
G01X18388Y35228D01*
G01X18439Y35223D01*
G01X18490Y35220D01*
G01X18542Y35219D01*
G01X18593Y35220D01*
G01X18644Y35223D01*
G01X18695Y35228D01*
G01X18747Y35236D01*
G01X18797Y35245D01*
G01X18847Y35257D01*
G01X18897Y35271D01*
G01X18946Y35286D01*
G01X18995Y35304D01*
G01X19042Y35323D01*
G01X19089Y35345D01*
G01X19135Y35368D01*
G01X19180Y35393D01*
G01X19223Y35420D01*
G01X19266Y35449D01*
G01X19308Y35479D01*
G01X19348Y35512D01*
G01X19386Y35545D01*
G01X19424Y35581D01*
G01X19460Y35618D01*
G01X19494Y35656D01*
G01X19527Y35696D01*
G01X19558Y35737D01*
G01X19587Y35779D01*
G01X19615Y35823D01*
G01X19641Y35867D01*
G01X19665Y35913D01*
G01X19687Y35959D01*
G01X19694Y35972D01*
G01X19703Y35984D01*
G01X19713Y35994D01*
G01X19725Y36003D01*
G01X19737Y36010D01*
G01X19751Y36015D01*
G01X19765Y36018D01*
G01X19779Y36019D01*
G01X22981Y36019D01*
G01X22997Y36018D01*
G01X23013Y36014D01*
G01X23028Y36008D01*
G01X23041Y36000D01*
G01X23053Y35989D01*
G01X23135Y35907D01*
G01X23146Y35895D01*
G01X23154Y35882D01*
G01X23160Y35867D01*
G01X23164Y35851D01*
G01X23165Y35835D01*
G01X23165Y35079D01*
G01X23166Y35046D01*
G01X23169Y35013D01*
G01X23175Y34981D01*
G01X23184Y34950D01*
G01X23194Y34919D01*
G01X23206Y34889D01*
G01X23221Y34860D01*
G01X23237Y34832D01*
G01X23256Y34805D01*
G01X23277Y34779D01*
G01X23299Y34756D01*
G01X24696Y33359D01*
G01X24719Y33337D01*
G01X24745Y33316D01*
G01X24772Y33297D01*
G01X24800Y33281D01*
G01X24829Y33266D01*
G01X24859Y33254D01*
G01X24890Y33244D01*
G01X24921Y33235D01*
G01X24953Y33229D01*
G01X24986Y33226D01*
G01X25019Y33225D01*
G01X26565Y33225D01*
G01X26581Y33224D01*
G01X26597Y33220D01*
G01X26612Y33214D01*
G01X26625Y33206D01*
G01X26637Y33195D01*
G01X28723Y31109D01*
G01X28734Y31097D01*
G01X28742Y31084D01*
G01X28748Y31069D01*
G01X28752Y31053D01*
G01X28753Y31037D01*
G01X28753Y21363D01*
G01X28754Y21330D01*
G01X28757Y21297D01*
G01X28763Y21265D01*
G01X28772Y21234D01*
G01X28782Y21203D01*
G01X28794Y21173D01*
G01X28809Y21144D01*
G01X28825Y21116D01*
G01X28844Y21089D01*
G01X28865Y21063D01*
G01X28887Y21040D01*
G01X34983Y14944D01*
G01X35006Y14922D01*
G01X35032Y14901D01*
G01X35059Y14882D01*
G01X35087Y14866D01*
G01X35116Y14851D01*
G01X35146Y14839D01*
G01X35177Y14829D01*
G01X35208Y14820D01*
G01X35240Y14814D01*
G01X35273Y14811D01*
G01X35306Y14810D01*
G01X35337Y14810D01*
G01X35352Y14809D01*
G01X35366Y14806D01*
G01X35381Y14800D01*
G01X35393Y14793D01*
G01X35405Y14783D01*
G01X35416Y14773D01*
G01X35424Y14761D01*
G01X35431Y14747D01*
G01X35450Y14703D01*
G01X35472Y14659D01*
G01X35495Y14616D01*
G01X35520Y14575D01*
G01X35547Y14534D01*
G01X35575Y14494D01*
G01X35605Y14456D01*
G01X35637Y14419D01*
G01X35670Y14384D01*
G01X35705Y14349D01*
G01X35741Y14317D01*
G01X35778Y14286D01*
G01X35817Y14256D01*
G01X35857Y14228D01*
G01X35898Y14202D01*
G01X35940Y14177D01*
G01X35983Y14154D01*
G01X36027Y14134D01*
G01X36072Y14115D01*
G01X36117Y14098D01*
G01X36164Y14083D01*
G01X36211Y14070D01*
G01X36258Y14058D01*
G01X36306Y14049D01*
G01X36354Y14042D01*
G01X36402Y14037D01*
G01X36451Y14034D01*
G01X36500Y14033D01*
G01X36549Y14034D01*
G01X36598Y14037D01*
G01X36647Y14042D01*
G01X36695Y14050D01*
G01X36743Y14059D01*
G01X36791Y14070D01*
G01X36838Y14084D01*
G01X36885Y14099D01*
G01X36931Y14116D01*
G01X36976Y14136D01*
G01X37020Y14157D01*
G01X37064Y14180D01*
G01X37106Y14205D01*
G01X37147Y14231D01*
G01X37187Y14260D01*
G01X37226Y14290D01*
G01X37264Y14321D01*
G01X37300Y14355D01*
G01X37334Y14389D01*
G01X37368Y14425D01*
G01X37399Y14463D01*
G01X37429Y14502D01*
G01X37458Y14542D01*
G01X37484Y14583D01*
G01X37509Y14625D01*
G01X37532Y14669D01*
G01X37553Y14713D01*
G01X37573Y14759D01*
G01X37590Y14804D01*
G01X37605Y14851D01*
G01X37619Y14898D01*
G01X37630Y14946D01*
G01X37639Y14994D01*
G01X37647Y15042D01*
G01X37652Y15091D01*
G01X37655Y15141D01*
G01X37656Y15189D01*
G01X37655Y15239D01*
G01X37652Y15288D01*
G01X37647Y15337D01*
G01X37639Y15385D01*
G01X37630Y15433D01*
G01X37619Y15481D01*
G01X37605Y15528D01*
G01X37590Y15575D01*
G01X37573Y15621D01*
G01X37553Y15666D01*
G01X37532Y15710D01*
G01X37509Y15754D01*
G01X37484Y15796D01*
G01X37458Y15837D01*
G01X37429Y15877D01*
G01X37399Y15916D01*
G01X37368Y15954D01*
G01X37334Y15990D01*
G01X37300Y16024D01*
G01X37264Y16058D01*
G01X37226Y16089D01*
G01X37187Y16119D01*
G01X37147Y16148D01*
G01X37106Y16174D01*
G01X37064Y16199D01*
G01X37020Y16222D01*
G01X36976Y16243D01*
G01X36931Y16263D01*
G01X36885Y16280D01*
G01X36838Y16295D01*
G01X36791Y16309D01*
G01X36743Y16320D01*
G01X36695Y16329D01*
G01X36647Y16337D01*
G01X36598Y16342D01*
G01X36549Y16345D01*
G01X36500Y16346D01*
G01X36451Y16345D01*
G01X36402Y16342D01*
G01X36354Y16337D01*
G01X36305Y16330D01*
G01X36257Y16321D01*
G01X36210Y16309D01*
G01X36163Y16296D01*
G01X36116Y16281D01*
G01X36071Y16264D01*
G01X36026Y16244D01*
G01X35982Y16224D01*
G01X35938Y16201D01*
G01X35896Y16176D01*
G01X35855Y16150D01*
G01X35816Y16122D01*
G01X35776Y16093D01*
G01X35739Y16061D01*
G01X35703Y16028D01*
G01X35668Y15994D01*
G01X35635Y15958D01*
G01X35604Y15921D01*
G01X35574Y15882D01*
G01X35545Y15843D01*
G01X35535Y15830D01*
G01X35522Y15819D01*
G01X35509Y15810D01*
G01X35493Y15804D01*
G01X35478Y15800D01*
G01X35461Y15798D01*
G01X35445Y15800D01*
G01X35430Y15803D01*
G01X35415Y15810D01*
G01X35402Y15818D01*
G01X35389Y15828D01*
G01X34293Y16925D01*
G01X34283Y16937D01*
G01X34274Y16950D01*
G01X34268Y16965D01*
G01X34265Y16980D01*
G01X34264Y16996D01*
G01X34265Y17011D01*
G01X34268Y17025D01*
G01X34273Y17038D01*
G01X34279Y17051D01*
G01X34288Y17063D01*
G01X34299Y17073D01*
G01X34310Y17082D01*
G01X34323Y17089D01*
G01X34336Y17094D01*
G01X34350Y17097D01*
G01X34365Y17098D01*
G01X35477Y17098D01*
G01X35493Y17097D01*
G01X35509Y17093D01*
G01X35523Y17087D01*
G01X35537Y17079D01*
G01X35549Y17068D01*
G01X35560Y17056D01*
G01X35589Y17016D01*
G01X35621Y16977D01*
G01X35654Y16940D01*
G01X35690Y16904D01*
G01X35726Y16870D01*
G01X35763Y16838D01*
G01X35802Y16807D01*
G01X35843Y16777D01*
G01X35885Y16750D01*
G01X35927Y16724D01*
G01X35971Y16701D01*
G01X36016Y16679D01*
G01X36062Y16659D01*
G01X36109Y16641D01*
G01X36156Y16625D01*
G01X36204Y16612D01*
G01X36252Y16600D01*
G01X36301Y16590D01*
G01X36350Y16583D01*
G01X36400Y16577D01*
G01X36450Y16574D01*
G01X36500Y16573D01*
G01X36549Y16574D01*
G01X36598Y16577D01*
G01X36647Y16582D01*
G01X36695Y16590D01*
G01X36743Y16599D01*
G01X36791Y16610D01*
G01X36838Y16624D01*
G01X36885Y16639D01*
G01X36931Y16656D01*
G01X36976Y16676D01*
G01X37020Y16697D01*
G01X37064Y16720D01*
G01X37106Y16745D01*
G01X37147Y16771D01*
G01X37187Y16800D01*
G01X37226Y16830D01*
G01X37264Y16861D01*
G01X37300Y16895D01*
G01X37334Y16929D01*
G01X37368Y16965D01*
G01X37399Y17003D01*
G01X37429Y17042D01*
G01X37458Y17082D01*
G01X37484Y17123D01*
G01X37509Y17165D01*
G01X37532Y17209D01*
G01X37553Y17253D01*
G01X37573Y17299D01*
G01X37590Y17344D01*
G01X37605Y17391D01*
G01X37619Y17438D01*
G01X37630Y17486D01*
G01X37639Y17534D01*
G01X37647Y17582D01*
G01X37652Y17631D01*
G01X37655Y17681D01*
G01X37656Y17729D01*
G01X37655Y17779D01*
G01X37652Y17828D01*
G01X37647Y17877D01*
G01X37639Y17925D01*
G01X37630Y17973D01*
G01X37619Y18021D01*
G01X37605Y18068D01*
G01X37590Y18115D01*
G01X37573Y18161D01*
G01X37553Y18206D01*
G01X37532Y18250D01*
G01X37509Y18294D01*
G01X37484Y18336D01*
G01X37458Y18377D01*
G01X37429Y18417D01*
G01X37399Y18456D01*
G01X37368Y18494D01*
G01X37334Y18530D01*
G01X37300Y18564D01*
G01X37264Y18598D01*
G01X37226Y18629D01*
G01X37187Y18659D01*
G01X37147Y18688D01*
G01X37106Y18714D01*
G01X37064Y18739D01*
G01X37020Y18762D01*
G01X36976Y18783D01*
G01X36931Y18803D01*
G01X36885Y18820D01*
G01X36838Y18835D01*
G01X36791Y18849D01*
G01X36743Y18860D01*
G01X36695Y18869D01*
G01X36647Y18877D01*
G01X36598Y18882D01*
G01X36549Y18885D01*
G01X36500Y18886D01*
G01X36450Y18885D01*
G01X36400Y18882D01*
G01X36350Y18876D01*
G01X36301Y18869D01*
G01X36252Y18859D01*
G01X36204Y18847D01*
G01X36156Y18834D01*
G01X36109Y18818D01*
G01X36062Y18800D01*
G01X36016Y18780D01*
G01X35971Y18758D01*
G01X35927Y18735D01*
G01X35885Y18709D01*
G01X35843Y18682D01*
G01X35802Y18652D01*
G01X35763Y18621D01*
G01X35726Y18589D01*
G01X35689Y18555D01*
G01X35654Y18519D01*
G01X35621Y18482D01*
G01X35589Y18444D01*
G01X35560Y18403D01*
G01X35549Y18391D01*
G01X35537Y18381D01*
G01X35523Y18372D01*
G01X35509Y18366D01*
G01X35493Y18362D01*
G01X35477Y18361D01*
G01X34670Y18361D01*
G01X34654Y18362D01*
G01X34639Y18366D01*
G01X34624Y18372D01*
G01X34611Y18381D01*
G01X34598Y18391D01*
G01X31190Y21799D01*
G01X31173Y21820D01*
G01X31154Y21853D01*
G01X31132Y21884D01*
G01X31108Y21913D01*
G01X31082Y21942D01*
G01X31056Y21969D01*
G01X31027Y21993D01*
G01X30997Y22017D01*
G01X30966Y22039D01*
G01X30934Y22059D01*
G01X30900Y22077D01*
G01X30866Y22093D01*
G01X30830Y22107D01*
G01X30794Y22119D01*
G01X30757Y22129D01*
G01X30720Y22136D01*
G01X30682Y22142D01*
G01X30645Y22145D01*
G01X30607Y22146D01*
G01X30569Y22145D01*
G01X30532Y22142D01*
G01X30495Y22137D01*
G01X30458Y22129D01*
G01X30422Y22119D01*
G01X30386Y22108D01*
G01X30351Y22095D01*
G01X30317Y22079D01*
G01X30284Y22062D01*
G01X30252Y22042D01*
G01X30221Y22021D01*
G01X30191Y21998D01*
G01X30163Y21974D01*
G01X30136Y21948D01*
G01X30111Y21920D01*
G01X30087Y21891D01*
G01X30065Y21861D01*
G01X30045Y21829D01*
G01X30026Y21797D01*
G01X30010Y21763D01*
G01X29995Y21729D01*
G01X29982Y21693D01*
G01X29972Y21658D01*
G01X29963Y21621D01*
G01X29957Y21584D01*
G01X29953Y21547D01*
G01X29950Y21509D01*
G01X29949Y21494D01*
G01X29945Y21479D01*
G01X29938Y21465D01*
G01X29930Y21451D01*
G01X29920Y21440D01*
G01X29907Y21430D01*
G01X29894Y21421D01*
G01X29880Y21416D01*
G01X29864Y21412D01*
G01X29849Y21411D01*
G01X29833Y21412D01*
G01X29817Y21416D01*
G01X29802Y21422D01*
G01X29789Y21431D01*
G01X29777Y21441D01*
G01X29696Y21522D01*
G01X29685Y21534D01*
G01X29677Y21547D01*
G01X29671Y21562D01*
G01X29667Y21578D01*
G01X29666Y21594D01*
G01X29666Y31269D01*
G01X29665Y31301D01*
G01X29662Y31334D01*
G01X29656Y31366D01*
G01X29647Y31397D01*
G01X29637Y31428D01*
G01X29625Y31458D01*
G01X29610Y31487D01*
G01X29594Y31515D01*
G01X29575Y31542D01*
G01X29554Y31568D01*
G01X29532Y31591D01*
G01X27119Y34004D01*
G01X27096Y34026D01*
G01X27070Y34047D01*
G01X27043Y34066D01*
G01X27015Y34082D01*
G01X26986Y34097D01*
G01X26956Y34109D01*
G01X26925Y34119D01*
G01X26894Y34128D01*
G01X26862Y34134D01*
G01X26829Y34137D01*
G01X26797Y34138D01*
G01X25250Y34138D01*
G01X25234Y34139D01*
G01X25218Y34143D01*
G01X25203Y34149D01*
G01X25190Y34157D01*
G01X25178Y34168D01*
G01X24108Y35238D01*
G01X24097Y35250D01*
G01X24089Y35263D01*
G01X24083Y35278D01*
G01X24079Y35294D01*
G01X24078Y35310D01*
G01X24078Y36067D01*
G01X24077Y36099D01*
G01X24074Y36132D01*
G01X24068Y36164D01*
G01X24059Y36195D01*
G01X24049Y36226D01*
G01X24037Y36256D01*
G01X24022Y36286D01*
G01X24006Y36313D01*
G01X23987Y36340D01*
G01X23966Y36366D01*
G01X23944Y36389D01*
G01X23535Y36798D01*
G01X23512Y36820D01*
G01X23486Y36841D01*
G01X23459Y36860D01*
G01X23432Y36876D01*
G01X23402Y36891D01*
G01X23372Y36903D01*
G01X23341Y36913D01*
G01X23310Y36922D01*
G01X23278Y36928D01*
G01X23245Y36931D01*
G01X23213Y36932D01*
G01X19779Y36932D01*
G01X19765Y36933D01*
G01X19751Y36936D01*
G01X19737Y36941D01*
G01X19725Y36948D01*
G01X19713Y36957D01*
G01X19703Y36967D01*
G01X19694Y36979D01*
G01X19687Y36992D01*
G01X19665Y37038D01*
G01X19641Y37084D01*
G01X19615Y37128D01*
G01X19587Y37172D01*
G01X19558Y37214D01*
G01X19527Y37255D01*
G01X19494Y37295D01*
G01X19460Y37333D01*
G01X19424Y37370D01*
G01X19386Y37406D01*
G01X19348Y37439D01*
G01X19308Y37472D01*
G01X19266Y37502D01*
G01X19223Y37531D01*
G01X19180Y37558D01*
G01X19135Y37583D01*
G01X19089Y37606D01*
G01X19042Y37628D01*
G01X18995Y37647D01*
G01X18946Y37665D01*
G01X18897Y37680D01*
G01X18847Y37694D01*
G01X18797Y37706D01*
G01X18747Y37715D01*
G01X18695Y37723D01*
G01X18644Y37728D01*
G01X18593Y37731D01*
G01X18542Y37732D01*
G01X18490Y37731D01*
G01X18439Y37728D01*
G01X18388Y37723D01*
G01X18337Y37716D01*
G01X18287Y37706D01*
G01X18237Y37695D01*
G01X18188Y37681D01*
G01X18139Y37666D01*
G01X18091Y37648D01*
G01X18043Y37629D01*
G01X17996Y37608D01*
G01X17906Y37560D01*
G01X17863Y37533D01*
G01X17820Y37504D01*
G01X17778Y37474D01*
G01X17739Y37442D01*
G01X17700Y37409D01*
G01X17663Y37374D01*
G01X17627Y37337D01*
G01X17593Y37299D01*
G01X17560Y37259D01*
G01X17529Y37219D01*
G01X17499Y37177D01*
G01X17488Y37164D01*
G01X17476Y37153D01*
G01X17463Y37144D01*
G01X17447Y37137D01*
G01X17431Y37133D01*
G01X17415Y37132D01*
G01X17128Y37132D01*
G01X17112Y37133D01*
G01X17096Y37137D01*
G01X17080Y37144D01*
G01X17067Y37153D01*
G01X17055Y37164D01*
G01X17044Y37177D01*
G01X17014Y37219D01*
G01X16983Y37259D01*
G01X16950Y37299D01*
G01X16916Y37337D01*
G01X16880Y37374D01*
G01X16843Y37409D01*
G01X16804Y37442D01*
G01X16765Y37474D01*
G01X16723Y37504D01*
G01X16680Y37533D01*
G01X16637Y37560D01*
G01X16547Y37608D01*
G01X16500Y37629D01*
G01X16452Y37648D01*
G01X16404Y37666D01*
G01X16355Y37681D01*
G01X16306Y37695D01*
G01X16256Y37706D01*
G01X16206Y37716D01*
G01X16155Y37723D01*
G01X16104Y37728D01*
G01X16053Y37731D01*
G37*
G36*
G01X22400Y24106D02*
G01X22399Y24106D01*
G01X22361Y24105D01*
G01X22323Y24102D01*
G01X22285Y24096D01*
G01X22248Y24088D01*
G01X22211Y24079D01*
G01X22175Y24067D01*
G01X22140Y24052D01*
G01X22105Y24036D01*
G01X22071Y24018D01*
G01X22039Y23998D01*
G01X22008Y23976D01*
G01X21994Y23968D01*
G01X21979Y23961D01*
G01X21963Y23957D01*
G01X21947Y23956D01*
G01X21889Y23956D01*
G01X21856Y23955D01*
G01X21823Y23952D01*
G01X21791Y23946D01*
G01X21758Y23939D01*
G01X21727Y23929D01*
G01X21696Y23918D01*
G01X21665Y23904D01*
G01X21636Y23888D01*
G01X21608Y23871D01*
G01X21581Y23852D01*
G01X21555Y23830D01*
G01X21531Y23808D01*
G01X15342Y17618D01*
G01X15329Y17607D01*
G01X15315Y17599D01*
G01X15300Y17593D01*
G01X15284Y17589D01*
G01X15248Y17582D01*
G01X15211Y17574D01*
G01X15175Y17564D01*
G01X15140Y17551D01*
G01X15105Y17536D01*
G01X15072Y17519D01*
G01X15039Y17501D01*
G01X15008Y17481D01*
G01X14978Y17459D01*
G01X14949Y17435D01*
G01X14921Y17410D01*
G01X14895Y17383D01*
G01X14871Y17354D01*
G01X14848Y17325D01*
G01X14827Y17294D01*
G01X14808Y17262D01*
G01X14790Y17229D01*
G01X14775Y17195D01*
G01X14761Y17160D01*
G01X14749Y17124D01*
G01X14740Y17088D01*
G01X14733Y17051D01*
G01X14727Y17015D01*
G01X14724Y16977D01*
G01X14723Y16939D01*
G01X14724Y16903D01*
G01X14727Y16866D01*
G01X14732Y16830D01*
G01X14740Y16794D01*
G01X14749Y16758D01*
G01X14760Y16723D01*
G01X14773Y16688D01*
G01X14788Y16655D01*
G01X14805Y16622D01*
G01X14823Y16590D01*
G01X14844Y16560D01*
G01X14866Y16530D01*
G01X14890Y16502D01*
G01X14915Y16476D01*
G01X14942Y16450D01*
G01X14970Y16426D01*
G01X15000Y16404D01*
G01X15030Y16384D01*
G01X15062Y16365D01*
G01X15095Y16348D01*
G01X15128Y16333D01*
G01X15163Y16320D01*
G01X15198Y16309D01*
G01X15233Y16300D01*
G01X15269Y16292D01*
G01X15306Y16287D01*
G01X15343Y16284D01*
G01X15380Y16283D01*
G01X15417Y16284D01*
G01X15454Y16287D01*
G01X15491Y16293D01*
G01X15528Y16300D01*
G01X15564Y16309D01*
G01X15600Y16321D01*
G01X15635Y16335D01*
G01X15669Y16350D01*
G01X15702Y16368D01*
G01X15734Y16387D01*
G01X15765Y16408D01*
G01X15794Y16431D01*
G01X15823Y16455D01*
G01X15850Y16481D01*
G01X15875Y16509D01*
G01X15899Y16538D01*
G01X15921Y16568D01*
G01X15941Y16599D01*
G01X15959Y16632D01*
G01X15976Y16666D01*
G01X15991Y16700D01*
G01X16004Y16735D01*
G01X16014Y16771D01*
G01X16022Y16808D01*
G01X16029Y16844D01*
G01X16032Y16860D01*
G01X16039Y16875D01*
G01X16047Y16889D01*
G01X16058Y16902D01*
G01X21996Y22840D01*
G01X22008Y22850D01*
G01X22022Y22859D01*
G01X22037Y22865D01*
G01X22052Y22868D01*
G01X22068Y22870D01*
G01X22083Y22868D01*
G01X22098Y22865D01*
G01X22112Y22859D01*
G01X22146Y22844D01*
G01X22181Y22831D01*
G01X22216Y22819D01*
G01X22252Y22810D01*
G01X22289Y22803D01*
G01X22325Y22797D01*
G01X22362Y22794D01*
G01X22400Y22793D01*
G01X22436Y22794D01*
G01X22473Y22797D01*
G01X22509Y22802D01*
G01X22546Y22810D01*
G01X22581Y22819D01*
G01X22616Y22830D01*
G01X22651Y22843D01*
G01X22684Y22858D01*
G01X22717Y22875D01*
G01X22749Y22894D01*
G01X22779Y22914D01*
G01X22809Y22936D01*
G01X22837Y22960D01*
G01X22864Y22986D01*
G01X22889Y23012D01*
G01X22913Y23040D01*
G01X22935Y23070D01*
G01X22956Y23100D01*
G01X22974Y23132D01*
G01X22991Y23165D01*
G01X23006Y23198D01*
G01X23019Y23233D01*
G01X23030Y23268D01*
G01X23039Y23304D01*
G01X23047Y23340D01*
G01X23052Y23376D01*
G01X23055Y23413D01*
G01X23056Y23449D01*
G01X23055Y23486D01*
G01X23052Y23523D01*
G01X23047Y23560D01*
G01X23039Y23596D01*
G01X23030Y23631D01*
G01X23019Y23666D01*
G01X23006Y23701D01*
G01X22991Y23734D01*
G01X22974Y23767D01*
G01X22956Y23799D01*
G01X22935Y23829D01*
G01X22913Y23859D01*
G01X22889Y23887D01*
G01X22864Y23914D01*
G01X22837Y23939D01*
G01X22809Y23963D01*
G01X22779Y23985D01*
G01X22749Y24006D01*
G01X22717Y24024D01*
G01X22684Y24041D01*
G01X22651Y24056D01*
G01X22616Y24069D01*
G01X22581Y24080D01*
G01X22546Y24089D01*
G01X22509Y24097D01*
G01X22473Y24102D01*
G01X22436Y24105D01*
G01X22400Y24106D01*
G37*
G36*
G01X1549Y18885D02*
G01X1500Y18886D01*
G01X1450Y18885D01*
G01X1402Y18882D01*
G01X1353Y18877D01*
G01X1304Y18869D01*
G01X1256Y18860D01*
G01X1208Y18849D01*
G01X1161Y18835D01*
G01X1115Y18820D01*
G01X1068Y18803D01*
G01X1023Y18783D01*
G01X979Y18762D01*
G01X936Y18739D01*
G01X893Y18714D01*
G01X852Y18688D01*
G01X812Y18659D01*
G01X773Y18629D01*
G01X736Y18598D01*
G01X664Y18530D01*
G01X631Y18494D01*
G01X600Y18456D01*
G01X570Y18417D01*
G01X542Y18377D01*
G01X515Y18336D01*
G01X490Y18294D01*
G01X467Y18250D01*
G01X446Y18206D01*
G01X427Y18161D01*
G01X409Y18115D01*
G01X394Y18068D01*
G01X381Y18021D01*
G01X369Y17973D01*
G01X360Y17925D01*
G01X353Y17877D01*
G01X347Y17828D01*
G01X344Y17779D01*
G01X343Y17729D01*
G01X344Y17681D01*
G01X347Y17631D01*
G01X353Y17582D01*
G01X360Y17534D01*
G01X369Y17486D01*
G01X381Y17438D01*
G01X394Y17391D01*
G01X409Y17344D01*
G01X427Y17299D01*
G01X446Y17253D01*
G01X467Y17209D01*
G01X490Y17165D01*
G01X515Y17123D01*
G01X542Y17082D01*
G01X570Y17042D01*
G01X600Y17003D01*
G01X631Y16965D01*
G01X664Y16929D01*
G01X736Y16861D01*
G01X773Y16830D01*
G01X812Y16800D01*
G01X852Y16771D01*
G01X893Y16745D01*
G01X936Y16720D01*
G01X979Y16697D01*
G01X1023Y16676D01*
G01X1068Y16656D01*
G01X1115Y16639D01*
G01X1161Y16624D01*
G01X1208Y16610D01*
G01X1256Y16599D01*
G01X1304Y16590D01*
G01X1353Y16582D01*
G01X1402Y16577D01*
G01X1450Y16574D01*
G01X1500Y16573D01*
G01X1549Y16574D01*
G01X1598Y16577D01*
G01X1646Y16582D01*
G01X1695Y16590D01*
G01X1743Y16599D01*
G01X1791Y16610D01*
G01X1838Y16624D01*
G01X1885Y16639D01*
G01X1931Y16656D01*
G01X1976Y16676D01*
G01X2020Y16697D01*
G01X2064Y16720D01*
G01X2106Y16745D01*
G01X2147Y16771D01*
G01X2187Y16800D01*
G01X2226Y16830D01*
G01X2264Y16861D01*
G01X2300Y16895D01*
G01X2335Y16929D01*
G01X2368Y16965D01*
G01X2399Y17003D01*
G01X2429Y17042D01*
G01X2458Y17082D01*
G01X2485Y17123D01*
G01X2510Y17165D01*
G01X2554Y17253D01*
G01X2573Y17299D01*
G01X2590Y17344D01*
G01X2606Y17391D01*
G01X2619Y17438D01*
G01X2630Y17486D01*
G01X2640Y17534D01*
G01X2647Y17582D01*
G01X2652Y17631D01*
G01X2655Y17681D01*
G01X2656Y17729D01*
G01X2655Y17779D01*
G01X2652Y17828D01*
G01X2647Y17877D01*
G01X2640Y17925D01*
G01X2630Y17973D01*
G01X2619Y18021D01*
G01X2606Y18068D01*
G01X2590Y18115D01*
G01X2573Y18161D01*
G01X2554Y18206D01*
G01X2510Y18294D01*
G01X2485Y18336D01*
G01X2458Y18377D01*
G01X2429Y18417D01*
G01X2399Y18456D01*
G01X2368Y18494D01*
G01X2335Y18530D01*
G01X2300Y18564D01*
G01X2264Y18598D01*
G01X2226Y18629D01*
G01X2187Y18659D01*
G01X2147Y18688D01*
G01X2106Y18714D01*
G01X2064Y18739D01*
G01X2020Y18762D01*
G01X1976Y18783D01*
G01X1931Y18803D01*
G01X1885Y18820D01*
G01X1838Y18835D01*
G01X1791Y18849D01*
G01X1743Y18860D01*
G01X1695Y18869D01*
G01X1646Y18877D01*
G01X1598Y18882D01*
G01X1549Y18885D01*
G37*
G36*
G01X36549Y21425D02*
G01X36500Y21426D01*
G01X36451Y21425D01*
G01X36401Y21422D01*
G01X36352Y21417D01*
G01X36304Y21409D01*
G01X36256Y21400D01*
G01X36208Y21389D01*
G01X36161Y21375D01*
G01X36114Y21360D01*
G01X36069Y21343D01*
G01X36023Y21323D01*
G01X35979Y21302D01*
G01X35935Y21279D01*
G01X35893Y21254D01*
G01X35852Y21228D01*
G01X35812Y21199D01*
G01X35773Y21169D01*
G01X35735Y21138D01*
G01X35699Y21104D01*
G01X35665Y21070D01*
G01X35631Y21034D01*
G01X35600Y20996D01*
G01X35570Y20957D01*
G01X35541Y20917D01*
G01X35515Y20876D01*
G01X35490Y20834D01*
G01X35467Y20790D01*
G01X35446Y20746D01*
G01X35426Y20701D01*
G01X35409Y20655D01*
G01X35394Y20608D01*
G01X35380Y20561D01*
G01X35369Y20513D01*
G01X35360Y20465D01*
G01X35352Y20417D01*
G01X35347Y20368D01*
G01X35344Y20319D01*
G01X35343Y20269D01*
G01X35344Y20221D01*
G01X35347Y20171D01*
G01X35352Y20122D01*
G01X35360Y20074D01*
G01X35369Y20026D01*
G01X35380Y19978D01*
G01X35394Y19931D01*
G01X35409Y19884D01*
G01X35426Y19839D01*
G01X35446Y19793D01*
G01X35467Y19749D01*
G01X35490Y19705D01*
G01X35515Y19663D01*
G01X35541Y19622D01*
G01X35570Y19582D01*
G01X35600Y19543D01*
G01X35631Y19505D01*
G01X35665Y19469D01*
G01X35699Y19435D01*
G01X35735Y19401D01*
G01X35773Y19370D01*
G01X35812Y19340D01*
G01X35852Y19311D01*
G01X35893Y19285D01*
G01X35935Y19260D01*
G01X35979Y19237D01*
G01X36023Y19216D01*
G01X36069Y19196D01*
G01X36114Y19179D01*
G01X36161Y19164D01*
G01X36208Y19150D01*
G01X36256Y19139D01*
G01X36304Y19130D01*
G01X36352Y19122D01*
G01X36401Y19117D01*
G01X36451Y19114D01*
G01X36500Y19113D01*
G01X36549Y19114D01*
G01X36598Y19117D01*
G01X36647Y19122D01*
G01X36695Y19130D01*
G01X36743Y19139D01*
G01X36791Y19150D01*
G01X36838Y19164D01*
G01X36885Y19179D01*
G01X36931Y19196D01*
G01X36976Y19216D01*
G01X37020Y19237D01*
G01X37064Y19260D01*
G01X37106Y19285D01*
G01X37147Y19311D01*
G01X37187Y19340D01*
G01X37226Y19370D01*
G01X37264Y19401D01*
G01X37300Y19435D01*
G01X37334Y19469D01*
G01X37368Y19505D01*
G01X37399Y19543D01*
G01X37429Y19582D01*
G01X37458Y19622D01*
G01X37484Y19663D01*
G01X37509Y19705D01*
G01X37532Y19749D01*
G01X37553Y19793D01*
G01X37573Y19839D01*
G01X37590Y19884D01*
G01X37605Y19931D01*
G01X37619Y19978D01*
G01X37630Y20026D01*
G01X37639Y20074D01*
G01X37647Y20122D01*
G01X37652Y20171D01*
G01X37655Y20221D01*
G01X37656Y20269D01*
G01X37655Y20319D01*
G01X37652Y20368D01*
G01X37647Y20417D01*
G01X37639Y20465D01*
G01X37630Y20513D01*
G01X37619Y20561D01*
G01X37605Y20608D01*
G01X37590Y20655D01*
G01X37573Y20701D01*
G01X37553Y20746D01*
G01X37532Y20790D01*
G01X37509Y20834D01*
G01X37484Y20876D01*
G01X37458Y20917D01*
G01X37429Y20957D01*
G01X37399Y20996D01*
G01X37368Y21034D01*
G01X37334Y21070D01*
G01X37300Y21104D01*
G01X37264Y21138D01*
G01X37226Y21169D01*
G01X37187Y21199D01*
G01X37147Y21228D01*
G01X37106Y21254D01*
G01X37064Y21279D01*
G01X37020Y21302D01*
G01X36976Y21323D01*
G01X36931Y21343D01*
G01X36885Y21360D01*
G01X36838Y21375D01*
G01X36791Y21389D01*
G01X36743Y21400D01*
G01X36695Y21409D01*
G01X36647Y21417D01*
G01X36598Y21422D01*
G01X36549Y21425D01*
G37*
G36*
G01X18324Y34210D02*
G01X18288Y34211D01*
G01X18251Y34210D01*
G01X18214Y34207D01*
G01X18178Y34202D01*
G01X18141Y34195D01*
G01X18106Y34185D01*
G01X18071Y34174D01*
G01X18036Y34161D01*
G01X18003Y34146D01*
G01X17970Y34129D01*
G01X17938Y34110D01*
G01X17908Y34090D01*
G01X17878Y34068D01*
G01X17850Y34044D01*
G01X17823Y34019D01*
G01X17798Y33992D01*
G01X17774Y33964D01*
G01X17752Y33934D01*
G01X17732Y33904D01*
G01X17713Y33872D01*
G01X17696Y33839D01*
G01X17681Y33806D01*
G01X17668Y33771D01*
G01X17657Y33736D01*
G01X17647Y33701D01*
G01X17640Y33664D01*
G01X17635Y33628D01*
G01X17632Y33591D01*
G01X17631Y33555D01*
G01X17632Y33517D01*
G01X17635Y33480D01*
G01X17641Y33442D01*
G01X17648Y33406D01*
G01X17658Y33370D01*
G01X17669Y33334D01*
G01X17683Y33298D01*
G01X17698Y33264D01*
G01X17716Y33231D01*
G01X17735Y33199D01*
G01X17757Y33168D01*
G01X17780Y33138D01*
G01X17804Y33110D01*
G01X17814Y33098D01*
G01X17821Y33085D01*
G01X17827Y33071D01*
G01X17830Y33057D01*
G01X17831Y33041D01*
G01X17831Y32389D01*
G01X17830Y32373D01*
G01X17826Y32357D01*
G01X17820Y32342D01*
G01X17812Y32329D01*
G01X17801Y32317D01*
G01X14518Y29033D01*
G01X14506Y29023D01*
G01X14493Y29015D01*
G01X14480Y29009D01*
G01X14465Y29005D01*
G01X14450Y29003D01*
G01X14413Y29001D01*
G01X14376Y28996D01*
G01X14339Y28989D01*
G01X14303Y28980D01*
G01X14268Y28970D01*
G01X14233Y28957D01*
G01X14199Y28942D01*
G01X14166Y28925D01*
G01X14134Y28907D01*
G01X14102Y28886D01*
G01X14073Y28864D01*
G01X14044Y28840D01*
G01X14017Y28815D01*
G01X13991Y28788D01*
G01X13967Y28760D01*
G01X13944Y28731D01*
G01X13923Y28700D01*
G01X13904Y28668D01*
G01X13887Y28635D01*
G01X13872Y28601D01*
G01X13858Y28566D01*
G01X13847Y28531D01*
G01X13838Y28495D01*
G01X13830Y28458D01*
G01X13825Y28422D01*
G01X13822Y28385D01*
G01X13821Y28348D01*
G01X13822Y28311D01*
G01X13825Y28274D01*
G01X13830Y28238D01*
G01X13837Y28201D01*
G01X13847Y28166D01*
G01X13858Y28131D01*
G01X13871Y28096D01*
G01X13886Y28063D01*
G01X13903Y28030D01*
G01X13922Y27998D01*
G01X13942Y27968D01*
G01X13964Y27938D01*
G01X13988Y27910D01*
G01X14013Y27883D01*
G01X14040Y27858D01*
G01X14068Y27834D01*
G01X14098Y27812D01*
G01X14128Y27792D01*
G01X14160Y27773D01*
G01X14193Y27756D01*
G01X14226Y27741D01*
G01X14261Y27728D01*
G01X14296Y27717D01*
G01X14331Y27707D01*
G01X14368Y27700D01*
G01X14404Y27695D01*
G01X14441Y27692D01*
G01X14478Y27691D01*
G01X14515Y27692D01*
G01X14552Y27695D01*
G01X14588Y27700D01*
G01X14625Y27708D01*
G01X14661Y27717D01*
G01X14696Y27728D01*
G01X14731Y27742D01*
G01X14765Y27757D01*
G01X14798Y27774D01*
G01X14830Y27793D01*
G01X14861Y27814D01*
G01X14890Y27837D01*
G01X14918Y27861D01*
G01X14945Y27887D01*
G01X14970Y27914D01*
G01X14994Y27943D01*
G01X15016Y27972D01*
G01X15037Y28004D01*
G01X15055Y28036D01*
G01X15072Y28069D01*
G01X15087Y28103D01*
G01X15100Y28138D01*
G01X15110Y28173D01*
G01X15119Y28209D01*
G01X15126Y28246D01*
G01X15131Y28283D01*
G01X15133Y28320D01*
G01X15135Y28335D01*
G01X15139Y28350D01*
G01X15145Y28363D01*
G01X15153Y28376D01*
G01X15163Y28388D01*
G01X15819Y29043D01*
G01X15831Y29054D01*
G01X15845Y29062D01*
G01X15860Y29068D01*
G01X15875Y29072D01*
G01X15891Y29073D01*
G01X15907Y29072D01*
G01X15922Y29068D01*
G01X15936Y29063D01*
G01X15950Y29055D01*
G01X15962Y29044D01*
G01X15972Y29033D01*
G01X15981Y29020D01*
G01X15987Y29005D01*
G01X15991Y28990D01*
G01X15999Y28953D01*
G01X16009Y28916D01*
G01X16021Y28880D01*
G01X16036Y28845D01*
G01X16052Y28811D01*
G01X16070Y28778D01*
G01X16090Y28745D01*
G01X16112Y28715D01*
G01X16136Y28685D01*
G01X16161Y28657D01*
G01X16188Y28630D01*
G01X16216Y28605D01*
G01X16246Y28581D01*
G01X16278Y28560D01*
G01X16310Y28540D01*
G01X16343Y28522D01*
G01X16378Y28506D01*
G01X16413Y28492D01*
G01X16449Y28480D01*
G01X16486Y28470D01*
G01X16523Y28463D01*
G01X16561Y28457D01*
G01X16598Y28454D01*
G01X16637Y28453D01*
G01X16674Y28454D01*
G01X16711Y28457D01*
G01X16747Y28462D01*
G01X16784Y28470D01*
G01X16820Y28479D01*
G01X16855Y28490D01*
G01X16890Y28504D01*
G01X16924Y28519D01*
G01X16957Y28536D01*
G01X16989Y28555D01*
G01X17020Y28576D01*
G01X17049Y28599D01*
G01X17077Y28623D01*
G01X17104Y28649D01*
G01X17129Y28676D01*
G01X17153Y28705D01*
G01X17175Y28734D01*
G01X17196Y28766D01*
G01X17214Y28798D01*
G01X17231Y28831D01*
G01X17246Y28865D01*
G01X17259Y28900D01*
G01X17269Y28935D01*
G01X17278Y28971D01*
G01X17285Y29008D01*
G01X17290Y29045D01*
G01X17292Y29082D01*
G01X17294Y29097D01*
G01X17298Y29112D01*
G01X17304Y29125D01*
G01X17312Y29138D01*
G01X17322Y29150D01*
G01X17939Y29766D01*
G01X17951Y29777D01*
G01X17964Y29785D01*
G01X17979Y29791D01*
G01X17995Y29795D01*
G01X18011Y29796D01*
G01X20272Y29796D01*
G01X20287Y29795D01*
G01X20301Y29792D01*
G01X20314Y29787D01*
G01X20327Y29780D01*
G01X20339Y29771D01*
G01X20349Y29761D01*
G01X20358Y29749D01*
G01X20365Y29736D01*
G01X20370Y29723D01*
G01X20373Y29709D01*
G01X20374Y29694D01*
G01X20373Y29679D01*
G01X20369Y29664D01*
G01X20364Y29650D01*
G01X20346Y29610D01*
G01X20331Y29570D01*
G01X20319Y29529D01*
G01X20310Y29487D01*
G01X20306Y29472D01*
G01X20300Y29458D01*
G01X20292Y29445D01*
G01X20282Y29434D01*
G01X15008Y24161D01*
G01X14986Y24136D01*
G01X14965Y24111D01*
G01X14945Y24084D01*
G01X14928Y24056D01*
G01X14912Y24026D01*
G01X14899Y23996D01*
G01X14887Y23965D01*
G01X14877Y23933D01*
G01X14870Y23901D01*
G01X14864Y23868D01*
G01X14861Y23835D01*
G01X14860Y23802D01*
G01X14860Y20799D01*
G01X14859Y20783D01*
G01X14855Y20767D01*
G01X14848Y20752D01*
G01X14840Y20739D01*
G01X14818Y20707D01*
G01X14798Y20675D01*
G01X14780Y20641D01*
G01X14764Y20607D01*
G01X14750Y20571D01*
G01X14738Y20535D01*
G01X14727Y20498D01*
G01X14720Y20460D01*
G01X14714Y20423D01*
G01X14711Y20385D01*
G01X14710Y20347D01*
G01X14711Y20310D01*
G01X14714Y20273D01*
G01X14719Y20237D01*
G01X14726Y20200D01*
G01X14736Y20165D01*
G01X14747Y20130D01*
G01X14760Y20095D01*
G01X14775Y20062D01*
G01X14792Y20029D01*
G01X14811Y19997D01*
G01X14831Y19967D01*
G01X14853Y19937D01*
G01X14877Y19909D01*
G01X14902Y19882D01*
G01X14929Y19857D01*
G01X14957Y19833D01*
G01X14987Y19811D01*
G01X15017Y19791D01*
G01X15049Y19772D01*
G01X15082Y19755D01*
G01X15115Y19740D01*
G01X15150Y19727D01*
G01X15185Y19716D01*
G01X15220Y19706D01*
G01X15257Y19699D01*
G01X15293Y19694D01*
G01X15330Y19691D01*
G01X15367Y19690D01*
G01X15403Y19691D01*
G01X15440Y19694D01*
G01X15476Y19699D01*
G01X15513Y19706D01*
G01X15548Y19716D01*
G01X15583Y19727D01*
G01X15618Y19740D01*
G01X15651Y19755D01*
G01X15684Y19772D01*
G01X15716Y19791D01*
G01X15746Y19811D01*
G01X15776Y19833D01*
G01X15804Y19857D01*
G01X15831Y19882D01*
G01X15856Y19909D01*
G01X15880Y19937D01*
G01X15902Y19967D01*
G01X15922Y19997D01*
G01X15941Y20029D01*
G01X15958Y20062D01*
G01X15973Y20095D01*
G01X15986Y20130D01*
G01X15997Y20165D01*
G01X16007Y20200D01*
G01X16014Y20237D01*
G01X16019Y20273D01*
G01X16022Y20310D01*
G01X16023Y20347D01*
G01X16022Y20385D01*
G01X16019Y20423D01*
G01X16013Y20460D01*
G01X16006Y20498D01*
G01X15995Y20535D01*
G01X15983Y20571D01*
G01X15969Y20607D01*
G01X15953Y20641D01*
G01X15935Y20675D01*
G01X15915Y20707D01*
G01X15893Y20739D01*
G01X15885Y20752D01*
G01X15878Y20767D01*
G01X15875Y20783D01*
G01X15873Y20799D01*
G01X15873Y23550D01*
G01X15875Y23566D01*
G01X15878Y23582D01*
G01X15884Y23597D01*
G01X15892Y23610D01*
G01X15903Y23623D01*
G01X20962Y28681D01*
G01X20975Y28692D01*
G01X20990Y28701D01*
G01X21006Y28707D01*
G01X21023Y28711D01*
G01X21060Y28715D01*
G01X21096Y28722D01*
G01X21132Y28732D01*
G01X21167Y28742D01*
G01X21202Y28755D01*
G01X21236Y28770D01*
G01X21269Y28787D01*
G01X21301Y28806D01*
G01X21332Y28826D01*
G01X21361Y28848D01*
G01X21390Y28872D01*
G01X21417Y28897D01*
G01X21442Y28924D01*
G01X21467Y28953D01*
G01X21489Y28982D01*
G01X21509Y29012D01*
G01X21528Y29044D01*
G01X21545Y29077D01*
G01X21561Y29111D01*
G01X21574Y29146D01*
G01X21585Y29181D01*
G01X21595Y29217D01*
G01X21602Y29253D01*
G01X21607Y29290D01*
G01X21610Y29326D01*
G01X21611Y29364D01*
G01X21610Y29401D01*
G01X21607Y29438D01*
G01X21602Y29474D01*
G01X21595Y29510D01*
G01X21585Y29546D01*
G01X21574Y29581D01*
G01X21561Y29616D01*
G01X21545Y29650D01*
G01X21540Y29664D01*
G01X21536Y29679D01*
G01X21535Y29694D01*
G01X21536Y29709D01*
G01X21539Y29723D01*
G01X21544Y29736D01*
G01X21551Y29749D01*
G01X21560Y29761D01*
G01X21570Y29771D01*
G01X21582Y29780D01*
G01X21595Y29787D01*
G01X21608Y29792D01*
G01X21622Y29795D01*
G01X21637Y29796D01*
G01X26895Y29796D01*
G01X26910Y29795D01*
G01X26925Y29792D01*
G01X26938Y29786D01*
G01X26951Y29779D01*
G01X26963Y29769D01*
G01X26992Y29745D01*
G01X27022Y29722D01*
G01X27053Y29700D01*
G01X27085Y29681D01*
G01X27118Y29663D01*
G01X27152Y29648D01*
G01X27187Y29634D01*
G01X27223Y29623D01*
G01X27259Y29613D01*
G01X27295Y29606D01*
G01X27333Y29600D01*
G01X27370Y29597D01*
G01X27408Y29596D01*
G01X27444Y29597D01*
G01X27481Y29600D01*
G01X27517Y29605D01*
G01X27554Y29612D01*
G01X27589Y29622D01*
G01X27625Y29633D01*
G01X27659Y29646D01*
G01X27693Y29661D01*
G01X27725Y29678D01*
G01X27757Y29697D01*
G01X27788Y29717D01*
G01X27817Y29739D01*
G01X27845Y29763D01*
G01X27872Y29788D01*
G01X27897Y29815D01*
G01X27921Y29843D01*
G01X27943Y29873D01*
G01X27963Y29903D01*
G01X27982Y29935D01*
G01X27999Y29968D01*
G01X28014Y30001D01*
G01X28027Y30036D01*
G01X28039Y30071D01*
G01X28048Y30106D01*
G01X28055Y30143D01*
G01X28060Y30179D01*
G01X28063Y30216D01*
G01X28064Y30253D01*
G01X28063Y30289D01*
G01X28060Y30326D01*
G01X28055Y30362D01*
G01X28048Y30399D01*
G01X28039Y30434D01*
G01X28027Y30469D01*
G01X28014Y30504D01*
G01X27999Y30537D01*
G01X27982Y30570D01*
G01X27963Y30602D01*
G01X27943Y30632D01*
G01X27921Y30662D01*
G01X27897Y30690D01*
G01X27872Y30717D01*
G01X27845Y30742D01*
G01X27817Y30766D01*
G01X27788Y30788D01*
G01X27757Y30808D01*
G01X27725Y30827D01*
G01X27693Y30844D01*
G01X27659Y30859D01*
G01X27625Y30872D01*
G01X27589Y30883D01*
G01X27554Y30893D01*
G01X27517Y30900D01*
G01X27481Y30905D01*
G01X27444Y30908D01*
G01X27408Y30909D01*
G01X27370Y30908D01*
G01X27333Y30905D01*
G01X27295Y30899D01*
G01X27259Y30892D01*
G01X27223Y30882D01*
G01X27187Y30871D01*
G01X27152Y30857D01*
G01X27118Y30842D01*
G01X27085Y30824D01*
G01X27053Y30805D01*
G01X27022Y30783D01*
G01X26992Y30761D01*
G01X26963Y30736D01*
G01X26951Y30726D01*
G01X26938Y30719D01*
G01X26925Y30713D01*
G01X26910Y30710D01*
G01X26895Y30709D01*
G01X17780Y30709D01*
G01X17737Y30707D01*
G01X17728Y30707D01*
G01X17713Y30708D01*
G01X17699Y30711D01*
G01X17686Y30716D01*
G01X17673Y30723D01*
G01X17661Y30732D01*
G01X17651Y30742D01*
G01X17642Y30753D01*
G01X17635Y30766D01*
G01X17630Y30780D01*
G01X17627Y30794D01*
G01X17626Y30808D01*
G01X17627Y30824D01*
G01X17631Y30840D01*
G01X17637Y30854D01*
G01X17645Y30868D01*
G01X17656Y30880D01*
G01X18610Y31835D01*
G01X18632Y31858D01*
G01X18653Y31884D01*
G01X18672Y31911D01*
G01X18688Y31939D01*
G01X18703Y31968D01*
G01X18715Y31998D01*
G01X18725Y32029D01*
G01X18734Y32060D01*
G01X18740Y32092D01*
G01X18743Y32125D01*
G01X18744Y32158D01*
G01X18744Y33041D01*
G01X18745Y33057D01*
G01X18748Y33071D01*
G01X18754Y33085D01*
G01X18761Y33098D01*
G01X18771Y33110D01*
G01X18796Y33138D01*
G01X18818Y33168D01*
G01X18840Y33199D01*
G01X18859Y33231D01*
G01X18877Y33264D01*
G01X18892Y33298D01*
G01X18906Y33334D01*
G01X18917Y33370D01*
G01X18927Y33406D01*
G01X18934Y33442D01*
G01X18940Y33480D01*
G01X18943Y33517D01*
G01X18944Y33555D01*
G01X18943Y33591D01*
G01X18940Y33628D01*
G01X18935Y33664D01*
G01X18928Y33701D01*
G01X18918Y33736D01*
G01X18907Y33771D01*
G01X18894Y33806D01*
G01X18879Y33839D01*
G01X18862Y33872D01*
G01X18843Y33904D01*
G01X18823Y33934D01*
G01X18801Y33964D01*
G01X18777Y33992D01*
G01X18752Y34019D01*
G01X18725Y34044D01*
G01X18697Y34068D01*
G01X18667Y34090D01*
G01X18637Y34110D01*
G01X18605Y34129D01*
G01X18572Y34146D01*
G01X18539Y34161D01*
G01X18504Y34174D01*
G01X18469Y34185D01*
G01X18434Y34195D01*
G01X18397Y34202D01*
G01X18361Y34207D01*
G01X18324Y34210D01*
G37*
G36*
G01X36549Y23965D02*
G01X36500Y23966D01*
G01X36451Y23965D01*
G01X36401Y23962D01*
G01X36352Y23957D01*
G01X36304Y23949D01*
G01X36256Y23940D01*
G01X36208Y23929D01*
G01X36161Y23915D01*
G01X36114Y23900D01*
G01X36069Y23883D01*
G01X36023Y23863D01*
G01X35979Y23842D01*
G01X35935Y23819D01*
G01X35893Y23794D01*
G01X35852Y23768D01*
G01X35812Y23739D01*
G01X35773Y23709D01*
G01X35735Y23678D01*
G01X35699Y23644D01*
G01X35665Y23610D01*
G01X35631Y23574D01*
G01X35600Y23536D01*
G01X35570Y23497D01*
G01X35541Y23457D01*
G01X35515Y23416D01*
G01X35490Y23374D01*
G01X35467Y23330D01*
G01X35446Y23286D01*
G01X35426Y23241D01*
G01X35409Y23195D01*
G01X35394Y23148D01*
G01X35380Y23101D01*
G01X35369Y23053D01*
G01X35360Y23005D01*
G01X35352Y22957D01*
G01X35347Y22908D01*
G01X35344Y22859D01*
G01X35343Y22809D01*
G01X35344Y22761D01*
G01X35347Y22711D01*
G01X35352Y22662D01*
G01X35360Y22614D01*
G01X35369Y22566D01*
G01X35380Y22518D01*
G01X35394Y22471D01*
G01X35409Y22424D01*
G01X35426Y22379D01*
G01X35446Y22333D01*
G01X35467Y22289D01*
G01X35490Y22245D01*
G01X35515Y22203D01*
G01X35541Y22162D01*
G01X35570Y22122D01*
G01X35600Y22083D01*
G01X35631Y22045D01*
G01X35665Y22009D01*
G01X35699Y21975D01*
G01X35735Y21941D01*
G01X35773Y21910D01*
G01X35812Y21880D01*
G01X35852Y21851D01*
G01X35893Y21825D01*
G01X35935Y21800D01*
G01X35979Y21777D01*
G01X36023Y21756D01*
G01X36069Y21736D01*
G01X36114Y21719D01*
G01X36161Y21704D01*
G01X36208Y21690D01*
G01X36256Y21679D01*
G01X36304Y21670D01*
G01X36352Y21662D01*
G01X36401Y21657D01*
G01X36451Y21654D01*
G01X36500Y21653D01*
G01X36549Y21654D01*
G01X36598Y21657D01*
G01X36647Y21662D01*
G01X36695Y21670D01*
G01X36743Y21679D01*
G01X36791Y21690D01*
G01X36838Y21704D01*
G01X36885Y21719D01*
G01X36931Y21736D01*
G01X36976Y21756D01*
G01X37020Y21777D01*
G01X37064Y21800D01*
G01X37106Y21825D01*
G01X37147Y21851D01*
G01X37187Y21880D01*
G01X37226Y21910D01*
G01X37264Y21941D01*
G01X37300Y21975D01*
G01X37334Y22009D01*
G01X37368Y22045D01*
G01X37399Y22083D01*
G01X37429Y22122D01*
G01X37458Y22162D01*
G01X37484Y22203D01*
G01X37509Y22245D01*
G01X37532Y22289D01*
G01X37553Y22333D01*
G01X37573Y22379D01*
G01X37590Y22424D01*
G01X37605Y22471D01*
G01X37619Y22518D01*
G01X37630Y22566D01*
G01X37639Y22614D01*
G01X37647Y22662D01*
G01X37652Y22711D01*
G01X37655Y22761D01*
G01X37656Y22809D01*
G01X37655Y22859D01*
G01X37652Y22908D01*
G01X37647Y22957D01*
G01X37639Y23005D01*
G01X37630Y23053D01*
G01X37619Y23101D01*
G01X37605Y23148D01*
G01X37590Y23195D01*
G01X37573Y23241D01*
G01X37553Y23286D01*
G01X37532Y23330D01*
G01X37509Y23374D01*
G01X37484Y23416D01*
G01X37458Y23457D01*
G01X37429Y23497D01*
G01X37399Y23536D01*
G01X37368Y23574D01*
G01X37334Y23610D01*
G01X37300Y23644D01*
G01X37264Y23678D01*
G01X37226Y23709D01*
G01X37187Y23739D01*
G01X37147Y23768D01*
G01X37106Y23794D01*
G01X37064Y23819D01*
G01X37020Y23842D01*
G01X36976Y23863D01*
G01X36931Y23883D01*
G01X36885Y23900D01*
G01X36838Y23915D01*
G01X36791Y23929D01*
G01X36743Y23940D01*
G01X36695Y23949D01*
G01X36647Y23957D01*
G01X36598Y23962D01*
G01X36549Y23965D01*
G37*
G36*
G01X1549Y23965D02*
G01X1500Y23966D01*
G01X1450Y23965D01*
G01X1402Y23962D01*
G01X1353Y23957D01*
G01X1304Y23949D01*
G01X1256Y23940D01*
G01X1208Y23929D01*
G01X1161Y23915D01*
G01X1115Y23900D01*
G01X1068Y23883D01*
G01X1023Y23863D01*
G01X979Y23842D01*
G01X936Y23819D01*
G01X893Y23794D01*
G01X852Y23768D01*
G01X812Y23739D01*
G01X773Y23709D01*
G01X736Y23678D01*
G01X664Y23610D01*
G01X631Y23574D01*
G01X600Y23536D01*
G01X570Y23497D01*
G01X542Y23457D01*
G01X515Y23416D01*
G01X490Y23374D01*
G01X467Y23330D01*
G01X446Y23286D01*
G01X427Y23241D01*
G01X409Y23195D01*
G01X394Y23148D01*
G01X381Y23101D01*
G01X369Y23053D01*
G01X360Y23005D01*
G01X353Y22957D01*
G01X347Y22908D01*
G01X344Y22859D01*
G01X343Y22809D01*
G01X344Y22761D01*
G01X347Y22711D01*
G01X353Y22662D01*
G01X360Y22614D01*
G01X369Y22566D01*
G01X381Y22518D01*
G01X394Y22471D01*
G01X409Y22424D01*
G01X427Y22379D01*
G01X446Y22333D01*
G01X467Y22289D01*
G01X490Y22245D01*
G01X515Y22203D01*
G01X542Y22162D01*
G01X570Y22122D01*
G01X600Y22083D01*
G01X631Y22045D01*
G01X664Y22009D01*
G01X736Y21941D01*
G01X773Y21910D01*
G01X812Y21880D01*
G01X852Y21851D01*
G01X893Y21825D01*
G01X936Y21800D01*
G01X979Y21777D01*
G01X1023Y21756D01*
G01X1068Y21736D01*
G01X1115Y21719D01*
G01X1161Y21704D01*
G01X1208Y21690D01*
G01X1256Y21679D01*
G01X1304Y21670D01*
G01X1353Y21662D01*
G01X1402Y21657D01*
G01X1450Y21654D01*
G01X1500Y21653D01*
G01X1549Y21654D01*
G01X1598Y21657D01*
G01X1646Y21662D01*
G01X1695Y21670D01*
G01X1743Y21679D01*
G01X1791Y21690D01*
G01X1838Y21704D01*
G01X1885Y21719D01*
G01X1931Y21736D01*
G01X1976Y21756D01*
G01X2020Y21777D01*
G01X2064Y21800D01*
G01X2106Y21825D01*
G01X2147Y21851D01*
G01X2187Y21880D01*
G01X2226Y21910D01*
G01X2264Y21941D01*
G01X2300Y21975D01*
G01X2335Y22009D01*
G01X2368Y22045D01*
G01X2399Y22083D01*
G01X2429Y22122D01*
G01X2458Y22162D01*
G01X2485Y22203D01*
G01X2510Y22245D01*
G01X2554Y22333D01*
G01X2573Y22379D01*
G01X2590Y22424D01*
G01X2606Y22471D01*
G01X2619Y22518D01*
G01X2630Y22566D01*
G01X2640Y22614D01*
G01X2647Y22662D01*
G01X2652Y22711D01*
G01X2655Y22761D01*
G01X2656Y22809D01*
G01X2655Y22859D01*
G01X2652Y22908D01*
G01X2647Y22957D01*
G01X2640Y23005D01*
G01X2630Y23053D01*
G01X2619Y23101D01*
G01X2606Y23148D01*
G01X2590Y23195D01*
G01X2573Y23241D01*
G01X2554Y23286D01*
G01X2510Y23374D01*
G01X2485Y23416D01*
G01X2458Y23457D01*
G01X2429Y23497D01*
G01X2399Y23536D01*
G01X2368Y23574D01*
G01X2335Y23610D01*
G01X2300Y23644D01*
G01X2264Y23678D01*
G01X2226Y23709D01*
G01X2187Y23739D01*
G01X2147Y23768D01*
G01X2106Y23794D01*
G01X2064Y23819D01*
G01X2020Y23842D01*
G01X1976Y23863D01*
G01X1931Y23883D01*
G01X1885Y23900D01*
G01X1838Y23915D01*
G01X1791Y23929D01*
G01X1743Y23940D01*
G01X1695Y23949D01*
G01X1646Y23957D01*
G01X1598Y23962D01*
G01X1549Y23965D01*
G37*
G36*
G01X37656Y24836D02*
G01X37013Y24836D01*
G01X37013Y24193D01*
G01X37399Y24193D01*
G01X37423Y24194D01*
G01X37447Y24197D01*
G01X37470Y24203D01*
G01X37492Y24210D01*
G01X37514Y24220D01*
G01X37535Y24231D01*
G01X37554Y24245D01*
G01X37572Y24260D01*
G01X37589Y24277D01*
G01X37604Y24295D01*
G01X37617Y24314D01*
G01X37629Y24335D01*
G01X37639Y24357D01*
G01X37646Y24380D01*
G01X37651Y24402D01*
G01X37655Y24426D01*
G01X37656Y24450D01*
G01X37656Y24836D01*
G37*
G36*
G01X35986Y24836D02*
G01X35343Y24836D01*
G01X35343Y24450D01*
G01X35344Y24426D01*
G01X35347Y24402D01*
G01X35353Y24380D01*
G01X35360Y24357D01*
G01X35370Y24335D01*
G01X35381Y24314D01*
G01X35395Y24295D01*
G01X35410Y24277D01*
G01X35427Y24260D01*
G01X35445Y24245D01*
G01X35465Y24231D01*
G01X35485Y24220D01*
G01X35507Y24210D01*
G01X35530Y24203D01*
G01X35552Y24197D01*
G01X35576Y24194D01*
G01X35600Y24193D01*
G01X35986Y24193D01*
G01X35986Y24836D01*
G37*
G36*
G01X2399Y26506D02*
G01X599Y26506D01*
G01X576Y26505D01*
G01X552Y26502D01*
G01X529Y26496D01*
G01X507Y26489D01*
G01X485Y26479D01*
G01X464Y26467D01*
G01X445Y26454D01*
G01X427Y26439D01*
G01X410Y26422D01*
G01X395Y26404D01*
G01X382Y26385D01*
G01X370Y26364D01*
G01X360Y26342D01*
G01X353Y26320D01*
G01X347Y26297D01*
G01X344Y26273D01*
G01X343Y26249D01*
G01X343Y24450D01*
G01X344Y24426D01*
G01X347Y24402D01*
G01X353Y24380D01*
G01X360Y24357D01*
G01X370Y24335D01*
G01X382Y24314D01*
G01X395Y24295D01*
G01X410Y24277D01*
G01X427Y24260D01*
G01X445Y24245D01*
G01X464Y24231D01*
G01X485Y24220D01*
G01X507Y24210D01*
G01X529Y24203D01*
G01X552Y24197D01*
G01X576Y24194D01*
G01X599Y24193D01*
G01X2399Y24193D01*
G01X2423Y24194D01*
G01X2447Y24197D01*
G01X2470Y24203D01*
G01X2492Y24210D01*
G01X2514Y24220D01*
G01X2534Y24231D01*
G01X2554Y24245D01*
G01X2573Y24260D01*
G01X2589Y24277D01*
G01X2604Y24295D01*
G01X2618Y24314D01*
G01X2629Y24335D01*
G01X2639Y24357D01*
G01X2646Y24380D01*
G01X2652Y24402D01*
G01X2655Y24426D01*
G01X2656Y24450D01*
G01X2656Y26249D01*
G01X2655Y26273D01*
G01X2652Y26297D01*
G01X2646Y26320D01*
G01X2639Y26342D01*
G01X2629Y26364D01*
G01X2618Y26385D01*
G01X2604Y26404D01*
G01X2589Y26422D01*
G01X2573Y26439D01*
G01X2554Y26454D01*
G01X2534Y26467D01*
G01X2514Y26479D01*
G01X2492Y26489D01*
G01X2470Y26496D01*
G01X2447Y26502D01*
G01X2423Y26505D01*
G01X2399Y26506D01*
G37*
G36*
G01X37399Y26506D02*
G01X37013Y26506D01*
G01X37013Y25863D01*
G01X37656Y25863D01*
G01X37656Y26249D01*
G01X37655Y26273D01*
G01X37651Y26297D01*
G01X37646Y26320D01*
G01X37639Y26342D01*
G01X37629Y26364D01*
G01X37617Y26385D01*
G01X37604Y26404D01*
G01X37589Y26422D01*
G01X37572Y26439D01*
G01X37554Y26454D01*
G01X37535Y26467D01*
G01X37514Y26479D01*
G01X37492Y26489D01*
G01X37470Y26496D01*
G01X37447Y26502D01*
G01X37423Y26505D01*
G01X37399Y26506D01*
G37*
G36*
G01X35986Y26506D02*
G01X35600Y26506D01*
G01X35576Y26505D01*
G01X35552Y26502D01*
G01X35530Y26496D01*
G01X35507Y26489D01*
G01X35485Y26479D01*
G01X35465Y26467D01*
G01X35445Y26454D01*
G01X35427Y26439D01*
G01X35410Y26422D01*
G01X35395Y26404D01*
G01X35381Y26385D01*
G01X35370Y26364D01*
G01X35360Y26342D01*
G01X35353Y26320D01*
G01X35347Y26297D01*
G01X35344Y26273D01*
G01X35343Y26249D01*
G01X35343Y25863D01*
G01X35986Y25863D01*
G01X35986Y26506D01*
G37*
G36*
G01X7403Y32559D02*
G01X7366Y32560D01*
G01X7329Y32559D01*
G01X7292Y32556D01*
G01X7256Y32551D01*
G01X7219Y32544D01*
G01X7184Y32534D01*
G01X7149Y32523D01*
G01X7114Y32510D01*
G01X7081Y32495D01*
G01X7048Y32478D01*
G01X7016Y32459D01*
G01X6986Y32439D01*
G01X6956Y32417D01*
G01X6928Y32393D01*
G01X6901Y32368D01*
G01X6876Y32341D01*
G01X6852Y32313D01*
G01X6830Y32283D01*
G01X6810Y32253D01*
G01X6791Y32221D01*
G01X6774Y32188D01*
G01X6759Y32155D01*
G01X6746Y32120D01*
G01X6735Y32085D01*
G01X6725Y32050D01*
G01X6718Y32013D01*
G01X6713Y31977D01*
G01X6710Y31940D01*
G01X6709Y31904D01*
G01X6710Y31866D01*
G01X6713Y31829D01*
G01X6718Y31793D01*
G01X6726Y31756D01*
G01X6735Y31720D01*
G01X6746Y31685D01*
G01X6760Y31650D01*
G01X6775Y31616D01*
G01X6792Y31583D01*
G01X6811Y31551D01*
G01X6832Y31520D01*
G01X6855Y31491D01*
G01X6879Y31463D01*
G01X6905Y31436D01*
G01X6932Y31411D01*
G01X6961Y31387D01*
G01X6990Y31365D01*
G01X7022Y31344D01*
G01X7054Y31326D01*
G01X7087Y31309D01*
G01X7121Y31294D01*
G01X7156Y31281D01*
G01X7191Y31271D01*
G01X7227Y31262D01*
G01X7264Y31255D01*
G01X7301Y31250D01*
G01X7338Y31248D01*
G01X7353Y31246D01*
G01X7368Y31242D01*
G01X7381Y31236D01*
G01X7394Y31228D01*
G01X7406Y31218D01*
G01X8403Y30220D01*
G01X8414Y30208D01*
G01X8422Y30195D01*
G01X8428Y30180D01*
G01X8432Y30164D01*
G01X8433Y30148D01*
G01X8433Y28226D01*
G01X8432Y28210D01*
G01X8429Y28196D01*
G01X8423Y28182D01*
G01X8416Y28169D01*
G01X8406Y28157D01*
G01X8382Y28129D01*
G01X8359Y28099D01*
G01X8337Y28068D01*
G01X8318Y28036D01*
G01X8300Y28003D01*
G01X8285Y27969D01*
G01X8271Y27933D01*
G01X8260Y27897D01*
G01X8250Y27861D01*
G01X8243Y27825D01*
G01X8237Y27787D01*
G01X8234Y27750D01*
G01X8233Y27713D01*
G01X8234Y27676D01*
G01X8237Y27639D01*
G01X8242Y27603D01*
G01X8249Y27566D01*
G01X8259Y27531D01*
G01X8270Y27496D01*
G01X8283Y27461D01*
G01X8298Y27428D01*
G01X8315Y27395D01*
G01X8334Y27363D01*
G01X8354Y27333D01*
G01X8376Y27303D01*
G01X8400Y27275D01*
G01X8425Y27248D01*
G01X8452Y27223D01*
G01X8480Y27199D01*
G01X8510Y27177D01*
G01X8540Y27157D01*
G01X8572Y27138D01*
G01X8605Y27121D01*
G01X8638Y27106D01*
G01X8673Y27093D01*
G01X8708Y27082D01*
G01X8743Y27072D01*
G01X8780Y27065D01*
G01X8816Y27060D01*
G01X8853Y27057D01*
G01X8890Y27056D01*
G01X8926Y27057D01*
G01X8963Y27060D01*
G01X8999Y27065D01*
G01X9036Y27072D01*
G01X9071Y27082D01*
G01X9106Y27093D01*
G01X9141Y27106D01*
G01X9174Y27121D01*
G01X9207Y27138D01*
G01X9239Y27157D01*
G01X9269Y27177D01*
G01X9299Y27199D01*
G01X9327Y27223D01*
G01X9354Y27248D01*
G01X9379Y27275D01*
G01X9403Y27303D01*
G01X9425Y27333D01*
G01X9445Y27363D01*
G01X9464Y27395D01*
G01X9481Y27428D01*
G01X9496Y27461D01*
G01X9509Y27496D01*
G01X9520Y27531D01*
G01X9530Y27566D01*
G01X9537Y27603D01*
G01X9542Y27639D01*
G01X9545Y27676D01*
G01X9546Y27713D01*
G01X9545Y27750D01*
G01X9542Y27787D01*
G01X9536Y27825D01*
G01X9529Y27861D01*
G01X9519Y27897D01*
G01X9508Y27933D01*
G01X9494Y27969D01*
G01X9479Y28003D01*
G01X9461Y28036D01*
G01X9442Y28068D01*
G01X9420Y28099D01*
G01X9398Y28129D01*
G01X9373Y28157D01*
G01X9363Y28169D01*
G01X9356Y28182D01*
G01X9350Y28196D01*
G01X9347Y28210D01*
G01X9346Y28226D01*
G01X9346Y30380D01*
G01X9345Y30412D01*
G01X9342Y30445D01*
G01X9336Y30477D01*
G01X9327Y30508D01*
G01X9317Y30539D01*
G01X9305Y30569D01*
G01X9290Y30598D01*
G01X9274Y30626D01*
G01X9255Y30653D01*
G01X9234Y30679D01*
G01X9212Y30702D01*
G01X8051Y31863D01*
G01X8041Y31875D01*
G01X8033Y31888D01*
G01X8027Y31901D01*
G01X8023Y31916D01*
G01X8021Y31931D01*
G01X8019Y31968D01*
G01X8014Y32005D01*
G01X8007Y32042D01*
G01X7998Y32078D01*
G01X7988Y32113D01*
G01X7975Y32148D01*
G01X7960Y32182D01*
G01X7943Y32215D01*
G01X7925Y32247D01*
G01X7904Y32279D01*
G01X7882Y32308D01*
G01X7858Y32337D01*
G01X7833Y32364D01*
G01X7806Y32390D01*
G01X7778Y32414D01*
G01X7749Y32437D01*
G01X7718Y32458D01*
G01X7686Y32477D01*
G01X7653Y32494D01*
G01X7619Y32509D01*
G01X7584Y32523D01*
G01X7549Y32534D01*
G01X7513Y32543D01*
G01X7476Y32551D01*
G01X7440Y32556D01*
G01X7403Y32559D01*
G37*
G36*
G01X1811Y34811D02*
G01X1160Y34811D01*
G01X1187Y34759D01*
G01X1217Y34709D01*
G01X1249Y34660D01*
G01X1282Y34612D01*
G01X1318Y34565D01*
G01X1355Y34520D01*
G01X1394Y34477D01*
G01X1434Y34434D01*
G01X1477Y34394D01*
G01X1520Y34355D01*
G01X1566Y34318D01*
G01X1612Y34282D01*
G01X1660Y34248D01*
G01X1709Y34217D01*
G01X1760Y34187D01*
G01X1811Y34160D01*
G01X1811Y34811D01*
G37*
G36*
G01X3839Y34811D02*
G01X3188Y34811D01*
G01X3188Y34160D01*
G01X3240Y34187D01*
G01X3290Y34217D01*
G01X3339Y34248D01*
G01X3387Y34282D01*
G01X3434Y34318D01*
G01X3479Y34355D01*
G01X3522Y34394D01*
G01X3565Y34434D01*
G01X3605Y34477D01*
G01X3644Y34520D01*
G01X3681Y34565D01*
G01X3717Y34612D01*
G01X3751Y34660D01*
G01X3782Y34709D01*
G01X3812Y34759D01*
G01X3839Y34811D01*
G37*
G36*
G01X36840Y34811D02*
G01X36188Y34811D01*
G01X36188Y34160D01*
G01X36240Y34187D01*
G01X36290Y34217D01*
G01X36339Y34248D01*
G01X36387Y34282D01*
G01X36434Y34318D01*
G01X36479Y34355D01*
G01X36523Y34394D01*
G01X36565Y34434D01*
G01X36605Y34477D01*
G01X36644Y34520D01*
G01X36682Y34565D01*
G01X36717Y34612D01*
G01X36750Y34660D01*
G01X36782Y34709D01*
G01X36812Y34759D01*
G01X36840Y34811D01*
G37*
G36*
G01X34811Y34811D02*
G01X34159Y34811D01*
G01X34187Y34759D01*
G01X34217Y34709D01*
G01X34249Y34660D01*
G01X34282Y34612D01*
G01X34317Y34565D01*
G01X34355Y34520D01*
G01X34394Y34477D01*
G01X34434Y34434D01*
G01X34476Y34394D01*
G01X34520Y34355D01*
G01X34565Y34318D01*
G01X34612Y34282D01*
G01X34660Y34248D01*
G01X34709Y34217D01*
G01X34759Y34187D01*
G01X34811Y34160D01*
G01X34811Y34811D01*
G37*
G36*
G01X12898Y35912D02*
G01X12338Y35912D01*
G01X12364Y35864D01*
G01X12391Y35818D01*
G01X12420Y35773D01*
G01X12451Y35729D01*
G01X12484Y35687D01*
G01X12518Y35646D01*
G01X12554Y35606D01*
G01X12592Y35568D01*
G01X12632Y35532D01*
G01X12673Y35498D01*
G01X12715Y35465D01*
G01X12759Y35434D01*
G01X12804Y35405D01*
G01X12850Y35378D01*
G01X12898Y35352D01*
G01X12898Y35912D01*
G37*
G36*
G01X12045Y35912D02*
G01X11485Y35912D01*
G01X11485Y35352D01*
G01X11533Y35378D01*
G01X11579Y35405D01*
G01X11624Y35434D01*
G01X11668Y35465D01*
G01X11710Y35498D01*
G01X11751Y35532D01*
G01X11791Y35568D01*
G01X11829Y35606D01*
G01X11865Y35646D01*
G01X11899Y35687D01*
G01X11932Y35729D01*
G01X11963Y35773D01*
G01X11992Y35818D01*
G01X12019Y35864D01*
G01X12045Y35912D01*
G37*
G36*
G01X10358Y35912D02*
G01X9798Y35912D01*
G01X9824Y35864D01*
G01X9851Y35818D01*
G01X9880Y35773D01*
G01X9911Y35729D01*
G01X9944Y35687D01*
G01X9978Y35646D01*
G01X10014Y35606D01*
G01X10052Y35568D01*
G01X10092Y35532D01*
G01X10133Y35498D01*
G01X10175Y35465D01*
G01X10219Y35434D01*
G01X10264Y35405D01*
G01X10310Y35378D01*
G01X10358Y35352D01*
G01X10358Y35912D01*
G37*
G36*
G01X14585Y35912D02*
G01X14025Y35912D01*
G01X14025Y35352D01*
G01X14073Y35378D01*
G01X14119Y35405D01*
G01X14164Y35434D01*
G01X14208Y35465D01*
G01X14250Y35498D01*
G01X14291Y35532D01*
G01X14331Y35568D01*
G01X14369Y35606D01*
G01X14405Y35646D01*
G01X14439Y35687D01*
G01X14472Y35729D01*
G01X14503Y35773D01*
G01X14532Y35818D01*
G01X14559Y35864D01*
G01X14585Y35912D01*
G37*
G36*
G01X3240Y36812D02*
G01X3188Y36839D01*
G01X3188Y36188D01*
G01X3839Y36188D01*
G01X3812Y36239D01*
G01X3782Y36290D01*
G01X3751Y36339D01*
G01X3717Y36387D01*
G01X3681Y36433D01*
G01X3644Y36479D01*
G01X3605Y36522D01*
G01X3565Y36565D01*
G01X3522Y36605D01*
G01X3479Y36644D01*
G01X3434Y36681D01*
G01X3387Y36717D01*
G01X3339Y36750D01*
G01X3290Y36782D01*
G01X3240Y36812D01*
G37*
G36*
G01X1811Y36188D02*
G01X1811Y36839D01*
G01X1760Y36812D01*
G01X1709Y36782D01*
G01X1660Y36750D01*
G01X1612Y36717D01*
G01X1566Y36681D01*
G01X1520Y36644D01*
G01X1477Y36605D01*
G01X1434Y36565D01*
G01X1394Y36522D01*
G01X1355Y36479D01*
G01X1318Y36433D01*
G01X1282Y36387D01*
G01X1249Y36339D01*
G01X1217Y36290D01*
G01X1187Y36239D01*
G01X1160Y36188D01*
G01X1811Y36188D01*
G37*
G36*
G01X36240Y36812D02*
G01X36188Y36839D01*
G01X36188Y36188D01*
G01X36840Y36188D01*
G01X36812Y36239D01*
G01X36782Y36290D01*
G01X36750Y36339D01*
G01X36717Y36387D01*
G01X36682Y36433D01*
G01X36644Y36479D01*
G01X36605Y36522D01*
G01X36565Y36565D01*
G01X36523Y36605D01*
G01X36479Y36644D01*
G01X36434Y36681D01*
G01X36387Y36717D01*
G01X36339Y36750D01*
G01X36290Y36782D01*
G01X36240Y36812D01*
G37*
G36*
G01X34811Y36188D02*
G01X34811Y36839D01*
G01X34759Y36812D01*
G01X34709Y36782D01*
G01X34660Y36750D01*
G01X34612Y36717D01*
G01X34565Y36681D01*
G01X34520Y36644D01*
G01X34476Y36605D01*
G01X34434Y36565D01*
G01X34394Y36522D01*
G01X34355Y36479D01*
G01X34317Y36433D01*
G01X34282Y36387D01*
G01X34249Y36339D01*
G01X34217Y36290D01*
G01X34187Y36239D01*
G01X34159Y36188D01*
G01X34811Y36188D01*
G37*
G36*
G01X12898Y37039D02*
G01X12898Y37599D01*
G01X12850Y37573D01*
G01X12804Y37546D01*
G01X12759Y37517D01*
G01X12715Y37486D01*
G01X12673Y37453D01*
G01X12632Y37419D01*
G01X12592Y37383D01*
G01X12554Y37345D01*
G01X12518Y37305D01*
G01X12484Y37264D01*
G01X12451Y37222D01*
G01X12420Y37178D01*
G01X12391Y37133D01*
G01X12364Y37087D01*
G01X12338Y37039D01*
G01X12898Y37039D01*
G37*
G36*
G01X11533Y37573D02*
G01X11485Y37599D01*
G01X11485Y37039D01*
G01X12045Y37039D01*
G01X12019Y37087D01*
G01X11992Y37133D01*
G01X11963Y37178D01*
G01X11932Y37222D01*
G01X11899Y37264D01*
G01X11865Y37305D01*
G01X11829Y37345D01*
G01X11791Y37383D01*
G01X11751Y37419D01*
G01X11710Y37453D01*
G01X11668Y37486D01*
G01X11624Y37517D01*
G01X11579Y37546D01*
G01X11533Y37573D01*
G37*
G36*
G01X14073Y37573D02*
G01X14025Y37599D01*
G01X14025Y37039D01*
G01X14585Y37039D01*
G01X14559Y37087D01*
G01X14532Y37133D01*
G01X14503Y37178D01*
G01X14472Y37222D01*
G01X14439Y37264D01*
G01X14405Y37305D01*
G01X14369Y37345D01*
G01X14331Y37383D01*
G01X14291Y37419D01*
G01X14250Y37453D01*
G01X14208Y37486D01*
G01X14164Y37517D01*
G01X14119Y37546D01*
G01X14073Y37573D01*
G37*
G36*
G01X10358Y37039D02*
G01X10358Y37599D01*
G01X10310Y37573D01*
G01X10264Y37546D01*
G01X10219Y37517D01*
G01X10175Y37486D01*
G01X10133Y37453D01*
G01X10092Y37419D01*
G01X10052Y37383D01*
G01X10014Y37345D01*
G01X9978Y37305D01*
G01X9944Y37264D01*
G01X9911Y37222D01*
G01X9880Y37178D01*
G01X9851Y37133D01*
G01X9824Y37087D01*
G01X9798Y37039D01*
G01X10358Y37039D01*
G37*

%LPD*%
G54D13*
G01X36499Y15190D02*
G01X36423Y15267D01*
G01X35306Y15267D01*
G01X29210Y21363D01*
G01X29210Y31269D01*
G01X26797Y33682D01*
G01X25019Y33682D01*
G01X23622Y35079D01*
G01X23622Y36067D01*
G01X23213Y36476D01*
G01X18542Y36476D01*
G01X36499Y12650D02*
G01X34721Y12650D01*
G01X33274Y11203D01*
G01X33274Y5594D01*
G01X31879Y4200D01*
G01X19870Y4200D01*
G01X18796Y3125D01*
G01X18796Y1551D01*
G01X7366Y31904D02*
G01X8890Y30380D01*
G01X8890Y27713D01*
G54D12*
G01X6223Y1551D02*
G01X6223Y8282D01*
G01X1854Y12650D01*
G01X1499Y12650D01*
G54D16*
G01X15367Y8282D02*
G01X17018Y6631D01*
G01X17629Y6631D01*
G01X11811Y13616D02*
G01X13716Y11711D01*
G01X17145Y11711D01*
G01X15379Y16940D02*
G01X21889Y23450D01*
G01X22400Y23450D01*
G01X20928Y29364D02*
G01X15367Y23802D01*
G01X15367Y20347D01*
G54D13*
G01X27408Y30253D02*
G01X17780Y30253D01*
G01X16637Y29110D01*
G01X14478Y28348D02*
G01X18288Y32158D01*
G01X18288Y33555D01*
G01X7112Y15267D02*
G01X8763Y13616D01*
G01X11811Y13616D01*
G01X1499Y20270D02*
G01X1550Y20220D01*
G01X5715Y20220D01*
G01X7112Y18823D01*
G01X7112Y15267D01*
G54D12*
G01X6350Y1551D02*
G01X8763Y1551D01*
G01X16129Y36476D02*
G01X18669Y36476D01*
G54D14*
G01X2921Y32539D02*
G01X3937Y33555D01*
G01X14605Y33555D01*
G01X16002Y34952D01*
G01X16002Y36476D01*
G54D15*
G01X30607Y21490D02*
G01X34366Y17730D01*
G01X36500Y17730D01*
G54D12*
G01X26049Y20480D02*
G01X26049Y19979D01*
G01X23019Y16950D01*
G01X23019Y14179D01*
G01X23109Y14089D01*
G54D26*
G01X36399Y9499D03*
G54D27*
G01X2500Y2499D03*
G01X35500Y2499D03*
G01X35500Y35499D03*
G01X2500Y35499D03*
G54D28*
G01X30589Y6430D03*
G54D26*
G01X28199Y6480D03*
G54D29*
G01X1500Y12650D03*
G01X1500Y15190D03*
G01X1500Y17730D03*
G01X1500Y20270D03*
G01X1500Y22810D03*
G54D30*
G01X1500Y25350D03*
G54D29*
G01X36500Y12650D03*
G01X36500Y15190D03*
G01X36500Y17730D03*
G01X36500Y20270D03*
G01X36500Y22810D03*
G54D30*
G01X36500Y25350D03*
G54D31*
G01X16256Y1551D03*
G01X18796Y1551D03*
G01X21336Y1551D03*
G01X23876Y1551D03*
G01X6223Y1551D03*
G01X8763Y1551D03*
G01X11303Y1551D03*
G01X13843Y1551D03*
G01X18542Y36476D03*
G01X16002Y36476D03*
G01X13462Y36476D03*
G01X10922Y36476D03*
G54D12*
G01X17629Y6631D03*
G01X15367Y8282D03*
G01X17145Y11711D03*
G01X11811Y13616D03*
G01X22400Y23450D03*
G01X15379Y16940D03*
G01X15367Y20347D03*
G01X20955Y29364D03*
G01X27408Y30253D03*
G01X16637Y29110D03*
G01X14478Y28348D03*
G01X18288Y33555D03*
G01X7112Y15267D03*
G01X7366Y31904D03*
G01X8890Y27713D03*
G01X2921Y32539D03*
G01X30607Y21490D03*
G01X31496Y24919D03*
G01X27539Y25679D03*
G01X32004Y31650D03*
G01X26999Y9880D03*
G54D17*
G01X26199Y15959D03*
G54D12*
G01X7747Y10949D03*
G01X7747Y8028D03*
G01X12700Y15140D03*
G01X9906Y22379D03*
G54D18*
G01X13208Y25681D03*
G54D12*
G01X18796Y24792D03*
G01X11557Y30380D03*
G01X9017Y32412D03*
G01X13970Y32412D03*
G01X23876Y28983D03*
G01X29389Y15940D03*
G01X24070Y7840D03*
G01X30699Y27139D03*
G01X26049Y20480D03*
G01X23109Y14089D03*
M00*
M02*
