G04 Layer: TopSilkLayer*
G04 EasyEDA v6.3.22, 2020-01-22T11:07:26+01:00*
G04 244eb897874448418918cfb691dafd7b,6ac03ef627a24f5ab7c901ca926ad83b,10*
G04 Gerber Generator version 0.2*
G04 Scale: 100 percent, Rotated: No, Reflected: No *
G04 Dimensions in millimeters *
G04 leading zeros omitted , absolute positions ,3 integer and 3 decimal *
%FSLAX33Y33*%
%MOMM*%
G90*
G71D02*

%ADD10C,0.254000*%
%ADD31C,0.199898*%
%ADD32C,0.203200*%

%LPD*%

%LPD*%
G36*
G01X43989Y40299D02*
G01X43914Y40299D01*
G01X43836Y40295D01*
G01X43757Y40289D01*
G01X43678Y40280D01*
G01X43599Y40268D01*
G01X43533Y40257D01*
G01X43491Y40248D01*
G01X43444Y40239D01*
G01X43391Y40229D01*
G01X43335Y40218D01*
G01X43275Y40206D01*
G01X43212Y40194D01*
G01X43145Y40180D01*
G01X43076Y40166D01*
G01X43006Y40151D01*
G01X42934Y40137D01*
G01X42861Y40121D01*
G01X42788Y40106D01*
G01X42716Y40090D01*
G01X42643Y40075D01*
G01X42564Y40058D01*
G01X42487Y40042D01*
G01X42412Y40026D01*
G01X42339Y40011D01*
G01X42268Y39996D01*
G01X42200Y39983D01*
G01X42133Y39969D01*
G01X42067Y39956D01*
G01X42003Y39944D01*
G01X41940Y39932D01*
G01X41820Y39910D01*
G01X41761Y39899D01*
G01X41703Y39889D01*
G01X41646Y39879D01*
G01X41590Y39870D01*
G01X41535Y39861D01*
G01X41480Y39853D01*
G01X41426Y39845D01*
G01X41373Y39837D01*
G01X41319Y39829D01*
G01X41213Y39815D01*
G01X41160Y39809D01*
G01X41106Y39802D01*
G01X41053Y39796D01*
G01X40999Y39791D01*
G01X40944Y39785D01*
G01X40889Y39780D01*
G01X40834Y39774D01*
G01X40777Y39769D01*
G01X40720Y39765D01*
G01X40602Y39755D01*
G01X40480Y39747D01*
G01X40416Y39742D01*
G01X40352Y39738D01*
G01X40285Y39734D01*
G01X40217Y39730D01*
G01X40135Y39725D01*
G01X40055Y39719D01*
G01X39978Y39713D01*
G01X39902Y39705D01*
G01X39829Y39698D01*
G01X39758Y39690D01*
G01X39688Y39680D01*
G01X39620Y39671D01*
G01X39554Y39661D01*
G01X39490Y39650D01*
G01X39427Y39637D01*
G01X39366Y39625D01*
G01X39306Y39611D01*
G01X39247Y39597D01*
G01X39190Y39582D01*
G01X39133Y39566D01*
G01X39077Y39549D01*
G01X39023Y39531D01*
G01X38969Y39512D01*
G01X38916Y39493D01*
G01X38863Y39472D01*
G01X38811Y39451D01*
G01X38760Y39429D01*
G01X38709Y39405D01*
G01X38652Y39378D01*
G01X38597Y39350D01*
G01X38542Y39320D01*
G01X38488Y39291D01*
G01X38434Y39260D01*
G01X38381Y39228D01*
G01X38330Y39195D01*
G01X38278Y39162D01*
G01X38178Y39092D01*
G01X38128Y39056D01*
G01X38080Y39019D01*
G01X38032Y38980D01*
G01X37985Y38942D01*
G01X37893Y38862D01*
G01X37849Y38821D01*
G01X37805Y38779D01*
G01X37762Y38736D01*
G01X37678Y38648D01*
G01X37637Y38604D01*
G01X37597Y38558D01*
G01X37558Y38511D01*
G01X37520Y38464D01*
G01X37483Y38416D01*
G01X37446Y38367D01*
G01X37411Y38319D01*
G01X37376Y38268D01*
G01X37342Y38218D01*
G01X37309Y38167D01*
G01X37277Y38115D01*
G01X37246Y38063D01*
G01X37186Y37955D01*
G01X37130Y37847D01*
G01X37078Y37735D01*
G01X37030Y37621D01*
G01X37008Y37564D01*
G01X36986Y37506D01*
G01X36965Y37447D01*
G01X36946Y37388D01*
G01X36927Y37328D01*
G01X36893Y37208D01*
G01X36878Y37147D01*
G01X36863Y37085D01*
G01X36850Y37023D01*
G01X36838Y36961D01*
G01X36824Y36889D01*
G01X36814Y36818D01*
G01X36805Y36751D01*
G01X36797Y36686D01*
G01X36793Y36622D01*
G01X36790Y36561D01*
G01X36789Y36502D01*
G01X36791Y36445D01*
G01X36794Y36389D01*
G01X36800Y36335D01*
G01X36808Y36282D01*
G01X36818Y36231D01*
G01X36831Y36180D01*
G01X36845Y36131D01*
G01X36862Y36082D01*
G01X36880Y36035D01*
G01X36901Y35987D01*
G01X36924Y35940D01*
G01X36950Y35894D01*
G01X36978Y35848D01*
G01X37006Y35807D01*
G01X37034Y35769D01*
G01X37065Y35734D01*
G01X37097Y35703D01*
G01X37132Y35674D01*
G01X37168Y35649D01*
G01X37207Y35626D01*
G01X37248Y35606D01*
G01X37292Y35589D01*
G01X37340Y35575D01*
G01X37390Y35564D01*
G01X37443Y35556D01*
G01X37500Y35550D01*
G01X37561Y35548D01*
G01X37625Y35548D01*
G01X37693Y35551D01*
G01X37766Y35557D01*
G01X37842Y35565D01*
G01X37924Y35576D01*
G01X38010Y35590D01*
G01X38101Y35606D01*
G01X38197Y35625D01*
G01X38298Y35646D01*
G01X38405Y35670D01*
G01X38495Y35691D01*
G01X38581Y35710D01*
G01X38663Y35728D01*
G01X38742Y35746D01*
G01X38817Y35761D01*
G01X38889Y35776D01*
G01X38959Y35790D01*
G01X39027Y35802D01*
G01X39091Y35814D01*
G01X39154Y35824D01*
G01X39215Y35834D01*
G01X39275Y35842D01*
G01X39333Y35850D01*
G01X39390Y35857D01*
G01X39447Y35863D01*
G01X39503Y35868D01*
G01X39558Y35873D01*
G01X39613Y35877D01*
G01X39669Y35880D01*
G01X39781Y35884D01*
G01X39839Y35885D01*
G01X39898Y35886D01*
G01X40024Y35886D01*
G01X40088Y35884D01*
G01X40153Y35882D01*
G01X40216Y35878D01*
G01X40280Y35874D01*
G01X40343Y35868D01*
G01X40405Y35862D01*
G01X40468Y35855D01*
G01X40529Y35846D01*
G01X40591Y35836D01*
G01X40652Y35826D01*
G01X40713Y35815D01*
G01X40833Y35789D01*
G01X40893Y35774D01*
G01X40952Y35759D01*
G01X41012Y35742D01*
G01X41071Y35724D01*
G01X41130Y35705D01*
G01X41188Y35686D01*
G01X41247Y35664D01*
G01X41304Y35642D01*
G01X41363Y35620D01*
G01X41421Y35595D01*
G01X41478Y35570D01*
G01X41594Y35516D01*
G01X41651Y35487D01*
G01X41708Y35457D01*
G01X41766Y35427D01*
G01X41823Y35395D01*
G01X41881Y35361D01*
G01X41938Y35327D01*
G01X41995Y35292D01*
G01X42052Y35255D01*
G01X42110Y35218D01*
G01X42167Y35179D01*
G01X42224Y35139D01*
G01X42282Y35098D01*
G01X42340Y35055D01*
G01X42410Y35004D01*
G01X42475Y34958D01*
G01X42535Y34915D01*
G01X42592Y34878D01*
G01X42646Y34845D01*
G01X42696Y34816D01*
G01X42744Y34792D01*
G01X42791Y34770D01*
G01X42836Y34752D01*
G01X42880Y34737D01*
G01X42924Y34724D01*
G01X42969Y34715D01*
G01X43015Y34708D01*
G01X43062Y34704D01*
G01X43111Y34701D01*
G01X43162Y34700D01*
G01X43231Y34701D01*
G01X43295Y34704D01*
G01X43354Y34711D01*
G01X43408Y34721D01*
G01X43459Y34735D01*
G01X43508Y34753D01*
G01X43555Y34775D01*
G01X43602Y34803D01*
G01X43648Y34835D01*
G01X43695Y34873D01*
G01X43744Y34916D01*
G01X43795Y34966D01*
G01X43821Y34992D01*
G01X43845Y35020D01*
G01X43870Y35049D01*
G01X43895Y35079D01*
G01X43919Y35111D01*
G01X43943Y35144D01*
G01X43967Y35178D01*
G01X43991Y35213D01*
G01X44014Y35250D01*
G01X44037Y35288D01*
G01X44060Y35327D01*
G01X44083Y35368D01*
G01X44105Y35409D01*
G01X44127Y35452D01*
G01X44149Y35496D01*
G01X44170Y35541D01*
G01X44191Y35587D01*
G01X44213Y35634D01*
G01X44233Y35682D01*
G01X44253Y35731D01*
G01X44274Y35782D01*
G01X44294Y35833D01*
G01X44313Y35885D01*
G01X44332Y35939D01*
G01X44350Y35993D01*
G01X44369Y36048D01*
G01X44388Y36104D01*
G01X44405Y36161D01*
G01X44423Y36219D01*
G01X44457Y36337D01*
G01X44489Y36459D01*
G01X44505Y36521D01*
G01X44535Y36647D01*
G01X44550Y36712D01*
G01X44578Y36842D01*
G01X44617Y37043D01*
G01X44629Y37112D01*
G01X44641Y37180D01*
G01X44674Y37390D01*
G01X44684Y37462D01*
G01X44693Y37533D01*
G01X44702Y37605D01*
G01X44712Y37677D01*
G01X44728Y37824D01*
G01X44735Y37897D01*
G01X44742Y37972D01*
G01X44749Y38046D01*
G01X44755Y38121D01*
G01X44760Y38197D01*
G01X44765Y38272D01*
G01X44770Y38348D01*
G01X44778Y38500D01*
G01X44784Y38654D01*
G01X44786Y38731D01*
G01X44787Y38808D01*
G01X44789Y38886D01*
G01X44789Y39064D01*
G01X44788Y39160D01*
G01X44786Y39250D01*
G01X44783Y39336D01*
G01X44778Y39416D01*
G01X44773Y39492D01*
G01X44766Y39563D01*
G01X44758Y39630D01*
G01X44748Y39692D01*
G01X44737Y39750D01*
G01X44725Y39805D01*
G01X44711Y39855D01*
G01X44695Y39902D01*
G01X44679Y39946D01*
G01X44660Y39987D01*
G01X44639Y40024D01*
G01X44617Y40058D01*
G01X44593Y40090D01*
G01X44567Y40119D01*
G01X44540Y40145D01*
G01X44510Y40170D01*
G01X44478Y40192D01*
G01X44445Y40212D01*
G01X44409Y40231D01*
G01X44366Y40248D01*
G01X44316Y40263D01*
G01X44260Y40275D01*
G01X44199Y40286D01*
G01X44133Y40293D01*
G01X44062Y40297D01*
G01X43989Y40299D01*
G37*

%LPC*%
G36*
G01X41337Y39004D02*
G01X41291Y39006D01*
G01X41245Y39003D01*
G01X41200Y38996D01*
G01X41155Y38985D01*
G01X41111Y38969D01*
G01X41069Y38950D01*
G01X41028Y38928D01*
G01X40989Y38901D01*
G01X40952Y38872D01*
G01X40917Y38839D01*
G01X40885Y38804D01*
G01X40856Y38766D01*
G01X40831Y38724D01*
G01X40808Y38681D01*
G01X40788Y38635D01*
G01X40773Y38586D01*
G01X40762Y38536D01*
G01X40755Y38484D01*
G01X40753Y38429D01*
G01X40756Y38365D01*
G01X40763Y38304D01*
G01X40775Y38247D01*
G01X40791Y38194D01*
G01X40811Y38144D01*
G01X40835Y38098D01*
G01X40862Y38055D01*
G01X40892Y38017D01*
G01X40926Y37983D01*
G01X40962Y37953D01*
G01X41000Y37928D01*
G01X41041Y37907D01*
G01X41084Y37890D01*
G01X41129Y37878D01*
G01X41175Y37871D01*
G01X41222Y37869D01*
G01X41271Y37872D01*
G01X41320Y37880D01*
G01X41371Y37892D01*
G01X41421Y37911D01*
G01X41472Y37935D01*
G01X41522Y37964D01*
G01X41572Y37999D01*
G01X41621Y38039D01*
G01X41678Y38093D01*
G01X41718Y38139D01*
G01X41742Y38174D01*
G01X41749Y38198D01*
G01X41741Y38208D01*
G01X41715Y38203D01*
G01X41675Y38181D01*
G01X41617Y38141D01*
G01X41568Y38108D01*
G01X41517Y38082D01*
G01X41465Y38064D01*
G01X41413Y38052D01*
G01X41361Y38047D01*
G01X41310Y38049D01*
G01X41260Y38057D01*
G01X41213Y38072D01*
G01X41167Y38093D01*
G01X41126Y38119D01*
G01X41087Y38151D01*
G01X41053Y38189D01*
G01X41024Y38232D01*
G01X41000Y38279D01*
G01X40982Y38332D01*
G01X40971Y38389D01*
G01X40953Y38524D01*
G01X41470Y38524D01*
G01X41565Y38525D01*
G01X41634Y38528D01*
G01X41682Y38533D01*
G01X41712Y38542D01*
G01X41729Y38553D01*
G01X41737Y38569D01*
G01X41738Y38590D01*
G01X41734Y38635D01*
G01X41724Y38682D01*
G01X41707Y38730D01*
G01X41685Y38778D01*
G01X41659Y38823D01*
G01X41630Y38864D01*
G01X41598Y38898D01*
G01X41565Y38925D01*
G01X41521Y38951D01*
G01X41476Y38971D01*
G01X41430Y38987D01*
G01X41384Y38998D01*
G01X41337Y39004D01*
G37*
G36*
G01X39186Y39006D02*
G01X39139Y39008D01*
G01X39094Y39004D01*
G01X39047Y38993D01*
G01X38996Y38975D01*
G01X38939Y38951D01*
G01X38885Y38924D01*
G01X38838Y38896D01*
G01X38797Y38866D01*
G01X38761Y38832D01*
G01X38729Y38795D01*
G01X38701Y38751D01*
G01X38675Y38703D01*
G01X38649Y38646D01*
G01X38629Y38592D01*
G01X38615Y38537D01*
G01X38606Y38482D01*
G01X38603Y38428D01*
G01X38604Y38373D01*
G01X38610Y38321D01*
G01X38620Y38269D01*
G01X38635Y38218D01*
G01X38654Y38170D01*
G01X38677Y38124D01*
G01X38703Y38081D01*
G01X38733Y38042D01*
G01X38767Y38005D01*
G01X38803Y37972D01*
G01X38842Y37943D01*
G01X38885Y37919D01*
G01X38930Y37899D01*
G01X38976Y37885D01*
G01X39026Y37876D01*
G01X39077Y37873D01*
G01X39129Y37877D01*
G01X39185Y37888D01*
G01X39244Y37905D01*
G01X39302Y37928D01*
G01X39359Y37955D01*
G01X39415Y37985D01*
G01X39466Y38018D01*
G01X39511Y38053D01*
G01X39548Y38088D01*
G01X39577Y38123D01*
G01X39596Y38156D01*
G01X39602Y38188D01*
G01X39594Y38220D01*
G01X39572Y38229D01*
G01X39541Y38215D01*
G01X39504Y38180D01*
G01X39444Y38126D01*
G01X39364Y38080D01*
G01X39279Y38048D01*
G01X39201Y38036D01*
G01X39154Y38039D01*
G01X39109Y38048D01*
G01X39066Y38063D01*
G01X39026Y38083D01*
G01X38987Y38109D01*
G01X38952Y38140D01*
G01X38920Y38176D01*
G01X38891Y38216D01*
G01X38866Y38261D01*
G01X38845Y38309D01*
G01X38827Y38362D01*
G01X38815Y38418D01*
G01X38795Y38524D01*
G01X39303Y38524D01*
G01X39390Y38525D01*
G01X39460Y38527D01*
G01X39515Y38533D01*
G01X39555Y38542D01*
G01X39583Y38554D01*
G01X39598Y38573D01*
G01X39603Y38596D01*
G01X39599Y38628D01*
G01X39586Y38667D01*
G01X39566Y38714D01*
G01X39541Y38771D01*
G01X39506Y38838D01*
G01X39465Y38888D01*
G01X39414Y38926D01*
G01X39347Y38958D01*
G01X39287Y38980D01*
G01X39234Y38997D01*
G01X39186Y39006D01*
G37*
G36*
G01X43934Y38998D02*
G01X43879Y38999D01*
G01X43829Y38997D01*
G01X43788Y38991D01*
G01X43739Y38976D01*
G01X43695Y38952D01*
G01X43654Y38921D01*
G01X43619Y38883D01*
G01X43590Y38840D01*
G01X43569Y38794D01*
G01X43555Y38744D01*
G01X43550Y38692D01*
G01X43552Y38641D01*
G01X43559Y38598D01*
G01X43575Y38560D01*
G01X43603Y38526D01*
G01X43646Y38490D01*
G01X43708Y38450D01*
G01X43792Y38403D01*
G01X43901Y38345D01*
G01X43990Y38296D01*
G01X44059Y38253D01*
G01X44110Y38213D01*
G01X44143Y38177D01*
G01X44158Y38142D01*
G01X44159Y38107D01*
G01X44144Y38071D01*
G01X44115Y38033D01*
G01X44082Y38007D01*
G01X44042Y37988D01*
G01X43995Y37978D01*
G01X43944Y37975D01*
G01X43892Y37979D01*
G01X43839Y37989D01*
G01X43790Y38005D01*
G01X43744Y38026D01*
G01X43705Y38052D01*
G01X43674Y38082D01*
G01X43654Y38115D01*
G01X43647Y38152D01*
G01X43642Y38170D01*
G01X43628Y38184D01*
G01X43607Y38195D01*
G01X43581Y38198D01*
G01X43547Y38194D01*
G01X43528Y38177D01*
G01X43521Y38140D01*
G01X43524Y38077D01*
G01X43534Y38010D01*
G01X43555Y37969D01*
G01X43600Y37940D01*
G01X43680Y37913D01*
G01X43758Y37893D01*
G01X43834Y37882D01*
G01X43908Y37877D01*
G01X43979Y37881D01*
G01X44045Y37891D01*
G01X44107Y37908D01*
G01X44163Y37932D01*
G01X44214Y37962D01*
G01X44257Y37999D01*
G01X44294Y38041D01*
G01X44321Y38089D01*
G01X44340Y38142D01*
G01X44348Y38183D01*
G01X44351Y38221D01*
G01X44349Y38256D01*
G01X44340Y38290D01*
G01X44325Y38322D01*
G01X44303Y38354D01*
G01X44273Y38386D01*
G01X44235Y38418D01*
G01X44189Y38451D01*
G01X44134Y38486D01*
G01X44070Y38523D01*
G01X43996Y38563D01*
G01X43903Y38614D01*
G01X43830Y38658D01*
G01X43777Y38697D01*
G01X43741Y38732D01*
G01X43723Y38765D01*
G01X43721Y38797D01*
G01X43734Y38829D01*
G01X43762Y38862D01*
G01X43808Y38893D01*
G01X43868Y38908D01*
G01X43934Y38910D01*
G01X44002Y38900D01*
G01X44064Y38879D01*
G01X44117Y38849D01*
G01X44152Y38811D01*
G01X44166Y38766D01*
G01X44171Y38748D01*
G01X44184Y38733D01*
G01X44205Y38723D01*
G01X44230Y38719D01*
G01X44265Y38727D01*
G01X44287Y38749D01*
G01X44300Y38781D01*
G01X44301Y38818D01*
G01X44293Y38858D01*
G01X44274Y38896D01*
G01X44245Y38927D01*
G01X44208Y38949D01*
G01X44163Y38964D01*
G01X44111Y38976D01*
G01X44053Y38986D01*
G01X43993Y38993D01*
G01X43934Y38998D01*
G37*
G36*
G01X39929Y38978D02*
G01X39829Y38979D01*
G01X39744Y38978D01*
G01X39675Y38973D01*
G01X39622Y38966D01*
G01X39587Y38956D01*
G01X39570Y38944D01*
G01X39571Y38930D01*
G01X39593Y38914D01*
G01X39635Y38898D01*
G01X39654Y38891D01*
G01X39673Y38881D01*
G01X39691Y38867D01*
G01X39708Y38847D01*
G01X39726Y38821D01*
G01X39745Y38786D01*
G01X39766Y38742D01*
G01X39790Y38687D01*
G01X39817Y38620D01*
G01X39849Y38539D01*
G01X39885Y38442D01*
G01X39927Y38329D01*
G01X39977Y38195D01*
G01X40016Y38094D01*
G01X40047Y38021D01*
G01X40073Y37972D01*
G01X40097Y37941D01*
G01X40122Y37924D01*
G01X40152Y37916D01*
G01X40188Y37912D01*
G01X40299Y37902D01*
G01X40460Y38363D01*
G01X40498Y38472D01*
G01X40534Y38569D01*
G01X40568Y38653D01*
G01X40598Y38724D01*
G01X40626Y38782D01*
G01X40651Y38828D01*
G01X40674Y38861D01*
G01X40693Y38882D01*
G01X40751Y38933D01*
G01X40754Y38963D01*
G01X40698Y38976D01*
G01X40573Y38979D01*
G01X40507Y38978D01*
G01X40455Y38973D01*
G01X40415Y38965D01*
G01X40389Y38954D01*
G01X40378Y38942D01*
G01X40383Y38928D01*
G01X40405Y38913D01*
G01X40444Y38898D01*
G01X40469Y38888D01*
G01X40490Y38873D01*
G01X40503Y38858D01*
G01X40508Y38843D01*
G01X40504Y38819D01*
G01X40492Y38775D01*
G01X40421Y38562D01*
G01X40361Y38394D01*
G01X40332Y38314D01*
G01X40305Y38243D01*
G01X40281Y38185D01*
G01X40264Y38145D01*
G01X40253Y38125D01*
G01X40246Y38128D01*
G01X40234Y38145D01*
G01X40218Y38174D01*
G01X40198Y38216D01*
G01X40176Y38267D01*
G01X40151Y38327D01*
G01X40124Y38394D01*
G01X40097Y38467D01*
G01X40054Y38586D01*
G01X40022Y38677D01*
G01X40001Y38744D01*
G01X39990Y38791D01*
G01X39987Y38826D01*
G01X39993Y38849D01*
G01X40006Y38869D01*
G01X40026Y38887D01*
G01X40050Y38910D01*
G01X40070Y38931D01*
G01X40083Y38949D01*
G01X40088Y38961D01*
G01X40067Y38968D01*
G01X40012Y38974D01*
G01X39929Y38978D01*
G37*
G36*
G01X42144Y39002D02*
G01X42135Y39008D01*
G01X42121Y39006D01*
G01X42103Y39003D01*
G01X42083Y38999D01*
G01X42062Y38994D01*
G01X42033Y38989D01*
G01X41992Y38981D01*
G01X41943Y38973D01*
G01X41892Y38964D01*
G01X41808Y38943D01*
G01X41775Y38918D01*
G01X41795Y38893D01*
G01X41869Y38870D01*
G01X41967Y38850D01*
G01X41949Y37987D01*
G01X41860Y37976D01*
G01X41825Y37970D01*
G01X41797Y37960D01*
G01X41777Y37948D01*
G01X41771Y37936D01*
G01X41796Y37924D01*
G01X41867Y37914D01*
G01X41972Y37908D01*
G01X42101Y37906D01*
G01X42235Y37908D01*
G01X42333Y37914D01*
G01X42390Y37923D01*
G01X42400Y37935D01*
G01X42382Y37948D01*
G01X42355Y37959D01*
G01X42322Y37969D01*
G01X42288Y37976D01*
G01X42262Y37980D01*
G01X42242Y37988D01*
G01X42227Y38004D01*
G01X42217Y38031D01*
G01X42210Y38074D01*
G01X42205Y38137D01*
G01X42202Y38225D01*
G01X42198Y38340D01*
G01X42196Y38471D01*
G01X42197Y38573D01*
G01X42204Y38650D01*
G01X42218Y38709D01*
G01X42242Y38752D01*
G01X42276Y38785D01*
G01X42323Y38814D01*
G01X42384Y38842D01*
G01X42448Y38866D01*
G01X42487Y38872D01*
G01X42515Y38857D01*
G01X42542Y38820D01*
G01X42566Y38794D01*
G01X42597Y38772D01*
G01X42631Y38757D01*
G01X42664Y38752D01*
G01X42704Y38755D01*
G01X42727Y38770D01*
G01X42739Y38800D01*
G01X42742Y38848D01*
G01X42737Y38891D01*
G01X42723Y38927D01*
G01X42702Y38956D01*
G01X42674Y38978D01*
G01X42640Y38993D01*
G01X42600Y39001D01*
G01X42556Y39002D01*
G01X42508Y38995D01*
G01X42458Y38981D01*
G01X42406Y38960D01*
G01X42352Y38931D01*
G01X42299Y38895D01*
G01X42221Y38839D01*
G01X42180Y38824D01*
G01X42162Y38848D01*
G01X42159Y38914D01*
G01X42157Y38952D01*
G01X42152Y38983D01*
G01X42144Y39002D01*
G37*
G36*
G01X43206Y38997D02*
G01X43150Y38997D01*
G01X43059Y38989D01*
G01X42960Y38976D01*
G01X42878Y38962D01*
G01X42833Y38941D01*
G01X42824Y38915D01*
G01X42849Y38892D01*
G01X42904Y38882D01*
G01X42938Y38877D01*
G01X42965Y38861D01*
G01X42987Y38832D01*
G01X43005Y38789D01*
G01X43017Y38732D01*
G01X43026Y38657D01*
G01X43031Y38564D01*
G01X43032Y38453D01*
G01X43031Y38321D01*
G01X43028Y38217D01*
G01X43020Y38138D01*
G01X43009Y38079D01*
G01X42992Y38038D01*
G01X42969Y38010D01*
G01X42938Y37992D01*
G01X42899Y37981D01*
G01X42842Y37967D01*
G01X42811Y37953D01*
G01X42805Y37940D01*
G01X42823Y37929D01*
G01X42865Y37919D01*
G01X42928Y37912D01*
G01X43011Y37907D01*
G01X43113Y37906D01*
G01X43239Y37908D01*
G01X43336Y37914D01*
G01X43399Y37925D01*
G01X43421Y37938D01*
G01X43416Y37951D01*
G01X43403Y37961D01*
G01X43382Y37968D01*
G01X43357Y37971D01*
G01X43332Y37973D01*
G01X43310Y37981D01*
G01X43290Y37995D01*
G01X43274Y38016D01*
G01X43261Y38045D01*
G01X43250Y38083D01*
G01X43241Y38131D01*
G01X43235Y38190D01*
G01X43231Y38260D01*
G01X43229Y38342D01*
G01X43228Y38438D01*
G01X43229Y38548D01*
G01X43229Y38721D01*
G01X43227Y38797D01*
G01X43224Y38864D01*
G01X43221Y38919D01*
G01X43217Y38961D01*
G01X43212Y38988D01*
G01X43206Y38997D01*
G37*
G36*
G01X43146Y39524D02*
G01X43112Y39529D01*
G01X43079Y39512D01*
G01X43035Y39470D01*
G01X42995Y39406D01*
G01X42992Y39341D01*
G01X43023Y39286D01*
G01X43086Y39252D01*
G01X43139Y39249D01*
G01X43186Y39264D01*
G01X43224Y39294D01*
G01X43249Y39334D01*
G01X43261Y39379D01*
G01X43258Y39424D01*
G01X43237Y39466D01*
G01X43197Y39500D01*
G01X43146Y39524D01*
G37*

%LPD*%
G36*
G01X41285Y38907D02*
G01X41238Y38907D01*
G01X41191Y38899D01*
G01X41144Y38882D01*
G01X41099Y38856D01*
G01X41056Y38819D01*
G01X41005Y38764D01*
G01X40972Y38720D01*
G01X40959Y38685D01*
G01X40966Y38659D01*
G01X40995Y38641D01*
G01X41047Y38629D01*
G01X41122Y38623D01*
G01X41221Y38621D01*
G01X41366Y38623D01*
G01X41443Y38632D01*
G01X41474Y38654D01*
G01X41479Y38697D01*
G01X41474Y38747D01*
G01X41459Y38790D01*
G01X41436Y38828D01*
G01X41406Y38859D01*
G01X41369Y38882D01*
G01X41329Y38898D01*
G01X41285Y38907D01*
G37*

%LPD*%
G36*
G01X39143Y38909D02*
G01X39105Y38914D01*
G01X39066Y38908D01*
G01X39019Y38890D01*
G01X38970Y38863D01*
G01X38926Y38830D01*
G01X38886Y38793D01*
G01X38855Y38752D01*
G01X38834Y38715D01*
G01X38826Y38684D01*
G01X38834Y38650D01*
G01X38868Y38631D01*
G01X38946Y38623D01*
G01X39085Y38621D01*
G01X39226Y38623D01*
G01X39304Y38632D01*
G01X39336Y38652D01*
G01X39344Y38688D01*
G01X39337Y38724D01*
G01X39320Y38762D01*
G01X39293Y38800D01*
G01X39260Y38836D01*
G01X39223Y38867D01*
G01X39183Y38892D01*
G01X39143Y38909D01*
G37*

%LPD*%
G36*
G01X44850Y43426D02*
G01X44760Y43429D01*
G01X44697Y43423D01*
G01X44658Y43411D01*
G01X44641Y43391D01*
G01X44636Y43379D01*
G01X44630Y43358D01*
G01X44620Y43329D01*
G01X44607Y43291D01*
G01X44575Y43195D01*
G01X44556Y43137D01*
G01X44535Y43075D01*
G01X44512Y43008D01*
G01X44489Y42937D01*
G01X44464Y42864D01*
G01X44438Y42788D01*
G01X44251Y42231D01*
G01X44424Y42231D01*
G01X44520Y42234D01*
G01X44575Y42246D01*
G01X44606Y42278D01*
G01X44629Y42337D01*
G01X44652Y42397D01*
G01X44684Y42428D01*
G01X44744Y42441D01*
G01X44850Y42443D01*
G01X44957Y42441D01*
G01X45015Y42429D01*
G01X45042Y42397D01*
G01X45057Y42337D01*
G01X45071Y42277D01*
G01X45098Y42245D01*
G01X45154Y42233D01*
G01X45258Y42231D01*
G01X45440Y42231D01*
G01X45242Y42823D01*
G01X45045Y43416D01*
G01X44850Y43426D01*
G37*

%LPC*%
G36*
G01X44857Y43069D02*
G01X44846Y43080D01*
G01X44822Y43041D01*
G01X44790Y42950D01*
G01X44763Y42846D01*
G01X44751Y42766D01*
G01X44758Y42751D01*
G01X44779Y42738D01*
G01X44809Y42729D01*
G01X44846Y42726D01*
G01X44907Y42732D01*
G01X44935Y42761D01*
G01X44932Y42826D01*
G01X44904Y42943D01*
G01X44888Y42996D01*
G01X44872Y43039D01*
G01X44857Y43069D01*
G37*

%LPD*%
G36*
G01X40729Y43433D02*
G01X39874Y43433D01*
G01X39874Y42231D01*
G01X40223Y42231D01*
G01X40223Y42726D01*
G01X40666Y42726D01*
G01X40666Y43009D01*
G01X40444Y43009D01*
G01X40326Y43011D01*
G01X40259Y43020D01*
G01X40230Y43041D01*
G01X40223Y43080D01*
G01X40230Y43118D01*
G01X40263Y43139D01*
G01X40339Y43149D01*
G01X40476Y43151D01*
G01X40729Y43151D01*
G01X40729Y43433D01*
G37*

%LPD*%
G36*
G01X41496Y43463D02*
G01X41426Y43469D01*
G01X41357Y43463D01*
G01X41283Y43447D01*
G01X41209Y43422D01*
G01X41141Y43389D01*
G01X41082Y43351D01*
G01X41031Y43308D01*
G01X40987Y43259D01*
G01X40951Y43204D01*
G01X40921Y43142D01*
G01X40897Y43072D01*
G01X40879Y42994D01*
G01X40867Y42906D01*
G01X40863Y42847D01*
G01X40863Y42788D01*
G01X40867Y42730D01*
G01X40874Y42674D01*
G01X40886Y42619D01*
G01X40902Y42566D01*
G01X40921Y42516D01*
G01X40944Y42469D01*
G01X40971Y42424D01*
G01X41001Y42383D01*
G01X41034Y42344D01*
G01X41070Y42310D01*
G01X41106Y42281D01*
G01X41138Y42259D01*
G01X41171Y42241D01*
G01X41206Y42229D01*
G01X41246Y42221D01*
G01X41295Y42216D01*
G01X41355Y42214D01*
G01X41429Y42213D01*
G01X41498Y42214D01*
G01X41559Y42218D01*
G01X41613Y42226D01*
G01X41662Y42237D01*
G01X41705Y42253D01*
G01X41744Y42272D01*
G01X41779Y42297D01*
G01X41811Y42328D01*
G01X41841Y42365D01*
G01X41869Y42407D01*
G01X41897Y42457D01*
G01X41925Y42515D01*
G01X41950Y42577D01*
G01X41969Y42640D01*
G01X41983Y42704D01*
G01X41992Y42768D01*
G01X41995Y42832D01*
G01X41993Y42895D01*
G01X41986Y42958D01*
G01X41974Y43018D01*
G01X41957Y43077D01*
G01X41935Y43133D01*
G01X41909Y43186D01*
G01X41878Y43235D01*
G01X41843Y43281D01*
G01X41803Y43322D01*
G01X41760Y43358D01*
G01X41712Y43389D01*
G01X41644Y43422D01*
G01X41570Y43447D01*
G01X41496Y43463D01*
G37*

%LPC*%
G36*
G01X41470Y43180D02*
G01X41426Y43186D01*
G01X41378Y43178D01*
G01X41334Y43155D01*
G01X41296Y43120D01*
G01X41263Y43073D01*
G01X41236Y43019D01*
G01X41217Y42958D01*
G01X41204Y42893D01*
G01X41200Y42825D01*
G01X41203Y42756D01*
G01X41216Y42690D01*
G01X41238Y42628D01*
G01X41270Y42572D01*
G01X41329Y42515D01*
G01X41400Y42483D01*
G01X41475Y42479D01*
G01X41540Y42505D01*
G01X41569Y42533D01*
G01X41593Y42571D01*
G01X41613Y42615D01*
G01X41629Y42665D01*
G01X41640Y42720D01*
G01X41646Y42777D01*
G01X41648Y42836D01*
G01X41645Y42895D01*
G01X41637Y42951D01*
G01X41624Y43004D01*
G01X41606Y43052D01*
G01X41582Y43093D01*
G01X41548Y43133D01*
G01X41510Y43162D01*
G01X41470Y43180D01*
G37*

%LPD*%
G36*
G01X42681Y43462D02*
G01X42611Y43465D01*
G01X42540Y43463D01*
G01X42472Y43453D01*
G01X42410Y43439D01*
G01X42357Y43418D01*
G01X42295Y43381D01*
G01X42244Y43335D01*
G01X42204Y43282D01*
G01X42176Y43223D01*
G01X42160Y43160D01*
G01X42157Y43095D01*
G01X42167Y43029D01*
G01X42191Y42962D01*
G01X42213Y42922D01*
G01X42237Y42888D01*
G01X42265Y42857D01*
G01X42300Y42830D01*
G01X42343Y42804D01*
G01X42397Y42779D01*
G01X42464Y42753D01*
G01X42545Y42724D01*
G01X42663Y42682D01*
G01X42726Y42648D01*
G01X42750Y42610D01*
G01X42750Y42556D01*
G01X42741Y42509D01*
G01X42724Y42478D01*
G01X42695Y42459D01*
G01X42651Y42449D01*
G01X42577Y42457D01*
G01X42509Y42493D01*
G01X42459Y42547D01*
G01X42439Y42610D01*
G01X42432Y42632D01*
G01X42406Y42646D01*
G01X42360Y42651D01*
G01X42289Y42648D01*
G01X42212Y42640D01*
G01X42165Y42625D01*
G01X42140Y42600D01*
G01X42129Y42560D01*
G01X42131Y42519D01*
G01X42149Y42469D01*
G01X42180Y42414D01*
G01X42224Y42354D01*
G01X42286Y42286D01*
G01X42344Y42244D01*
G01X42416Y42220D01*
G01X42522Y42206D01*
G01X42603Y42201D01*
G01X42678Y42203D01*
G01X42748Y42212D01*
G01X42812Y42227D01*
G01X42870Y42248D01*
G01X42921Y42277D01*
G01X42967Y42311D01*
G01X43006Y42352D01*
G01X43038Y42398D01*
G01X43064Y42451D01*
G01X43083Y42510D01*
G01X43095Y42574D01*
G01X43098Y42632D01*
G01X43093Y42686D01*
G01X43079Y42737D01*
G01X43058Y42784D01*
G01X43027Y42828D01*
G01X42988Y42869D01*
G01X42940Y42907D01*
G01X42882Y42943D01*
G01X42816Y42975D01*
G01X42740Y43006D01*
G01X42654Y43034D01*
G01X42558Y43060D01*
G01X42520Y43073D01*
G01X42493Y43093D01*
G01X42476Y43119D01*
G01X42471Y43151D01*
G01X42480Y43184D01*
G01X42504Y43208D01*
G01X42538Y43222D01*
G01X42580Y43226D01*
G01X42623Y43221D01*
G01X42664Y43207D01*
G01X42700Y43184D01*
G01X42724Y43151D01*
G01X42748Y43117D01*
G01X42781Y43095D01*
G01X42829Y43083D01*
G01X42898Y43080D01*
G01X42953Y43082D01*
G01X43001Y43088D01*
G01X43035Y43096D01*
G01X43053Y43106D01*
G01X43059Y43137D01*
G01X43054Y43177D01*
G01X43038Y43221D01*
G01X43014Y43269D01*
G01X42983Y43315D01*
G01X42947Y43357D01*
G01X42909Y43392D01*
G01X42869Y43417D01*
G01X42813Y43438D01*
G01X42749Y43453D01*
G01X42681Y43462D01*
G37*

%LPD*%
G36*
G01X43710Y43465D02*
G01X43641Y43465D01*
G01X43577Y43461D01*
G01X43523Y43454D01*
G01X43484Y43444D01*
G01X43441Y43421D01*
G01X43399Y43390D01*
G01X43362Y43352D01*
G01X43329Y43309D01*
G01X43301Y43262D01*
G01X43281Y43212D01*
G01X43267Y43162D01*
G01X43263Y43113D01*
G01X43267Y43047D01*
G01X43280Y42989D01*
G01X43302Y42938D01*
G01X43335Y42893D01*
G01X43380Y42852D01*
G01X43438Y42814D01*
G01X43509Y42779D01*
G01X43596Y42745D01*
G01X43673Y42715D01*
G01X43736Y42686D01*
G01X43786Y42658D01*
G01X43823Y42629D01*
G01X43848Y42600D01*
G01X43860Y42569D01*
G01X43863Y42536D01*
G01X43855Y42501D01*
G01X43829Y42464D01*
G01X43789Y42445D01*
G01X43738Y42442D01*
G01X43685Y42453D01*
G01X43634Y42478D01*
G01X43589Y42512D01*
G01X43559Y42555D01*
G01X43548Y42605D01*
G01X43540Y42628D01*
G01X43516Y42644D01*
G01X43475Y42652D01*
G01X43413Y42655D01*
G01X43346Y42653D01*
G01X43295Y42647D01*
G01X43259Y42637D01*
G01X43236Y42618D01*
G01X43227Y42592D01*
G01X43229Y42557D01*
G01X43241Y42510D01*
G01X43264Y42450D01*
G01X43293Y42388D01*
G01X43329Y42334D01*
G01X43372Y42291D01*
G01X43422Y42256D01*
G01X43479Y42229D01*
G01X43546Y42210D01*
G01X43621Y42199D01*
G01X43706Y42196D01*
G01X43780Y42199D01*
G01X43849Y42209D01*
G01X43912Y42225D01*
G01X43969Y42247D01*
G01X44021Y42275D01*
G01X44066Y42309D01*
G01X44105Y42349D01*
G01X44137Y42394D01*
G01X44162Y42444D01*
G01X44180Y42499D01*
G01X44191Y42559D01*
G01X44196Y42624D01*
G01X44193Y42677D01*
G01X44186Y42724D01*
G01X44174Y42768D01*
G01X44155Y42807D01*
G01X44129Y42843D01*
G01X44097Y42876D01*
G01X44056Y42907D01*
G01X44007Y42936D01*
G01X43949Y42963D01*
G01X43881Y42990D01*
G01X43803Y43017D01*
G01X43714Y43043D01*
G01X43650Y43065D01*
G01X43609Y43089D01*
G01X43586Y43117D01*
G01X43579Y43152D01*
G01X43589Y43185D01*
G01X43614Y43209D01*
G01X43650Y43223D01*
G01X43693Y43228D01*
G01X43736Y43223D01*
G01X43775Y43208D01*
G01X43806Y43184D01*
G01X43824Y43151D01*
G01X43838Y43115D01*
G01X43866Y43093D01*
G01X43916Y43083D01*
G01X43995Y43080D01*
G01X44078Y43082D01*
G01X44125Y43093D01*
G01X44145Y43117D01*
G01X44149Y43161D01*
G01X44145Y43199D01*
G01X44132Y43239D01*
G01X44112Y43278D01*
G01X44085Y43317D01*
G01X44054Y43353D01*
G01X44018Y43386D01*
G01X43979Y43414D01*
G01X43938Y43436D01*
G01X43898Y43447D01*
G01X43843Y43456D01*
G01X43779Y43462D01*
G01X43710Y43465D01*
G37*

%LPD*%
G36*
G01X37885Y44525D02*
G01X37880Y44529D01*
G01X37874Y44525D01*
G01X37843Y44494D01*
G01X37817Y44467D01*
G01X37786Y44433D01*
G01X37748Y44393D01*
G01X37706Y44347D01*
G01X37659Y44296D01*
G01X37607Y44239D01*
G01X37551Y44178D01*
G01X37492Y44112D01*
G01X37429Y44043D01*
G01X37363Y43970D01*
G01X37295Y43894D01*
G01X37224Y43815D01*
G01X37152Y43734D01*
G01X36439Y42938D01*
G01X37160Y42134D01*
G01X37880Y41329D01*
G01X39320Y42938D01*
G01X38608Y43734D01*
G01X38535Y43815D01*
G01X38465Y43894D01*
G01X38396Y43970D01*
G01X38330Y44043D01*
G01X38268Y44112D01*
G01X38208Y44178D01*
G01X38152Y44239D01*
G01X38101Y44296D01*
G01X38053Y44347D01*
G01X38011Y44393D01*
G01X37974Y44433D01*
G01X37943Y44467D01*
G01X37917Y44494D01*
G01X37898Y44513D01*
G01X37885Y44525D01*
G37*

%LPC*%
G36*
G01X38896Y42792D02*
G01X38877Y42793D01*
G01X38856Y42790D01*
G01X38820Y42786D01*
G01X38771Y42779D01*
G01X38710Y42769D01*
G01X38639Y42758D01*
G01X38560Y42745D01*
G01X38475Y42732D01*
G01X38385Y42716D01*
G01X38292Y42701D01*
G01X38198Y42685D01*
G01X38105Y42669D01*
G01X38014Y42653D01*
G01X37926Y42638D01*
G01X37844Y42623D01*
G01X37771Y42610D01*
G01X37706Y42598D01*
G01X37652Y42587D01*
G01X37610Y42579D01*
G01X37583Y42573D01*
G01X37572Y42569D01*
G01X37574Y42557D01*
G01X37582Y42526D01*
G01X37597Y42479D01*
G01X37617Y42418D01*
G01X37642Y42346D01*
G01X37669Y42267D01*
G01X37699Y42183D01*
G01X37730Y42096D01*
G01X37762Y42009D01*
G01X37793Y41924D01*
G01X37822Y41846D01*
G01X37849Y41775D01*
G01X37872Y41716D01*
G01X37891Y41670D01*
G01X37904Y41640D01*
G01X37911Y41630D01*
G01X37918Y41635D01*
G01X37959Y41676D01*
G01X37991Y41710D01*
G01X38030Y41752D01*
G01X38076Y41801D01*
G01X38128Y41857D01*
G01X38184Y41919D01*
G01X38246Y41987D01*
G01X38311Y42058D01*
G01X38379Y42135D01*
G01X38450Y42213D01*
G01X38560Y42337D01*
G01X38653Y42441D01*
G01X38729Y42529D01*
G01X38791Y42601D01*
G01X38839Y42659D01*
G01X38874Y42704D01*
G01X38898Y42738D01*
G01X38910Y42763D01*
G01X38913Y42779D01*
G01X38908Y42788D01*
G01X38896Y42792D01*
G37*
G36*
G01X37115Y42662D02*
G01X36824Y42756D01*
G01X37233Y42299D01*
G01X37315Y42207D01*
G01X37392Y42122D01*
G01X37462Y42044D01*
G01X37523Y41976D01*
G01X37614Y41878D01*
G01X37639Y41851D01*
G01X37649Y41842D01*
G01X37651Y41843D01*
G01X37651Y41850D01*
G01X37646Y41867D01*
G01X37636Y41899D01*
G01X37592Y42031D01*
G01X37554Y42140D01*
G01X37504Y42284D01*
G01X37406Y42567D01*
G01X37115Y42662D01*
G37*
G36*
G01X37712Y44078D02*
G01X37713Y44091D01*
G01X37707Y44088D01*
G01X37692Y44074D01*
G01X37669Y44051D01*
G01X37639Y44020D01*
G01X37601Y43981D01*
G01X37558Y43934D01*
G01X37509Y43881D01*
G01X37454Y43822D01*
G01X37395Y43757D01*
G01X37333Y43689D01*
G01X37267Y43615D01*
G01X37199Y43540D01*
G01X37118Y43448D01*
G01X37045Y43365D01*
G01X36979Y43289D01*
G01X36922Y43222D01*
G01X36873Y43162D01*
G01X36831Y43111D01*
G01X36797Y43066D01*
G01X36771Y43030D01*
G01X36752Y43001D01*
G01X36741Y42979D01*
G01X36738Y42965D01*
G01X36742Y42958D01*
G01X36784Y42943D01*
G01X36865Y42915D01*
G01X36973Y42878D01*
G01X37096Y42838D01*
G01X37405Y42736D01*
G01X37435Y42864D01*
G01X37440Y42886D01*
G01X37447Y42917D01*
G01X37456Y42956D01*
G01X37468Y43002D01*
G01X37480Y43055D01*
G01X37494Y43114D01*
G01X37509Y43177D01*
G01X37524Y43244D01*
G01X37541Y43314D01*
G01X37558Y43387D01*
G01X37576Y43461D01*
G01X37594Y43536D01*
G01X37619Y43645D01*
G01X37643Y43748D01*
G01X37664Y43842D01*
G01X37682Y43923D01*
G01X37696Y43992D01*
G01X37706Y44044D01*
G01X37712Y44078D01*
G37*
G36*
G01X37902Y44133D02*
G01X37898Y44141D01*
G01X37895Y44134D01*
G01X37889Y44113D01*
G01X37880Y44081D01*
G01X37869Y44038D01*
G01X37856Y43984D01*
G01X37841Y43923D01*
G01X37824Y43854D01*
G01X37806Y43780D01*
G01X37787Y43700D01*
G01X37768Y43616D01*
G01X37747Y43531D01*
G01X37707Y43357D01*
G01X37687Y43271D01*
G01X37668Y43188D01*
G01X37650Y43108D01*
G01X37633Y43033D01*
G01X37617Y42964D01*
G01X37604Y42902D01*
G01X37592Y42848D01*
G01X37583Y42804D01*
G01X37576Y42771D01*
G01X37573Y42750D01*
G01X37572Y42742D01*
G01X37581Y42741D01*
G01X37604Y42744D01*
G01X37639Y42748D01*
G01X37685Y42755D01*
G01X37741Y42764D01*
G01X37806Y42775D01*
G01X37878Y42787D01*
G01X37955Y42800D01*
G01X38038Y42815D01*
G01X38124Y42830D01*
G01X38213Y42846D01*
G01X38303Y42863D01*
G01X38392Y42879D01*
G01X38481Y42896D01*
G01X38566Y42912D01*
G01X38648Y42928D01*
G01X38725Y42942D01*
G01X38796Y42957D01*
G01X38859Y42969D01*
G01X38914Y42980D01*
G01X38958Y42990D01*
G01X38992Y42998D01*
G01X39012Y43004D01*
G01X39019Y43007D01*
G01X39015Y43015D01*
G01X39003Y43031D01*
G01X38983Y43056D01*
G01X38956Y43088D01*
G01X38923Y43127D01*
G01X38884Y43172D01*
G01X38840Y43223D01*
G01X38791Y43279D01*
G01X38738Y43339D01*
G01X38681Y43403D01*
G01X38621Y43470D01*
G01X38559Y43540D01*
G01X38494Y43612D01*
G01X38432Y43679D01*
G01X38375Y43740D01*
G01X38324Y43795D01*
G01X38277Y43843D01*
G01X38236Y43884D01*
G01X38201Y43917D01*
G01X38172Y43944D01*
G01X38150Y43961D01*
G01X38135Y43971D01*
G01X38127Y43972D01*
G01X38128Y43964D01*
G01X38161Y43865D01*
G01X38178Y43818D01*
G01X38196Y43765D01*
G01X38215Y43708D01*
G01X38256Y43591D01*
G01X38355Y43306D01*
G01X38592Y43228D01*
G01X38697Y43190D01*
G01X38772Y43156D01*
G01X38815Y43125D01*
G01X38829Y43096D01*
G01X38814Y43045D01*
G01X38768Y43023D01*
G01X38688Y43028D01*
G01X38577Y43062D01*
G01X38460Y43098D01*
G01X38383Y43101D01*
G01X38338Y43070D01*
G01X38317Y43002D01*
G01X38309Y42967D01*
G01X38294Y42941D01*
G01X38272Y42926D01*
G01X38244Y42921D01*
G01X38213Y42925D01*
G01X38194Y42942D01*
G01X38187Y42975D01*
G01X38188Y43030D01*
G01X38196Y43139D01*
G01X38046Y43112D01*
G01X37911Y43089D01*
G01X37829Y43085D01*
G01X37785Y43100D01*
G01X37763Y43136D01*
G01X37761Y43187D01*
G01X37797Y43224D01*
G01X37880Y43253D01*
G01X38015Y43275D01*
G01X38093Y43288D01*
G01X38149Y43304D01*
G01X38180Y43321D01*
G01X38186Y43340D01*
G01X38180Y43356D01*
G01X38170Y43385D01*
G01X38155Y43428D01*
G01X38137Y43480D01*
G01X38115Y43541D01*
G01X38091Y43610D01*
G01X38066Y43683D01*
G01X38012Y43837D01*
G01X37987Y43908D01*
G01X37964Y43973D01*
G01X37943Y44029D01*
G01X37925Y44075D01*
G01X37912Y44111D01*
G01X37902Y44133D01*
G37*

%LPD*%
G36*
G01X37358Y43135D02*
G01X37296Y43145D01*
G01X37211Y43139D01*
G01X37104Y43119D01*
G01X37061Y43105D01*
G01X37031Y43086D01*
G01X37014Y43060D01*
G01X37009Y43026D01*
G01X37014Y42989D01*
G01X37035Y42970D01*
G01X37084Y42964D01*
G01X37167Y42968D01*
G01X37276Y42986D01*
G01X37354Y43019D01*
G01X37395Y43062D01*
G01X37391Y43112D01*
G01X37358Y43135D01*
G37*

%LPD*%
G36*
G01X38150Y42509D02*
G01X38112Y42513D01*
G01X38076Y42499D01*
G01X38053Y42469D01*
G01X38042Y42433D01*
G01X38024Y42366D01*
G01X38000Y42278D01*
G01X37975Y42179D01*
G01X37946Y42055D01*
G01X37932Y41973D01*
G01X37934Y41921D01*
G01X37951Y41888D01*
G01X37969Y41874D01*
G01X37990Y41865D01*
G01X38010Y41863D01*
G01X38027Y41870D01*
G01X38040Y41887D01*
G01X38055Y41923D01*
G01X38072Y41972D01*
G01X38090Y42033D01*
G01X38109Y42101D01*
G01X38127Y42172D01*
G01X38144Y42244D01*
G01X38158Y42312D01*
G01X38170Y42374D01*
G01X38177Y42426D01*
G01X38180Y42464D01*
G01X38177Y42485D01*
G01X38150Y42509D01*
G37*

%LPD*%
G54D10*
G01X21690Y23499D02*
G01X21690Y26599D01*
G01X21690Y26598D02*
G01X24690Y26598D01*
G01X21690Y23499D02*
G01X24690Y23499D01*
G01X24690Y23498D02*
G01X24690Y26598D01*
G01X23049Y24779D02*
G01X21509Y24779D01*
G01X21509Y25298D01*
G01X23009Y25298D01*
G01X22089Y23509D02*
G01X22079Y23499D01*
G01X22079Y23889D01*
G01X24329Y23889D01*
G01X24329Y23499D01*
G01X24307Y26565D02*
G01X24317Y26575D01*
G01X24317Y26185D01*
G01X22067Y26185D01*
G01X22067Y26575D01*
G54D31*
G01X5573Y14638D02*
G01X6330Y15720D01*
G01X4634Y16907D01*
G01X3877Y15826D01*
G01X4923Y13711D02*
G01X4166Y12630D01*
G01X2470Y13817D01*
G01X3228Y14898D01*
G01X5086Y40810D02*
G01X4329Y41891D01*
G01X2633Y40704D01*
G01X3390Y39622D01*
G01X5736Y39882D02*
G01X6493Y38801D01*
G01X4797Y37614D01*
G01X4040Y38695D01*
G54D32*
G01X36979Y19940D02*
G01X36979Y18985D01*
G01X36979Y19940D02*
G01X37569Y19940D01*
G01X36979Y19485D02*
G01X37343Y19485D01*
G01X38143Y19940D02*
G01X38051Y19894D01*
G01X37960Y19802D01*
G01X37914Y19714D01*
G01X37868Y19576D01*
G01X37868Y19348D01*
G01X37914Y19213D01*
G01X37960Y19122D01*
G01X38051Y19030D01*
G01X38143Y18985D01*
G01X38323Y18985D01*
G01X38415Y19030D01*
G01X38506Y19122D01*
G01X38552Y19213D01*
G01X38597Y19348D01*
G01X38597Y19576D01*
G01X38552Y19714D01*
G01X38506Y19802D01*
G01X38415Y19894D01*
G01X38323Y19940D01*
G01X38143Y19940D01*
G01X39532Y19802D02*
G01X39443Y19894D01*
G01X39306Y19940D01*
G01X39123Y19940D01*
G01X38989Y19894D01*
G01X38897Y19802D01*
G01X38897Y19714D01*
G01X38943Y19622D01*
G01X38989Y19576D01*
G01X39078Y19531D01*
G01X39352Y19439D01*
G01X39443Y19393D01*
G01X39486Y19348D01*
G01X39532Y19259D01*
G01X39532Y19122D01*
G01X39443Y19030D01*
G01X39306Y18985D01*
G01X39123Y18985D01*
G01X38989Y19030D01*
G01X38897Y19122D01*
G01X40469Y19802D02*
G01X40378Y19894D01*
G01X40243Y19940D01*
G01X40061Y19940D01*
G01X39923Y19894D01*
G01X39832Y19802D01*
G01X39832Y19714D01*
G01X39878Y19622D01*
G01X39923Y19576D01*
G01X40015Y19531D01*
G01X40287Y19439D01*
G01X40378Y19393D01*
G01X40424Y19348D01*
G01X40469Y19259D01*
G01X40469Y19122D01*
G01X40378Y19030D01*
G01X40243Y18985D01*
G01X40061Y18985D01*
G01X39923Y19030D01*
G01X39832Y19122D01*
G01X41132Y19940D02*
G01X40769Y18985D01*
G01X41132Y19940D02*
G01X41496Y18985D01*
G01X40906Y19302D02*
G01X41361Y19302D01*
G01X41798Y19393D02*
G01X42616Y19393D01*
G01X42915Y19757D02*
G01X43007Y19802D01*
G01X43142Y19940D01*
G01X43142Y18985D01*
G01X43441Y19940D02*
G01X43441Y18985D01*
G01X43441Y19940D02*
G01X43850Y19940D01*
G01X43987Y19894D01*
G01X44033Y19848D01*
G01X44079Y19757D01*
G01X44079Y19668D01*
G01X44033Y19576D01*
G01X43987Y19531D01*
G01X43850Y19485D01*
G01X43441Y19485D02*
G01X43850Y19485D01*
G01X43987Y19439D01*
G01X44033Y19393D01*
G01X44079Y19302D01*
G01X44079Y19167D01*
G01X44033Y19076D01*
G01X43987Y19030D01*
G01X43850Y18985D01*
G01X43441Y18985D01*
G54D10*
G75*
G01X23490Y25049D02*
G03X23490Y25049I-300J0D01*
G01*
M00*
M02*
