G04 Layer: TopLayer*
G04 EasyEDA v6.3.22, 2020-01-22T11:07:26+01:00*
G04 244eb897874448418918cfb691dafd7b,6ac03ef627a24f5ab7c901ca926ad83b,10*
G04 Gerber Generator version 0.2*
G04 Scale: 100 percent, Rotated: No, Reflected: No *
G04 Dimensions in millimeters *
G04 leading zeros omitted , absolute positions ,3 integer and 3 decimal *
%FSLAX33Y33*%
%MOMM*%
G90*
G71D02*

%ADD11C,1.499997*%
%ADD12C,0.899998*%
%ADD13C,0.999998*%
%ADD14C,1.599997*%
%ADD15C,1.500022*%
%ADD16R,0.999998X4.999990*%
%ADD17R,3.499993X8.000009*%
%ADD18R,2.199996X1.199896*%
%ADD19R,1.299997X1.299997*%
%ADD21C,3.499993*%
%ADD22C,1.399997*%

%LPD*%
G54D11*
G01X31419Y45410D02*
G01X31429Y45400D01*
G01X34210Y45400D01*
G01X14719Y36950D02*
G01X14699Y36929D01*
G01X11819Y36929D01*
G01X31599Y36880D02*
G01X31650Y36930D01*
G01X34319Y36930D01*
G54D12*
G01X22484Y26886D02*
G01X21385Y26886D01*
G01X20784Y26286D01*
G01X20784Y23086D01*
G01X20984Y22886D01*
G01X22385Y22886D01*
G01X22386Y22884D01*
G54D11*
G01X14520Y45410D02*
G01X11719Y45410D01*
G01X11709Y45400D01*
G01X14709Y15670D02*
G01X14139Y16240D01*
G01X11590Y16240D01*
G01X14709Y6830D02*
G01X13729Y7810D01*
G01X11590Y7810D01*
G01X30729Y15830D02*
G01X31139Y16240D01*
G01X34089Y16240D01*
G01X30829Y6790D02*
G01X31850Y7810D01*
G01X34089Y7810D01*
G54D13*
G01X24889Y39840D02*
G01X26080Y39840D01*
G01X27609Y38310D01*
G01X27609Y18280D01*
G01X23710Y14379D01*
G54D14*
G01X5141Y38930D02*
G01X5069Y38930D01*
G01X4970Y38829D01*
G01X4977Y31680D01*
G01X4977Y31680D02*
G01X4978Y30120D01*
G01X4978Y30120D02*
G01X4991Y15610D01*
G01X3975Y40594D02*
G01X3644Y40594D01*
G01X1889Y38839D01*
G01X1889Y20701D01*
G01X1890Y20700D02*
G01X1890Y14988D01*
G01X2933Y13944D01*
G01X3825Y13944D01*
G01X4970Y38829D02*
G01X4970Y36240D01*
G01X7199Y36240D01*
G01X3974Y40594D02*
G01X3885Y40594D01*
G01X2370Y42109D01*
G01X2370Y42650D01*
G54D16*
G01X20649Y24969D03*
G01X25297Y24912D03*
G54D17*
G01X11809Y45659D03*
G01X34309Y45659D03*
G01X11819Y36929D03*
G01X34319Y36929D03*
G01X11590Y7810D03*
G01X34089Y7810D03*
G01X11590Y16240D03*
G01X34089Y16240D03*
G54D18*
G01X23189Y23050D03*
G54D19*
G01X24739Y25049D03*
G54D18*
G01X23189Y27050D03*
G36*
G01X2897Y13886D02*
G01X3563Y14836D01*
G01X4751Y14004D01*
G01X4085Y13054D01*
G01X2897Y13886D01*
G37*
G36*
G01X4063Y15550D02*
G01X4728Y16501D01*
G01X5916Y15669D01*
G01X5251Y14719D01*
G01X4063Y15550D01*
G37*
G36*
G01X4878Y38039D02*
G01X4213Y38989D01*
G01X5401Y39820D01*
G01X6066Y38870D01*
G01X4878Y38039D01*
G37*
G36*
G01X3713Y39703D02*
G01X3047Y40653D01*
G01X4235Y41485D01*
G01X4901Y40535D01*
G01X3713Y39703D01*
G37*
G54D21*
G01X3999Y47499D03*
G01X41999Y47499D03*
G01X40999Y7140D03*
G01X4999Y7140D03*
G54D22*
G01X7199Y36240D03*
G01X2369Y42650D03*
G54D15*
G01X31599Y36880D03*
G01X14720Y36949D03*
G01X14519Y45409D03*
G01X31420Y45409D03*
G01X14709Y15670D03*
G01X14709Y6830D03*
G01X30729Y15830D03*
G01X30830Y6790D03*
G01X23709Y14380D03*
G01X24889Y39840D03*
G01X4970Y22670D03*
G01X1890Y20700D03*
M00*
M02*
