G04 Layer: BottomPasteMaskLayer*
G04 EasyEDA v6.3.22, 2020-01-22T11:07:26+01:00*
G04 244eb897874448418918cfb691dafd7b,6ac03ef627a24f5ab7c901ca926ad83b,10*
G04 Gerber Generator version 0.2*
G04 Scale: 100 percent, Rotated: No, Reflected: No *
G04 Dimensions in millimeters *
G04 leading zeros omitted , absolute positions ,3 integer and 3 decimal *
%FSLAX33Y33*%
%MOMM*%
G90*
G71D02*

%ADD25R,2.499995X3.499993*%
%ADD26R,1.999996X1.999996*%

%LPD*%
G54D25*
G01X23709Y14380D03*
G01X20619Y14410D03*
G54D26*
G01X4999Y22709D03*
G01X4979Y19579D03*
G36*
G01X23470Y18030D02*
G01X22470Y18030D01*
G01X22470Y16930D01*
G01X23470Y16930D01*
G01X23470Y18030D01*
G37*
G36*
G01X22070Y18030D02*
G01X21070Y18030D01*
G01X21070Y16930D01*
G01X22070Y16930D01*
G01X22070Y18030D01*
G37*
G36*
G01X26459Y35420D02*
G01X26459Y36420D01*
G01X25459Y36420D01*
G01X25459Y35420D01*
G01X26459Y35420D01*
G37*
G36*
G01X26459Y37820D02*
G01X26459Y38820D01*
G01X25459Y38820D01*
G01X25459Y37820D01*
G01X26459Y37820D01*
G37*
G36*
G01X20029Y35269D02*
G01X20029Y36269D01*
G01X18929Y36269D01*
G01X18929Y35269D01*
G01X20029Y35269D01*
G37*
G36*
G01X20029Y36669D02*
G01X20029Y37669D01*
G01X18929Y37669D01*
G01X18929Y36669D01*
G01X20029Y36669D01*
G37*
G36*
G01X24094Y35210D02*
G01X24094Y36510D01*
G01X23544Y36510D01*
G01X23544Y35210D01*
G01X24094Y35210D01*
G37*
G36*
G01X23144Y35210D02*
G01X23144Y36510D01*
G01X22594Y36510D01*
G01X22594Y35210D01*
G01X23144Y35210D01*
G37*
G36*
G01X22194Y35210D02*
G01X22194Y36510D01*
G01X21644Y36510D01*
G01X21644Y35210D01*
G01X22194Y35210D01*
G37*
G36*
G01X22194Y37710D02*
G01X22194Y39010D01*
G01X21644Y39010D01*
G01X21644Y37710D01*
G01X22194Y37710D01*
G37*
G36*
G01X24094Y37710D02*
G01X24094Y39010D01*
G01X23544Y39010D01*
G01X23544Y37710D01*
G01X24094Y37710D01*
G37*
G36*
G01X23844Y7040D02*
G01X23844Y8340D01*
G01X23294Y8340D01*
G01X23294Y7040D01*
G01X23844Y7040D01*
G37*
G36*
G01X22894Y7040D02*
G01X22894Y8340D01*
G01X22344Y8340D01*
G01X22344Y7040D01*
G01X22894Y7040D01*
G37*
G36*
G01X21944Y7040D02*
G01X21944Y8340D01*
G01X21394Y8340D01*
G01X21394Y7040D01*
G01X21944Y7040D01*
G37*
G36*
G01X21944Y9540D02*
G01X21944Y10840D01*
G01X21394Y10840D01*
G01X21394Y9540D01*
G01X21944Y9540D01*
G37*
G36*
G01X23844Y9540D02*
G01X23844Y10840D01*
G01X23294Y10840D01*
G01X23294Y9540D01*
G01X23844Y9540D01*
G37*
G36*
G01X20259Y7069D02*
G01X20259Y8069D01*
G01X19159Y8069D01*
G01X19159Y7069D01*
G01X20259Y7069D01*
G37*
G36*
G01X20259Y8469D02*
G01X20259Y9469D01*
G01X19159Y9469D01*
G01X19159Y8469D01*
G01X20259Y8469D01*
G37*
G36*
G01X26209Y7250D02*
G01X26209Y8250D01*
G01X25209Y8250D01*
G01X25209Y7250D01*
G01X26209Y7250D01*
G37*
G36*
G01X26209Y9650D02*
G01X26209Y10650D01*
G01X25209Y10650D01*
G01X25209Y9650D01*
G01X26209Y9650D01*
G37*
M00*
M02*
