G04 Layer: BottomLayer*
G04 EasyEDA v6.3.22, 2020-01-22T11:07:26+01:00*
G04 244eb897874448418918cfb691dafd7b,6ac03ef627a24f5ab7c901ca926ad83b,10*
G04 Gerber Generator version 0.2*
G04 Scale: 100 percent, Rotated: No, Reflected: No *
G04 Dimensions in millimeters *
G04 leading zeros omitted , absolute positions ,3 integer and 3 decimal *
%FSLAX33Y33*%
%MOMM*%
G90*
G71D02*

%ADD14C,1.599997*%
%ADD15C,1.500022*%
%ADD21C,3.499993*%
%ADD22C,1.399997*%
%ADD23C,0.550012*%
%ADD24C,0.599999*%
%ADD25R,2.499995X3.499993*%
%ADD26R,1.999996X1.999996*%

%LPD*%
G54D23*
G01X25709Y7749D02*
G01X25709Y7559D01*
G01X26509Y6759D01*
G01X30800Y6759D01*
G01X30830Y6789D01*
G54D24*
G01X23820Y35860D02*
G01X23879Y35919D01*
G01X25960Y35919D01*
G01X23820Y38359D02*
G01X23859Y38319D01*
G01X25960Y38319D01*
G01X21920Y35859D02*
G01X21838Y35770D01*
G01X19479Y35770D01*
G54D23*
G01X30728Y15829D02*
G01X30779Y15781D01*
G01X30779Y6840D01*
G01X30830Y6789D01*
G01X21671Y7691D02*
G01X21671Y6070D01*
G01X22179Y5560D01*
G01X27800Y5560D01*
G01X28229Y5989D01*
G01X28229Y6759D01*
G01X23570Y7690D02*
G01X23570Y5740D01*
G01X21671Y7691D02*
G01X21550Y7570D01*
G01X19709Y7570D01*
G01X23570Y10189D02*
G01X23709Y10329D01*
G01X23709Y14380D01*
G01X25569Y10840D02*
G01X25569Y11260D01*
G01X25249Y11580D01*
G01X23709Y11580D01*
G01X14709Y15670D02*
G01X14709Y6830D01*
G01X14709Y14235D02*
G01X14884Y14410D01*
G01X20619Y14410D01*
G01X14719Y36950D02*
G01X14719Y45210D01*
G01X14520Y45410D01*
G01X14328Y15859D02*
G01X4178Y15859D01*
G01X510Y19527D01*
G01X510Y34079D01*
G01X1821Y35389D01*
G01X12588Y35389D01*
G01X14338Y37139D01*
G01X23709Y14380D02*
G01X22969Y15120D01*
G01X22969Y17480D01*
G01X20619Y14410D02*
G01X21569Y15360D01*
G01X21569Y17480D01*
G01X14719Y36950D02*
G01X18099Y36950D01*
G01X18319Y37169D01*
G01X19480Y37169D01*
G01X19709Y8970D02*
G01X14789Y8970D01*
G01X14709Y9050D01*
G01X22620Y7690D02*
G01X22620Y8609D01*
G01X22259Y8970D01*
G01X19709Y8970D01*
G01X19480Y37169D02*
G01X22580Y37169D01*
G01X22870Y36880D01*
G01X22870Y35860D01*
G01X21920Y35860D02*
G01X21920Y34599D01*
G01X22309Y34210D01*
G01X23399Y34210D01*
G01X23819Y34630D01*
G01X23819Y35860D01*
G01X23399Y34210D02*
G01X28929Y34210D01*
G01X31599Y36880D01*
G01X24889Y39840D02*
G01X24889Y38319D01*
G54D14*
G01X1889Y20700D02*
G01X3010Y19579D01*
G01X4979Y19579D01*
G54D25*
G01X23709Y14380D03*
G01X20619Y14410D03*
G54D26*
G01X4999Y22709D03*
G01X4979Y19579D03*
G36*
G01X23470Y18030D02*
G01X22470Y18030D01*
G01X22470Y16930D01*
G01X23470Y16930D01*
G01X23470Y18030D01*
G37*
G36*
G01X22070Y18030D02*
G01X21070Y18030D01*
G01X21070Y16930D01*
G01X22070Y16930D01*
G01X22070Y18030D01*
G37*
G36*
G01X26459Y35420D02*
G01X26459Y36420D01*
G01X25459Y36420D01*
G01X25459Y35420D01*
G01X26459Y35420D01*
G37*
G36*
G01X26459Y37820D02*
G01X26459Y38820D01*
G01X25459Y38820D01*
G01X25459Y37820D01*
G01X26459Y37820D01*
G37*
G36*
G01X20029Y35269D02*
G01X20029Y36269D01*
G01X18929Y36269D01*
G01X18929Y35269D01*
G01X20029Y35269D01*
G37*
G36*
G01X20029Y36669D02*
G01X20029Y37669D01*
G01X18929Y37669D01*
G01X18929Y36669D01*
G01X20029Y36669D01*
G37*
G36*
G01X24094Y35210D02*
G01X24094Y36510D01*
G01X23544Y36510D01*
G01X23544Y35210D01*
G01X24094Y35210D01*
G37*
G36*
G01X23144Y35210D02*
G01X23144Y36510D01*
G01X22594Y36510D01*
G01X22594Y35210D01*
G01X23144Y35210D01*
G37*
G36*
G01X22194Y35210D02*
G01X22194Y36510D01*
G01X21644Y36510D01*
G01X21644Y35210D01*
G01X22194Y35210D01*
G37*
G36*
G01X22194Y37710D02*
G01X22194Y39010D01*
G01X21644Y39010D01*
G01X21644Y37710D01*
G01X22194Y37710D01*
G37*
G36*
G01X24094Y37710D02*
G01X24094Y39010D01*
G01X23544Y39010D01*
G01X23544Y37710D01*
G01X24094Y37710D01*
G37*
G36*
G01X23844Y7040D02*
G01X23844Y8340D01*
G01X23294Y8340D01*
G01X23294Y7040D01*
G01X23844Y7040D01*
G37*
G36*
G01X22894Y7040D02*
G01X22894Y8340D01*
G01X22344Y8340D01*
G01X22344Y7040D01*
G01X22894Y7040D01*
G37*
G36*
G01X21944Y7040D02*
G01X21944Y8340D01*
G01X21394Y8340D01*
G01X21394Y7040D01*
G01X21944Y7040D01*
G37*
G36*
G01X21944Y9540D02*
G01X21944Y10840D01*
G01X21394Y10840D01*
G01X21394Y9540D01*
G01X21944Y9540D01*
G37*
G36*
G01X23844Y9540D02*
G01X23844Y10840D01*
G01X23294Y10840D01*
G01X23294Y9540D01*
G01X23844Y9540D01*
G37*
G36*
G01X20259Y7069D02*
G01X20259Y8069D01*
G01X19159Y8069D01*
G01X19159Y7069D01*
G01X20259Y7069D01*
G37*
G36*
G01X20259Y8469D02*
G01X20259Y9469D01*
G01X19159Y9469D01*
G01X19159Y8469D01*
G01X20259Y8469D01*
G37*
G36*
G01X26209Y7250D02*
G01X26209Y8250D01*
G01X25209Y8250D01*
G01X25209Y7250D01*
G01X26209Y7250D01*
G37*
G36*
G01X26209Y9650D02*
G01X26209Y10650D01*
G01X25209Y10650D01*
G01X25209Y9650D01*
G01X26209Y9650D01*
G37*
G54D21*
G01X3999Y47499D03*
G01X41999Y47499D03*
G01X40999Y7140D03*
G01X4999Y7140D03*
G54D22*
G01X7199Y36240D03*
G01X2369Y42650D03*
G54D15*
G01X31599Y36880D03*
G01X14720Y36949D03*
G01X14519Y45409D03*
G01X31420Y45409D03*
G01X14709Y15670D03*
G01X14709Y6830D03*
G01X30729Y15830D03*
G01X30830Y6790D03*
G01X23709Y14380D03*
G01X24889Y39840D03*
G01X4970Y22670D03*
G01X1890Y20700D03*
M00*
M02*
