G04 Layer: TopSolderMaskLayer*
G04 EasyEDA v6.3.22, 2020-01-22T11:07:26+01:00*
G04 244eb897874448418918cfb691dafd7b,6ac03ef627a24f5ab7c901ca926ad83b,10*
G04 Gerber Generator version 0.2*
G04 Scale: 100 percent, Rotated: No, Reflected: No *
G04 Dimensions in millimeters *
G04 leading zeros omitted , absolute positions ,3 integer and 3 decimal *
%FSLAX33Y33*%
%MOMM*%
G90*
G71D02*

%ADD35C,3.703193*%
%ADD36C,1.603197*%

%LPD*%
G36*
G01X20048Y22367D02*
G01X20048Y27571D01*
G01X21252Y27571D01*
G01X21252Y22367D01*
G01X20048Y22367D01*
G37*
G36*
G01X24696Y22311D02*
G01X24696Y27513D01*
G01X25897Y27513D01*
G01X25897Y22311D01*
G01X24696Y22311D01*
G37*
G54D35*
G01X3999Y47499D03*
G01X41999Y47499D03*
G01X40999Y7140D03*
G01X4999Y7140D03*
G54D36*
G01X7199Y36240D03*
G01X2369Y42650D03*
G36*
G01X9959Y41559D02*
G01X9959Y49761D01*
G01X13662Y49761D01*
G01X13662Y41559D01*
G01X9959Y41559D01*
G37*
G36*
G01X32458Y41559D02*
G01X32458Y49761D01*
G01X36161Y49761D01*
G01X36161Y41559D01*
G01X32458Y41559D01*
G37*
G36*
G01X9969Y32829D02*
G01X9969Y41031D01*
G01X13670Y41031D01*
G01X13670Y32829D01*
G01X9969Y32829D01*
G37*
G36*
G01X32468Y32829D02*
G01X32468Y41031D01*
G01X36172Y41031D01*
G01X36172Y32829D01*
G01X32468Y32829D01*
G37*
G36*
G01X9738Y3708D02*
G01X9738Y11912D01*
G01X13441Y11912D01*
G01X13441Y3708D01*
G01X9738Y3708D01*
G37*
G36*
G01X32237Y3708D02*
G01X32237Y11912D01*
G01X35941Y11912D01*
G01X35941Y3708D01*
G01X32237Y3708D01*
G37*
G36*
G01X9738Y12138D02*
G01X9738Y20340D01*
G01X13441Y20340D01*
G01X13441Y12138D01*
G01X9738Y12138D01*
G37*
G36*
G01X32237Y12138D02*
G01X32237Y20340D01*
G01X35941Y20340D01*
G01X35941Y12138D01*
G01X32237Y12138D01*
G37*
G36*
G01X21988Y22349D02*
G01X21988Y23751D01*
G01X24391Y23751D01*
G01X24391Y22349D01*
G01X21988Y22349D01*
G37*
G36*
G01X23987Y24297D02*
G01X23987Y25801D01*
G01X25491Y25801D01*
G01X25491Y24297D01*
G01X23987Y24297D01*
G37*
G36*
G01X21988Y26350D02*
G01X21988Y27752D01*
G01X24391Y27752D01*
G01X24391Y26350D01*
G01X21988Y26350D01*
G37*
G36*
G01X4109Y12913D02*
G01X2755Y13860D01*
G01X3538Y14978D01*
G01X4892Y14028D01*
G01X4109Y12913D01*
G37*
G36*
G01X5275Y14577D02*
G01X3921Y15524D01*
G01X4704Y16642D01*
G01X6057Y15694D01*
G01X5275Y14577D01*
G37*
G36*
G01X4853Y37896D02*
G01X4071Y39014D01*
G01X5425Y39961D01*
G01X6207Y38846D01*
G01X4853Y37896D01*
G37*
G36*
G01X3688Y39563D02*
G01X2905Y40678D01*
G01X4259Y41628D01*
G01X5041Y40510D01*
G01X3688Y39563D01*
G37*
M00*
M02*
