G04 Layer: BottomLayer*
G04 EasyEDA v6.3.22, 2020-01-22T11:07:26+01:00*
G04 3ac4b1cc3e28459caadfcca9b74a0810,6ac03ef627a24f5ab7c901ca926ad83b,10*
G04 Gerber Generator version 0.2*
G04 Scale: 100 percent, Rotated: No, Reflected: No *
G04 Dimensions in millimeters *
G04 leading zeros omitted , absolute positions ,3 integer and 3 decimal *
%FSLAX33Y33*%
%MOMM*%
G90*
G71D02*

%ADD11C,0.499999*%
%ADD12C,1.999996*%
%ADD13C,0.609600*%
%ADD18C,2.499995*%
%ADD19C,2.199996*%
%ADD20C,0.999998*%
%ADD21C,0.550012*%
%ADD22C,0.799998*%
%ADD23R,0.999998X1.999996*%
%ADD24R,1.574800X1.574800*%

%LPD*%
G36*
G01X57895Y63925D02*
G01X171Y63925D01*
G01X155Y63924D01*
G01X141Y63921D01*
G01X126Y63915D01*
G01X113Y63908D01*
G01X102Y63898D01*
G01X91Y63887D01*
G01X82Y63874D01*
G01X76Y63860D01*
G01X72Y63846D01*
G01X70Y63830D01*
G01X6Y62884D01*
G01X6Y146D01*
G01X7Y132D01*
G01X10Y117D01*
G01X15Y104D01*
G01X22Y91D01*
G01X31Y79D01*
G01X41Y69D01*
G01X65Y53D01*
G01X79Y48D01*
G01X93Y45D01*
G01X108Y44D01*
G01X57896Y170D01*
G01X57910Y172D01*
G01X57924Y175D01*
G01X57938Y180D01*
G01X57951Y187D01*
G01X57962Y195D01*
G01X57972Y206D01*
G01X57981Y217D01*
G01X57988Y230D01*
G01X57993Y243D01*
G01X57996Y258D01*
G01X57997Y272D01*
G01X57997Y63824D01*
G01X57996Y63838D01*
G01X57993Y63852D01*
G01X57988Y63866D01*
G01X57981Y63879D01*
G01X57972Y63890D01*
G01X57962Y63900D01*
G01X57950Y63909D01*
G01X57937Y63916D01*
G01X57924Y63921D01*
G01X57910Y63924D01*
G01X57895Y63925D01*
G37*

%LPC*%
G36*
G01X25795Y14757D02*
G01X25327Y14757D01*
G01X25327Y14570D01*
G01X25328Y14545D01*
G01X25332Y14519D01*
G01X25338Y14495D01*
G01X25347Y14471D01*
G01X25357Y14448D01*
G01X25370Y14426D01*
G01X25378Y14414D01*
G01X25383Y14399D01*
G01X25387Y14385D01*
G01X25388Y14370D01*
G01X25387Y14355D01*
G01X25383Y14340D01*
G01X25378Y14326D01*
G01X25370Y14313D01*
G01X25357Y14291D01*
G01X25347Y14268D01*
G01X25338Y14244D01*
G01X25332Y14220D01*
G01X25328Y14195D01*
G01X25327Y14170D01*
G01X25327Y13170D01*
G01X25328Y13145D01*
G01X25331Y13121D01*
G01X25337Y13097D01*
G01X25345Y13075D01*
G01X25355Y13052D01*
G01X25367Y13031D01*
G01X25382Y13011D01*
G01X25398Y12993D01*
G01X25416Y12975D01*
G01X25434Y12961D01*
G01X25455Y12948D01*
G01X25477Y12936D01*
G01X25499Y12927D01*
G01X25523Y12920D01*
G01X25538Y12916D01*
G01X25551Y12909D01*
G01X25563Y12900D01*
G01X25574Y12890D01*
G01X25584Y12878D01*
G01X25591Y12865D01*
G01X25597Y12851D01*
G01X25600Y12837D01*
G01X25601Y12822D01*
G01X25601Y11269D01*
G01X25602Y11234D01*
G01X25606Y11200D01*
G01X25611Y11165D01*
G01X25619Y11131D01*
G01X25629Y11098D01*
G01X25642Y11065D01*
G01X25656Y11034D01*
G01X25672Y11003D01*
G01X25690Y10973D01*
G01X25711Y10945D01*
G01X25733Y10918D01*
G01X25757Y10893D01*
G01X26938Y9714D01*
G01X26990Y9668D01*
G01X27018Y9649D01*
G01X27048Y9630D01*
G01X27079Y9614D01*
G01X27110Y9599D01*
G01X27143Y9587D01*
G01X27176Y9577D01*
G01X27210Y9569D01*
G01X27244Y9564D01*
G01X27279Y9560D01*
G01X27314Y9559D01*
G01X27320Y9559D01*
G01X27828Y9565D01*
G01X27829Y9565D01*
G01X27844Y9564D01*
G01X27860Y9560D01*
G01X27874Y9555D01*
G01X27888Y9546D01*
G01X27900Y9537D01*
G01X27910Y9525D01*
G01X27919Y9512D01*
G01X27944Y9467D01*
G01X27971Y9423D01*
G01X28001Y9380D01*
G01X28032Y9338D01*
G01X28065Y9298D01*
G01X28099Y9259D01*
G01X28135Y9222D01*
G01X28173Y9186D01*
G01X28211Y9152D01*
G01X28252Y9119D01*
G01X28293Y9088D01*
G01X28336Y9059D01*
G01X28380Y9031D01*
G01X28426Y9005D01*
G01X28471Y8982D01*
G01X28519Y8960D01*
G01X28567Y8940D01*
G01X28615Y8922D01*
G01X28665Y8906D01*
G01X28715Y8893D01*
G01X28765Y8881D01*
G01X28816Y8871D01*
G01X28868Y8864D01*
G01X28919Y8859D01*
G01X28971Y8856D01*
G01X29023Y8854D01*
G01X29074Y8856D01*
G01X29125Y8859D01*
G01X29176Y8864D01*
G01X29227Y8871D01*
G01X29277Y8880D01*
G01X29327Y8892D01*
G01X29377Y8905D01*
G01X29426Y8921D01*
G01X29474Y8938D01*
G01X29521Y8957D01*
G01X29568Y8979D01*
G01X29613Y9002D01*
G01X29658Y9027D01*
G01X29702Y9054D01*
G01X29744Y9082D01*
G01X29786Y9112D01*
G01X29826Y9144D01*
G01X29865Y9178D01*
G01X29902Y9213D01*
G01X29938Y9249D01*
G01X29972Y9287D01*
G01X30005Y9327D01*
G01X30036Y9368D01*
G01X30065Y9409D01*
G01X30093Y9452D01*
G01X30119Y9497D01*
G01X30143Y9542D01*
G01X30165Y9588D01*
G01X30186Y9635D01*
G01X30192Y9649D01*
G01X30201Y9661D01*
G01X30223Y9681D01*
G01X30237Y9688D01*
G01X30250Y9694D01*
G01X30265Y9697D01*
G01X30280Y9698D01*
G01X30804Y9698D01*
G01X30838Y9699D01*
G01X30873Y9702D01*
G01X30941Y9716D01*
G01X30974Y9726D01*
G01X31007Y9738D01*
G01X31039Y9753D01*
G01X31069Y9769D01*
G01X31099Y9788D01*
G01X31127Y9808D01*
G01X31154Y9830D01*
G01X31179Y9854D01*
G01X32569Y11244D01*
G01X32593Y11269D01*
G01X32615Y11296D01*
G01X32635Y11324D01*
G01X32654Y11354D01*
G01X32670Y11385D01*
G01X32685Y11416D01*
G01X32697Y11449D01*
G01X32707Y11482D01*
G01X32715Y11516D01*
G01X32721Y11551D01*
G01X32724Y11585D01*
G01X32725Y11620D01*
G01X32725Y12737D01*
G01X32726Y12752D01*
G01X32729Y12767D01*
G01X32735Y12781D01*
G01X32743Y12794D01*
G01X32752Y12806D01*
G01X32763Y12816D01*
G01X32776Y12825D01*
G01X32789Y12831D01*
G01X32810Y12841D01*
G01X32831Y12853D01*
G01X32850Y12866D01*
G01X32868Y12881D01*
G01X32884Y12898D01*
G01X32899Y12916D01*
G01X32912Y12935D01*
G01X32924Y12956D01*
G01X32933Y12978D01*
G01X32941Y13000D01*
G01X32946Y13023D01*
G01X32949Y13046D01*
G01X32950Y13069D01*
G01X32950Y14069D01*
G01X32949Y14093D01*
G01X32946Y14116D01*
G01X32940Y14140D01*
G01X32933Y14162D01*
G01X32923Y14184D01*
G01X32912Y14204D01*
G01X32898Y14224D01*
G01X32883Y14242D01*
G01X32866Y14259D01*
G01X32848Y14274D01*
G01X32828Y14288D01*
G01X32808Y14299D01*
G01X32786Y14308D01*
G01X32764Y14316D01*
G01X32741Y14322D01*
G01X32717Y14325D01*
G01X32694Y14326D01*
G01X31694Y14326D01*
G01X31670Y14325D01*
G01X31646Y14322D01*
G01X31623Y14316D01*
G01X31601Y14308D01*
G01X31579Y14299D01*
G01X31558Y14288D01*
G01X31539Y14274D01*
G01X31521Y14259D01*
G01X31504Y14242D01*
G01X31489Y14224D01*
G01X31476Y14204D01*
G01X31464Y14184D01*
G01X31454Y14162D01*
G01X31447Y14140D01*
G01X31442Y14116D01*
G01X31438Y14093D01*
G01X31437Y14070D01*
G01X31437Y13069D01*
G01X31438Y13046D01*
G01X31442Y13023D01*
G01X31447Y13000D01*
G01X31454Y12978D01*
G01X31463Y12956D01*
G01X31475Y12935D01*
G01X31488Y12916D01*
G01X31503Y12898D01*
G01X31519Y12881D01*
G01X31537Y12866D01*
G01X31556Y12853D01*
G01X31577Y12841D01*
G01X31598Y12831D01*
G01X31612Y12825D01*
G01X31624Y12816D01*
G01X31635Y12806D01*
G01X31645Y12794D01*
G01X31652Y12781D01*
G01X31657Y12767D01*
G01X31661Y12752D01*
G01X31662Y12737D01*
G01X31662Y11882D01*
G01X31661Y11866D01*
G01X31657Y11851D01*
G01X31651Y11836D01*
G01X31643Y11822D01*
G01X31632Y11810D01*
G01X30740Y10918D01*
G01X30728Y10908D01*
G01X30715Y10899D01*
G01X30700Y10893D01*
G01X30684Y10890D01*
G01X30668Y10888D01*
G01X30654Y10889D01*
G01X30639Y10892D01*
G01X30626Y10897D01*
G01X30614Y10904D01*
G01X30602Y10913D01*
G01X30592Y10923D01*
G01X30583Y10935D01*
G01X30576Y10948D01*
G01X30571Y10961D01*
G01X30568Y10975D01*
G01X30567Y10990D01*
G01X30570Y11014D01*
G01X30578Y11056D01*
G01X30584Y11098D01*
G01X30585Y11142D01*
G01X30585Y14160D01*
G01X30584Y14183D01*
G01X30580Y14207D01*
G01X30575Y14230D01*
G01X30568Y14252D01*
G01X30558Y14274D01*
G01X30546Y14295D01*
G01X30533Y14314D01*
G01X30518Y14332D01*
G01X30501Y14349D01*
G01X30483Y14364D01*
G01X30464Y14378D01*
G01X30443Y14389D01*
G01X30421Y14399D01*
G01X30399Y14407D01*
G01X30376Y14412D01*
G01X30352Y14415D01*
G01X30329Y14416D01*
G01X29778Y14416D01*
G01X29753Y14415D01*
G01X29728Y14411D01*
G01X29704Y14405D01*
G01X29680Y14396D01*
G01X29657Y14385D01*
G01X29635Y14372D01*
G01X29622Y14365D01*
G01X29608Y14359D01*
G01X29593Y14356D01*
G01X29578Y14355D01*
G01X29563Y14356D01*
G01X29549Y14359D01*
G01X29535Y14365D01*
G01X29522Y14372D01*
G01X29500Y14386D01*
G01X29477Y14396D01*
G01X29453Y14405D01*
G01X29429Y14411D01*
G01X29403Y14415D01*
G01X29378Y14416D01*
G01X29304Y14416D01*
G01X29304Y13898D01*
G01X29420Y13898D01*
G01X29435Y13897D01*
G01X29449Y13894D01*
G01X29462Y13889D01*
G01X29475Y13882D01*
G01X29487Y13873D01*
G01X29497Y13863D01*
G01X29506Y13851D01*
G01X29513Y13839D01*
G01X29518Y13825D01*
G01X29521Y13811D01*
G01X29522Y13796D01*
G01X29522Y13223D01*
G01X29521Y13208D01*
G01X29518Y13194D01*
G01X29513Y13181D01*
G01X29506Y13168D01*
G01X29497Y13156D01*
G01X29487Y13146D01*
G01X29475Y13138D01*
G01X29462Y13130D01*
G01X29449Y13125D01*
G01X29435Y13122D01*
G01X29420Y13121D01*
G01X29304Y13121D01*
G01X29304Y12603D01*
G01X29378Y12603D01*
G01X29409Y12605D01*
G01X29420Y12606D01*
G01X29435Y12605D01*
G01X29449Y12602D01*
G01X29462Y12597D01*
G01X29475Y12589D01*
G01X29487Y12581D01*
G01X29497Y12571D01*
G01X29506Y12559D01*
G01X29513Y12546D01*
G01X29518Y12532D01*
G01X29521Y12518D01*
G01X29522Y12504D01*
G01X29522Y11409D01*
G01X29521Y11395D01*
G01X29518Y11381D01*
G01X29513Y11367D01*
G01X29506Y11354D01*
G01X29497Y11343D01*
G01X29487Y11333D01*
G01X29475Y11324D01*
G01X29462Y11317D01*
G01X29449Y11312D01*
G01X29435Y11309D01*
G01X29420Y11308D01*
G01X29405Y11309D01*
G01X29391Y11312D01*
G01X29339Y11327D01*
G01X29288Y11339D01*
G01X29235Y11349D01*
G01X29182Y11357D01*
G01X29130Y11363D01*
G01X29076Y11366D01*
G01X29023Y11367D01*
G01X28968Y11366D01*
G01X28913Y11363D01*
G01X28859Y11356D01*
G01X28805Y11348D01*
G01X28787Y11347D01*
G01X28773Y11348D01*
G01X28758Y11351D01*
G01X28745Y11356D01*
G01X28732Y11363D01*
G01X28720Y11372D01*
G01X28710Y11382D01*
G01X28701Y11394D01*
G01X28694Y11406D01*
G01X28689Y11419D01*
G01X28686Y11434D01*
G01X28685Y11448D01*
G01X28685Y12504D01*
G01X28686Y12518D01*
G01X28689Y12532D01*
G01X28694Y12546D01*
G01X28701Y12559D01*
G01X28710Y12571D01*
G01X28720Y12581D01*
G01X28732Y12589D01*
G01X28745Y12597D01*
G01X28758Y12602D01*
G01X28773Y12605D01*
G01X28787Y12606D01*
G01X28798Y12605D01*
G01X28828Y12603D01*
G01X28902Y12603D01*
G01X28902Y13121D01*
G01X28787Y13121D01*
G01X28773Y13122D01*
G01X28758Y13125D01*
G01X28745Y13130D01*
G01X28732Y13138D01*
G01X28720Y13146D01*
G01X28710Y13156D01*
G01X28701Y13168D01*
G01X28694Y13181D01*
G01X28689Y13194D01*
G01X28686Y13208D01*
G01X28685Y13223D01*
G01X28685Y13796D01*
G01X28686Y13811D01*
G01X28689Y13825D01*
G01X28694Y13839D01*
G01X28701Y13851D01*
G01X28710Y13863D01*
G01X28720Y13873D01*
G01X28732Y13882D01*
G01X28745Y13889D01*
G01X28758Y13894D01*
G01X28772Y13897D01*
G01X28787Y13898D01*
G01X28902Y13898D01*
G01X28902Y14416D01*
G01X28828Y14416D01*
G01X28803Y14415D01*
G01X28778Y14411D01*
G01X28753Y14405D01*
G01X28729Y14396D01*
G01X28706Y14386D01*
G01X28685Y14372D01*
G01X28672Y14365D01*
G01X28658Y14360D01*
G01X28643Y14356D01*
G01X28628Y14355D01*
G01X28614Y14356D01*
G01X28599Y14360D01*
G01X28585Y14365D01*
G01X28572Y14372D01*
G01X28550Y14386D01*
G01X28527Y14396D01*
G01X28503Y14405D01*
G01X28479Y14411D01*
G01X28454Y14415D01*
G01X28429Y14416D01*
G01X27878Y14416D01*
G01X27855Y14415D01*
G01X27831Y14412D01*
G01X27808Y14407D01*
G01X27786Y14399D01*
G01X27764Y14389D01*
G01X27743Y14378D01*
G01X27724Y14364D01*
G01X27706Y14349D01*
G01X27689Y14332D01*
G01X27674Y14314D01*
G01X27661Y14295D01*
G01X27649Y14274D01*
G01X27639Y14252D01*
G01X27632Y14230D01*
G01X27626Y14207D01*
G01X27623Y14183D01*
G01X27622Y14160D01*
G01X27622Y10980D01*
G01X27623Y10943D01*
G01X27627Y10907D01*
G01X27634Y10871D01*
G01X27642Y10836D01*
G01X27653Y10801D01*
G01X27667Y10768D01*
G01X27673Y10747D01*
G01X27675Y10727D01*
G01X27674Y10712D01*
G01X27671Y10699D01*
G01X27666Y10685D01*
G01X27659Y10672D01*
G01X27641Y10650D01*
G01X27629Y10642D01*
G01X27616Y10635D01*
G01X27603Y10630D01*
G01X27589Y10626D01*
G01X27575Y10625D01*
G01X27572Y10625D01*
G01X27556Y10626D01*
G01X27541Y10630D01*
G01X27526Y10636D01*
G01X27513Y10645D01*
G01X27500Y10655D01*
G01X26694Y11460D01*
G01X26684Y11472D01*
G01X26675Y11486D01*
G01X26669Y11500D01*
G01X26665Y11516D01*
G01X26664Y11532D01*
G01X26664Y12821D01*
G01X26665Y12836D01*
G01X26668Y12851D01*
G01X26674Y12865D01*
G01X26682Y12878D01*
G01X26691Y12890D01*
G01X26702Y12900D01*
G01X26714Y12909D01*
G01X26728Y12916D01*
G01X26742Y12920D01*
G01X26764Y12926D01*
G01X26786Y12934D01*
G01X26806Y12944D01*
G01X26826Y12956D01*
G01X26844Y12970D01*
G01X26861Y12985D01*
G01X26877Y13002D01*
G01X26891Y13020D01*
G01X26904Y13039D01*
G01X26915Y13059D01*
G01X26924Y13080D01*
G01X26931Y13102D01*
G01X26936Y13124D01*
G01X26939Y13147D01*
G01X26940Y13170D01*
G01X26940Y14170D01*
G01X26939Y14195D01*
G01X26935Y14220D01*
G01X26928Y14244D01*
G01X26920Y14268D01*
G01X26909Y14291D01*
G01X26896Y14313D01*
G01X26889Y14326D01*
G01X26883Y14340D01*
G01X26880Y14355D01*
G01X26879Y14370D01*
G01X26880Y14385D01*
G01X26883Y14399D01*
G01X26889Y14414D01*
G01X26896Y14426D01*
G01X26909Y14448D01*
G01X26920Y14471D01*
G01X26928Y14495D01*
G01X26935Y14519D01*
G01X26939Y14545D01*
G01X26940Y14570D01*
G01X26940Y14757D01*
G01X26472Y14757D01*
G01X26472Y14528D01*
G01X26471Y14513D01*
G01X26468Y14499D01*
G01X26463Y14486D01*
G01X26456Y14473D01*
G01X26447Y14461D01*
G01X26437Y14451D01*
G01X26425Y14443D01*
G01X26412Y14435D01*
G01X26399Y14430D01*
G01X26384Y14427D01*
G01X26370Y14426D01*
G01X25896Y14426D01*
G01X25882Y14427D01*
G01X25868Y14430D01*
G01X25854Y14435D01*
G01X25841Y14443D01*
G01X25830Y14451D01*
G01X25820Y14461D01*
G01X25811Y14473D01*
G01X25804Y14486D01*
G01X25799Y14499D01*
G01X25796Y14513D01*
G01X25795Y14528D01*
G01X25795Y14757D01*
G37*
G36*
G01X7515Y10486D02*
G01X6863Y10486D01*
G01X6891Y10434D01*
G01X6921Y10384D01*
G01X6952Y10335D01*
G01X6986Y10287D01*
G01X7021Y10240D01*
G01X7059Y10195D01*
G01X7098Y10151D01*
G01X7138Y10109D01*
G01X7180Y10069D01*
G01X7224Y10030D01*
G01X7269Y9992D01*
G01X7316Y9957D01*
G01X7364Y9923D01*
G01X7413Y9892D01*
G01X7463Y9862D01*
G01X7515Y9835D01*
G01X7515Y10486D01*
G37*
G36*
G01X9544Y10486D02*
G01X8892Y10486D01*
G01X8892Y9835D01*
G01X8943Y9862D01*
G01X8994Y9892D01*
G01X9043Y9923D01*
G01X9091Y9957D01*
G01X9138Y9992D01*
G01X9183Y10030D01*
G01X9227Y10069D01*
G01X9269Y10109D01*
G01X9310Y10151D01*
G01X9348Y10195D01*
G01X9385Y10240D01*
G01X9421Y10287D01*
G01X9454Y10335D01*
G01X9486Y10384D01*
G01X9516Y10434D01*
G01X9544Y10486D01*
G37*
G36*
G01X51143Y10486D02*
G01X50492Y10486D01*
G01X50492Y9835D01*
G01X50543Y9862D01*
G01X50594Y9892D01*
G01X50643Y9923D01*
G01X50691Y9957D01*
G01X50737Y9992D01*
G01X50783Y10030D01*
G01X50826Y10069D01*
G01X50868Y10109D01*
G01X50909Y10151D01*
G01X50948Y10195D01*
G01X50985Y10240D01*
G01X51021Y10287D01*
G01X51054Y10335D01*
G01X51086Y10384D01*
G01X51116Y10434D01*
G01X51143Y10486D01*
G37*
G36*
G01X49115Y10486D02*
G01X48464Y10486D01*
G01X48491Y10434D01*
G01X48521Y10384D01*
G01X48553Y10335D01*
G01X48586Y10287D01*
G01X48622Y10240D01*
G01X48659Y10195D01*
G01X48698Y10151D01*
G01X48738Y10109D01*
G01X48780Y10069D01*
G01X48824Y10030D01*
G01X48869Y9992D01*
G01X48916Y9957D01*
G01X48964Y9923D01*
G01X49013Y9892D01*
G01X49064Y9862D01*
G01X49115Y9835D01*
G01X49115Y10486D01*
G37*
G36*
G01X8943Y12487D02*
G01X8892Y12514D01*
G01X8892Y11863D01*
G01X9544Y11863D01*
G01X9516Y11914D01*
G01X9486Y11965D01*
G01X9454Y12014D01*
G01X9421Y12062D01*
G01X9385Y12108D01*
G01X9348Y12154D01*
G01X9310Y12197D01*
G01X9269Y12240D01*
G01X9227Y12280D01*
G01X9183Y12319D01*
G01X9138Y12356D01*
G01X9091Y12392D01*
G01X9043Y12425D01*
G01X8994Y12457D01*
G01X8943Y12487D01*
G37*
G36*
G01X7515Y11863D02*
G01X7515Y12514D01*
G01X7463Y12487D01*
G01X7413Y12457D01*
G01X7364Y12425D01*
G01X7316Y12392D01*
G01X7269Y12356D01*
G01X7224Y12319D01*
G01X7180Y12280D01*
G01X7138Y12240D01*
G01X7098Y12197D01*
G01X7059Y12154D01*
G01X7021Y12108D01*
G01X6986Y12062D01*
G01X6952Y12014D01*
G01X6921Y11965D01*
G01X6891Y11914D01*
G01X6863Y11863D01*
G01X7515Y11863D01*
G37*
G36*
G01X49115Y11863D02*
G01X49115Y12514D01*
G01X49064Y12487D01*
G01X49013Y12457D01*
G01X48964Y12425D01*
G01X48916Y12392D01*
G01X48869Y12356D01*
G01X48824Y12319D01*
G01X48780Y12280D01*
G01X48738Y12240D01*
G01X48698Y12197D01*
G01X48659Y12154D01*
G01X48622Y12108D01*
G01X48586Y12062D01*
G01X48553Y12014D01*
G01X48521Y11965D01*
G01X48491Y11914D01*
G01X48464Y11863D01*
G01X49115Y11863D01*
G37*
G36*
G01X50543Y12487D02*
G01X50492Y12514D01*
G01X50492Y11863D01*
G01X51143Y11863D01*
G01X51116Y11914D01*
G01X51086Y11965D01*
G01X51054Y12014D01*
G01X51021Y12062D01*
G01X50985Y12108D01*
G01X50948Y12154D01*
G01X50909Y12197D01*
G01X50868Y12240D01*
G01X50826Y12280D01*
G01X50783Y12319D01*
G01X50737Y12356D01*
G01X50691Y12392D01*
G01X50643Y12425D01*
G01X50594Y12457D01*
G01X50543Y12487D01*
G37*
G36*
G01X11851Y14853D02*
G01X11199Y14853D01*
G01X11227Y14801D01*
G01X11257Y14751D01*
G01X11289Y14702D01*
G01X11322Y14654D01*
G01X11358Y14607D01*
G01X11395Y14562D01*
G01X11433Y14518D01*
G01X11474Y14476D01*
G01X11516Y14435D01*
G01X11560Y14397D01*
G01X11605Y14359D01*
G01X11652Y14324D01*
G01X11700Y14291D01*
G01X11749Y14259D01*
G01X11799Y14229D01*
G01X11851Y14201D01*
G01X11851Y14853D01*
G37*
G36*
G01X13879Y14853D02*
G01X13228Y14853D01*
G01X13228Y14201D01*
G01X13280Y14229D01*
G01X13330Y14259D01*
G01X13379Y14291D01*
G01X13427Y14324D01*
G01X13474Y14359D01*
G01X13519Y14397D01*
G01X13562Y14435D01*
G01X13605Y14476D01*
G01X13645Y14518D01*
G01X13684Y14562D01*
G01X13721Y14607D01*
G01X13757Y14654D01*
G01X13790Y14702D01*
G01X13822Y14751D01*
G01X13852Y14801D01*
G01X13879Y14853D01*
G37*
G36*
G01X44781Y14853D02*
G01X44129Y14853D01*
G01X44157Y14801D01*
G01X44187Y14751D01*
G01X44219Y14702D01*
G01X44252Y14654D01*
G01X44287Y14607D01*
G01X44325Y14562D01*
G01X44364Y14518D01*
G01X44404Y14476D01*
G01X44446Y14435D01*
G01X44490Y14397D01*
G01X44535Y14359D01*
G01X44582Y14324D01*
G01X44630Y14291D01*
G01X44679Y14259D01*
G01X44729Y14229D01*
G01X44781Y14201D01*
G01X44781Y14853D01*
G37*
G36*
G01X46810Y14853D02*
G01X46158Y14853D01*
G01X46158Y14201D01*
G01X46210Y14229D01*
G01X46260Y14259D01*
G01X46309Y14291D01*
G01X46357Y14324D01*
G01X46404Y14359D01*
G01X46449Y14397D01*
G01X46493Y14435D01*
G01X46535Y14476D01*
G01X46575Y14518D01*
G01X46614Y14562D01*
G01X46652Y14607D01*
G01X46687Y14654D01*
G01X46720Y14702D01*
G01X46752Y14751D01*
G01X46782Y14801D01*
G01X46810Y14853D01*
G37*
G36*
G01X28429Y16916D02*
G01X27878Y16916D01*
G01X27855Y16915D01*
G01X27831Y16911D01*
G01X27808Y16906D01*
G01X27785Y16899D01*
G01X27764Y16889D01*
G01X27743Y16877D01*
G01X27724Y16864D01*
G01X27706Y16849D01*
G01X27689Y16832D01*
G01X27674Y16814D01*
G01X27661Y16795D01*
G01X27649Y16774D01*
G01X27639Y16752D01*
G01X27632Y16730D01*
G01X27626Y16707D01*
G01X27623Y16683D01*
G01X27622Y16659D01*
G01X27622Y15360D01*
G01X27623Y15336D01*
G01X27626Y15312D01*
G01X27632Y15289D01*
G01X27639Y15267D01*
G01X27649Y15245D01*
G01X27661Y15224D01*
G01X27674Y15205D01*
G01X27689Y15187D01*
G01X27706Y15170D01*
G01X27724Y15155D01*
G01X27743Y15141D01*
G01X27764Y15130D01*
G01X27785Y15120D01*
G01X27808Y15113D01*
G01X27831Y15107D01*
G01X27855Y15104D01*
G01X27878Y15103D01*
G01X28429Y15103D01*
G01X28452Y15104D01*
G01X28475Y15107D01*
G01X28499Y15113D01*
G01X28521Y15120D01*
G01X28543Y15130D01*
G01X28563Y15141D01*
G01X28583Y15155D01*
G01X28601Y15170D01*
G01X28618Y15187D01*
G01X28633Y15205D01*
G01X28647Y15224D01*
G01X28658Y15245D01*
G01X28668Y15267D01*
G01X28675Y15289D01*
G01X28681Y15312D01*
G01X28684Y15336D01*
G01X28685Y15360D01*
G01X28685Y16659D01*
G01X28684Y16683D01*
G01X28681Y16707D01*
G01X28675Y16730D01*
G01X28668Y16752D01*
G01X28658Y16774D01*
G01X28647Y16795D01*
G01X28633Y16814D01*
G01X28618Y16832D01*
G01X28601Y16849D01*
G01X28583Y16864D01*
G01X28563Y16877D01*
G01X28543Y16889D01*
G01X28521Y16899D01*
G01X28499Y16906D01*
G01X28475Y16911D01*
G01X28452Y16915D01*
G01X28429Y16916D01*
G37*
G36*
G01X21838Y49616D02*
G01X21288Y49616D01*
G01X21264Y49615D01*
G01X21240Y49611D01*
G01X21217Y49606D01*
G01X21194Y49598D01*
G01X21172Y49588D01*
G01X21151Y49576D01*
G01X21131Y49562D01*
G01X21113Y49547D01*
G01X21096Y49530D01*
G01X21081Y49510D01*
G01X21068Y49491D01*
G01X21057Y49469D01*
G01X21047Y49447D01*
G01X21040Y49424D01*
G01X21035Y49400D01*
G01X21033Y49376D01*
G01X21030Y49361D01*
G01X21026Y49346D01*
G01X21019Y49333D01*
G01X21011Y49320D01*
G01X21001Y49309D01*
G01X20988Y49299D01*
G01X20975Y49291D01*
G01X20961Y49286D01*
G01X20946Y49282D01*
G01X20931Y49281D01*
G01X20256Y49281D01*
G01X20241Y49282D01*
G01X20226Y49286D01*
G01X20212Y49291D01*
G01X20199Y49298D01*
G01X20187Y49308D01*
G01X20177Y49319D01*
G01X20168Y49332D01*
G01X20161Y49345D01*
G01X20152Y49367D01*
G01X20140Y49387D01*
G01X20127Y49406D01*
G01X20112Y49424D01*
G01X20095Y49440D01*
G01X20077Y49455D01*
G01X20057Y49469D01*
G01X20037Y49480D01*
G01X20015Y49489D01*
G01X19993Y49497D01*
G01X19970Y49502D01*
G01X19947Y49505D01*
G01X19923Y49506D01*
G01X18923Y49506D01*
G01X18900Y49505D01*
G01X18877Y49502D01*
G01X18854Y49497D01*
G01X18831Y49489D01*
G01X18810Y49480D01*
G01X18789Y49469D01*
G01X18770Y49455D01*
G01X18752Y49440D01*
G01X18735Y49424D01*
G01X18720Y49406D01*
G01X18706Y49387D01*
G01X18695Y49367D01*
G01X18685Y49345D01*
G01X18679Y49332D01*
G01X18670Y49319D01*
G01X18660Y49308D01*
G01X18648Y49298D01*
G01X18635Y49291D01*
G01X18621Y49286D01*
G01X18606Y49282D01*
G01X18591Y49281D01*
G01X17764Y49281D01*
G01X17729Y49280D01*
G01X17694Y49277D01*
G01X17660Y49271D01*
G01X17626Y49263D01*
G01X17592Y49253D01*
G01X17560Y49241D01*
G01X17528Y49226D01*
G01X17497Y49210D01*
G01X17468Y49191D01*
G01X17440Y49171D01*
G01X17413Y49149D01*
G01X17388Y49125D01*
G01X16832Y48570D01*
G01X16820Y48559D01*
G01X16806Y48551D01*
G01X16791Y48545D01*
G01X16776Y48541D01*
G01X16760Y48540D01*
G01X16745Y48541D01*
G01X16729Y48545D01*
G01X16714Y48551D01*
G01X16692Y48561D01*
G01X16670Y48568D01*
G01X16647Y48574D01*
G01X16623Y48578D01*
G01X16599Y48579D01*
G01X16573Y48577D01*
G01X16549Y48574D01*
G01X16524Y48567D01*
G01X16500Y48559D01*
G01X16478Y48548D01*
G01X16456Y48535D01*
G01X16436Y48520D01*
G01X16417Y48503D01*
G01X15640Y47726D01*
G01X15622Y47707D01*
G01X15608Y47687D01*
G01X15594Y47665D01*
G01X15584Y47642D01*
G01X15575Y47619D01*
G01X15569Y47594D01*
G01X15566Y47569D01*
G01X15565Y47544D01*
G01X15566Y47520D01*
G01X15569Y47497D01*
G01X15574Y47473D01*
G01X15582Y47450D01*
G01X15592Y47429D01*
G01X15598Y47414D01*
G01X15602Y47399D01*
G01X15603Y47383D01*
G01X15602Y47367D01*
G01X15598Y47351D01*
G01X15592Y47337D01*
G01X15583Y47323D01*
G01X15573Y47311D01*
G01X14118Y45855D01*
G01X14094Y45830D01*
G01X14072Y45803D01*
G01X14052Y45775D01*
G01X14033Y45746D01*
G01X14017Y45715D01*
G01X14002Y45683D01*
G01X13990Y45651D01*
G01X13980Y45617D01*
G01X13972Y45583D01*
G01X13966Y45549D01*
G01X13963Y45514D01*
G01X13962Y45479D01*
G01X13962Y44465D01*
G01X13961Y44451D01*
G01X13958Y44436D01*
G01X13953Y44423D01*
G01X13946Y44410D01*
G01X13937Y44398D01*
G01X13927Y44388D01*
G01X13915Y44380D01*
G01X13902Y44373D01*
G01X13889Y44368D01*
G01X13875Y44364D01*
G01X13860Y44363D01*
G01X13706Y44363D01*
G01X13682Y44362D01*
G01X13659Y44359D01*
G01X13636Y44354D01*
G01X13613Y44346D01*
G01X13591Y44337D01*
G01X13571Y44325D01*
G01X13551Y44311D01*
G01X13533Y44297D01*
G01X13516Y44280D01*
G01X13502Y44262D01*
G01X13488Y44242D01*
G01X13476Y44222D01*
G01X13467Y44200D01*
G01X13459Y44177D01*
G01X13454Y44154D01*
G01X13451Y44131D01*
G01X13450Y44107D01*
G01X13450Y44078D01*
G01X13449Y44063D01*
G01X13445Y44049D01*
G01X13440Y44036D01*
G01X13433Y44023D01*
G01X13425Y44011D01*
G01X13415Y44001D01*
G01X13403Y43992D01*
G01X13390Y43985D01*
G01X13377Y43980D01*
G01X13362Y43977D01*
G01X13348Y43976D01*
G01X12403Y43976D01*
G01X12367Y43975D01*
G01X12330Y43972D01*
G01X12294Y43967D01*
G01X12257Y43959D01*
G01X12222Y43950D01*
G01X12187Y43939D01*
G01X12152Y43926D01*
G01X12119Y43911D01*
G01X12086Y43894D01*
G01X12054Y43876D01*
G01X12024Y43855D01*
G01X11994Y43833D01*
G01X11966Y43809D01*
G01X11939Y43784D01*
G01X9689Y41534D01*
G01X9664Y41507D01*
G01X9640Y41479D01*
G01X9618Y41449D01*
G01X9598Y41419D01*
G01X9579Y41387D01*
G01X9562Y41354D01*
G01X9547Y41321D01*
G01X9534Y41286D01*
G01X9522Y41251D01*
G01X9513Y41216D01*
G01X9506Y41180D01*
G01X9501Y41143D01*
G01X9498Y41106D01*
G01X9497Y41069D01*
G01X9497Y21889D01*
G01X9498Y21853D01*
G01X9501Y21816D01*
G01X9506Y21780D01*
G01X9513Y21744D01*
G01X9522Y21708D01*
G01X9534Y21673D01*
G01X9547Y21638D01*
G01X9562Y21605D01*
G01X9579Y21572D01*
G01X9598Y21540D01*
G01X9618Y21510D01*
G01X9640Y21480D01*
G01X9664Y21452D01*
G01X9689Y21426D01*
G01X13139Y17975D01*
G01X13166Y17950D01*
G01X13194Y17926D01*
G01X13224Y17904D01*
G01X13254Y17884D01*
G01X13286Y17865D01*
G01X13319Y17848D01*
G01X13352Y17833D01*
G01X13387Y17820D01*
G01X13422Y17809D01*
G01X13457Y17799D01*
G01X13493Y17792D01*
G01X13530Y17787D01*
G01X13567Y17784D01*
G01X13604Y17783D01*
G01X29009Y17783D01*
G01X29026Y17782D01*
G01X29041Y17778D01*
G01X29055Y17772D01*
G01X29069Y17764D01*
G01X29081Y17753D01*
G01X29367Y17467D01*
G01X29378Y17455D01*
G01X29386Y17441D01*
G01X29392Y17427D01*
G01X29396Y17411D01*
G01X29397Y17396D01*
G01X29397Y16009D01*
G01X29398Y15971D01*
G01X29401Y15933D01*
G01X29407Y15895D01*
G01X29415Y15858D01*
G01X29425Y15821D01*
G01X29436Y15785D01*
G01X29451Y15749D01*
G01X29467Y15715D01*
G01X29485Y15681D01*
G01X29505Y15649D01*
G01X29512Y15636D01*
G01X29518Y15622D01*
G01X29521Y15607D01*
G01X29522Y15593D01*
G01X29522Y15360D01*
G01X29523Y15336D01*
G01X29526Y15312D01*
G01X29531Y15289D01*
G01X29539Y15267D01*
G01X29549Y15245D01*
G01X29560Y15224D01*
G01X29574Y15205D01*
G01X29589Y15187D01*
G01X29606Y15170D01*
G01X29624Y15155D01*
G01X29643Y15141D01*
G01X29664Y15130D01*
G01X29686Y15120D01*
G01X29708Y15113D01*
G01X29731Y15107D01*
G01X29754Y15104D01*
G01X29778Y15103D01*
G01X30329Y15103D01*
G01X30352Y15104D01*
G01X30376Y15108D01*
G01X30400Y15113D01*
G01X30423Y15121D01*
G01X30445Y15131D01*
G01X30466Y15143D01*
G01X30485Y15157D01*
G01X30504Y15172D01*
G01X30521Y15190D01*
G01X30536Y15209D01*
G01X30549Y15228D01*
G01X30560Y15250D01*
G01X30570Y15272D01*
G01X30577Y15296D01*
G01X30582Y15319D01*
G01X30585Y15343D01*
G01X30587Y15358D01*
G01X30591Y15373D01*
G01X30597Y15386D01*
G01X30606Y15399D01*
G01X30617Y15410D01*
G01X30628Y15420D01*
G01X30641Y15428D01*
G01X30656Y15433D01*
G01X30670Y15437D01*
G01X30686Y15438D01*
G01X31361Y15438D01*
G01X31376Y15437D01*
G01X31391Y15434D01*
G01X31405Y15428D01*
G01X31418Y15420D01*
G01X31430Y15411D01*
G01X31440Y15400D01*
G01X31449Y15387D01*
G01X31455Y15374D01*
G01X31465Y15353D01*
G01X31477Y15333D01*
G01X31490Y15313D01*
G01X31505Y15295D01*
G01X31522Y15279D01*
G01X31540Y15264D01*
G01X31559Y15251D01*
G01X31580Y15239D01*
G01X31602Y15230D01*
G01X31624Y15222D01*
G01X31647Y15217D01*
G01X31670Y15214D01*
G01X31694Y15213D01*
G01X32694Y15213D01*
G01X32717Y15214D01*
G01X32741Y15217D01*
G01X32764Y15223D01*
G01X32786Y15230D01*
G01X32808Y15240D01*
G01X32828Y15251D01*
G01X32848Y15265D01*
G01X32866Y15280D01*
G01X32883Y15297D01*
G01X32898Y15315D01*
G01X32912Y15335D01*
G01X32923Y15355D01*
G01X32933Y15377D01*
G01X32940Y15399D01*
G01X32946Y15423D01*
G01X32949Y15446D01*
G01X32950Y15469D01*
G01X32950Y16469D01*
G01X32949Y16493D01*
G01X32946Y16517D01*
G01X32940Y16540D01*
G01X32933Y16562D01*
G01X32923Y16584D01*
G01X32912Y16605D01*
G01X32898Y16624D01*
G01X32883Y16642D01*
G01X32866Y16659D01*
G01X32848Y16674D01*
G01X32828Y16687D01*
G01X32808Y16699D01*
G01X32786Y16709D01*
G01X32764Y16716D01*
G01X32741Y16721D01*
G01X32717Y16725D01*
G01X32694Y16726D01*
G01X31694Y16726D01*
G01X31670Y16725D01*
G01X31647Y16721D01*
G01X31624Y16716D01*
G01X31602Y16709D01*
G01X31580Y16700D01*
G01X31560Y16688D01*
G01X31540Y16675D01*
G01X31522Y16661D01*
G01X31506Y16644D01*
G01X31490Y16626D01*
G01X31477Y16607D01*
G01X31465Y16586D01*
G01X31455Y16565D01*
G01X31449Y16551D01*
G01X31440Y16539D01*
G01X31430Y16528D01*
G01X31418Y16519D01*
G01X31405Y16511D01*
G01X31391Y16506D01*
G01X31376Y16502D01*
G01X31361Y16501D01*
G01X30812Y16501D01*
G01X30797Y16502D01*
G01X30783Y16505D01*
G01X30769Y16510D01*
G01X30757Y16517D01*
G01X30745Y16526D01*
G01X30735Y16536D01*
G01X30726Y16548D01*
G01X30719Y16560D01*
G01X30714Y16574D01*
G01X30711Y16588D01*
G01X30710Y16603D01*
G01X30710Y17710D01*
G01X30709Y17746D01*
G01X30706Y17783D01*
G01X30701Y17819D01*
G01X30694Y17855D01*
G01X30685Y17891D01*
G01X30673Y17926D01*
G01X30660Y17960D01*
G01X30645Y17995D01*
G01X30628Y18027D01*
G01X30609Y18059D01*
G01X30589Y18090D01*
G01X30567Y18119D01*
G01X30543Y18147D01*
G01X30518Y18174D01*
G01X29788Y18904D01*
G01X29761Y18929D01*
G01X29733Y18953D01*
G01X29703Y18975D01*
G01X29673Y18995D01*
G01X29641Y19014D01*
G01X29608Y19031D01*
G01X29575Y19046D01*
G01X29540Y19059D01*
G01X29505Y19070D01*
G01X29469Y19080D01*
G01X29433Y19087D01*
G01X29397Y19092D01*
G01X29360Y19095D01*
G01X29323Y19096D01*
G01X13918Y19096D01*
G01X13901Y19097D01*
G01X13886Y19101D01*
G01X13871Y19107D01*
G01X13858Y19116D01*
G01X13845Y19126D01*
G01X10840Y22132D01*
G01X10829Y22144D01*
G01X10821Y22158D01*
G01X10815Y22172D01*
G01X10811Y22188D01*
G01X10810Y22204D01*
G01X10810Y40755D01*
G01X10811Y40771D01*
G01X10815Y40787D01*
G01X10821Y40802D01*
G01X10829Y40815D01*
G01X10840Y40828D01*
G01X12646Y42633D01*
G01X12658Y42644D01*
G01X12671Y42652D01*
G01X12686Y42658D01*
G01X12701Y42662D01*
G01X12718Y42663D01*
G01X13348Y42663D01*
G01X13362Y42662D01*
G01X13377Y42659D01*
G01X13390Y42654D01*
G01X13403Y42647D01*
G01X13415Y42638D01*
G01X13425Y42628D01*
G01X13433Y42616D01*
G01X13440Y42604D01*
G01X13445Y42590D01*
G01X13449Y42576D01*
G01X13450Y42561D01*
G01X13450Y42532D01*
G01X13451Y42509D01*
G01X13454Y42485D01*
G01X13459Y42462D01*
G01X13467Y42439D01*
G01X13476Y42418D01*
G01X13488Y42397D01*
G01X13502Y42377D01*
G01X13516Y42359D01*
G01X13533Y42342D01*
G01X13551Y42327D01*
G01X13571Y42314D01*
G01X13591Y42302D01*
G01X13613Y42293D01*
G01X13636Y42286D01*
G01X13659Y42280D01*
G01X13682Y42277D01*
G01X13706Y42275D01*
G01X15281Y42275D01*
G01X15304Y42277D01*
G01X15328Y42280D01*
G01X15351Y42286D01*
G01X15374Y42293D01*
G01X15395Y42302D01*
G01X15416Y42314D01*
G01X15435Y42327D01*
G01X15454Y42342D01*
G01X15471Y42359D01*
G01X15486Y42377D01*
G01X15499Y42397D01*
G01X15511Y42418D01*
G01X15520Y42439D01*
G01X15527Y42462D01*
G01X15533Y42485D01*
G01X15536Y42509D01*
G01X15538Y42532D01*
G01X15538Y44107D01*
G01X15536Y44131D01*
G01X15533Y44154D01*
G01X15527Y44177D01*
G01X15520Y44200D01*
G01X15511Y44222D01*
G01X15499Y44242D01*
G01X15486Y44262D01*
G01X15471Y44280D01*
G01X15454Y44297D01*
G01X15416Y44325D01*
G01X15395Y44337D01*
G01X15374Y44346D01*
G01X15351Y44354D01*
G01X15328Y44359D01*
G01X15304Y44362D01*
G01X15281Y44363D01*
G01X15127Y44363D01*
G01X15112Y44364D01*
G01X15098Y44368D01*
G01X15084Y44373D01*
G01X15072Y44380D01*
G01X15060Y44388D01*
G01X15050Y44398D01*
G01X15041Y44410D01*
G01X15034Y44423D01*
G01X15029Y44436D01*
G01X15026Y44451D01*
G01X15025Y44465D01*
G01X15025Y45217D01*
G01X15026Y45233D01*
G01X15030Y45249D01*
G01X15036Y45263D01*
G01X15044Y45277D01*
G01X15054Y45289D01*
G01X16337Y46571D01*
G01X16349Y46582D01*
G01X16363Y46590D01*
G01X16377Y46596D01*
G01X16393Y46599D01*
G01X16409Y46601D01*
G01X16426Y46599D01*
G01X16442Y46595D01*
G01X16479Y46585D01*
G01X16493Y46581D01*
G01X16507Y46575D01*
G01X16520Y46567D01*
G01X16531Y46557D01*
G01X16541Y46546D01*
G01X16549Y46533D01*
G01X16555Y46520D01*
G01X16559Y46505D01*
G01X16565Y46481D01*
G01X16574Y46457D01*
G01X16585Y46434D01*
G01X16597Y46412D01*
G01X16613Y46392D01*
G01X16629Y46373D01*
G01X16761Y46241D01*
G01X17092Y46572D01*
G01X16931Y46734D01*
G01X16920Y46746D01*
G01X16912Y46759D01*
G01X16906Y46774D01*
G01X16903Y46789D01*
G01X16901Y46805D01*
G01X16903Y46821D01*
G01X16906Y46837D01*
G01X16912Y46851D01*
G01X16920Y46865D01*
G01X16931Y46877D01*
G01X17266Y47212D01*
G01X17278Y47222D01*
G01X17292Y47231D01*
G01X17306Y47237D01*
G01X17322Y47241D01*
G01X17338Y47242D01*
G01X17354Y47241D01*
G01X17369Y47237D01*
G01X17384Y47231D01*
G01X17397Y47222D01*
G01X17410Y47212D01*
G01X17571Y47051D01*
G01X17902Y47382D01*
G01X17770Y47513D01*
G01X17751Y47531D01*
G01X17731Y47545D01*
G01X17709Y47559D01*
G01X17686Y47569D01*
G01X17663Y47578D01*
G01X17638Y47584D01*
G01X17623Y47588D01*
G01X17610Y47594D01*
G01X17597Y47602D01*
G01X17585Y47612D01*
G01X17576Y47623D01*
G01X17568Y47636D01*
G01X17561Y47650D01*
G01X17557Y47664D01*
G01X17548Y47700D01*
G01X17543Y47717D01*
G01X17542Y47734D01*
G01X17543Y47750D01*
G01X17547Y47765D01*
G01X17553Y47780D01*
G01X17561Y47794D01*
G01X17572Y47806D01*
G01X17954Y48188D01*
G01X17966Y48199D01*
G01X17980Y48207D01*
G01X17994Y48213D01*
G01X18010Y48217D01*
G01X18026Y48218D01*
G01X18591Y48218D01*
G01X18606Y48217D01*
G01X18621Y48213D01*
G01X18635Y48208D01*
G01X18648Y48201D01*
G01X18660Y48191D01*
G01X18670Y48180D01*
G01X18679Y48168D01*
G01X18685Y48154D01*
G01X18695Y48133D01*
G01X18706Y48112D01*
G01X18720Y48093D01*
G01X18735Y48075D01*
G01X18752Y48059D01*
G01X18770Y48044D01*
G01X18789Y48031D01*
G01X18810Y48019D01*
G01X18831Y48010D01*
G01X18854Y48003D01*
G01X18877Y47997D01*
G01X18900Y47994D01*
G01X18923Y47993D01*
G01X19923Y47993D01*
G01X19947Y47994D01*
G01X19970Y47997D01*
G01X19993Y48003D01*
G01X20015Y48010D01*
G01X20036Y48019D01*
G01X20057Y48031D01*
G01X20077Y48044D01*
G01X20095Y48059D01*
G01X20112Y48075D01*
G01X20127Y48093D01*
G01X20140Y48112D01*
G01X20152Y48133D01*
G01X20161Y48154D01*
G01X20168Y48168D01*
G01X20177Y48180D01*
G01X20187Y48191D01*
G01X20199Y48201D01*
G01X20212Y48208D01*
G01X20226Y48213D01*
G01X20241Y48217D01*
G01X20256Y48218D01*
G01X20930Y48218D01*
G01X20945Y48217D01*
G01X20959Y48214D01*
G01X20973Y48209D01*
G01X20985Y48202D01*
G01X20997Y48193D01*
G01X21007Y48183D01*
G01X21016Y48171D01*
G01X21022Y48159D01*
G01X21028Y48145D01*
G01X21031Y48131D01*
G01X21032Y48116D01*
G01X21032Y48059D01*
G01X21033Y48036D01*
G01X21036Y48012D01*
G01X21042Y47989D01*
G01X21049Y47967D01*
G01X21059Y47945D01*
G01X21070Y47924D01*
G01X21083Y47905D01*
G01X21099Y47887D01*
G01X21115Y47870D01*
G01X21134Y47855D01*
G01X21154Y47842D01*
G01X21174Y47830D01*
G01X21196Y47820D01*
G01X21218Y47813D01*
G01X21241Y47808D01*
G01X21265Y47804D01*
G01X21288Y47803D01*
G01X21838Y47803D01*
G01X21862Y47804D01*
G01X21886Y47808D01*
G01X21908Y47813D01*
G01X21931Y47820D01*
G01X21953Y47830D01*
G01X21973Y47842D01*
G01X21993Y47855D01*
G01X22011Y47870D01*
G01X22028Y47887D01*
G01X22043Y47905D01*
G01X22057Y47924D01*
G01X22068Y47945D01*
G01X22078Y47967D01*
G01X22085Y47989D01*
G01X22091Y48012D01*
G01X22094Y48036D01*
G01X22095Y48059D01*
G01X22095Y49359D01*
G01X22094Y49383D01*
G01X22091Y49407D01*
G01X22085Y49430D01*
G01X22078Y49452D01*
G01X22068Y49474D01*
G01X22057Y49495D01*
G01X22043Y49514D01*
G01X22028Y49532D01*
G01X22011Y49549D01*
G01X21993Y49564D01*
G01X21973Y49578D01*
G01X21953Y49589D01*
G01X21931Y49599D01*
G01X21908Y49606D01*
G01X21886Y49612D01*
G01X21862Y49615D01*
G01X21838Y49616D01*
G37*
G36*
G01X26683Y15826D02*
G01X26472Y15826D01*
G01X26472Y15383D01*
G01X26940Y15383D01*
G01X26940Y15570D01*
G01X26939Y15594D01*
G01X26936Y15617D01*
G01X26930Y15640D01*
G01X26922Y15662D01*
G01X26913Y15684D01*
G01X26902Y15705D01*
G01X26888Y15724D01*
G01X26873Y15743D01*
G01X26856Y15759D01*
G01X26838Y15775D01*
G01X26818Y15788D01*
G01X26797Y15799D01*
G01X26776Y15809D01*
G01X26754Y15817D01*
G01X26730Y15822D01*
G01X26707Y15825D01*
G01X26683Y15826D01*
G37*
G36*
G01X25795Y15826D02*
G01X25583Y15826D01*
G01X25559Y15825D01*
G01X25536Y15822D01*
G01X25513Y15817D01*
G01X25490Y15809D01*
G01X25469Y15799D01*
G01X25448Y15788D01*
G01X25429Y15775D01*
G01X25411Y15759D01*
G01X25394Y15743D01*
G01X25379Y15724D01*
G01X25365Y15705D01*
G01X25354Y15684D01*
G01X25344Y15662D01*
G01X25336Y15640D01*
G01X25331Y15617D01*
G01X25328Y15594D01*
G01X25327Y15570D01*
G01X25327Y15383D01*
G01X25795Y15383D01*
G01X25795Y15826D01*
G37*
G36*
G01X13280Y16854D02*
G01X13228Y16881D01*
G01X13228Y16230D01*
G01X13879Y16230D01*
G01X13852Y16282D01*
G01X13822Y16332D01*
G01X13790Y16381D01*
G01X13757Y16429D01*
G01X13721Y16476D01*
G01X13684Y16521D01*
G01X13645Y16564D01*
G01X13605Y16607D01*
G01X13562Y16647D01*
G01X13519Y16686D01*
G01X13474Y16723D01*
G01X13427Y16759D01*
G01X13379Y16792D01*
G01X13330Y16824D01*
G01X13280Y16854D01*
G37*
G36*
G01X11851Y16230D02*
G01X11851Y16881D01*
G01X11799Y16854D01*
G01X11749Y16824D01*
G01X11700Y16792D01*
G01X11652Y16759D01*
G01X11605Y16723D01*
G01X11560Y16686D01*
G01X11516Y16647D01*
G01X11474Y16607D01*
G01X11433Y16564D01*
G01X11395Y16521D01*
G01X11358Y16476D01*
G01X11322Y16429D01*
G01X11289Y16381D01*
G01X11257Y16332D01*
G01X11227Y16282D01*
G01X11199Y16230D01*
G01X11851Y16230D01*
G37*
G36*
G01X44781Y16230D02*
G01X44781Y16881D01*
G01X44729Y16854D01*
G01X44679Y16824D01*
G01X44630Y16792D01*
G01X44582Y16759D01*
G01X44535Y16723D01*
G01X44490Y16686D01*
G01X44446Y16647D01*
G01X44404Y16607D01*
G01X44364Y16564D01*
G01X44325Y16521D01*
G01X44287Y16476D01*
G01X44252Y16429D01*
G01X44219Y16381D01*
G01X44187Y16332D01*
G01X44157Y16282D01*
G01X44129Y16230D01*
G01X44781Y16230D01*
G37*
G36*
G01X46210Y16854D02*
G01X46158Y16881D01*
G01X46158Y16230D01*
G01X46810Y16230D01*
G01X46782Y16282D01*
G01X46752Y16332D01*
G01X46720Y16381D01*
G01X46687Y16429D01*
G01X46652Y16476D01*
G01X46614Y16521D01*
G01X46575Y16564D01*
G01X46535Y16607D01*
G01X46493Y16647D01*
G01X46449Y16686D01*
G01X46404Y16723D01*
G01X46357Y16759D01*
G01X46309Y16792D01*
G01X46260Y16824D01*
G01X46210Y16854D01*
G37*
G36*
G01X39786Y23665D02*
G01X39734Y23666D01*
G01X39680Y23665D01*
G01X39627Y23662D01*
G01X39575Y23657D01*
G01X39522Y23650D01*
G01X39470Y23640D01*
G01X39418Y23629D01*
G01X39367Y23616D01*
G01X39316Y23600D01*
G01X39266Y23583D01*
G01X39216Y23564D01*
G01X39120Y23520D01*
G01X39073Y23495D01*
G01X39028Y23468D01*
G01X38983Y23440D01*
G01X38939Y23409D01*
G01X38897Y23377D01*
G01X38856Y23344D01*
G01X38816Y23309D01*
G01X38778Y23272D01*
G01X38741Y23234D01*
G01X38705Y23195D01*
G01X38671Y23154D01*
G01X38639Y23112D01*
G01X38609Y23068D01*
G01X38580Y23024D01*
G01X38553Y22978D01*
G01X38528Y22932D01*
G01X38520Y22918D01*
G01X38509Y22906D01*
G01X38497Y22896D01*
G01X38483Y22888D01*
G01X38469Y22881D01*
G01X38453Y22878D01*
G01X38438Y22876D01*
G01X19489Y22876D01*
G01X19474Y22877D01*
G01X19459Y22881D01*
G01X19446Y22886D01*
G01X19432Y22894D01*
G01X19421Y22902D01*
G01X19411Y22913D01*
G01X19402Y22925D01*
G01X19374Y22970D01*
G01X19343Y23014D01*
G01X19311Y23057D01*
G01X19277Y23098D01*
G01X19241Y23138D01*
G01X19205Y23177D01*
G01X19166Y23214D01*
G01X19126Y23249D01*
G01X19085Y23283D01*
G01X19043Y23316D01*
G01X18999Y23346D01*
G01X18954Y23375D01*
G01X18908Y23402D01*
G01X18861Y23428D01*
G01X18813Y23451D01*
G01X18764Y23472D01*
G01X18714Y23492D01*
G01X18664Y23509D01*
G01X18613Y23525D01*
G01X18561Y23538D01*
G01X18509Y23550D01*
G01X18456Y23559D01*
G01X18403Y23567D01*
G01X18350Y23572D01*
G01X18297Y23575D01*
G01X18243Y23576D01*
G01X18190Y23575D01*
G01X18137Y23572D01*
G01X18084Y23567D01*
G01X18031Y23560D01*
G01X17979Y23550D01*
G01X17927Y23539D01*
G01X17875Y23525D01*
G01X17824Y23510D01*
G01X17774Y23492D01*
G01X17725Y23473D01*
G01X17675Y23451D01*
G01X17628Y23428D01*
G01X17581Y23403D01*
G01X17535Y23376D01*
G01X17490Y23347D01*
G01X17446Y23317D01*
G01X17403Y23285D01*
G01X17362Y23251D01*
G01X17323Y23216D01*
G01X17284Y23179D01*
G01X17248Y23141D01*
G01X17212Y23100D01*
G01X17178Y23059D01*
G01X17146Y23017D01*
G01X17115Y22973D01*
G01X17087Y22928D01*
G01X17060Y22882D01*
G01X17035Y22835D01*
G01X17011Y22787D01*
G01X16990Y22739D01*
G01X16971Y22689D01*
G01X16953Y22639D01*
G01X16938Y22588D01*
G01X16924Y22536D01*
G01X16913Y22484D01*
G01X16904Y22432D01*
G01X16896Y22379D01*
G01X16891Y22326D01*
G01X16888Y22273D01*
G01X16887Y22220D01*
G01X16888Y22166D01*
G01X16891Y22113D01*
G01X16896Y22060D01*
G01X16904Y22007D01*
G01X16913Y21955D01*
G01X16924Y21903D01*
G01X16938Y21851D01*
G01X16953Y21800D01*
G01X16971Y21750D01*
G01X16990Y21700D01*
G01X17011Y21652D01*
G01X17035Y21604D01*
G01X17060Y21557D01*
G01X17087Y21511D01*
G01X17115Y21466D01*
G01X17146Y21422D01*
G01X17178Y21380D01*
G01X17212Y21339D01*
G01X17248Y21299D01*
G01X17284Y21260D01*
G01X17323Y21223D01*
G01X17362Y21188D01*
G01X17403Y21154D01*
G01X17446Y21122D01*
G01X17490Y21092D01*
G01X17535Y21063D01*
G01X17581Y21036D01*
G01X17628Y21011D01*
G01X17675Y20988D01*
G01X17725Y20966D01*
G01X17774Y20947D01*
G01X17824Y20929D01*
G01X17875Y20914D01*
G01X17927Y20900D01*
G01X17979Y20889D01*
G01X18031Y20880D01*
G01X18084Y20872D01*
G01X18137Y20867D01*
G01X18190Y20864D01*
G01X18243Y20863D01*
G01X18296Y20864D01*
G01X18349Y20867D01*
G01X18401Y20872D01*
G01X18454Y20879D01*
G01X18505Y20889D01*
G01X18557Y20900D01*
G01X18607Y20913D01*
G01X18658Y20928D01*
G01X18708Y20945D01*
G01X18757Y20964D01*
G01X18806Y20985D01*
G01X18853Y21007D01*
G01X18900Y21032D01*
G01X18945Y21059D01*
G01X18989Y21087D01*
G01X19033Y21117D01*
G01X19075Y21148D01*
G01X19116Y21181D01*
G01X19156Y21216D01*
G01X19194Y21252D01*
G01X19231Y21289D01*
G01X19266Y21329D01*
G01X19276Y21339D01*
G01X19288Y21347D01*
G01X19301Y21354D01*
G01X19315Y21360D01*
G01X19328Y21363D01*
G01X19343Y21364D01*
G01X38719Y21364D01*
G01X38735Y21362D01*
G01X38750Y21358D01*
G01X38764Y21353D01*
G01X38778Y21345D01*
G01X38790Y21335D01*
G01X38830Y21298D01*
G01X38872Y21262D01*
G01X38915Y21228D01*
G01X38959Y21195D01*
G01X39005Y21165D01*
G01X39052Y21136D01*
G01X39100Y21110D01*
G01X39149Y21085D01*
G01X39199Y21063D01*
G01X39250Y21042D01*
G01X39302Y21024D01*
G01X39354Y21007D01*
G01X39407Y20993D01*
G01X39461Y20981D01*
G01X39515Y20971D01*
G01X39569Y20963D01*
G01X39624Y20958D01*
G01X39678Y20954D01*
G01X39733Y20953D01*
G01X39786Y20954D01*
G01X39840Y20957D01*
G01X39893Y20962D01*
G01X39945Y20970D01*
G01X39998Y20979D01*
G01X40050Y20991D01*
G01X40101Y21004D01*
G01X40153Y21020D01*
G01X40203Y21037D01*
G01X40252Y21056D01*
G01X40301Y21078D01*
G01X40349Y21101D01*
G01X40396Y21126D01*
G01X40442Y21153D01*
G01X40487Y21182D01*
G01X40531Y21212D01*
G01X40573Y21244D01*
G01X40615Y21278D01*
G01X40654Y21313D01*
G01X40693Y21350D01*
G01X40729Y21389D01*
G01X40765Y21429D01*
G01X40799Y21470D01*
G01X40831Y21512D01*
G01X40861Y21556D01*
G01X40890Y21601D01*
G01X40917Y21647D01*
G01X40942Y21694D01*
G01X40966Y21742D01*
G01X40987Y21790D01*
G01X41006Y21840D01*
G01X41023Y21890D01*
G01X41039Y21941D01*
G01X41052Y21993D01*
G01X41064Y22045D01*
G01X41073Y22097D01*
G01X41080Y22150D01*
G01X41086Y22203D01*
G01X41089Y22256D01*
G01X41090Y22309D01*
G01X41089Y22363D01*
G01X41086Y22416D01*
G01X41080Y22469D01*
G01X41073Y22522D01*
G01X41064Y22574D01*
G01X41052Y22626D01*
G01X41039Y22678D01*
G01X41023Y22729D01*
G01X41006Y22779D01*
G01X40987Y22829D01*
G01X40966Y22877D01*
G01X40942Y22926D01*
G01X40917Y22972D01*
G01X40890Y23018D01*
G01X40861Y23063D01*
G01X40831Y23107D01*
G01X40799Y23149D01*
G01X40765Y23190D01*
G01X40729Y23230D01*
G01X40693Y23269D01*
G01X40654Y23306D01*
G01X40615Y23341D01*
G01X40573Y23375D01*
G01X40531Y23407D01*
G01X40487Y23438D01*
G01X40442Y23466D01*
G01X40396Y23493D01*
G01X40349Y23518D01*
G01X40301Y23541D01*
G01X40252Y23563D01*
G01X40203Y23582D01*
G01X40153Y23600D01*
G01X40101Y23615D01*
G01X40050Y23629D01*
G01X39998Y23640D01*
G01X39945Y23650D01*
G01X39893Y23657D01*
G01X39840Y23662D01*
G01X39786Y23665D01*
G37*
G36*
G01X13995Y25071D02*
G01X13943Y25072D01*
G01X13892Y25071D01*
G01X13841Y25068D01*
G01X13790Y25063D01*
G01X13739Y25056D01*
G01X13689Y25047D01*
G01X13639Y25035D01*
G01X13589Y25022D01*
G01X13541Y25007D01*
G01X13492Y24990D01*
G01X13398Y24950D01*
G01X13352Y24927D01*
G01X13307Y24902D01*
G01X13263Y24875D01*
G01X13221Y24847D01*
G01X13179Y24817D01*
G01X13139Y24785D01*
G01X13100Y24752D01*
G01X13062Y24717D01*
G01X13026Y24681D01*
G01X12991Y24644D01*
G01X12958Y24605D01*
G01X12926Y24564D01*
G01X12896Y24523D01*
G01X12868Y24480D01*
G01X12842Y24436D01*
G01X12817Y24391D01*
G01X12794Y24345D01*
G01X12773Y24298D01*
G01X12754Y24251D01*
G01X12736Y24203D01*
G01X12721Y24154D01*
G01X12708Y24104D01*
G01X12697Y24054D01*
G01X12687Y24004D01*
G01X12680Y23953D01*
G01X12675Y23902D01*
G01X12672Y23851D01*
G01X12671Y23799D01*
G01X12672Y23749D01*
G01X12675Y23697D01*
G01X12680Y23647D01*
G01X12687Y23596D01*
G01X12697Y23545D01*
G01X12708Y23495D01*
G01X12721Y23446D01*
G01X12736Y23397D01*
G01X12754Y23348D01*
G01X12773Y23301D01*
G01X12794Y23254D01*
G01X12817Y23208D01*
G01X12842Y23163D01*
G01X12868Y23120D01*
G01X12896Y23077D01*
G01X12926Y23035D01*
G01X12958Y22995D01*
G01X12991Y22956D01*
G01X13026Y22918D01*
G01X13062Y22882D01*
G01X13100Y22847D01*
G01X13139Y22814D01*
G01X13179Y22782D01*
G01X13221Y22752D01*
G01X13263Y22724D01*
G01X13307Y22698D01*
G01X13352Y22673D01*
G01X13398Y22650D01*
G01X13445Y22629D01*
G01X13492Y22610D01*
G01X13541Y22592D01*
G01X13589Y22577D01*
G01X13639Y22564D01*
G01X13689Y22553D01*
G01X13739Y22544D01*
G01X13790Y22537D01*
G01X13841Y22531D01*
G01X13892Y22528D01*
G01X13943Y22527D01*
G01X13995Y22528D01*
G01X14046Y22531D01*
G01X14097Y22537D01*
G01X14148Y22544D01*
G01X14198Y22553D01*
G01X14248Y22564D01*
G01X14298Y22577D01*
G01X14346Y22592D01*
G01X14395Y22610D01*
G01X14442Y22629D01*
G01X14489Y22650D01*
G01X14535Y22673D01*
G01X14580Y22698D01*
G01X14624Y22724D01*
G01X14666Y22752D01*
G01X14708Y22782D01*
G01X14748Y22814D01*
G01X14787Y22847D01*
G01X14825Y22882D01*
G01X14861Y22918D01*
G01X14896Y22956D01*
G01X14929Y22995D01*
G01X14961Y23035D01*
G01X14991Y23077D01*
G01X15019Y23120D01*
G01X15045Y23163D01*
G01X15070Y23208D01*
G01X15093Y23254D01*
G01X15114Y23301D01*
G01X15133Y23348D01*
G01X15150Y23397D01*
G01X15166Y23446D01*
G01X15179Y23495D01*
G01X15190Y23545D01*
G01X15200Y23596D01*
G01X15207Y23647D01*
G01X15212Y23697D01*
G01X15215Y23749D01*
G01X15216Y23799D01*
G01X15215Y23851D01*
G01X15212Y23902D01*
G01X15207Y23953D01*
G01X15200Y24004D01*
G01X15190Y24054D01*
G01X15179Y24104D01*
G01X15166Y24154D01*
G01X15150Y24203D01*
G01X15133Y24251D01*
G01X15114Y24298D01*
G01X15093Y24345D01*
G01X15070Y24391D01*
G01X15045Y24436D01*
G01X15019Y24480D01*
G01X14991Y24523D01*
G01X14961Y24564D01*
G01X14929Y24605D01*
G01X14896Y24644D01*
G01X14861Y24681D01*
G01X14825Y24717D01*
G01X14787Y24752D01*
G01X14748Y24785D01*
G01X14708Y24817D01*
G01X14666Y24847D01*
G01X14624Y24875D01*
G01X14580Y24902D01*
G01X14535Y24927D01*
G01X14489Y24950D01*
G01X14395Y24990D01*
G01X14346Y25007D01*
G01X14298Y25022D01*
G01X14248Y25035D01*
G01X14198Y25047D01*
G01X14148Y25056D01*
G01X14097Y25063D01*
G01X14046Y25068D01*
G01X13995Y25071D01*
G37*
G36*
G01X44085Y25421D02*
G01X44033Y25422D01*
G01X43982Y25421D01*
G01X43931Y25418D01*
G01X43880Y25413D01*
G01X43829Y25406D01*
G01X43779Y25396D01*
G01X43729Y25385D01*
G01X43679Y25372D01*
G01X43631Y25356D01*
G01X43582Y25339D01*
G01X43534Y25320D01*
G01X43488Y25299D01*
G01X43442Y25276D01*
G01X43397Y25251D01*
G01X43353Y25225D01*
G01X43310Y25197D01*
G01X43269Y25167D01*
G01X43229Y25135D01*
G01X43190Y25102D01*
G01X43152Y25067D01*
G01X43115Y25031D01*
G01X43081Y24993D01*
G01X43048Y24954D01*
G01X43016Y24914D01*
G01X42986Y24872D01*
G01X42958Y24830D01*
G01X42931Y24785D01*
G01X42907Y24741D01*
G01X42884Y24695D01*
G01X42862Y24648D01*
G01X42844Y24601D01*
G01X42826Y24552D01*
G01X42811Y24504D01*
G01X42798Y24454D01*
G01X42787Y24404D01*
G01X42777Y24354D01*
G01X42770Y24303D01*
G01X42765Y24252D01*
G01X42762Y24201D01*
G01X42761Y24149D01*
G01X42762Y24098D01*
G01X42765Y24047D01*
G01X42770Y23996D01*
G01X42777Y23945D01*
G01X42787Y23895D01*
G01X42798Y23845D01*
G01X42811Y23795D01*
G01X42826Y23747D01*
G01X42844Y23698D01*
G01X42862Y23651D01*
G01X42884Y23604D01*
G01X42907Y23558D01*
G01X42931Y23513D01*
G01X42958Y23469D01*
G01X42986Y23427D01*
G01X43016Y23385D01*
G01X43048Y23345D01*
G01X43081Y23306D01*
G01X43115Y23268D01*
G01X43152Y23231D01*
G01X43190Y23197D01*
G01X43229Y23164D01*
G01X43269Y23132D01*
G01X43310Y23102D01*
G01X43353Y23074D01*
G01X43397Y23048D01*
G01X43442Y23023D01*
G01X43488Y23000D01*
G01X43534Y22978D01*
G01X43582Y22960D01*
G01X43631Y22942D01*
G01X43679Y22927D01*
G01X43729Y22914D01*
G01X43779Y22903D01*
G01X43829Y22893D01*
G01X43880Y22886D01*
G01X43931Y22881D01*
G01X43982Y22878D01*
G01X44033Y22877D01*
G01X44085Y22878D01*
G01X44136Y22881D01*
G01X44187Y22886D01*
G01X44238Y22893D01*
G01X44288Y22903D01*
G01X44338Y22914D01*
G01X44387Y22927D01*
G01X44436Y22942D01*
G01X44532Y22978D01*
G01X44579Y23000D01*
G01X44625Y23023D01*
G01X44669Y23048D01*
G01X44714Y23074D01*
G01X44756Y23102D01*
G01X44798Y23132D01*
G01X44838Y23164D01*
G01X44877Y23197D01*
G01X44915Y23231D01*
G01X44951Y23268D01*
G01X44986Y23306D01*
G01X45019Y23345D01*
G01X45051Y23385D01*
G01X45081Y23427D01*
G01X45109Y23469D01*
G01X45135Y23513D01*
G01X45160Y23558D01*
G01X45183Y23604D01*
G01X45204Y23651D01*
G01X45223Y23698D01*
G01X45240Y23747D01*
G01X45256Y23795D01*
G01X45269Y23845D01*
G01X45280Y23895D01*
G01X45290Y23945D01*
G01X45297Y23996D01*
G01X45302Y24047D01*
G01X45305Y24098D01*
G01X45306Y24149D01*
G01X45305Y24201D01*
G01X45302Y24252D01*
G01X45297Y24303D01*
G01X45290Y24354D01*
G01X45280Y24404D01*
G01X45269Y24454D01*
G01X45256Y24504D01*
G01X45240Y24552D01*
G01X45223Y24601D01*
G01X45204Y24648D01*
G01X45183Y24695D01*
G01X45160Y24741D01*
G01X45135Y24785D01*
G01X45109Y24830D01*
G01X45081Y24872D01*
G01X45051Y24914D01*
G01X45019Y24954D01*
G01X44986Y24993D01*
G01X44951Y25031D01*
G01X44915Y25067D01*
G01X44877Y25102D01*
G01X44838Y25135D01*
G01X44798Y25167D01*
G01X44756Y25197D01*
G01X44714Y25225D01*
G01X44669Y25251D01*
G01X44625Y25276D01*
G01X44579Y25299D01*
G01X44532Y25320D01*
G01X44484Y25339D01*
G01X44436Y25356D01*
G01X44387Y25372D01*
G01X44338Y25385D01*
G01X44288Y25396D01*
G01X44238Y25406D01*
G01X44187Y25413D01*
G01X44136Y25418D01*
G01X44085Y25421D01*
G37*
G36*
G01X19071Y44343D02*
G01X17496Y44343D01*
G01X17473Y44342D01*
G01X17449Y44339D01*
G01X17426Y44334D01*
G01X17403Y44326D01*
G01X17382Y44317D01*
G01X17361Y44305D01*
G01X17342Y44292D01*
G01X17323Y44276D01*
G01X17306Y44260D01*
G01X17291Y44241D01*
G01X17278Y44222D01*
G01X17266Y44201D01*
G01X17257Y44179D01*
G01X17249Y44157D01*
G01X17244Y44134D01*
G01X17240Y44111D01*
G01X17239Y44087D01*
G01X17239Y42512D01*
G01X17240Y42488D01*
G01X17244Y42465D01*
G01X17249Y42442D01*
G01X17257Y42420D01*
G01X17266Y42398D01*
G01X17278Y42377D01*
G01X17291Y42358D01*
G01X17306Y42339D01*
G01X17323Y42323D01*
G01X17342Y42307D01*
G01X17361Y42294D01*
G01X17382Y42282D01*
G01X17403Y42273D01*
G01X17426Y42265D01*
G01X17449Y42260D01*
G01X17473Y42257D01*
G01X17496Y42256D01*
G01X19071Y42256D01*
G01X19094Y42257D01*
G01X19116Y42260D01*
G01X19139Y42265D01*
G01X19161Y42272D01*
G01X19181Y42281D01*
G01X19202Y42292D01*
G01X19221Y42304D01*
G01X19239Y42319D01*
G01X19256Y42334D01*
G01X19271Y42351D01*
G01X19284Y42370D01*
G01X19296Y42389D01*
G01X19306Y42410D01*
G01X19314Y42431D01*
G01X19321Y42453D01*
G01X19325Y42468D01*
G01X19332Y42481D01*
G01X19340Y42494D01*
G01X19351Y42505D01*
G01X19362Y42514D01*
G01X19376Y42522D01*
G01X19390Y42527D01*
G01X19404Y42530D01*
G01X19419Y42532D01*
G01X19435Y42530D01*
G01X19451Y42527D01*
G01X19465Y42521D01*
G01X19479Y42512D01*
G01X19491Y42502D01*
G01X20327Y41666D01*
G01X20338Y41654D01*
G01X20346Y41640D01*
G01X20352Y41626D01*
G01X20355Y41610D01*
G01X20357Y41594D01*
G01X20357Y25028D01*
G01X20358Y24989D01*
G01X20361Y24949D01*
G01X20366Y24910D01*
G01X20373Y24871D01*
G01X20383Y24832D01*
G01X20394Y24794D01*
G01X20407Y24757D01*
G01X20423Y24720D01*
G01X20440Y24684D01*
G01X20459Y24649D01*
G01X20479Y24616D01*
G01X20502Y24583D01*
G01X20526Y24552D01*
G01X20552Y24521D01*
G01X20579Y24493D01*
G01X21740Y23335D01*
G01X21769Y23307D01*
G01X21799Y23282D01*
G01X21830Y23257D01*
G01X21863Y23235D01*
G01X21896Y23215D01*
G01X21931Y23196D01*
G01X21967Y23179D01*
G01X22003Y23163D01*
G01X22041Y23150D01*
G01X22079Y23139D01*
G01X22117Y23130D01*
G01X22156Y23123D01*
G01X22195Y23118D01*
G01X22235Y23115D01*
G01X22274Y23114D01*
G01X32533Y23114D01*
G01X32573Y23115D01*
G01X32612Y23118D01*
G01X32652Y23123D01*
G01X32691Y23130D01*
G01X32729Y23139D01*
G01X32767Y23151D01*
G01X32805Y23164D01*
G01X32841Y23179D01*
G01X32877Y23196D01*
G01X32912Y23215D01*
G01X32945Y23236D01*
G01X32978Y23258D01*
G01X33009Y23282D01*
G01X33040Y23308D01*
G01X33068Y23335D01*
G01X35598Y25865D01*
G01X35625Y25893D01*
G01X35651Y25924D01*
G01X35675Y25955D01*
G01X35698Y25988D01*
G01X35718Y26021D01*
G01X35737Y26056D01*
G01X35754Y26092D01*
G01X35769Y26129D01*
G01X35782Y26166D01*
G01X35794Y26204D01*
G01X35803Y26242D01*
G01X35810Y26282D01*
G01X35815Y26321D01*
G01X35818Y26360D01*
G01X35819Y26400D01*
G01X35819Y30723D01*
G01X35821Y30739D01*
G01X35825Y30755D01*
G01X35831Y30770D01*
G01X35839Y30783D01*
G01X35849Y30795D01*
G01X36736Y31684D01*
G01X36749Y31694D01*
G01X36762Y31703D01*
G01X36777Y31709D01*
G01X36792Y31713D01*
G01X36809Y31714D01*
G01X38554Y31714D01*
G01X38570Y31713D01*
G01X38585Y31709D01*
G01X38600Y31703D01*
G01X38613Y31695D01*
G01X38626Y31684D01*
G01X38636Y31672D01*
G01X38668Y31630D01*
G01X38702Y31589D01*
G01X38737Y31548D01*
G01X38774Y31510D01*
G01X38813Y31473D01*
G01X38852Y31438D01*
G01X38893Y31404D01*
G01X38936Y31372D01*
G01X38980Y31342D01*
G01X39024Y31313D01*
G01X39071Y31286D01*
G01X39117Y31261D01*
G01X39166Y31238D01*
G01X39214Y31216D01*
G01X39264Y31197D01*
G01X39314Y31180D01*
G01X39365Y31164D01*
G01X39417Y31151D01*
G01X39469Y31139D01*
G01X39521Y31130D01*
G01X39574Y31122D01*
G01X39627Y31117D01*
G01X39680Y31114D01*
G01X39733Y31113D01*
G01X39786Y31114D01*
G01X39840Y31117D01*
G01X39893Y31122D01*
G01X39945Y31130D01*
G01X39998Y31139D01*
G01X40050Y31151D01*
G01X40101Y31164D01*
G01X40153Y31180D01*
G01X40203Y31197D01*
G01X40252Y31216D01*
G01X40301Y31238D01*
G01X40349Y31261D01*
G01X40396Y31286D01*
G01X40442Y31313D01*
G01X40487Y31342D01*
G01X40531Y31372D01*
G01X40573Y31404D01*
G01X40615Y31438D01*
G01X40654Y31473D01*
G01X40693Y31510D01*
G01X40729Y31549D01*
G01X40765Y31589D01*
G01X40799Y31630D01*
G01X40831Y31672D01*
G01X40861Y31716D01*
G01X40890Y31761D01*
G01X40917Y31807D01*
G01X40942Y31854D01*
G01X40966Y31902D01*
G01X40987Y31950D01*
G01X41006Y32000D01*
G01X41023Y32050D01*
G01X41039Y32101D01*
G01X41052Y32153D01*
G01X41064Y32205D01*
G01X41073Y32257D01*
G01X41080Y32310D01*
G01X41086Y32363D01*
G01X41089Y32416D01*
G01X41090Y32469D01*
G01X41089Y32523D01*
G01X41086Y32576D01*
G01X41080Y32629D01*
G01X41073Y32682D01*
G01X41064Y32734D01*
G01X41052Y32786D01*
G01X41039Y32838D01*
G01X41023Y32889D01*
G01X41006Y32939D01*
G01X40987Y32989D01*
G01X40966Y33037D01*
G01X40942Y33086D01*
G01X40917Y33132D01*
G01X40890Y33178D01*
G01X40861Y33223D01*
G01X40831Y33267D01*
G01X40799Y33309D01*
G01X40765Y33350D01*
G01X40729Y33390D01*
G01X40693Y33429D01*
G01X40654Y33466D01*
G01X40615Y33501D01*
G01X40573Y33535D01*
G01X40531Y33567D01*
G01X40487Y33598D01*
G01X40442Y33626D01*
G01X40396Y33653D01*
G01X40349Y33678D01*
G01X40301Y33701D01*
G01X40252Y33723D01*
G01X40203Y33742D01*
G01X40153Y33760D01*
G01X40101Y33775D01*
G01X40050Y33789D01*
G01X39998Y33800D01*
G01X39945Y33810D01*
G01X39893Y33817D01*
G01X39840Y33822D01*
G01X39786Y33825D01*
G01X39734Y33826D01*
G01X39680Y33825D01*
G01X39627Y33822D01*
G01X39574Y33817D01*
G01X39522Y33810D01*
G01X39469Y33800D01*
G01X39417Y33789D01*
G01X39366Y33776D01*
G01X39315Y33760D01*
G01X39265Y33743D01*
G01X39215Y33723D01*
G01X39166Y33702D01*
G01X39118Y33679D01*
G01X39072Y33654D01*
G01X39025Y33627D01*
G01X38981Y33598D01*
G01X38937Y33568D01*
G01X38895Y33536D01*
G01X38854Y33502D01*
G01X38814Y33467D01*
G01X38776Y33430D01*
G01X38738Y33392D01*
G01X38703Y33352D01*
G01X38669Y33311D01*
G01X38637Y33269D01*
G01X38627Y33257D01*
G01X38615Y33246D01*
G01X38601Y33238D01*
G01X38587Y33232D01*
G01X38571Y33228D01*
G01X38555Y33227D01*
G01X36452Y33227D01*
G01X36413Y33226D01*
G01X36373Y33223D01*
G01X36334Y33218D01*
G01X36295Y33211D01*
G01X36256Y33201D01*
G01X36218Y33190D01*
G01X36181Y33177D01*
G01X36109Y33145D01*
G01X36074Y33125D01*
G01X36040Y33104D01*
G01X36007Y33082D01*
G01X35976Y33058D01*
G01X35946Y33032D01*
G01X35917Y33005D01*
G01X34528Y31613D01*
G01X34500Y31585D01*
G01X34475Y31554D01*
G01X34451Y31523D01*
G01X34428Y31490D01*
G01X34408Y31457D01*
G01X34389Y31421D01*
G01X34372Y31386D01*
G01X34356Y31349D01*
G01X34343Y31312D01*
G01X34332Y31274D01*
G01X34323Y31236D01*
G01X34316Y31197D01*
G01X34311Y31157D01*
G01X34308Y31118D01*
G01X34307Y31079D01*
G01X34307Y26755D01*
G01X34305Y26739D01*
G01X34302Y26724D01*
G01X34295Y26709D01*
G01X34287Y26696D01*
G01X34277Y26683D01*
G01X32250Y24656D01*
G01X32238Y24646D01*
G01X32224Y24638D01*
G01X32209Y24632D01*
G01X32194Y24628D01*
G01X32178Y24626D01*
G01X22629Y24626D01*
G01X22613Y24628D01*
G01X22598Y24632D01*
G01X22583Y24638D01*
G01X22569Y24646D01*
G01X22557Y24656D01*
G01X21900Y25312D01*
G01X21890Y25324D01*
G01X21881Y25338D01*
G01X21875Y25353D01*
G01X21871Y25368D01*
G01X21870Y25384D01*
G01X21870Y41950D01*
G01X21869Y41989D01*
G01X21866Y42029D01*
G01X21861Y42068D01*
G01X21854Y42107D01*
G01X21844Y42145D01*
G01X21833Y42183D01*
G01X21820Y42221D01*
G01X21804Y42258D01*
G01X21788Y42293D01*
G01X21769Y42328D01*
G01X21748Y42362D01*
G01X21726Y42394D01*
G01X21701Y42426D01*
G01X21676Y42456D01*
G01X21648Y42485D01*
G01X21280Y42853D01*
G01X21269Y42865D01*
G01X21261Y42879D01*
G01X21255Y42894D01*
G01X21251Y42909D01*
G01X21250Y42925D01*
G01X21251Y42941D01*
G01X21255Y42957D01*
G01X21261Y42971D01*
G01X21269Y42985D01*
G01X21280Y42997D01*
G01X21406Y43123D01*
G01X21418Y43133D01*
G01X21432Y43142D01*
G01X21447Y43148D01*
G01X21462Y43152D01*
G01X21478Y43153D01*
G01X44569Y43153D01*
G01X44590Y43151D01*
G01X44610Y43145D01*
G01X44645Y43130D01*
G01X44682Y43119D01*
G01X44719Y43110D01*
G01X44757Y43103D01*
G01X44795Y43099D01*
G01X44833Y43098D01*
G01X44867Y43099D01*
G01X44901Y43102D01*
G01X44935Y43107D01*
G01X44968Y43115D01*
G01X45001Y43124D01*
G01X45033Y43134D01*
G01X45095Y43162D01*
G01X45124Y43179D01*
G01X45152Y43197D01*
G01X45206Y43239D01*
G01X45230Y43262D01*
G01X45254Y43287D01*
G01X45275Y43313D01*
G01X45295Y43341D01*
G01X45314Y43369D01*
G01X45346Y43429D01*
G01X45358Y43461D01*
G01X45369Y43493D01*
G01X45379Y43525D01*
G01X45386Y43558D01*
G01X45391Y43592D01*
G01X45394Y43626D01*
G01X45395Y43659D01*
G01X45394Y43693D01*
G01X45391Y43727D01*
G01X45386Y43761D01*
G01X45379Y43794D01*
G01X45369Y43826D01*
G01X45358Y43858D01*
G01X45346Y43890D01*
G01X45314Y43950D01*
G01X45295Y43978D01*
G01X45275Y44006D01*
G01X45254Y44032D01*
G01X45206Y44080D01*
G01X45179Y44101D01*
G01X45152Y44121D01*
G01X45124Y44140D01*
G01X45095Y44157D01*
G01X45064Y44171D01*
G01X45033Y44184D01*
G01X45001Y44195D01*
G01X44968Y44204D01*
G01X44935Y44211D01*
G01X44901Y44216D01*
G01X44867Y44220D01*
G01X44833Y44221D01*
G01X44795Y44220D01*
G01X44757Y44215D01*
G01X44720Y44209D01*
G01X44682Y44200D01*
G01X44646Y44189D01*
G01X44610Y44174D01*
G01X44591Y44168D01*
G01X44570Y44166D01*
G01X21226Y44166D01*
G01X21193Y44165D01*
G01X21160Y44162D01*
G01X21127Y44157D01*
G01X21095Y44149D01*
G01X21063Y44139D01*
G01X21032Y44128D01*
G01X21002Y44114D01*
G01X20973Y44098D01*
G01X20945Y44081D01*
G01X20918Y44062D01*
G01X20892Y44040D01*
G01X20868Y44018D01*
G01X20563Y43714D01*
G01X20551Y43703D01*
G01X20538Y43695D01*
G01X20523Y43689D01*
G01X20507Y43685D01*
G01X20492Y43684D01*
G01X20476Y43685D01*
G01X20460Y43689D01*
G01X20445Y43695D01*
G01X20432Y43703D01*
G01X20420Y43714D01*
G01X20028Y44105D01*
G01X19999Y44133D01*
G01X19969Y44158D01*
G01X19937Y44182D01*
G01X19905Y44205D01*
G01X19871Y44226D01*
G01X19836Y44244D01*
G01X19801Y44261D01*
G01X19764Y44276D01*
G01X19727Y44290D01*
G01X19688Y44301D01*
G01X19650Y44310D01*
G01X19611Y44318D01*
G01X19572Y44323D01*
G01X19533Y44326D01*
G01X19493Y44327D01*
G01X19179Y44327D01*
G01X19163Y44328D01*
G01X19148Y44332D01*
G01X19123Y44338D01*
G01X19097Y44342D01*
G01X19071Y44343D01*
G37*
G36*
G01X45177Y42640D02*
G01X45143Y42641D01*
G01X45105Y42640D01*
G01X45067Y42636D01*
G01X45029Y42629D01*
G01X44992Y42620D01*
G01X44965Y42616D01*
G01X34514Y42616D01*
G01X34481Y42615D01*
G01X34448Y42612D01*
G01X34415Y42607D01*
G01X34383Y42599D01*
G01X34351Y42589D01*
G01X34320Y42578D01*
G01X34290Y42564D01*
G01X34261Y42549D01*
G01X34233Y42531D01*
G01X34206Y42512D01*
G01X34181Y42491D01*
G01X34156Y42468D01*
G01X24106Y32417D01*
G01X24083Y32393D01*
G01X24062Y32367D01*
G01X24043Y32340D01*
G01X24025Y32312D01*
G01X24010Y32283D01*
G01X23996Y32253D01*
G01X23984Y32222D01*
G01X23974Y32190D01*
G01X23967Y32158D01*
G01X23961Y32125D01*
G01X23958Y32092D01*
G01X23957Y32059D01*
G01X23957Y28341D01*
G01X23956Y28325D01*
G01X23952Y28309D01*
G01X23946Y28295D01*
G01X23937Y28281D01*
G01X23927Y28269D01*
G01X23915Y28258D01*
G01X23901Y28250D01*
G01X23886Y28244D01*
G01X23864Y28236D01*
G01X23843Y28226D01*
G01X23824Y28214D01*
G01X23805Y28201D01*
G01X23787Y28186D01*
G01X23771Y28169D01*
G01X23757Y28151D01*
G01X23744Y28132D01*
G01X23733Y28111D01*
G01X23724Y28090D01*
G01X23716Y28068D01*
G01X23711Y28045D01*
G01X23708Y28022D01*
G01X23707Y28000D01*
G01X23707Y26000D01*
G01X23708Y25976D01*
G01X23711Y25952D01*
G01X23717Y25929D01*
G01X23724Y25907D01*
G01X23734Y25885D01*
G01X23745Y25864D01*
G01X23759Y25845D01*
G01X23774Y25826D01*
G01X23791Y25810D01*
G01X23809Y25795D01*
G01X23829Y25781D01*
G01X23849Y25770D01*
G01X23871Y25760D01*
G01X23893Y25753D01*
G01X23917Y25747D01*
G01X23940Y25744D01*
G01X23963Y25743D01*
G01X24964Y25743D01*
G01X24987Y25744D01*
G01X25012Y25748D01*
G01X25035Y25753D01*
G01X25058Y25761D01*
G01X25080Y25771D01*
G01X25101Y25783D01*
G01X25121Y25797D01*
G01X25139Y25813D01*
G01X25156Y25830D01*
G01X25171Y25849D01*
G01X25181Y25861D01*
G01X25194Y25872D01*
G01X25207Y25880D01*
G01X25222Y25886D01*
G01X25237Y25890D01*
G01X25254Y25891D01*
G01X25269Y25890D01*
G01X25285Y25886D01*
G01X25300Y25880D01*
G01X25313Y25872D01*
G01X25325Y25861D01*
G01X25336Y25849D01*
G01X25351Y25830D01*
G01X25368Y25813D01*
G01X25386Y25797D01*
G01X25406Y25783D01*
G01X25427Y25771D01*
G01X25449Y25761D01*
G01X25472Y25753D01*
G01X25495Y25748D01*
G01X25519Y25744D01*
G01X25544Y25743D01*
G01X26543Y25743D01*
G01X26567Y25744D01*
G01X26590Y25747D01*
G01X26614Y25753D01*
G01X26636Y25760D01*
G01X26657Y25769D01*
G01X26678Y25781D01*
G01X26697Y25794D01*
G01X26716Y25810D01*
G01X26732Y25826D01*
G01X26748Y25844D01*
G01X26758Y25856D01*
G01X26770Y25865D01*
G01X26783Y25874D01*
G01X26798Y25880D01*
G01X26813Y25883D01*
G01X26828Y25884D01*
G01X26844Y25883D01*
G01X26859Y25880D01*
G01X26874Y25874D01*
G01X26887Y25865D01*
G01X26899Y25856D01*
G01X26924Y25826D01*
G01X26941Y25810D01*
G01X26959Y25794D01*
G01X26979Y25781D01*
G01X27000Y25769D01*
G01X27021Y25760D01*
G01X27043Y25753D01*
G01X27067Y25747D01*
G01X27090Y25744D01*
G01X27113Y25743D01*
G01X28114Y25743D01*
G01X28137Y25744D01*
G01X28160Y25747D01*
G01X28183Y25753D01*
G01X28206Y25760D01*
G01X28227Y25769D01*
G01X28248Y25781D01*
G01X28267Y25794D01*
G01X28285Y25809D01*
G01X28297Y25818D01*
G01X28310Y25826D01*
G01X28324Y25831D01*
G01X28339Y25834D01*
G01X28353Y25835D01*
G01X28368Y25834D01*
G01X28383Y25831D01*
G01X28397Y25826D01*
G01X28410Y25818D01*
G01X28421Y25809D01*
G01X28440Y25794D01*
G01X28459Y25781D01*
G01X28480Y25769D01*
G01X28501Y25760D01*
G01X28524Y25753D01*
G01X28546Y25747D01*
G01X28570Y25744D01*
G01X28593Y25743D01*
G01X29593Y25743D01*
G01X29617Y25744D01*
G01X29640Y25747D01*
G01X29662Y25752D01*
G01X29684Y25760D01*
G01X29706Y25769D01*
G01X29726Y25780D01*
G01X29745Y25793D01*
G01X29763Y25807D01*
G01X29780Y25823D01*
G01X29795Y25841D01*
G01X29808Y25860D01*
G01X29821Y25880D01*
G01X29830Y25901D01*
G01X29838Y25923D01*
G01X29844Y25938D01*
G01X29853Y25951D01*
G01X29863Y25964D01*
G01X29875Y25974D01*
G01X29889Y25982D01*
G01X29903Y25989D01*
G01X29919Y25992D01*
G01X29935Y25994D01*
G01X29951Y25992D01*
G01X29966Y25989D01*
G01X29981Y25983D01*
G01X29994Y25975D01*
G01X30006Y25965D01*
G01X30017Y25953D01*
G01X30025Y25940D01*
G01X30031Y25925D01*
G01X30040Y25903D01*
G01X30051Y25881D01*
G01X30064Y25861D01*
G01X30080Y25842D01*
G01X30096Y25824D01*
G01X30115Y25808D01*
G01X30135Y25794D01*
G01X30156Y25782D01*
G01X30178Y25771D01*
G01X30201Y25763D01*
G01X30225Y25758D01*
G01X30249Y25754D01*
G01X30274Y25753D01*
G01X31273Y25753D01*
G01X31297Y25754D01*
G01X31321Y25757D01*
G01X31344Y25763D01*
G01X31366Y25770D01*
G01X31388Y25780D01*
G01X31409Y25791D01*
G01X31428Y25805D01*
G01X31446Y25820D01*
G01X31463Y25837D01*
G01X31478Y25855D01*
G01X31491Y25875D01*
G01X31503Y25895D01*
G01X31513Y25917D01*
G01X31520Y25940D01*
G01X31525Y25962D01*
G01X31529Y25986D01*
G01X31530Y26010D01*
G01X31530Y28010D01*
G01X31529Y28033D01*
G01X31526Y28055D01*
G01X31521Y28078D01*
G01X31513Y28100D01*
G01X31504Y28121D01*
G01X31493Y28142D01*
G01X31480Y28161D01*
G01X31466Y28179D01*
G01X31450Y28196D01*
G01X31432Y28211D01*
G01X31414Y28225D01*
G01X31393Y28236D01*
G01X31372Y28246D01*
G01X31351Y28254D01*
G01X31336Y28260D01*
G01X31322Y28268D01*
G01X31310Y28279D01*
G01X31299Y28291D01*
G01X31291Y28305D01*
G01X31285Y28320D01*
G01X31281Y28335D01*
G01X31280Y28351D01*
G01X31280Y30078D01*
G01X31281Y30094D01*
G01X31285Y30109D01*
G01X31291Y30124D01*
G01X31299Y30137D01*
G01X31309Y30149D01*
G01X38665Y37505D01*
G01X38677Y37515D01*
G01X38691Y37524D01*
G01X38705Y37530D01*
G01X38721Y37533D01*
G01X38736Y37534D01*
G01X45043Y37541D01*
G01X45064Y37539D01*
G01X45083Y37533D01*
G01X45118Y37519D01*
G01X45154Y37508D01*
G01X45191Y37500D01*
G01X45228Y37493D01*
G01X45266Y37490D01*
G01X45303Y37488D01*
G01X45337Y37490D01*
G01X45371Y37493D01*
G01X45404Y37498D01*
G01X45437Y37505D01*
G01X45470Y37514D01*
G01X45502Y37525D01*
G01X45534Y37538D01*
G01X45564Y37553D01*
G01X45594Y37569D01*
G01X45622Y37588D01*
G01X45649Y37608D01*
G01X45676Y37629D01*
G01X45700Y37653D01*
G01X45723Y37677D01*
G01X45745Y37703D01*
G01X45765Y37731D01*
G01X45784Y37759D01*
G01X45800Y37789D01*
G01X45815Y37819D01*
G01X45828Y37851D01*
G01X45839Y37883D01*
G01X45848Y37915D01*
G01X45856Y37948D01*
G01X45861Y37982D01*
G01X45864Y38016D01*
G01X45865Y38050D01*
G01X45864Y38085D01*
G01X45860Y38120D01*
G01X45855Y38156D01*
G01X45847Y38191D01*
G01X45837Y38225D01*
G01X45825Y38258D01*
G01X45810Y38291D01*
G01X45794Y38322D01*
G01X45776Y38353D01*
G01X45755Y38382D01*
G01X45734Y38410D01*
G01X45710Y38436D01*
G01X45684Y38462D01*
G01X45658Y38485D01*
G01X45647Y38495D01*
G01X45638Y38507D01*
G01X45630Y38520D01*
G01X45625Y38534D01*
G01X45621Y38549D01*
G01X45620Y38564D01*
G01X45621Y38578D01*
G01X45624Y38593D01*
G01X45629Y38607D01*
G01X45637Y38619D01*
G01X45646Y38631D01*
G01X45656Y38641D01*
G01X45682Y38665D01*
G01X45706Y38689D01*
G01X45729Y38716D01*
G01X45750Y38743D01*
G01X45770Y38772D01*
G01X45787Y38803D01*
G01X45803Y38834D01*
G01X45816Y38866D01*
G01X45828Y38898D01*
G01X45838Y38932D01*
G01X45845Y38966D01*
G01X45850Y39000D01*
G01X45854Y39035D01*
G01X45855Y39070D01*
G01X45854Y39105D01*
G01X45850Y39140D01*
G01X45845Y39175D01*
G01X45837Y39209D01*
G01X45827Y39243D01*
G01X45815Y39276D01*
G01X45801Y39309D01*
G01X45785Y39340D01*
G01X45768Y39370D01*
G01X45748Y39400D01*
G01X45726Y39428D01*
G01X45703Y39454D01*
G01X45678Y39479D01*
G01X45651Y39502D01*
G01X45623Y39524D01*
G01X45594Y39543D01*
G01X45583Y39552D01*
G01X45573Y39562D01*
G01X45563Y39574D01*
G01X45557Y39587D01*
G01X45552Y39600D01*
G01X45548Y39614D01*
G01X45547Y39629D01*
G01X45548Y39644D01*
G01X45552Y39658D01*
G01X45557Y39672D01*
G01X45564Y39685D01*
G01X45573Y39697D01*
G01X45595Y39723D01*
G01X45615Y39750D01*
G01X45634Y39779D01*
G01X45650Y39808D01*
G01X45665Y39839D01*
G01X45678Y39870D01*
G01X45689Y39903D01*
G01X45699Y39935D01*
G01X45706Y39968D01*
G01X45711Y40002D01*
G01X45714Y40036D01*
G01X45715Y40070D01*
G01X45714Y40106D01*
G01X45710Y40142D01*
G01X45704Y40177D01*
G01X45697Y40212D01*
G01X45686Y40247D01*
G01X45674Y40281D01*
G01X45659Y40314D01*
G01X45642Y40346D01*
G01X45623Y40377D01*
G01X45603Y40406D01*
G01X45580Y40435D01*
G01X45555Y40461D01*
G01X45529Y40486D01*
G01X45518Y40499D01*
G01X45509Y40513D01*
G01X45501Y40528D01*
G01X45497Y40545D01*
G01X45496Y40562D01*
G01X45497Y40577D01*
G01X45500Y40592D01*
G01X45506Y40606D01*
G01X45514Y40619D01*
G01X45523Y40631D01*
G01X45534Y40641D01*
G01X45561Y40665D01*
G01X45587Y40689D01*
G01X45611Y40716D01*
G01X45634Y40744D01*
G01X45654Y40774D01*
G01X45673Y40805D01*
G01X45689Y40836D01*
G01X45704Y40869D01*
G01X45716Y40903D01*
G01X45727Y40937D01*
G01X45735Y40972D01*
G01X45740Y41008D01*
G01X45744Y41043D01*
G01X45745Y41080D01*
G01X45744Y41116D01*
G01X45740Y41151D01*
G01X45735Y41187D01*
G01X45727Y41222D01*
G01X45716Y41256D01*
G01X45704Y41290D01*
G01X45689Y41322D01*
G01X45673Y41354D01*
G01X45654Y41385D01*
G01X45634Y41415D01*
G01X45612Y41443D01*
G01X45587Y41469D01*
G01X45561Y41495D01*
G01X45534Y41517D01*
G01X45523Y41528D01*
G01X45514Y41540D01*
G01X45507Y41553D01*
G01X45501Y41567D01*
G01X45497Y41582D01*
G01X45496Y41597D01*
G01X45497Y41613D01*
G01X45501Y41630D01*
G01X45508Y41645D01*
G01X45517Y41659D01*
G01X45528Y41671D01*
G01X45553Y41696D01*
G01X45576Y41722D01*
G01X45598Y41750D01*
G01X45618Y41779D01*
G01X45636Y41810D01*
G01X45651Y41841D01*
G01X45666Y41873D01*
G01X45677Y41907D01*
G01X45687Y41940D01*
G01X45695Y41975D01*
G01X45700Y42009D01*
G01X45704Y42044D01*
G01X45705Y42079D01*
G01X45704Y42113D01*
G01X45701Y42147D01*
G01X45696Y42181D01*
G01X45688Y42214D01*
G01X45679Y42246D01*
G01X45668Y42278D01*
G01X45655Y42310D01*
G01X45640Y42340D01*
G01X45624Y42370D01*
G01X45605Y42398D01*
G01X45585Y42426D01*
G01X45563Y42452D01*
G01X45540Y42477D01*
G01X45516Y42500D01*
G01X45462Y42542D01*
G01X45434Y42560D01*
G01X45404Y42577D01*
G01X45374Y42591D01*
G01X45342Y42605D01*
G01X45310Y42615D01*
G01X45277Y42624D01*
G01X45244Y42631D01*
G01X45211Y42637D01*
G01X45177Y42640D01*
G37*
G36*
G01X18297Y28655D02*
G01X18243Y28656D01*
G01X18190Y28655D01*
G01X18137Y28652D01*
G01X18084Y28647D01*
G01X18031Y28640D01*
G01X17979Y28630D01*
G01X17927Y28619D01*
G01X17875Y28605D01*
G01X17824Y28590D01*
G01X17774Y28572D01*
G01X17725Y28553D01*
G01X17675Y28531D01*
G01X17628Y28508D01*
G01X17581Y28483D01*
G01X17535Y28456D01*
G01X17490Y28427D01*
G01X17446Y28397D01*
G01X17403Y28365D01*
G01X17362Y28331D01*
G01X17323Y28296D01*
G01X17284Y28259D01*
G01X17248Y28221D01*
G01X17212Y28180D01*
G01X17178Y28139D01*
G01X17146Y28097D01*
G01X17115Y28053D01*
G01X17087Y28008D01*
G01X17060Y27962D01*
G01X17035Y27915D01*
G01X17011Y27867D01*
G01X16990Y27819D01*
G01X16971Y27769D01*
G01X16953Y27719D01*
G01X16938Y27668D01*
G01X16924Y27616D01*
G01X16913Y27564D01*
G01X16904Y27512D01*
G01X16896Y27459D01*
G01X16891Y27406D01*
G01X16888Y27353D01*
G01X16887Y27300D01*
G01X16888Y27246D01*
G01X16891Y27193D01*
G01X16896Y27140D01*
G01X16904Y27087D01*
G01X16913Y27035D01*
G01X16924Y26983D01*
G01X16938Y26931D01*
G01X16953Y26880D01*
G01X16971Y26830D01*
G01X16990Y26780D01*
G01X17011Y26732D01*
G01X17035Y26684D01*
G01X17060Y26637D01*
G01X17087Y26591D01*
G01X17115Y26546D01*
G01X17146Y26502D01*
G01X17178Y26460D01*
G01X17212Y26419D01*
G01X17248Y26379D01*
G01X17284Y26340D01*
G01X17323Y26303D01*
G01X17362Y26268D01*
G01X17403Y26234D01*
G01X17446Y26202D01*
G01X17490Y26172D01*
G01X17535Y26143D01*
G01X17581Y26116D01*
G01X17628Y26091D01*
G01X17675Y26068D01*
G01X17725Y26046D01*
G01X17774Y26027D01*
G01X17824Y26009D01*
G01X17875Y25994D01*
G01X17927Y25980D01*
G01X17979Y25969D01*
G01X18031Y25960D01*
G01X18084Y25952D01*
G01X18137Y25947D01*
G01X18190Y25944D01*
G01X18243Y25943D01*
G01X18297Y25944D01*
G01X18350Y25947D01*
G01X18403Y25952D01*
G01X18456Y25960D01*
G01X18508Y25969D01*
G01X18560Y25980D01*
G01X18612Y25994D01*
G01X18663Y26009D01*
G01X18713Y26027D01*
G01X18762Y26046D01*
G01X18811Y26068D01*
G01X18859Y26091D01*
G01X18906Y26116D01*
G01X18952Y26143D01*
G01X18997Y26172D01*
G01X19041Y26202D01*
G01X19083Y26234D01*
G01X19125Y26268D01*
G01X19164Y26303D01*
G01X19203Y26340D01*
G01X19239Y26379D01*
G01X19275Y26419D01*
G01X19309Y26460D01*
G01X19341Y26502D01*
G01X19371Y26546D01*
G01X19400Y26591D01*
G01X19427Y26637D01*
G01X19452Y26684D01*
G01X19476Y26732D01*
G01X19497Y26780D01*
G01X19516Y26830D01*
G01X19534Y26880D01*
G01X19549Y26931D01*
G01X19562Y26983D01*
G01X19574Y27035D01*
G01X19583Y27087D01*
G01X19590Y27140D01*
G01X19596Y27193D01*
G01X19599Y27246D01*
G01X19600Y27300D01*
G01X19599Y27353D01*
G01X19596Y27406D01*
G01X19590Y27459D01*
G01X19583Y27512D01*
G01X19574Y27564D01*
G01X19562Y27616D01*
G01X19549Y27668D01*
G01X19534Y27719D01*
G01X19516Y27769D01*
G01X19497Y27819D01*
G01X19476Y27867D01*
G01X19452Y27915D01*
G01X19427Y27962D01*
G01X19400Y28008D01*
G01X19371Y28053D01*
G01X19341Y28097D01*
G01X19309Y28139D01*
G01X19275Y28180D01*
G01X19239Y28221D01*
G01X19203Y28259D01*
G01X19164Y28296D01*
G01X19125Y28331D01*
G01X19083Y28365D01*
G01X19041Y28397D01*
G01X18997Y28427D01*
G01X18952Y28456D01*
G01X18906Y28483D01*
G01X18859Y28508D01*
G01X18811Y28531D01*
G01X18762Y28553D01*
G01X18713Y28572D01*
G01X18663Y28590D01*
G01X18612Y28605D01*
G01X18560Y28619D01*
G01X18508Y28630D01*
G01X18456Y28640D01*
G01X18403Y28647D01*
G01X18350Y28652D01*
G01X18297Y28655D01*
G37*
G36*
G01X39786Y28745D02*
G01X39734Y28746D01*
G01X39680Y28745D01*
G01X39627Y28742D01*
G01X39574Y28737D01*
G01X39521Y28730D01*
G01X39469Y28720D01*
G01X39417Y28709D01*
G01X39365Y28695D01*
G01X39314Y28680D01*
G01X39264Y28662D01*
G01X39214Y28643D01*
G01X39166Y28621D01*
G01X39117Y28598D01*
G01X39071Y28573D01*
G01X39024Y28546D01*
G01X38980Y28518D01*
G01X38936Y28487D01*
G01X38893Y28455D01*
G01X38852Y28421D01*
G01X38813Y28386D01*
G01X38774Y28349D01*
G01X38737Y28310D01*
G01X38702Y28270D01*
G01X38668Y28229D01*
G01X38636Y28187D01*
G01X38605Y28143D01*
G01X38577Y28098D01*
G01X38550Y28052D01*
G01X38525Y28006D01*
G01X38501Y27957D01*
G01X38480Y27909D01*
G01X38461Y27859D01*
G01X38443Y27809D01*
G01X38428Y27758D01*
G01X38414Y27706D01*
G01X38403Y27654D01*
G01X38394Y27602D01*
G01X38386Y27549D01*
G01X38381Y27496D01*
G01X38378Y27443D01*
G01X38377Y27389D01*
G01X38378Y27336D01*
G01X38381Y27283D01*
G01X38386Y27230D01*
G01X38394Y27177D01*
G01X38403Y27125D01*
G01X38414Y27073D01*
G01X38428Y27021D01*
G01X38443Y26970D01*
G01X38461Y26920D01*
G01X38480Y26870D01*
G01X38501Y26822D01*
G01X38525Y26774D01*
G01X38550Y26727D01*
G01X38577Y26681D01*
G01X38605Y26636D01*
G01X38636Y26592D01*
G01X38668Y26550D01*
G01X38702Y26509D01*
G01X38737Y26469D01*
G01X38774Y26430D01*
G01X38813Y26393D01*
G01X38852Y26358D01*
G01X38893Y26324D01*
G01X38936Y26292D01*
G01X38980Y26262D01*
G01X39024Y26233D01*
G01X39071Y26206D01*
G01X39117Y26181D01*
G01X39166Y26158D01*
G01X39214Y26136D01*
G01X39264Y26117D01*
G01X39314Y26100D01*
G01X39365Y26084D01*
G01X39417Y26071D01*
G01X39469Y26059D01*
G01X39521Y26050D01*
G01X39574Y26042D01*
G01X39627Y26037D01*
G01X39680Y26034D01*
G01X39733Y26033D01*
G01X39786Y26034D01*
G01X39840Y26037D01*
G01X39893Y26042D01*
G01X39945Y26050D01*
G01X39998Y26059D01*
G01X40050Y26071D01*
G01X40101Y26084D01*
G01X40153Y26100D01*
G01X40203Y26117D01*
G01X40252Y26136D01*
G01X40301Y26158D01*
G01X40349Y26181D01*
G01X40396Y26206D01*
G01X40442Y26233D01*
G01X40487Y26262D01*
G01X40531Y26292D01*
G01X40573Y26324D01*
G01X40615Y26358D01*
G01X40654Y26393D01*
G01X40693Y26430D01*
G01X40729Y26469D01*
G01X40765Y26509D01*
G01X40799Y26550D01*
G01X40831Y26592D01*
G01X40861Y26636D01*
G01X40890Y26681D01*
G01X40917Y26727D01*
G01X40942Y26774D01*
G01X40966Y26822D01*
G01X40987Y26870D01*
G01X41006Y26920D01*
G01X41023Y26970D01*
G01X41039Y27021D01*
G01X41052Y27073D01*
G01X41064Y27125D01*
G01X41073Y27177D01*
G01X41080Y27230D01*
G01X41086Y27283D01*
G01X41089Y27336D01*
G01X41090Y27389D01*
G01X41089Y27443D01*
G01X41086Y27496D01*
G01X41080Y27549D01*
G01X41073Y27602D01*
G01X41064Y27654D01*
G01X41052Y27706D01*
G01X41039Y27758D01*
G01X41023Y27809D01*
G01X41006Y27859D01*
G01X40987Y27909D01*
G01X40966Y27957D01*
G01X40942Y28006D01*
G01X40917Y28052D01*
G01X40890Y28098D01*
G01X40861Y28143D01*
G01X40831Y28187D01*
G01X40799Y28229D01*
G01X40765Y28270D01*
G01X40729Y28310D01*
G01X40693Y28349D01*
G01X40654Y28386D01*
G01X40615Y28421D01*
G01X40573Y28455D01*
G01X40531Y28487D01*
G01X40487Y28518D01*
G01X40442Y28546D01*
G01X40396Y28573D01*
G01X40349Y28598D01*
G01X40301Y28621D01*
G01X40252Y28643D01*
G01X40203Y28662D01*
G01X40153Y28680D01*
G01X40101Y28695D01*
G01X40050Y28709D01*
G01X39998Y28720D01*
G01X39945Y28730D01*
G01X39893Y28737D01*
G01X39840Y28742D01*
G01X39786Y28745D01*
G37*
G36*
G01X13995Y31821D02*
G01X13943Y31822D01*
G01X13892Y31821D01*
G01X13841Y31818D01*
G01X13790Y31813D01*
G01X13739Y31806D01*
G01X13689Y31796D01*
G01X13639Y31785D01*
G01X13589Y31772D01*
G01X13541Y31757D01*
G01X13492Y31739D01*
G01X13445Y31720D01*
G01X13398Y31699D01*
G01X13352Y31676D01*
G01X13307Y31652D01*
G01X13263Y31625D01*
G01X13221Y31597D01*
G01X13179Y31567D01*
G01X13139Y31535D01*
G01X13100Y31502D01*
G01X13062Y31467D01*
G01X13026Y31431D01*
G01X12991Y31394D01*
G01X12958Y31354D01*
G01X12926Y31314D01*
G01X12896Y31273D01*
G01X12868Y31229D01*
G01X12842Y31186D01*
G01X12817Y31141D01*
G01X12794Y31095D01*
G01X12773Y31048D01*
G01X12754Y31001D01*
G01X12736Y30953D01*
G01X12721Y30903D01*
G01X12708Y30854D01*
G01X12697Y30804D01*
G01X12687Y30753D01*
G01X12680Y30703D01*
G01X12675Y30652D01*
G01X12672Y30601D01*
G01X12671Y30549D01*
G01X12672Y30498D01*
G01X12675Y30447D01*
G01X12680Y30396D01*
G01X12687Y30346D01*
G01X12697Y30295D01*
G01X12708Y30245D01*
G01X12721Y30196D01*
G01X12736Y30146D01*
G01X12754Y30098D01*
G01X12773Y30051D01*
G01X12794Y30004D01*
G01X12817Y29958D01*
G01X12842Y29913D01*
G01X12868Y29870D01*
G01X12896Y29826D01*
G01X12926Y29785D01*
G01X12958Y29745D01*
G01X12991Y29705D01*
G01X13026Y29668D01*
G01X13062Y29632D01*
G01X13100Y29597D01*
G01X13139Y29564D01*
G01X13179Y29532D01*
G01X13221Y29502D01*
G01X13263Y29474D01*
G01X13307Y29447D01*
G01X13352Y29422D01*
G01X13398Y29400D01*
G01X13445Y29379D01*
G01X13492Y29359D01*
G01X13541Y29342D01*
G01X13589Y29327D01*
G01X13639Y29314D01*
G01X13689Y29303D01*
G01X13739Y29293D01*
G01X13790Y29286D01*
G01X13841Y29281D01*
G01X13892Y29278D01*
G01X13943Y29277D01*
G01X13995Y29278D01*
G01X14046Y29281D01*
G01X14097Y29286D01*
G01X14148Y29293D01*
G01X14198Y29303D01*
G01X14248Y29314D01*
G01X14298Y29327D01*
G01X14346Y29342D01*
G01X14395Y29359D01*
G01X14442Y29379D01*
G01X14489Y29400D01*
G01X14535Y29422D01*
G01X14580Y29447D01*
G01X14624Y29474D01*
G01X14666Y29502D01*
G01X14708Y29532D01*
G01X14748Y29564D01*
G01X14787Y29597D01*
G01X14825Y29632D01*
G01X14861Y29668D01*
G01X14896Y29705D01*
G01X14929Y29745D01*
G01X14961Y29785D01*
G01X14991Y29826D01*
G01X15019Y29870D01*
G01X15045Y29913D01*
G01X15070Y29958D01*
G01X15093Y30004D01*
G01X15114Y30051D01*
G01X15133Y30098D01*
G01X15150Y30146D01*
G01X15166Y30196D01*
G01X15179Y30245D01*
G01X15190Y30295D01*
G01X15200Y30346D01*
G01X15207Y30396D01*
G01X15212Y30447D01*
G01X15215Y30498D01*
G01X15216Y30549D01*
G01X15215Y30601D01*
G01X15212Y30652D01*
G01X15207Y30703D01*
G01X15200Y30753D01*
G01X15190Y30804D01*
G01X15179Y30854D01*
G01X15166Y30903D01*
G01X15150Y30953D01*
G01X15133Y31001D01*
G01X15114Y31048D01*
G01X15093Y31095D01*
G01X15070Y31141D01*
G01X15045Y31186D01*
G01X15019Y31229D01*
G01X14991Y31273D01*
G01X14961Y31314D01*
G01X14929Y31354D01*
G01X14896Y31394D01*
G01X14861Y31431D01*
G01X14825Y31467D01*
G01X14787Y31502D01*
G01X14748Y31535D01*
G01X14708Y31567D01*
G01X14666Y31597D01*
G01X14624Y31625D01*
G01X14580Y31652D01*
G01X14535Y31676D01*
G01X14489Y31699D01*
G01X14442Y31720D01*
G01X14395Y31739D01*
G01X14346Y31757D01*
G01X14298Y31772D01*
G01X14248Y31785D01*
G01X14198Y31796D01*
G01X14148Y31806D01*
G01X14097Y31813D01*
G01X14046Y31818D01*
G01X13995Y31821D01*
G37*
G36*
G01X44115Y32111D02*
G01X44063Y32112D01*
G01X44012Y32111D01*
G01X43961Y32108D01*
G01X43910Y32103D01*
G01X43859Y32096D01*
G01X43809Y32086D01*
G01X43759Y32075D01*
G01X43709Y32062D01*
G01X43660Y32047D01*
G01X43612Y32030D01*
G01X43564Y32010D01*
G01X43518Y31989D01*
G01X43472Y31967D01*
G01X43427Y31942D01*
G01X43383Y31915D01*
G01X43340Y31887D01*
G01X43299Y31857D01*
G01X43259Y31825D01*
G01X43220Y31792D01*
G01X43182Y31757D01*
G01X43145Y31721D01*
G01X43111Y31684D01*
G01X43078Y31644D01*
G01X43046Y31604D01*
G01X43016Y31563D01*
G01X42988Y31520D01*
G01X42961Y31476D01*
G01X42937Y31431D01*
G01X42914Y31385D01*
G01X42892Y31338D01*
G01X42874Y31291D01*
G01X42856Y31243D01*
G01X42841Y31193D01*
G01X42828Y31144D01*
G01X42817Y31094D01*
G01X42807Y31044D01*
G01X42800Y30993D01*
G01X42795Y30942D01*
G01X42792Y30891D01*
G01X42791Y30839D01*
G01X42792Y30788D01*
G01X42795Y30737D01*
G01X42800Y30686D01*
G01X42807Y30636D01*
G01X42817Y30585D01*
G01X42828Y30535D01*
G01X42841Y30486D01*
G01X42856Y30436D01*
G01X42874Y30388D01*
G01X42892Y30341D01*
G01X42914Y30294D01*
G01X42937Y30248D01*
G01X42961Y30203D01*
G01X42988Y30160D01*
G01X43016Y30116D01*
G01X43046Y30075D01*
G01X43078Y30035D01*
G01X43111Y29996D01*
G01X43145Y29958D01*
G01X43182Y29922D01*
G01X43220Y29887D01*
G01X43259Y29854D01*
G01X43299Y29822D01*
G01X43340Y29792D01*
G01X43383Y29764D01*
G01X43427Y29737D01*
G01X43472Y29713D01*
G01X43518Y29690D01*
G01X43564Y29669D01*
G01X43612Y29650D01*
G01X43660Y29632D01*
G01X43709Y29617D01*
G01X43759Y29604D01*
G01X43809Y29593D01*
G01X43859Y29584D01*
G01X43910Y29576D01*
G01X43961Y29571D01*
G01X44012Y29568D01*
G01X44063Y29567D01*
G01X44115Y29568D01*
G01X44166Y29571D01*
G01X44217Y29576D01*
G01X44268Y29584D01*
G01X44318Y29593D01*
G01X44368Y29604D01*
G01X44417Y29617D01*
G01X44466Y29632D01*
G01X44514Y29650D01*
G01X44562Y29669D01*
G01X44609Y29690D01*
G01X44655Y29713D01*
G01X44700Y29737D01*
G01X44744Y29764D01*
G01X44786Y29792D01*
G01X44828Y29822D01*
G01X44868Y29854D01*
G01X44907Y29887D01*
G01X44945Y29922D01*
G01X44981Y29958D01*
G01X45016Y29996D01*
G01X45049Y30035D01*
G01X45081Y30075D01*
G01X45111Y30116D01*
G01X45139Y30160D01*
G01X45165Y30203D01*
G01X45190Y30248D01*
G01X45213Y30294D01*
G01X45234Y30341D01*
G01X45253Y30388D01*
G01X45270Y30436D01*
G01X45286Y30486D01*
G01X45299Y30535D01*
G01X45310Y30585D01*
G01X45320Y30636D01*
G01X45327Y30686D01*
G01X45332Y30737D01*
G01X45335Y30788D01*
G01X45336Y30839D01*
G01X45335Y30891D01*
G01X45332Y30942D01*
G01X45327Y30993D01*
G01X45320Y31044D01*
G01X45310Y31094D01*
G01X45299Y31144D01*
G01X45286Y31193D01*
G01X45270Y31243D01*
G01X45253Y31291D01*
G01X45234Y31338D01*
G01X45213Y31385D01*
G01X45190Y31431D01*
G01X45165Y31476D01*
G01X45139Y31520D01*
G01X45111Y31563D01*
G01X45081Y31604D01*
G01X45049Y31644D01*
G01X45016Y31684D01*
G01X44981Y31721D01*
G01X44945Y31757D01*
G01X44907Y31792D01*
G01X44868Y31825D01*
G01X44828Y31857D01*
G01X44786Y31887D01*
G01X44744Y31915D01*
G01X44700Y31942D01*
G01X44655Y31967D01*
G01X44609Y31989D01*
G01X44562Y32010D01*
G01X44514Y32030D01*
G01X44466Y32047D01*
G01X44417Y32062D01*
G01X44368Y32075D01*
G01X44318Y32086D01*
G01X44268Y32096D01*
G01X44217Y32103D01*
G01X44166Y32108D01*
G01X44115Y32111D01*
G37*
G36*
G01X19071Y41803D02*
G01X17496Y41803D01*
G01X17473Y41802D01*
G01X17449Y41799D01*
G01X17426Y41794D01*
G01X17403Y41786D01*
G01X17382Y41777D01*
G01X17361Y41765D01*
G01X17342Y41752D01*
G01X17323Y41736D01*
G01X17306Y41720D01*
G01X17291Y41701D01*
G01X17278Y41682D01*
G01X17266Y41661D01*
G01X17257Y41639D01*
G01X17249Y41617D01*
G01X17244Y41594D01*
G01X17240Y41571D01*
G01X17239Y41547D01*
G01X17239Y39972D01*
G01X17240Y39949D01*
G01X17244Y39925D01*
G01X17249Y39903D01*
G01X17257Y39880D01*
G01X17266Y39859D01*
G01X17277Y39838D01*
G01X17290Y39819D01*
G01X17305Y39800D01*
G01X17322Y39784D01*
G01X17339Y39769D01*
G01X17359Y39755D01*
G01X17379Y39744D01*
G01X17401Y39734D01*
G01X17423Y39726D01*
G01X17446Y39721D01*
G01X17460Y39717D01*
G01X17475Y39710D01*
G01X17488Y39701D01*
G01X17499Y39691D01*
G01X17509Y39679D01*
G01X17517Y39666D01*
G01X17523Y39652D01*
G01X17526Y39636D01*
G01X17527Y39621D01*
G01X17527Y33587D01*
G01X17526Y33570D01*
G01X17522Y33555D01*
G01X17515Y33539D01*
G01X17507Y33525D01*
G01X17495Y33513D01*
G01X17483Y33503D01*
G01X17440Y33472D01*
G01X17397Y33440D01*
G01X17357Y33406D01*
G01X17317Y33371D01*
G01X17280Y33334D01*
G01X17243Y33295D01*
G01X17208Y33256D01*
G01X17174Y33215D01*
G01X17143Y33173D01*
G01X17113Y33129D01*
G01X17084Y33084D01*
G01X17058Y33038D01*
G01X17033Y32992D01*
G01X17010Y32944D01*
G01X16989Y32896D01*
G01X16970Y32846D01*
G01X16952Y32796D01*
G01X16937Y32745D01*
G01X16924Y32695D01*
G01X16913Y32643D01*
G01X16904Y32590D01*
G01X16896Y32538D01*
G01X16891Y32485D01*
G01X16888Y32432D01*
G01X16887Y32380D01*
G01X16888Y32326D01*
G01X16891Y32273D01*
G01X16896Y32220D01*
G01X16904Y32167D01*
G01X16913Y32115D01*
G01X16924Y32063D01*
G01X16938Y32011D01*
G01X16953Y31960D01*
G01X16971Y31910D01*
G01X16990Y31860D01*
G01X17011Y31812D01*
G01X17035Y31764D01*
G01X17060Y31717D01*
G01X17087Y31671D01*
G01X17115Y31626D01*
G01X17146Y31582D01*
G01X17178Y31540D01*
G01X17212Y31499D01*
G01X17248Y31459D01*
G01X17284Y31420D01*
G01X17323Y31383D01*
G01X17362Y31348D01*
G01X17403Y31314D01*
G01X17446Y31282D01*
G01X17490Y31252D01*
G01X17535Y31223D01*
G01X17581Y31196D01*
G01X17628Y31171D01*
G01X17675Y31148D01*
G01X17725Y31126D01*
G01X17774Y31107D01*
G01X17824Y31089D01*
G01X17875Y31074D01*
G01X17927Y31060D01*
G01X17979Y31049D01*
G01X18031Y31040D01*
G01X18084Y31032D01*
G01X18137Y31027D01*
G01X18190Y31024D01*
G01X18243Y31023D01*
G01X18297Y31024D01*
G01X18350Y31027D01*
G01X18403Y31032D01*
G01X18456Y31040D01*
G01X18508Y31049D01*
G01X18560Y31060D01*
G01X18612Y31074D01*
G01X18663Y31089D01*
G01X18713Y31107D01*
G01X18762Y31126D01*
G01X18811Y31148D01*
G01X18859Y31171D01*
G01X18906Y31196D01*
G01X18952Y31223D01*
G01X18997Y31252D01*
G01X19041Y31282D01*
G01X19083Y31314D01*
G01X19125Y31348D01*
G01X19164Y31383D01*
G01X19203Y31420D01*
G01X19239Y31459D01*
G01X19275Y31499D01*
G01X19309Y31540D01*
G01X19341Y31582D01*
G01X19371Y31626D01*
G01X19400Y31671D01*
G01X19427Y31717D01*
G01X19452Y31764D01*
G01X19476Y31812D01*
G01X19497Y31860D01*
G01X19516Y31910D01*
G01X19534Y31960D01*
G01X19549Y32011D01*
G01X19562Y32063D01*
G01X19574Y32115D01*
G01X19583Y32167D01*
G01X19590Y32220D01*
G01X19596Y32273D01*
G01X19599Y32326D01*
G01X19600Y32380D01*
G01X19599Y32433D01*
G01X19596Y32486D01*
G01X19590Y32540D01*
G01X19583Y32592D01*
G01X19574Y32645D01*
G01X19562Y32698D01*
G01X19549Y32749D01*
G01X19533Y32800D01*
G01X19515Y32851D01*
G01X19496Y32901D01*
G01X19475Y32950D01*
G01X19451Y32998D01*
G01X19426Y33045D01*
G01X19398Y33091D01*
G01X19369Y33136D01*
G01X19339Y33180D01*
G01X19306Y33222D01*
G01X19272Y33263D01*
G01X19237Y33304D01*
G01X19200Y33342D01*
G01X19161Y33379D01*
G01X19121Y33414D01*
G01X19079Y33448D01*
G01X19068Y33458D01*
G01X19059Y33470D01*
G01X19050Y33483D01*
G01X19045Y33498D01*
G01X19042Y33513D01*
G01X19040Y33528D01*
G01X19040Y39621D01*
G01X19042Y39636D01*
G01X19045Y39652D01*
G01X19051Y39666D01*
G01X19059Y39680D01*
G01X19068Y39691D01*
G01X19080Y39701D01*
G01X19093Y39710D01*
G01X19107Y39717D01*
G01X19122Y39721D01*
G01X19144Y39726D01*
G01X19167Y39734D01*
G01X19188Y39744D01*
G01X19208Y39756D01*
G01X19228Y39769D01*
G01X19245Y39784D01*
G01X19262Y39801D01*
G01X19276Y39819D01*
G01X19290Y39839D01*
G01X19301Y39859D01*
G01X19311Y39881D01*
G01X19318Y39903D01*
G01X19323Y39925D01*
G01X19326Y39949D01*
G01X19327Y39972D01*
G01X19327Y41547D01*
G01X19326Y41571D01*
G01X19323Y41594D01*
G01X19318Y41617D01*
G01X19310Y41639D01*
G01X19300Y41661D01*
G01X19289Y41682D01*
G01X19275Y41701D01*
G01X19260Y41720D01*
G01X19226Y41752D01*
G01X19206Y41765D01*
G01X19185Y41777D01*
G01X19164Y41786D01*
G01X19141Y41794D01*
G01X19118Y41799D01*
G01X19095Y41802D01*
G01X19071Y41803D01*
G37*
G36*
G01X15538Y40322D02*
G01X14951Y40322D01*
G01X14951Y39735D01*
G01X15281Y39735D01*
G01X15304Y39737D01*
G01X15328Y39740D01*
G01X15351Y39746D01*
G01X15374Y39753D01*
G01X15395Y39762D01*
G01X15416Y39774D01*
G01X15435Y39787D01*
G01X15454Y39802D01*
G01X15471Y39819D01*
G01X15486Y39837D01*
G01X15499Y39857D01*
G01X15511Y39878D01*
G01X15520Y39899D01*
G01X15527Y39922D01*
G01X15533Y39945D01*
G01X15536Y39969D01*
G01X15538Y39992D01*
G01X15538Y40322D01*
G37*
G36*
G01X14036Y40322D02*
G01X13450Y40322D01*
G01X13450Y39992D01*
G01X13451Y39969D01*
G01X13454Y39945D01*
G01X13459Y39922D01*
G01X13467Y39899D01*
G01X13476Y39878D01*
G01X13488Y39857D01*
G01X13502Y39837D01*
G01X13516Y39819D01*
G01X13533Y39802D01*
G01X13551Y39787D01*
G01X13571Y39774D01*
G01X13591Y39762D01*
G01X13613Y39753D01*
G01X13636Y39746D01*
G01X13659Y39740D01*
G01X13682Y39737D01*
G01X13706Y39735D01*
G01X14036Y39735D01*
G01X14036Y40322D01*
G37*
G36*
G01X15281Y41823D02*
G01X14951Y41823D01*
G01X14951Y41237D01*
G01X15538Y41237D01*
G01X15538Y41567D01*
G01X15536Y41591D01*
G01X15533Y41614D01*
G01X15527Y41637D01*
G01X15520Y41660D01*
G01X15511Y41682D01*
G01X15499Y41702D01*
G01X15486Y41722D01*
G01X15471Y41740D01*
G01X15454Y41757D01*
G01X15416Y41785D01*
G01X15395Y41797D01*
G01X15374Y41806D01*
G01X15351Y41814D01*
G01X15328Y41819D01*
G01X15304Y41822D01*
G01X15281Y41823D01*
G37*
G36*
G01X14036Y41823D02*
G01X13706Y41823D01*
G01X13682Y41822D01*
G01X13659Y41819D01*
G01X13636Y41814D01*
G01X13613Y41806D01*
G01X13591Y41797D01*
G01X13571Y41785D01*
G01X13551Y41771D01*
G01X13533Y41757D01*
G01X13516Y41740D01*
G01X13502Y41722D01*
G01X13488Y41702D01*
G01X13476Y41682D01*
G01X13467Y41660D01*
G01X13459Y41637D01*
G01X13454Y41614D01*
G01X13451Y41591D01*
G01X13450Y41567D01*
G01X13450Y41237D01*
G01X14036Y41237D01*
G01X14036Y41823D01*
G37*
G36*
G01X17849Y45815D02*
G01X17536Y46129D01*
G01X17205Y45798D01*
G01X17336Y45666D01*
G01X17355Y45649D01*
G01X17376Y45634D01*
G01X17397Y45621D01*
G01X17420Y45610D01*
G01X17444Y45602D01*
G01X17468Y45596D01*
G01X17493Y45592D01*
G01X17518Y45591D01*
G01X17543Y45592D01*
G01X17568Y45596D01*
G01X17592Y45602D01*
G01X17616Y45610D01*
G01X17639Y45621D01*
G01X17661Y45634D01*
G01X17681Y45649D01*
G01X17700Y45666D01*
G01X17849Y45815D01*
G37*
G36*
G01X18477Y46806D02*
G01X18345Y46938D01*
G01X18015Y46607D01*
G01X18328Y46294D01*
G01X18477Y46444D01*
G01X18494Y46462D01*
G01X18509Y46483D01*
G01X18522Y46504D01*
G01X18533Y46527D01*
G01X18541Y46551D01*
G01X18547Y46575D01*
G01X18551Y46600D01*
G01X18553Y46625D01*
G01X18551Y46650D01*
G01X18547Y46675D01*
G01X18541Y46700D01*
G01X18533Y46723D01*
G01X18522Y46746D01*
G01X18509Y46768D01*
G01X18494Y46788D01*
G01X18477Y46806D01*
G37*
G36*
G01X44781Y47768D02*
G01X44129Y47768D01*
G01X44157Y47717D01*
G01X44187Y47666D01*
G01X44219Y47616D01*
G01X44252Y47569D01*
G01X44287Y47522D01*
G01X44325Y47477D01*
G01X44364Y47433D01*
G01X44404Y47391D01*
G01X44446Y47350D01*
G01X44490Y47312D01*
G01X44535Y47275D01*
G01X44582Y47239D01*
G01X44630Y47206D01*
G01X44679Y47174D01*
G01X44729Y47144D01*
G01X44781Y47116D01*
G01X44781Y47768D01*
G37*
G36*
G01X46810Y47768D02*
G01X46158Y47768D01*
G01X46158Y47116D01*
G01X46210Y47144D01*
G01X46260Y47174D01*
G01X46309Y47206D01*
G01X46357Y47239D01*
G01X46404Y47275D01*
G01X46449Y47312D01*
G01X46493Y47350D01*
G01X46535Y47391D01*
G01X46575Y47433D01*
G01X46614Y47477D01*
G01X46652Y47522D01*
G01X46687Y47569D01*
G01X46720Y47616D01*
G01X46752Y47666D01*
G01X46782Y47717D01*
G01X46810Y47768D01*
G37*
G36*
G01X13879Y47773D02*
G01X13228Y47773D01*
G01X13228Y47121D01*
G01X13280Y47149D01*
G01X13330Y47179D01*
G01X13379Y47211D01*
G01X13427Y47244D01*
G01X13474Y47279D01*
G01X13519Y47317D01*
G01X13562Y47355D01*
G01X13605Y47396D01*
G01X13645Y47438D01*
G01X13684Y47482D01*
G01X13721Y47527D01*
G01X13757Y47574D01*
G01X13790Y47622D01*
G01X13822Y47671D01*
G01X13852Y47721D01*
G01X13879Y47773D01*
G37*
G36*
G01X11851Y47773D02*
G01X11199Y47773D01*
G01X11227Y47721D01*
G01X11257Y47671D01*
G01X11289Y47622D01*
G01X11322Y47574D01*
G01X11358Y47527D01*
G01X11395Y47482D01*
G01X11433Y47438D01*
G01X11474Y47396D01*
G01X11516Y47355D01*
G01X11560Y47317D01*
G01X11605Y47279D01*
G01X11652Y47244D01*
G01X11700Y47211D01*
G01X11749Y47179D01*
G01X11799Y47149D01*
G01X11851Y47121D01*
G01X11851Y47773D01*
G37*
G36*
G01X23738Y49616D02*
G01X23189Y49616D01*
G01X23165Y49615D01*
G01X23141Y49612D01*
G01X23118Y49606D01*
G01X23096Y49599D01*
G01X23074Y49589D01*
G01X23053Y49578D01*
G01X23034Y49564D01*
G01X23015Y49549D01*
G01X22999Y49532D01*
G01X22984Y49514D01*
G01X22970Y49495D01*
G01X22959Y49474D01*
G01X22949Y49452D01*
G01X22942Y49430D01*
G01X22936Y49407D01*
G01X22933Y49383D01*
G01X22932Y49359D01*
G01X22932Y48059D01*
G01X22933Y48036D01*
G01X22936Y48012D01*
G01X22942Y47989D01*
G01X22949Y47967D01*
G01X22959Y47945D01*
G01X22970Y47924D01*
G01X22984Y47905D01*
G01X22999Y47887D01*
G01X23015Y47870D01*
G01X23034Y47855D01*
G01X23053Y47842D01*
G01X23074Y47830D01*
G01X23096Y47820D01*
G01X23118Y47813D01*
G01X23141Y47808D01*
G01X23165Y47804D01*
G01X23189Y47803D01*
G01X23738Y47803D01*
G01X23762Y47804D01*
G01X23785Y47808D01*
G01X23808Y47813D01*
G01X23831Y47820D01*
G01X23853Y47830D01*
G01X23873Y47842D01*
G01X23893Y47855D01*
G01X23911Y47870D01*
G01X23928Y47887D01*
G01X23943Y47905D01*
G01X23957Y47924D01*
G01X23968Y47945D01*
G01X23978Y47967D01*
G01X23985Y47989D01*
G01X23991Y48012D01*
G01X23994Y48036D01*
G01X23995Y48059D01*
G01X23995Y49359D01*
G01X23994Y49383D01*
G01X23991Y49407D01*
G01X23985Y49430D01*
G01X23978Y49452D01*
G01X23968Y49474D01*
G01X23957Y49495D01*
G01X23943Y49514D01*
G01X23928Y49532D01*
G01X23911Y49549D01*
G01X23893Y49564D01*
G01X23873Y49578D01*
G01X23853Y49589D01*
G01X23831Y49599D01*
G01X23808Y49606D01*
G01X23785Y49612D01*
G01X23762Y49615D01*
G01X23738Y49616D01*
G37*
G36*
G01X25145Y49336D02*
G01X24677Y49336D01*
G01X24677Y49150D01*
G01X24678Y49126D01*
G01X24681Y49102D01*
G01X24687Y49080D01*
G01X24694Y49057D01*
G01X24703Y49035D01*
G01X24715Y49015D01*
G01X24728Y48995D01*
G01X24744Y48977D01*
G01X24760Y48960D01*
G01X24779Y48945D01*
G01X24798Y48931D01*
G01X24819Y48920D01*
G01X24841Y48910D01*
G01X24863Y48903D01*
G01X24886Y48897D01*
G01X24910Y48894D01*
G01X24933Y48893D01*
G01X25145Y48893D01*
G01X25145Y49336D01*
G37*
G36*
G01X26290Y49336D02*
G01X25822Y49336D01*
G01X25822Y48893D01*
G01X26033Y48893D01*
G01X26057Y48894D01*
G01X26081Y48897D01*
G01X26103Y48903D01*
G01X26126Y48910D01*
G01X26148Y48920D01*
G01X26169Y48931D01*
G01X26188Y48945D01*
G01X26206Y48960D01*
G01X26223Y48977D01*
G01X26238Y48995D01*
G01X26251Y49015D01*
G01X26263Y49035D01*
G01X26273Y49057D01*
G01X26280Y49080D01*
G01X26285Y49102D01*
G01X26289Y49126D01*
G01X26290Y49150D01*
G01X26290Y49336D01*
G37*
G36*
G01X44781Y49145D02*
G01X44781Y49796D01*
G01X44729Y49768D01*
G01X44679Y49739D01*
G01X44630Y49707D01*
G01X44582Y49674D01*
G01X44535Y49638D01*
G01X44490Y49601D01*
G01X44446Y49562D01*
G01X44404Y49521D01*
G01X44364Y49479D01*
G01X44325Y49436D01*
G01X44287Y49390D01*
G01X44252Y49344D01*
G01X44219Y49296D01*
G01X44187Y49247D01*
G01X44157Y49196D01*
G01X44129Y49145D01*
G01X44781Y49145D01*
G37*
G36*
G01X46210Y49768D02*
G01X46158Y49796D01*
G01X46158Y49145D01*
G01X46810Y49145D01*
G01X46782Y49196D01*
G01X46752Y49247D01*
G01X46720Y49296D01*
G01X46687Y49344D01*
G01X46652Y49390D01*
G01X46614Y49436D01*
G01X46575Y49479D01*
G01X46535Y49521D01*
G01X46493Y49562D01*
G01X46449Y49601D01*
G01X46404Y49638D01*
G01X46357Y49674D01*
G01X46309Y49707D01*
G01X46260Y49739D01*
G01X46210Y49768D01*
G37*
G36*
G01X13280Y49773D02*
G01X13228Y49801D01*
G01X13228Y49150D01*
G01X13879Y49150D01*
G01X13852Y49201D01*
G01X13822Y49252D01*
G01X13790Y49301D01*
G01X13757Y49349D01*
G01X13721Y49396D01*
G01X13684Y49441D01*
G01X13645Y49484D01*
G01X13605Y49527D01*
G01X13562Y49567D01*
G01X13519Y49606D01*
G01X13474Y49643D01*
G01X13427Y49678D01*
G01X13379Y49712D01*
G01X13330Y49744D01*
G01X13280Y49773D01*
G37*
G36*
G01X11851Y49150D02*
G01X11851Y49801D01*
G01X11799Y49773D01*
G01X11749Y49744D01*
G01X11700Y49712D01*
G01X11652Y49678D01*
G01X11605Y49643D01*
G01X11560Y49606D01*
G01X11516Y49567D01*
G01X11474Y49527D01*
G01X11433Y49484D01*
G01X11395Y49441D01*
G01X11358Y49396D01*
G01X11322Y49349D01*
G01X11289Y49301D01*
G01X11257Y49252D01*
G01X11227Y49201D01*
G01X11199Y49150D01*
G01X11851Y49150D01*
G37*
G36*
G01X28683Y55535D02*
G01X28632Y55535D01*
G01X28582Y55532D01*
G01X28531Y55527D01*
G01X28481Y55519D01*
G01X28432Y55510D01*
G01X28382Y55499D01*
G01X28334Y55486D01*
G01X28285Y55471D01*
G01X28238Y55454D01*
G01X28191Y55435D01*
G01X28145Y55414D01*
G01X28099Y55392D01*
G01X28055Y55368D01*
G01X28012Y55342D01*
G01X27970Y55314D01*
G01X27929Y55284D01*
G01X27889Y55253D01*
G01X27850Y55220D01*
G01X27813Y55186D01*
G01X27777Y55151D01*
G01X27743Y55114D01*
G01X27710Y55075D01*
G01X27679Y55035D01*
G01X27649Y54994D01*
G01X27621Y54952D01*
G01X27595Y54909D01*
G01X27571Y54865D01*
G01X27562Y54851D01*
G01X27552Y54840D01*
G01X27540Y54830D01*
G01X27527Y54821D01*
G01X27512Y54815D01*
G01X27497Y54812D01*
G01X27481Y54810D01*
G01X22414Y54810D01*
G01X22379Y54809D01*
G01X22344Y54806D01*
G01X22310Y54800D01*
G01X22276Y54793D01*
G01X22243Y54782D01*
G01X22211Y54770D01*
G01X22179Y54755D01*
G01X22148Y54739D01*
G01X22119Y54721D01*
G01X22090Y54701D01*
G01X22063Y54679D01*
G01X22038Y54655D01*
G01X21324Y53941D01*
G01X21312Y53931D01*
G01X21299Y53922D01*
G01X21284Y53916D01*
G01X21268Y53913D01*
G01X21253Y53911D01*
G01X20163Y53911D01*
G01X20129Y53910D01*
G01X20094Y53907D01*
G01X20060Y53901D01*
G01X20026Y53893D01*
G01X19993Y53883D01*
G01X19960Y53871D01*
G01X19928Y53856D01*
G01X19898Y53840D01*
G01X19868Y53822D01*
G01X19840Y53801D01*
G01X19813Y53780D01*
G01X19788Y53756D01*
G01X19048Y53017D01*
G01X19025Y52991D01*
G01X19003Y52964D01*
G01X18982Y52936D01*
G01X18964Y52906D01*
G01X18948Y52876D01*
G01X18933Y52844D01*
G01X18921Y52811D01*
G01X18911Y52778D01*
G01X18903Y52744D01*
G01X18898Y52710D01*
G01X18894Y52675D01*
G01X18893Y52641D01*
G01X18893Y51982D01*
G01X18891Y51968D01*
G01X18888Y51953D01*
G01X18883Y51939D01*
G01X18875Y51925D01*
G01X18866Y51914D01*
G01X18855Y51904D01*
G01X18842Y51895D01*
G01X18828Y51888D01*
G01X18807Y51879D01*
G01X18787Y51867D01*
G01X18767Y51853D01*
G01X18749Y51838D01*
G01X18733Y51822D01*
G01X18718Y51803D01*
G01X18704Y51784D01*
G01X18693Y51763D01*
G01X18684Y51741D01*
G01X18677Y51720D01*
G01X18671Y51696D01*
G01X18668Y51673D01*
G01X18667Y51650D01*
G01X18667Y50650D01*
G01X18668Y50626D01*
G01X18671Y50603D01*
G01X18677Y50580D01*
G01X18684Y50557D01*
G01X18694Y50535D01*
G01X18705Y50515D01*
G01X18719Y50495D01*
G01X18734Y50477D01*
G01X18751Y50460D01*
G01X18769Y50445D01*
G01X18788Y50431D01*
G01X18809Y50420D01*
G01X18830Y50410D01*
G01X18853Y50403D01*
G01X18876Y50397D01*
G01X18900Y50394D01*
G01X18923Y50393D01*
G01X19923Y50393D01*
G01X19947Y50394D01*
G01X19970Y50397D01*
G01X19994Y50403D01*
G01X20016Y50410D01*
G01X20038Y50420D01*
G01X20058Y50431D01*
G01X20078Y50445D01*
G01X20096Y50460D01*
G01X20113Y50477D01*
G01X20128Y50495D01*
G01X20142Y50515D01*
G01X20153Y50535D01*
G01X20162Y50557D01*
G01X20170Y50580D01*
G01X20176Y50603D01*
G01X20179Y50626D01*
G01X20180Y50650D01*
G01X20180Y51650D01*
G01X20179Y51673D01*
G01X20176Y51696D01*
G01X20171Y51719D01*
G01X20163Y51741D01*
G01X20154Y51763D01*
G01X20143Y51783D01*
G01X20129Y51803D01*
G01X20115Y51821D01*
G01X20098Y51837D01*
G01X20080Y51853D01*
G01X20061Y51866D01*
G01X20041Y51878D01*
G01X20019Y51888D01*
G01X20006Y51894D01*
G01X19994Y51903D01*
G01X19983Y51913D01*
G01X19973Y51925D01*
G01X19966Y51938D01*
G01X19960Y51952D01*
G01X19957Y51967D01*
G01X19956Y51982D01*
G01X19956Y52378D01*
G01X19957Y52394D01*
G01X19961Y52410D01*
G01X19967Y52425D01*
G01X19975Y52438D01*
G01X19986Y52450D01*
G01X20354Y52818D01*
G01X20366Y52829D01*
G01X20379Y52837D01*
G01X20394Y52843D01*
G01X20410Y52847D01*
G01X20426Y52848D01*
G01X20930Y52848D01*
G01X20945Y52847D01*
G01X20959Y52844D01*
G01X20973Y52839D01*
G01X20985Y52832D01*
G01X20997Y52823D01*
G01X21007Y52813D01*
G01X21016Y52802D01*
G01X21022Y52789D01*
G01X21028Y52775D01*
G01X21031Y52761D01*
G01X21032Y52747D01*
G01X21032Y50559D01*
G01X21033Y50536D01*
G01X21036Y50513D01*
G01X21042Y50489D01*
G01X21049Y50467D01*
G01X21059Y50445D01*
G01X21070Y50425D01*
G01X21083Y50405D01*
G01X21099Y50387D01*
G01X21115Y50370D01*
G01X21134Y50355D01*
G01X21154Y50341D01*
G01X21174Y50330D01*
G01X21196Y50320D01*
G01X21218Y50313D01*
G01X21241Y50307D01*
G01X21265Y50304D01*
G01X21288Y50303D01*
G01X21838Y50303D01*
G01X21864Y50304D01*
G01X21889Y50308D01*
G01X21914Y50314D01*
G01X21937Y50323D01*
G01X21960Y50334D01*
G01X21982Y50346D01*
G01X21995Y50354D01*
G01X22008Y50360D01*
G01X22023Y50363D01*
G01X22038Y50364D01*
G01X22053Y50363D01*
G01X22068Y50360D01*
G01X22082Y50354D01*
G01X22095Y50346D01*
G01X22117Y50334D01*
G01X22140Y50323D01*
G01X22163Y50314D01*
G01X22188Y50308D01*
G01X22213Y50304D01*
G01X22239Y50303D01*
G01X22312Y50303D01*
G01X22312Y50821D01*
G01X22196Y50821D01*
G01X22182Y50822D01*
G01X22168Y50825D01*
G01X22154Y50830D01*
G01X22142Y50837D01*
G01X22130Y50846D01*
G01X22120Y50856D01*
G01X22111Y50868D01*
G01X22104Y50880D01*
G01X22099Y50894D01*
G01X22096Y50908D01*
G01X22095Y50923D01*
G01X22095Y51497D01*
G01X22096Y51511D01*
G01X22099Y51525D01*
G01X22104Y51539D01*
G01X22111Y51551D01*
G01X22120Y51563D01*
G01X22130Y51573D01*
G01X22142Y51582D01*
G01X22154Y51589D01*
G01X22168Y51594D01*
G01X22182Y51597D01*
G01X22196Y51598D01*
G01X22312Y51598D01*
G01X22312Y52116D01*
G01X22239Y52116D01*
G01X22209Y52114D01*
G01X22196Y52114D01*
G01X22182Y52115D01*
G01X22168Y52118D01*
G01X22154Y52123D01*
G01X22142Y52130D01*
G01X22130Y52138D01*
G01X22120Y52149D01*
G01X22111Y52160D01*
G01X22104Y52173D01*
G01X22099Y52186D01*
G01X22096Y52201D01*
G01X22095Y52215D01*
G01X22095Y53166D01*
G01X22096Y53182D01*
G01X22100Y53197D01*
G01X22106Y53212D01*
G01X22114Y53226D01*
G01X22125Y53238D01*
G01X22604Y53718D01*
G01X22617Y53728D01*
G01X22630Y53736D01*
G01X22645Y53742D01*
G01X22660Y53746D01*
G01X22676Y53748D01*
G01X22830Y53748D01*
G01X22845Y53747D01*
G01X22859Y53743D01*
G01X22873Y53738D01*
G01X22885Y53731D01*
G01X22896Y53723D01*
G01X22907Y53712D01*
G01X22916Y53701D01*
G01X22922Y53688D01*
G01X22927Y53674D01*
G01X22931Y53660D01*
G01X22932Y53646D01*
G01X22932Y52215D01*
G01X22931Y52201D01*
G01X22927Y52186D01*
G01X22922Y52173D01*
G01X22916Y52161D01*
G01X22907Y52149D01*
G01X22896Y52138D01*
G01X22885Y52130D01*
G01X22873Y52123D01*
G01X22859Y52118D01*
G01X22845Y52115D01*
G01X22830Y52114D01*
G01X22818Y52114D01*
G01X22788Y52116D01*
G01X22715Y52116D01*
G01X22715Y51598D01*
G01X22830Y51598D01*
G01X22845Y51597D01*
G01X22859Y51594D01*
G01X22873Y51589D01*
G01X22885Y51582D01*
G01X22896Y51573D01*
G01X22907Y51563D01*
G01X22916Y51551D01*
G01X22922Y51539D01*
G01X22927Y51525D01*
G01X22931Y51511D01*
G01X22932Y51497D01*
G01X22932Y50923D01*
G01X22931Y50908D01*
G01X22923Y50880D01*
G01X22916Y50868D01*
G01X22907Y50856D01*
G01X22897Y50846D01*
G01X22885Y50837D01*
G01X22873Y50830D01*
G01X22859Y50825D01*
G01X22845Y50822D01*
G01X22830Y50821D01*
G01X22715Y50821D01*
G01X22715Y50303D01*
G01X22788Y50303D01*
G01X22814Y50304D01*
G01X22839Y50308D01*
G01X22863Y50314D01*
G01X22887Y50323D01*
G01X22910Y50334D01*
G01X22932Y50346D01*
G01X22945Y50354D01*
G01X22959Y50360D01*
G01X22973Y50363D01*
G01X22988Y50364D01*
G01X23003Y50363D01*
G01X23018Y50360D01*
G01X23032Y50354D01*
G01X23045Y50346D01*
G01X23067Y50334D01*
G01X23090Y50323D01*
G01X23113Y50314D01*
G01X23138Y50308D01*
G01X23163Y50304D01*
G01X23189Y50303D01*
G01X23738Y50303D01*
G01X23762Y50304D01*
G01X23785Y50307D01*
G01X23808Y50313D01*
G01X23831Y50320D01*
G01X23853Y50330D01*
G01X23873Y50341D01*
G01X23893Y50355D01*
G01X23911Y50370D01*
G01X23928Y50387D01*
G01X23943Y50405D01*
G01X23957Y50425D01*
G01X23968Y50445D01*
G01X23978Y50467D01*
G01X23985Y50489D01*
G01X23991Y50513D01*
G01X23994Y50536D01*
G01X23995Y50559D01*
G01X23995Y53646D01*
G01X23996Y53660D01*
G01X23999Y53674D01*
G01X24004Y53688D01*
G01X24011Y53701D01*
G01X24020Y53712D01*
G01X24030Y53723D01*
G01X24042Y53731D01*
G01X24054Y53738D01*
G01X24068Y53743D01*
G01X24082Y53747D01*
G01X24096Y53748D01*
G01X24850Y53748D01*
G01X24864Y53747D01*
G01X24879Y53743D01*
G01X24892Y53738D01*
G01X24905Y53731D01*
G01X24917Y53723D01*
G01X24927Y53712D01*
G01X24936Y53701D01*
G01X24943Y53688D01*
G01X24948Y53674D01*
G01X24951Y53660D01*
G01X24952Y53646D01*
G01X24952Y51898D01*
G01X24951Y51883D01*
G01X24947Y51868D01*
G01X24942Y51854D01*
G01X24935Y51841D01*
G01X24925Y51829D01*
G01X24914Y51819D01*
G01X24902Y51811D01*
G01X24888Y51803D01*
G01X24874Y51799D01*
G01X24852Y51793D01*
G01X24830Y51785D01*
G01X24790Y51763D01*
G01X24772Y51749D01*
G01X24755Y51734D01*
G01X24739Y51718D01*
G01X24725Y51699D01*
G01X24713Y51680D01*
G01X24702Y51660D01*
G01X24693Y51639D01*
G01X24686Y51618D01*
G01X24681Y51595D01*
G01X24678Y51572D01*
G01X24677Y51549D01*
G01X24677Y50550D01*
G01X24678Y50524D01*
G01X24682Y50499D01*
G01X24688Y50475D01*
G01X24696Y50451D01*
G01X24708Y50428D01*
G01X24721Y50406D01*
G01X24728Y50393D01*
G01X24733Y50379D01*
G01X24736Y50365D01*
G01X24738Y50350D01*
G01X24736Y50335D01*
G01X24733Y50320D01*
G01X24728Y50306D01*
G01X24721Y50293D01*
G01X24708Y50271D01*
G01X24696Y50248D01*
G01X24688Y50225D01*
G01X24682Y50200D01*
G01X24678Y50175D01*
G01X24677Y50149D01*
G01X24677Y49963D01*
G01X25145Y49963D01*
G01X25145Y50192D01*
G01X25146Y50206D01*
G01X25149Y50220D01*
G01X25154Y50234D01*
G01X25161Y50246D01*
G01X25170Y50258D01*
G01X25180Y50268D01*
G01X25192Y50277D01*
G01X25204Y50284D01*
G01X25218Y50289D01*
G01X25232Y50292D01*
G01X25246Y50293D01*
G01X25720Y50293D01*
G01X25735Y50292D01*
G01X25749Y50289D01*
G01X25762Y50284D01*
G01X25775Y50277D01*
G01X25786Y50268D01*
G01X25797Y50258D01*
G01X25806Y50246D01*
G01X25812Y50234D01*
G01X25817Y50220D01*
G01X25821Y50206D01*
G01X25822Y50192D01*
G01X25822Y49963D01*
G01X26290Y49963D01*
G01X26290Y50149D01*
G01X26288Y50175D01*
G01X26285Y50200D01*
G01X26279Y50225D01*
G01X26270Y50248D01*
G01X26259Y50271D01*
G01X26246Y50293D01*
G01X26239Y50306D01*
G01X26233Y50320D01*
G01X26230Y50334D01*
G01X26229Y50350D01*
G01X26230Y50364D01*
G01X26233Y50379D01*
G01X26239Y50393D01*
G01X26246Y50406D01*
G01X26259Y50428D01*
G01X26270Y50451D01*
G01X26279Y50475D01*
G01X26285Y50499D01*
G01X26288Y50524D01*
G01X26290Y50550D01*
G01X26290Y51549D01*
G01X26289Y51572D01*
G01X26286Y51595D01*
G01X26281Y51618D01*
G01X26274Y51639D01*
G01X26265Y51660D01*
G01X26254Y51680D01*
G01X26242Y51699D01*
G01X26227Y51717D01*
G01X26212Y51734D01*
G01X26194Y51749D01*
G01X26176Y51763D01*
G01X26157Y51774D01*
G01X26136Y51785D01*
G01X26115Y51793D01*
G01X26093Y51799D01*
G01X26079Y51803D01*
G01X26065Y51811D01*
G01X26053Y51819D01*
G01X26042Y51829D01*
G01X26032Y51841D01*
G01X26025Y51854D01*
G01X26019Y51868D01*
G01X26016Y51883D01*
G01X26015Y51898D01*
G01X26015Y53646D01*
G01X26016Y53660D01*
G01X26019Y53674D01*
G01X26024Y53688D01*
G01X26031Y53701D01*
G01X26040Y53712D01*
G01X26050Y53723D01*
G01X26062Y53731D01*
G01X26075Y53738D01*
G01X26088Y53743D01*
G01X26102Y53747D01*
G01X26117Y53748D01*
G01X27481Y53748D01*
G01X27497Y53746D01*
G01X27512Y53742D01*
G01X27527Y53736D01*
G01X27540Y53728D01*
G01X27552Y53718D01*
G01X27562Y53706D01*
G01X27571Y53693D01*
G01X27595Y53649D01*
G01X27621Y53606D01*
G01X27649Y53564D01*
G01X27679Y53523D01*
G01X27710Y53483D01*
G01X27743Y53444D01*
G01X27777Y53407D01*
G01X27813Y53372D01*
G01X27850Y53338D01*
G01X27889Y53305D01*
G01X27929Y53274D01*
G01X27970Y53244D01*
G01X28012Y53216D01*
G01X28055Y53190D01*
G01X28099Y53166D01*
G01X28145Y53144D01*
G01X28191Y53123D01*
G01X28238Y53104D01*
G01X28285Y53087D01*
G01X28334Y53072D01*
G01X28382Y53059D01*
G01X28432Y53048D01*
G01X28481Y53038D01*
G01X28531Y53031D01*
G01X28582Y53026D01*
G01X28632Y53023D01*
G01X28683Y53022D01*
G01X28733Y53024D01*
G01X28784Y53027D01*
G01X28834Y53032D01*
G01X28884Y53039D01*
G01X28934Y53048D01*
G01X28983Y53059D01*
G01X29032Y53072D01*
G01X29080Y53087D01*
G01X29128Y53104D01*
G01X29175Y53123D01*
G01X29221Y53144D01*
G01X29266Y53166D01*
G01X29311Y53191D01*
G01X29354Y53217D01*
G01X29396Y53245D01*
G01X29437Y53275D01*
G01X29477Y53306D01*
G01X29516Y53339D01*
G01X29553Y53373D01*
G01X29589Y53409D01*
G01X29623Y53446D01*
G01X29656Y53484D01*
G01X29687Y53524D01*
G01X29717Y53565D01*
G01X29745Y53607D01*
G01X29771Y53651D01*
G01X29795Y53695D01*
G01X29818Y53740D01*
G01X29839Y53786D01*
G01X29858Y53833D01*
G01X29890Y53929D01*
G01X29903Y53978D01*
G01X29914Y54027D01*
G01X29923Y54077D01*
G01X29930Y54128D01*
G01X29935Y54178D01*
G01X29938Y54228D01*
G01X29939Y54279D01*
G01X29938Y54330D01*
G01X29935Y54380D01*
G01X29930Y54430D01*
G01X29923Y54481D01*
G01X29914Y54530D01*
G01X29903Y54580D01*
G01X29890Y54628D01*
G01X29874Y54677D01*
G01X29858Y54724D01*
G01X29839Y54772D01*
G01X29818Y54817D01*
G01X29795Y54863D01*
G01X29771Y54907D01*
G01X29745Y54950D01*
G01X29717Y54993D01*
G01X29687Y55034D01*
G01X29656Y55073D01*
G01X29623Y55112D01*
G01X29589Y55149D01*
G01X29553Y55185D01*
G01X29516Y55219D01*
G01X29477Y55252D01*
G01X29437Y55283D01*
G01X29396Y55313D01*
G01X29354Y55341D01*
G01X29311Y55367D01*
G01X29266Y55391D01*
G01X29221Y55414D01*
G01X29175Y55435D01*
G01X29128Y55454D01*
G01X29080Y55471D01*
G01X29032Y55486D01*
G01X28983Y55499D01*
G01X28934Y55510D01*
G01X28884Y55519D01*
G01X28834Y55526D01*
G01X28784Y55531D01*
G01X28733Y55534D01*
G01X28683Y55535D01*
G37*
G36*
G01X49115Y52086D02*
G01X48464Y52086D01*
G01X48491Y52035D01*
G01X48521Y51984D01*
G01X48553Y51934D01*
G01X48586Y51887D01*
G01X48622Y51840D01*
G01X48659Y51795D01*
G01X48698Y51751D01*
G01X48738Y51709D01*
G01X48780Y51668D01*
G01X48824Y51630D01*
G01X48869Y51593D01*
G01X48916Y51557D01*
G01X48964Y51524D01*
G01X49013Y51492D01*
G01X49064Y51462D01*
G01X49115Y51434D01*
G01X49115Y52086D01*
G37*
G36*
G01X51143Y52086D02*
G01X50492Y52086D01*
G01X50492Y51434D01*
G01X50543Y51462D01*
G01X50594Y51492D01*
G01X50643Y51524D01*
G01X50691Y51557D01*
G01X50737Y51593D01*
G01X50783Y51630D01*
G01X50826Y51668D01*
G01X50868Y51709D01*
G01X50909Y51751D01*
G01X50948Y51795D01*
G01X50985Y51840D01*
G01X51021Y51887D01*
G01X51054Y51934D01*
G01X51086Y51984D01*
G01X51116Y52035D01*
G01X51143Y52086D01*
G37*
G36*
G01X9540Y52113D02*
G01X8888Y52113D01*
G01X8888Y51462D01*
G01X8940Y51489D01*
G01X8990Y51519D01*
G01X9039Y51550D01*
G01X9087Y51584D01*
G01X9134Y51620D01*
G01X9179Y51657D01*
G01X9223Y51696D01*
G01X9265Y51736D01*
G01X9305Y51778D01*
G01X9344Y51822D01*
G01X9381Y51867D01*
G01X9417Y51914D01*
G01X9450Y51962D01*
G01X9482Y52011D01*
G01X9512Y52061D01*
G01X9540Y52113D01*
G37*
G36*
G01X7511Y52113D02*
G01X6859Y52113D01*
G01X6887Y52061D01*
G01X6917Y52011D01*
G01X6949Y51962D01*
G01X6982Y51914D01*
G01X7017Y51867D01*
G01X7055Y51822D01*
G01X7094Y51778D01*
G01X7134Y51736D01*
G01X7176Y51696D01*
G01X7220Y51657D01*
G01X7265Y51620D01*
G01X7312Y51584D01*
G01X7360Y51550D01*
G01X7409Y51519D01*
G01X7459Y51489D01*
G01X7511Y51462D01*
G01X7511Y52113D01*
G37*
G36*
G01X49115Y53463D02*
G01X49115Y54114D01*
G01X49064Y54086D01*
G01X49013Y54057D01*
G01X48964Y54025D01*
G01X48916Y53992D01*
G01X48869Y53956D01*
G01X48824Y53919D01*
G01X48780Y53880D01*
G01X48738Y53839D01*
G01X48698Y53797D01*
G01X48659Y53754D01*
G01X48622Y53708D01*
G01X48586Y53662D01*
G01X48553Y53614D01*
G01X48521Y53565D01*
G01X48491Y53514D01*
G01X48464Y53463D01*
G01X49115Y53463D01*
G37*
G36*
G01X50543Y54086D02*
G01X50492Y54114D01*
G01X50492Y53463D01*
G01X51143Y53463D01*
G01X51116Y53514D01*
G01X51086Y53565D01*
G01X51054Y53614D01*
G01X51021Y53662D01*
G01X50985Y53708D01*
G01X50948Y53754D01*
G01X50909Y53797D01*
G01X50868Y53839D01*
G01X50826Y53880D01*
G01X50783Y53919D01*
G01X50737Y53956D01*
G01X50691Y53992D01*
G01X50643Y54025D01*
G01X50594Y54057D01*
G01X50543Y54086D01*
G37*
G36*
G01X8940Y54114D02*
G01X8888Y54141D01*
G01X8888Y53490D01*
G01X9540Y53490D01*
G01X9512Y53541D01*
G01X9482Y53592D01*
G01X9450Y53641D01*
G01X9417Y53689D01*
G01X9381Y53735D01*
G01X9344Y53781D01*
G01X9305Y53824D01*
G01X9265Y53866D01*
G01X9223Y53907D01*
G01X9179Y53946D01*
G01X9134Y53983D01*
G01X9087Y54019D01*
G01X9039Y54052D01*
G01X8990Y54084D01*
G01X8940Y54114D01*
G37*
G36*
G01X7511Y53490D02*
G01X7511Y54141D01*
G01X7459Y54114D01*
G01X7409Y54084D01*
G01X7360Y54052D01*
G01X7312Y54019D01*
G01X7265Y53983D01*
G01X7220Y53946D01*
G01X7176Y53907D01*
G01X7134Y53866D01*
G01X7094Y53824D01*
G01X7055Y53781D01*
G01X7017Y53735D01*
G01X6982Y53689D01*
G01X6949Y53641D01*
G01X6917Y53592D01*
G01X6887Y53541D01*
G01X6859Y53490D01*
G01X7511Y53490D01*
G37*

%LPD*%
G54D20*
G01X39734Y32470D02*
G01X36452Y32470D01*
G01X35063Y31079D01*
G01X35063Y26400D01*
G01X32533Y23870D01*
G01X22274Y23870D01*
G01X21113Y25028D01*
G01X21113Y41950D01*
G01X19493Y43570D01*
G01X18553Y43570D01*
G01X18284Y43298D01*
G01X39734Y22310D02*
G01X39544Y22120D01*
G01X18342Y22120D01*
G01X18243Y22219D01*
G01X18243Y32379D02*
G01X18284Y32410D01*
G01X18284Y40758D01*
G54D11*
G01X24464Y26999D02*
G01X24464Y32059D01*
G01X34514Y42110D01*
G01X45114Y42110D01*
G01X45144Y42079D01*
G01X26044Y26999D02*
G01X26094Y27050D01*
G01X26094Y31670D01*
G01X35492Y41068D01*
G01X45182Y41079D01*
G01X27613Y26999D02*
G01X27613Y31449D01*
G01X36282Y40118D01*
G01X45104Y40118D01*
G01X45155Y40070D01*
G01X29094Y26999D02*
G01X29094Y30908D01*
G01X37303Y39120D01*
G01X45243Y39120D01*
G01X45294Y39069D01*
G01X30773Y27009D02*
G01X30773Y30330D01*
G01X38484Y38041D01*
G01X45304Y38048D01*
G01X44833Y43660D02*
G01X21226Y43660D01*
G01X20315Y42748D01*
G54D21*
G01X28683Y54279D02*
G01X22414Y54279D01*
G01X21634Y53499D01*
G01X21633Y53470D01*
G01X21634Y53499D02*
G01X21563Y53410D01*
G01X21563Y51210D01*
G01X19424Y51150D02*
G01X19424Y52641D01*
G01X20163Y53380D01*
G01X21533Y53380D01*
G01X21563Y53410D01*
G01X23463Y51210D02*
G01X23463Y54279D01*
G01X25483Y51050D02*
G01X25483Y54279D01*
G01X19423Y48750D02*
G01X17763Y48750D01*
G01X14493Y45480D01*
G01X14493Y43320D01*
G01X21563Y48710D02*
G01X21523Y48750D01*
G01X19423Y48750D01*
G01X32194Y13570D02*
G01X32194Y11620D01*
G01X30803Y10230D01*
G01X29142Y10230D01*
G01X29023Y10111D01*
G01X26132Y13669D02*
G01X26132Y11269D01*
G01X27314Y10091D01*
G01X29023Y10111D01*
G01X28154Y13510D02*
G01X28154Y10980D01*
G01X29023Y10111D01*
G01X30054Y13510D02*
G01X30054Y11141D01*
G01X29023Y10111D01*
G01X30054Y16009D02*
G01X30093Y15970D01*
G01X32194Y15970D01*
G54D22*
G01X30054Y16009D02*
G01X30054Y17709D01*
G01X29323Y18440D01*
G01X13603Y18440D01*
G01X10153Y21890D01*
G01X10153Y41070D01*
G01X12403Y43320D01*
G01X14493Y43320D01*
G54D23*
G01X26044Y27000D03*
G01X27614Y27000D03*
G01X29093Y27000D03*
G01X30773Y27009D03*
G01X24463Y27000D03*
G36*
G01X13706Y42532D02*
G01X15281Y42532D01*
G01X15281Y44107D01*
G01X13706Y44107D01*
G01X13706Y42532D01*
G37*
G54D24*
G01X14493Y40780D03*
G36*
G01X19071Y41547D02*
G01X17496Y41547D01*
G01X17496Y39972D01*
G01X19071Y39972D01*
G01X19071Y41547D01*
G37*
G01X18283Y43300D03*
G36*
G01X26684Y13170D02*
G01X26684Y14169D01*
G01X25584Y14169D01*
G01X25584Y13170D01*
G01X26684Y13170D01*
G37*
G36*
G01X26684Y14569D02*
G01X26684Y15569D01*
G01X25584Y15569D01*
G01X25584Y14569D01*
G01X26684Y14569D01*
G37*
G36*
G01X30329Y12860D02*
G01X30329Y14160D01*
G01X29779Y14160D01*
G01X29779Y12860D01*
G01X30329Y12860D01*
G37*
G36*
G01X29379Y12860D02*
G01X29379Y14160D01*
G01X28829Y14160D01*
G01X28829Y12860D01*
G01X29379Y12860D01*
G37*
G36*
G01X28429Y12860D02*
G01X28429Y14160D01*
G01X27879Y14160D01*
G01X27879Y12860D01*
G01X28429Y12860D01*
G37*
G36*
G01X28429Y15360D02*
G01X28429Y16660D01*
G01X27879Y16660D01*
G01X27879Y15360D01*
G01X28429Y15360D01*
G37*
G36*
G01X30329Y15360D02*
G01X30329Y16660D01*
G01X29779Y16660D01*
G01X29779Y15360D01*
G01X30329Y15360D01*
G37*
G36*
G01X32694Y13070D02*
G01X32694Y14070D01*
G01X31694Y14070D01*
G01X31694Y13070D01*
G01X32694Y13070D01*
G37*
G36*
G01X32694Y15470D02*
G01X32694Y16470D01*
G01X31694Y16470D01*
G01X31694Y15470D01*
G01X32694Y15470D01*
G37*
G36*
G01X24933Y51550D02*
G01X24933Y50550D01*
G01X26033Y50550D01*
G01X26033Y51550D01*
G01X24933Y51550D01*
G37*
G36*
G01X24933Y50150D02*
G01X24933Y49150D01*
G01X26033Y49150D01*
G01X26033Y50150D01*
G01X24933Y50150D01*
G37*
G36*
G01X21288Y51860D02*
G01X21288Y50559D01*
G01X21838Y50559D01*
G01X21838Y51860D01*
G01X21288Y51860D01*
G37*
G36*
G01X22238Y51860D02*
G01X22238Y50559D01*
G01X22788Y50559D01*
G01X22788Y51860D01*
G01X22238Y51860D01*
G37*
G36*
G01X23188Y51860D02*
G01X23188Y50559D01*
G01X23738Y50559D01*
G01X23738Y51860D01*
G01X23188Y51860D01*
G37*
G36*
G01X23188Y49360D02*
G01X23188Y48060D01*
G01X23738Y48060D01*
G01X23738Y49360D01*
G01X23188Y49360D01*
G37*
G36*
G01X21288Y49360D02*
G01X21288Y48060D01*
G01X21838Y48060D01*
G01X21838Y49360D01*
G01X21288Y49360D01*
G37*
G36*
G01X18923Y51650D02*
G01X18923Y50650D01*
G01X19923Y50650D01*
G01X19923Y51650D01*
G01X18923Y51650D01*
G37*
G36*
G01X18923Y49250D02*
G01X18923Y48250D01*
G01X19923Y48250D01*
G01X19923Y49250D01*
G01X18923Y49250D01*
G37*
G36*
G01X15821Y47544D02*
G01X16528Y46837D01*
G01X17306Y47615D01*
G01X16599Y48322D01*
G01X15821Y47544D01*
G37*
G36*
G01X16811Y46554D02*
G01X17518Y45847D01*
G01X18296Y46625D01*
G01X17589Y47332D01*
G01X16811Y46554D01*
G37*
G54D18*
G01X8203Y11174D03*
G01X12539Y15541D03*
G01X49803Y11174D03*
G01X45469Y15541D03*
G01X45469Y48456D03*
G01X49803Y52774D03*
G01X12539Y48461D03*
G01X8200Y52801D03*
G54D19*
G01X18243Y32380D03*
G01X18243Y27300D03*
G01X18243Y22220D03*
G01X39733Y22309D03*
G01X39733Y27389D03*
G01X39733Y32469D03*
G54D13*
G01X44833Y43659D03*
G01X45153Y45009D03*
G01X45143Y42080D03*
G01X45183Y41080D03*
G01X45153Y40070D03*
G01X45293Y39070D03*
G01X45303Y38050D03*
G54D12*
G01X29023Y10111D03*
G01X28683Y54279D03*
M00*
M02*
