G04 Layer: TopLayer*
G04 EasyEDA v6.3.22, 2020-01-22T11:07:26+01:00*
G04 3ac4b1cc3e28459caadfcca9b74a0810,6ac03ef627a24f5ab7c901ca926ad83b,10*
G04 Gerber Generator version 0.2*
G04 Scale: 100 percent, Rotated: No, Reflected: No *
G04 Dimensions in millimeters *
G04 leading zeros omitted , absolute positions ,3 integer and 3 decimal *
%FSLAX33Y33*%
%MOMM*%
G90*
G71D02*

%ADD11C,0.499999*%
%ADD12C,1.999996*%
%ADD13C,0.609600*%
%ADD14R,3.499993X8.000009*%
%ADD15R,8.000009X3.499993*%
%ADD16R,2.199996X0.599948*%
%ADD17R,2.599995X1.799996*%
%ADD18C,2.499995*%
%ADD19C,2.199996*%

%LPD*%
G36*
G01X2095Y63743D02*
G01X362Y63743D01*
G01X347Y63742D01*
G01X333Y63739D01*
G01X319Y63734D01*
G01X307Y63727D01*
G01X295Y63718D01*
G01X285Y63708D01*
G01X276Y63696D01*
G01X269Y63684D01*
G01X264Y63670D01*
G01X261Y63656D01*
G01X260Y63641D01*
G01X260Y360D01*
G01X261Y345D01*
G01X264Y331D01*
G01X269Y318D01*
G01X276Y305D01*
G01X285Y293D01*
G01X295Y283D01*
G01X307Y274D01*
G01X319Y267D01*
G01X333Y262D01*
G01X347Y259D01*
G01X362Y258D01*
G01X2215Y258D01*
G01X2230Y259D01*
G01X2244Y262D01*
G01X2257Y267D01*
G01X2270Y274D01*
G01X2282Y283D01*
G01X2292Y293D01*
G01X2301Y305D01*
G01X2308Y318D01*
G01X2313Y331D01*
G01X2316Y345D01*
G01X2317Y360D01*
G01X2317Y2296D01*
G01X3385Y2296D01*
G01X3385Y360D01*
G01X3386Y345D01*
G01X3389Y331D01*
G01X3394Y318D01*
G01X3401Y305D01*
G01X3410Y293D01*
G01X3420Y283D01*
G01X3431Y274D01*
G01X3444Y267D01*
G01X3458Y262D01*
G01X3472Y259D01*
G01X3487Y258D01*
G01X5160Y258D01*
G01X5175Y259D01*
G01X5189Y262D01*
G01X5203Y267D01*
G01X5216Y274D01*
G01X5227Y283D01*
G01X5237Y293D01*
G01X5246Y305D01*
G01X5253Y318D01*
G01X5258Y331D01*
G01X5261Y345D01*
G01X5262Y360D01*
G01X5262Y2296D01*
G01X6330Y2296D01*
G01X6330Y360D01*
G01X6331Y345D01*
G01X6334Y331D01*
G01X6339Y318D01*
G01X6346Y305D01*
G01X6355Y293D01*
G01X6365Y283D01*
G01X6377Y274D01*
G01X6390Y267D01*
G01X6403Y262D01*
G01X6417Y259D01*
G01X6432Y258D01*
G01X24716Y258D01*
G01X24730Y259D01*
G01X24744Y262D01*
G01X24758Y267D01*
G01X24770Y274D01*
G01X24782Y283D01*
G01X24792Y293D01*
G01X24801Y305D01*
G01X24808Y318D01*
G01X24813Y331D01*
G01X24816Y345D01*
G01X24817Y360D01*
G01X24817Y8360D01*
G01X24818Y8383D01*
G01X24821Y8407D01*
G01X24827Y8430D01*
G01X24835Y8452D01*
G01X24844Y8474D01*
G01X24855Y8495D01*
G01X24869Y8514D01*
G01X24884Y8533D01*
G01X24901Y8549D01*
G01X24919Y8565D01*
G01X24939Y8578D01*
G01X24959Y8589D01*
G01X24981Y8599D01*
G01X25003Y8606D01*
G01X25027Y8612D01*
G01X25050Y8615D01*
G01X25074Y8616D01*
G01X27665Y8616D01*
G01X27679Y8617D01*
G01X27694Y8620D01*
G01X27707Y8625D01*
G01X27720Y8632D01*
G01X27731Y8641D01*
G01X27742Y8651D01*
G01X27750Y8663D01*
G01X27757Y8676D01*
G01X27762Y8689D01*
G01X27765Y8703D01*
G01X27767Y8718D01*
G01X27767Y9549D01*
G01X27765Y9564D01*
G01X27762Y9579D01*
G01X27756Y9594D01*
G01X27747Y9608D01*
G01X27737Y9620D01*
G01X25113Y12243D01*
G01X25101Y12254D01*
G01X25087Y12262D01*
G01X25073Y12268D01*
G01X25058Y12272D01*
G01X25042Y12273D01*
G01X19531Y12273D01*
G01X19517Y12272D01*
G01X19503Y12269D01*
G01X19489Y12264D01*
G01X19477Y12257D01*
G01X19465Y12249D01*
G01X19455Y12238D01*
G01X19446Y12227D01*
G01X19439Y12214D01*
G01X19434Y12200D01*
G01X19431Y12186D01*
G01X19430Y12172D01*
G01X19430Y9530D01*
G01X19429Y9506D01*
G01X19425Y9482D01*
G01X19420Y9460D01*
G01X19413Y9437D01*
G01X19403Y9415D01*
G01X19391Y9395D01*
G01X19378Y9375D01*
G01X19363Y9357D01*
G01X19346Y9340D01*
G01X19328Y9325D01*
G01X19308Y9312D01*
G01X19288Y9300D01*
G01X19266Y9290D01*
G01X19243Y9283D01*
G01X19221Y9278D01*
G01X19197Y9274D01*
G01X19173Y9273D01*
G01X15673Y9273D01*
G01X15650Y9274D01*
G01X15626Y9278D01*
G01X15603Y9283D01*
G01X15581Y9290D01*
G01X15559Y9300D01*
G01X15538Y9312D01*
G01X15519Y9325D01*
G01X15501Y9340D01*
G01X15484Y9357D01*
G01X15469Y9375D01*
G01X15455Y9395D01*
G01X15444Y9415D01*
G01X15434Y9437D01*
G01X15426Y9460D01*
G01X15421Y9482D01*
G01X15418Y9506D01*
G01X15417Y9530D01*
G01X15417Y17530D01*
G01X15418Y17554D01*
G01X15421Y17577D01*
G01X15426Y17600D01*
G01X15434Y17622D01*
G01X15444Y17644D01*
G01X15455Y17665D01*
G01X15469Y17684D01*
G01X15484Y17702D01*
G01X15501Y17719D01*
G01X15519Y17734D01*
G01X15538Y17748D01*
G01X15559Y17759D01*
G01X15581Y17769D01*
G01X15603Y17777D01*
G01X15626Y17782D01*
G01X15650Y17785D01*
G01X15673Y17786D01*
G01X19173Y17786D01*
G01X19197Y17785D01*
G01X19221Y17782D01*
G01X19243Y17777D01*
G01X19266Y17769D01*
G01X19288Y17759D01*
G01X19308Y17748D01*
G01X19328Y17734D01*
G01X19346Y17719D01*
G01X19363Y17702D01*
G01X19378Y17684D01*
G01X19391Y17665D01*
G01X19403Y17644D01*
G01X19413Y17622D01*
G01X19420Y17600D01*
G01X19425Y17577D01*
G01X19429Y17554D01*
G01X19430Y17530D01*
G01X19430Y14888D01*
G01X19431Y14873D01*
G01X19434Y14859D01*
G01X19439Y14845D01*
G01X19446Y14833D01*
G01X19455Y14822D01*
G01X19465Y14811D01*
G01X19477Y14802D01*
G01X19489Y14796D01*
G01X19503Y14791D01*
G01X19517Y14788D01*
G01X19531Y14786D01*
G01X25604Y14786D01*
G01X25656Y14785D01*
G01X25708Y14782D01*
G01X25760Y14777D01*
G01X25811Y14769D01*
G01X25862Y14760D01*
G01X25912Y14748D01*
G01X25963Y14734D01*
G01X26012Y14718D01*
G01X26061Y14700D01*
G01X26109Y14680D01*
G01X26156Y14658D01*
G01X26202Y14635D01*
G01X26247Y14609D01*
G01X26291Y14582D01*
G01X26334Y14552D01*
G01X26376Y14521D01*
G01X26416Y14488D01*
G01X26455Y14454D01*
G01X26493Y14418D01*
G01X29911Y10999D01*
G01X29948Y10962D01*
G01X29982Y10923D01*
G01X30015Y10883D01*
G01X30046Y10841D01*
G01X30075Y10798D01*
G01X30102Y10754D01*
G01X30128Y10709D01*
G01X30152Y10663D01*
G01X30174Y10616D01*
G01X30193Y10568D01*
G01X30211Y10519D01*
G01X30227Y10470D01*
G01X30241Y10419D01*
G01X30253Y10369D01*
G01X30262Y10318D01*
G01X30270Y10266D01*
G01X30275Y10214D01*
G01X30278Y10163D01*
G01X30280Y10111D01*
G01X30280Y8748D01*
G01X30281Y8733D01*
G01X30284Y8719D01*
G01X30289Y8706D01*
G01X30296Y8693D01*
G01X30304Y8681D01*
G01X30315Y8671D01*
G01X30326Y8662D01*
G01X30339Y8655D01*
G01X30352Y8650D01*
G01X30367Y8647D01*
G01X30381Y8646D01*
G01X33093Y8646D01*
G01X33117Y8645D01*
G01X33140Y8642D01*
G01X33164Y8636D01*
G01X33186Y8629D01*
G01X33208Y8619D01*
G01X33228Y8608D01*
G01X33248Y8594D01*
G01X33266Y8579D01*
G01X33283Y8562D01*
G01X33298Y8544D01*
G01X33311Y8525D01*
G01X33323Y8504D01*
G01X33332Y8482D01*
G01X33340Y8460D01*
G01X33346Y8436D01*
G01X33349Y8413D01*
G01X33350Y8390D01*
G01X33350Y390D01*
G01X33349Y368D01*
G01X33349Y360D01*
G01X33350Y345D01*
G01X33353Y331D01*
G01X33358Y318D01*
G01X33365Y305D01*
G01X33373Y293D01*
G01X33384Y283D01*
G01X33395Y274D01*
G01X33408Y267D01*
G01X33422Y262D01*
G01X33436Y259D01*
G01X33450Y258D01*
G01X51737Y258D01*
G01X51751Y259D01*
G01X51765Y262D01*
G01X51779Y267D01*
G01X51792Y274D01*
G01X51803Y283D01*
G01X51813Y293D01*
G01X51822Y305D01*
G01X51829Y318D01*
G01X51834Y331D01*
G01X51837Y345D01*
G01X51838Y360D01*
G01X51838Y368D01*
G01X51837Y390D01*
G01X51837Y2326D01*
G01X52905Y2326D01*
G01X52905Y360D01*
G01X52906Y345D01*
G01X52909Y331D01*
G01X52914Y318D01*
G01X52921Y305D01*
G01X52930Y293D01*
G01X52940Y283D01*
G01X52952Y274D01*
G01X52964Y267D01*
G01X52978Y262D01*
G01X52992Y259D01*
G01X53007Y258D01*
G01X54681Y258D01*
G01X54695Y259D01*
G01X54709Y262D01*
G01X54723Y267D01*
G01X54735Y274D01*
G01X54747Y283D01*
G01X54757Y293D01*
G01X54766Y305D01*
G01X54773Y318D01*
G01X54778Y331D01*
G01X54781Y345D01*
G01X54782Y360D01*
G01X54782Y2326D01*
G01X55850Y2326D01*
G01X55850Y390D01*
G01X55849Y368D01*
G01X55849Y360D01*
G01X55850Y345D01*
G01X55853Y331D01*
G01X55858Y318D01*
G01X55865Y305D01*
G01X55873Y293D01*
G01X55884Y283D01*
G01X55895Y274D01*
G01X55908Y267D01*
G01X55922Y262D01*
G01X55936Y259D01*
G01X55951Y258D01*
G01X57641Y258D01*
G01X57656Y259D01*
G01X57670Y262D01*
G01X57683Y267D01*
G01X57696Y274D01*
G01X57708Y283D01*
G01X57718Y293D01*
G01X57727Y305D01*
G01X57734Y318D01*
G01X57739Y331D01*
G01X57742Y345D01*
G01X57743Y360D01*
G01X57743Y63641D01*
G01X57742Y63656D01*
G01X57739Y63670D01*
G01X57734Y63684D01*
G01X57727Y63696D01*
G01X57718Y63708D01*
G01X57708Y63718D01*
G01X57696Y63727D01*
G01X57683Y63734D01*
G01X57670Y63739D01*
G01X57656Y63742D01*
G01X57641Y63743D01*
G01X55421Y63743D01*
G01X55406Y63742D01*
G01X55392Y63739D01*
G01X55379Y63734D01*
G01X55366Y63727D01*
G01X55354Y63718D01*
G01X55344Y63708D01*
G01X55335Y63696D01*
G01X55329Y63684D01*
G01X55324Y63670D01*
G01X55320Y63656D01*
G01X55319Y63641D01*
G01X55320Y63635D01*
G01X55320Y61683D01*
G01X54252Y61683D01*
G01X54252Y63641D01*
G01X54251Y63656D01*
G01X54248Y63670D01*
G01X54243Y63684D01*
G01X54236Y63696D01*
G01X54227Y63708D01*
G01X54217Y63718D01*
G01X54205Y63727D01*
G01X54192Y63734D01*
G01X54179Y63739D01*
G01X54165Y63742D01*
G01X54150Y63743D01*
G01X52476Y63743D01*
G01X52462Y63742D01*
G01X52448Y63739D01*
G01X52434Y63734D01*
G01X52421Y63727D01*
G01X52410Y63718D01*
G01X52400Y63708D01*
G01X52391Y63696D01*
G01X52384Y63684D01*
G01X52379Y63670D01*
G01X52376Y63656D01*
G01X52375Y63641D01*
G01X52375Y61683D01*
G01X51307Y61683D01*
G01X51307Y63641D01*
G01X51306Y63656D01*
G01X51303Y63670D01*
G01X51298Y63684D01*
G01X51292Y63696D01*
G01X51283Y63708D01*
G01X51272Y63718D01*
G01X51261Y63727D01*
G01X51248Y63734D01*
G01X51235Y63739D01*
G01X51221Y63742D01*
G01X51206Y63743D01*
G01X32921Y63743D01*
G01X32906Y63742D01*
G01X32892Y63739D01*
G01X32879Y63734D01*
G01X32866Y63727D01*
G01X32854Y63718D01*
G01X32844Y63708D01*
G01X32828Y63684D01*
G01X32823Y63670D01*
G01X32820Y63656D01*
G01X32819Y63641D01*
G01X32819Y63635D01*
G01X32820Y63620D01*
G01X32820Y55620D01*
G01X32819Y55596D01*
G01X32816Y55572D01*
G01X32810Y55549D01*
G01X32802Y55527D01*
G01X32793Y55505D01*
G01X32782Y55484D01*
G01X32768Y55465D01*
G01X32753Y55447D01*
G01X32736Y55430D01*
G01X32718Y55415D01*
G01X32698Y55402D01*
G01X32678Y55390D01*
G01X32656Y55380D01*
G01X32633Y55373D01*
G01X32610Y55368D01*
G01X32587Y55364D01*
G01X32563Y55363D01*
G01X30040Y55363D01*
G01X30026Y55362D01*
G01X30012Y55359D01*
G01X29998Y55354D01*
G01X29986Y55347D01*
G01X29974Y55338D01*
G01X29964Y55328D01*
G01X29955Y55316D01*
G01X29949Y55304D01*
G01X29943Y55290D01*
G01X29940Y55276D01*
G01X29939Y55261D01*
G01X29939Y54728D01*
G01X29940Y54713D01*
G01X29943Y54699D01*
G01X29949Y54685D01*
G01X29971Y54635D01*
G01X29992Y54583D01*
G01X30009Y54530D01*
G01X30025Y54478D01*
G01X30038Y54424D01*
G01X30049Y54369D01*
G01X30058Y54315D01*
G01X30064Y54260D01*
G01X30067Y54205D01*
G01X30069Y54149D01*
G01X30069Y45038D01*
G01X30070Y45023D01*
G01X30073Y45009D01*
G01X30078Y44996D01*
G01X30085Y44983D01*
G01X30093Y44971D01*
G01X30104Y44961D01*
G01X30115Y44953D01*
G01X30128Y44945D01*
G01X30142Y44940D01*
G01X30156Y44937D01*
G01X30171Y44936D01*
G01X37263Y44936D01*
G01X37287Y44935D01*
G01X37310Y44932D01*
G01X37333Y44927D01*
G01X37356Y44919D01*
G01X37378Y44909D01*
G01X37398Y44898D01*
G01X37418Y44884D01*
G01X37436Y44869D01*
G01X37453Y44852D01*
G01X37468Y44834D01*
G01X37482Y44815D01*
G01X37493Y44794D01*
G01X37502Y44772D01*
G01X37510Y44750D01*
G01X37516Y44727D01*
G01X37519Y44703D01*
G01X37520Y44680D01*
G01X37520Y41180D01*
G01X37519Y41156D01*
G01X37516Y41132D01*
G01X37510Y41110D01*
G01X37502Y41087D01*
G01X37493Y41065D01*
G01X37482Y41045D01*
G01X37468Y41025D01*
G01X37453Y41007D01*
G01X37436Y40990D01*
G01X37418Y40975D01*
G01X37398Y40962D01*
G01X37378Y40950D01*
G01X37356Y40940D01*
G01X37333Y40933D01*
G01X37310Y40928D01*
G01X37287Y40924D01*
G01X37263Y40923D01*
G01X29263Y40923D01*
G01X29240Y40924D01*
G01X29216Y40928D01*
G01X29193Y40933D01*
G01X29171Y40940D01*
G01X29149Y40950D01*
G01X29128Y40962D01*
G01X29109Y40975D01*
G01X29091Y40990D01*
G01X29074Y41007D01*
G01X29059Y41025D01*
G01X29045Y41045D01*
G01X29034Y41065D01*
G01X29024Y41087D01*
G01X29016Y41110D01*
G01X29011Y41132D01*
G01X29008Y41156D01*
G01X29007Y41180D01*
G01X29007Y41631D01*
G01X29006Y41646D01*
G01X29003Y41660D01*
G01X28998Y41674D01*
G01X28990Y41687D01*
G01X28982Y41698D01*
G01X28972Y41708D01*
G01X28960Y41717D01*
G01X28947Y41724D01*
G01X28934Y41729D01*
G01X28920Y41732D01*
G01X28905Y41733D01*
G01X28601Y41733D01*
G01X28587Y41732D01*
G01X28573Y41729D01*
G01X28559Y41724D01*
G01X28546Y41717D01*
G01X28535Y41708D01*
G01X28525Y41698D01*
G01X28516Y41687D01*
G01X28509Y41674D01*
G01X28504Y41660D01*
G01X28501Y41646D01*
G01X28500Y41631D01*
G01X28500Y41240D01*
G01X28499Y41216D01*
G01X28496Y41192D01*
G01X28490Y41169D01*
G01X28482Y41147D01*
G01X28473Y41125D01*
G01X28462Y41104D01*
G01X28448Y41085D01*
G01X28433Y41067D01*
G01X28416Y41050D01*
G01X28398Y41035D01*
G01X28378Y41022D01*
G01X28357Y41010D01*
G01X28336Y41000D01*
G01X28313Y40993D01*
G01X28290Y40988D01*
G01X28267Y40984D01*
G01X28243Y40983D01*
G01X20243Y40983D01*
G01X20220Y40984D01*
G01X20196Y40988D01*
G01X20173Y40993D01*
G01X20151Y41000D01*
G01X20129Y41010D01*
G01X20108Y41022D01*
G01X20089Y41035D01*
G01X20070Y41050D01*
G01X20054Y41067D01*
G01X20038Y41085D01*
G01X20025Y41104D01*
G01X20014Y41125D01*
G01X20004Y41147D01*
G01X19997Y41169D01*
G01X19991Y41192D01*
G01X19988Y41216D01*
G01X19987Y41240D01*
G01X19987Y44740D01*
G01X19988Y44763D01*
G01X19991Y44787D01*
G01X19997Y44810D01*
G01X20004Y44832D01*
G01X20014Y44854D01*
G01X20025Y44875D01*
G01X20038Y44894D01*
G01X20054Y44912D01*
G01X20070Y44929D01*
G01X20089Y44944D01*
G01X20108Y44958D01*
G01X20129Y44969D01*
G01X20151Y44979D01*
G01X20173Y44986D01*
G01X20196Y44992D01*
G01X20220Y44995D01*
G01X20243Y44996D01*
G01X27454Y44996D01*
G01X27468Y44997D01*
G01X27483Y45000D01*
G01X27496Y45005D01*
G01X27509Y45012D01*
G01X27520Y45021D01*
G01X27531Y45031D01*
G01X27540Y45043D01*
G01X27546Y45056D01*
G01X27551Y45069D01*
G01X27554Y45083D01*
G01X27556Y45098D01*
G01X27556Y51130D01*
G01X27554Y51144D01*
G01X27551Y51158D01*
G01X27546Y51172D01*
G01X27540Y51185D01*
G01X27531Y51196D01*
G01X27520Y51207D01*
G01X27509Y51215D01*
G01X27496Y51222D01*
G01X27483Y51227D01*
G01X27468Y51230D01*
G01X27454Y51231D01*
G01X27438Y51230D01*
G01X27423Y51226D01*
G01X27408Y51220D01*
G01X27394Y51212D01*
G01X27382Y51201D01*
G01X25403Y49222D01*
G01X25365Y49186D01*
G01X25327Y49152D01*
G01X25286Y49119D01*
G01X25244Y49088D01*
G01X25202Y49059D01*
G01X25158Y49031D01*
G01X25112Y49006D01*
G01X25066Y48982D01*
G01X25019Y48960D01*
G01X24971Y48940D01*
G01X24873Y48906D01*
G01X24823Y48893D01*
G01X24773Y48881D01*
G01X24721Y48871D01*
G01X24670Y48864D01*
G01X24618Y48859D01*
G01X24566Y48856D01*
G01X24514Y48854D01*
G01X20151Y48854D01*
G01X20137Y48853D01*
G01X20123Y48850D01*
G01X20109Y48845D01*
G01X20096Y48838D01*
G01X20085Y48830D01*
G01X20075Y48819D01*
G01X20066Y48808D01*
G01X20059Y48795D01*
G01X20054Y48781D01*
G01X20051Y48767D01*
G01X20050Y48752D01*
G01X20050Y46110D01*
G01X20049Y46086D01*
G01X20046Y46063D01*
G01X20040Y46040D01*
G01X20032Y46017D01*
G01X20023Y45995D01*
G01X20012Y45975D01*
G01X19998Y45955D01*
G01X19983Y45937D01*
G01X19966Y45920D01*
G01X19948Y45905D01*
G01X19928Y45891D01*
G01X19907Y45880D01*
G01X19886Y45871D01*
G01X19863Y45863D01*
G01X19840Y45857D01*
G01X19817Y45854D01*
G01X19793Y45853D01*
G01X16293Y45853D01*
G01X16270Y45854D01*
G01X16246Y45857D01*
G01X16223Y45863D01*
G01X16201Y45871D01*
G01X16179Y45880D01*
G01X16158Y45891D01*
G01X16139Y45905D01*
G01X16120Y45920D01*
G01X16104Y45937D01*
G01X16088Y45955D01*
G01X16075Y45975D01*
G01X16063Y45995D01*
G01X16054Y46017D01*
G01X16047Y46040D01*
G01X16041Y46063D01*
G01X16038Y46086D01*
G01X16036Y46110D01*
G01X16036Y54110D01*
G01X16038Y54133D01*
G01X16041Y54157D01*
G01X16047Y54180D01*
G01X16054Y54202D01*
G01X16063Y54224D01*
G01X16075Y54245D01*
G01X16088Y54264D01*
G01X16104Y54282D01*
G01X16120Y54299D01*
G01X16139Y54314D01*
G01X16158Y54328D01*
G01X16179Y54339D01*
G01X16201Y54349D01*
G01X16223Y54356D01*
G01X16246Y54362D01*
G01X16270Y54365D01*
G01X16293Y54366D01*
G01X19793Y54366D01*
G01X19817Y54365D01*
G01X19840Y54362D01*
G01X19863Y54356D01*
G01X19886Y54349D01*
G01X19907Y54339D01*
G01X19928Y54328D01*
G01X19948Y54314D01*
G01X19966Y54299D01*
G01X19983Y54282D01*
G01X19998Y54264D01*
G01X20012Y54245D01*
G01X20023Y54224D01*
G01X20032Y54202D01*
G01X20040Y54180D01*
G01X20046Y54157D01*
G01X20049Y54133D01*
G01X20050Y54110D01*
G01X20050Y51469D01*
G01X20051Y51454D01*
G01X20054Y51440D01*
G01X20059Y51426D01*
G01X20066Y51414D01*
G01X20075Y51403D01*
G01X20085Y51392D01*
G01X20096Y51383D01*
G01X20109Y51377D01*
G01X20123Y51372D01*
G01X20137Y51369D01*
G01X20151Y51367D01*
G01X23952Y51367D01*
G01X23968Y51369D01*
G01X23983Y51372D01*
G01X23998Y51378D01*
G01X24012Y51387D01*
G01X24024Y51397D01*
G01X27396Y54770D01*
G01X27407Y54782D01*
G01X27415Y54796D01*
G01X27421Y54810D01*
G01X27425Y54826D01*
G01X27426Y54841D01*
G01X27426Y55302D01*
G01X27425Y55316D01*
G01X27422Y55330D01*
G01X27417Y55344D01*
G01X27410Y55356D01*
G01X27401Y55368D01*
G01X27391Y55378D01*
G01X27380Y55387D01*
G01X27367Y55394D01*
G01X27353Y55399D01*
G01X27339Y55402D01*
G01X27325Y55403D01*
G01X24953Y55403D01*
G01X24929Y55404D01*
G01X24906Y55407D01*
G01X24883Y55413D01*
G01X24861Y55420D01*
G01X24839Y55430D01*
G01X24818Y55441D01*
G01X24799Y55455D01*
G01X24781Y55470D01*
G01X24764Y55486D01*
G01X24749Y55505D01*
G01X24735Y55525D01*
G01X24724Y55545D01*
G01X24714Y55567D01*
G01X24706Y55590D01*
G01X24701Y55612D01*
G01X24698Y55636D01*
G01X24697Y55660D01*
G01X24697Y63641D01*
G01X24696Y63656D01*
G01X24693Y63670D01*
G01X24688Y63684D01*
G01X24681Y63696D01*
G01X24672Y63708D01*
G01X24662Y63718D01*
G01X24650Y63727D01*
G01X24637Y63734D01*
G01X24624Y63739D01*
G01X24610Y63742D01*
G01X24595Y63743D01*
G01X6312Y63743D01*
G01X6297Y63742D01*
G01X6283Y63739D01*
G01X6270Y63734D01*
G01X6257Y63727D01*
G01X6245Y63718D01*
G01X6235Y63708D01*
G01X6226Y63696D01*
G01X6219Y63684D01*
G01X6214Y63670D01*
G01X6211Y63656D01*
G01X6210Y63641D01*
G01X6210Y61723D01*
G01X5142Y61723D01*
G01X5142Y63641D01*
G01X5141Y63656D01*
G01X5138Y63670D01*
G01X5133Y63684D01*
G01X5126Y63696D01*
G01X5117Y63708D01*
G01X5107Y63718D01*
G01X5095Y63727D01*
G01X5082Y63734D01*
G01X5069Y63739D01*
G01X5055Y63742D01*
G01X5040Y63743D01*
G01X3366Y63743D01*
G01X3352Y63742D01*
G01X3338Y63739D01*
G01X3324Y63734D01*
G01X3312Y63727D01*
G01X3300Y63718D01*
G01X3290Y63708D01*
G01X3281Y63696D01*
G01X3274Y63684D01*
G01X3269Y63670D01*
G01X3266Y63656D01*
G01X3265Y63641D01*
G01X3265Y61723D01*
G01X2197Y61723D01*
G01X2197Y63641D01*
G01X2196Y63656D01*
G01X2193Y63670D01*
G01X2188Y63684D01*
G01X2181Y63696D01*
G01X2172Y63708D01*
G01X2162Y63718D01*
G01X2150Y63727D01*
G01X2138Y63734D01*
G01X2124Y63739D01*
G01X2110Y63742D01*
G01X2095Y63743D01*
G37*

%LPC*%
G36*
G01X3385Y8616D02*
G01X2573Y8616D01*
G01X2550Y8615D01*
G01X2526Y8612D01*
G01X2503Y8606D01*
G01X2481Y8599D01*
G01X2459Y8589D01*
G01X2438Y8578D01*
G01X2419Y8565D01*
G01X2401Y8549D01*
G01X2384Y8533D01*
G01X2369Y8514D01*
G01X2356Y8494D01*
G01X2344Y8474D01*
G01X2334Y8452D01*
G01X2327Y8430D01*
G01X2321Y8407D01*
G01X2318Y8383D01*
G01X2317Y8360D01*
G01X2317Y6423D01*
G01X3385Y6423D01*
G01X3385Y8616D01*
G37*
G36*
G01X6074Y8616D02*
G01X5262Y8616D01*
G01X5262Y6423D01*
G01X6330Y6423D01*
G01X6330Y8360D01*
G01X6329Y8383D01*
G01X6326Y8407D01*
G01X6320Y8430D01*
G01X6313Y8452D01*
G01X6303Y8474D01*
G01X6291Y8494D01*
G01X6278Y8514D01*
G01X6263Y8533D01*
G01X6246Y8549D01*
G01X6228Y8565D01*
G01X6209Y8578D01*
G01X6188Y8589D01*
G01X6166Y8599D01*
G01X6144Y8606D01*
G01X6121Y8612D01*
G01X6097Y8615D01*
G01X6074Y8616D01*
G37*
G36*
G01X52905Y8646D02*
G01X52093Y8646D01*
G01X52070Y8645D01*
G01X52046Y8642D01*
G01X52023Y8636D01*
G01X52001Y8629D01*
G01X51979Y8619D01*
G01X51958Y8608D01*
G01X51939Y8594D01*
G01X51921Y8579D01*
G01X51904Y8562D01*
G01X51889Y8544D01*
G01X51875Y8525D01*
G01X51864Y8504D01*
G01X51854Y8482D01*
G01X51847Y8460D01*
G01X51841Y8436D01*
G01X51838Y8413D01*
G01X51837Y8390D01*
G01X51837Y6453D01*
G01X52905Y6453D01*
G01X52905Y8646D01*
G37*
G36*
G01X55593Y8646D02*
G01X54782Y8646D01*
G01X54782Y6453D01*
G01X55850Y6453D01*
G01X55850Y8390D01*
G01X55849Y8413D01*
G01X55845Y8436D01*
G01X55840Y8460D01*
G01X55833Y8482D01*
G01X55823Y8504D01*
G01X55811Y8525D01*
G01X55798Y8544D01*
G01X55783Y8562D01*
G01X55766Y8579D01*
G01X55748Y8594D01*
G01X55729Y8608D01*
G01X55708Y8619D01*
G01X55686Y8629D01*
G01X55663Y8636D01*
G01X55641Y8642D01*
G01X55617Y8645D01*
G01X55593Y8646D01*
G37*
G36*
G01X41930Y11466D02*
G01X40862Y11466D01*
G01X40862Y9273D01*
G01X41673Y9273D01*
G01X41697Y9274D01*
G01X41720Y9278D01*
G01X41744Y9283D01*
G01X41766Y9290D01*
G01X41788Y9300D01*
G01X41808Y9312D01*
G01X41828Y9325D01*
G01X41846Y9340D01*
G01X41863Y9357D01*
G01X41878Y9375D01*
G01X41892Y9395D01*
G01X41903Y9415D01*
G01X41912Y9437D01*
G01X41920Y9460D01*
G01X41926Y9482D01*
G01X41929Y9506D01*
G01X41930Y9530D01*
G01X41930Y11466D01*
G37*
G36*
G01X38985Y11466D02*
G01X37917Y11466D01*
G01X37917Y9530D01*
G01X37918Y9506D01*
G01X37921Y9482D01*
G01X37927Y9460D01*
G01X37934Y9437D01*
G01X37944Y9415D01*
G01X37955Y9395D01*
G01X37969Y9375D01*
G01X37984Y9357D01*
G01X38000Y9340D01*
G01X38019Y9325D01*
G01X38038Y9312D01*
G01X38059Y9300D01*
G01X38081Y9290D01*
G01X38103Y9283D01*
G01X38126Y9278D01*
G01X38150Y9274D01*
G01X38174Y9273D01*
G01X38985Y9273D01*
G01X38985Y11466D01*
G37*
G36*
G01X9544Y10486D02*
G01X8892Y10486D01*
G01X8892Y9835D01*
G01X8943Y9862D01*
G01X8994Y9892D01*
G01X9043Y9923D01*
G01X9091Y9957D01*
G01X9138Y9992D01*
G01X9183Y10030D01*
G01X9227Y10069D01*
G01X9269Y10109D01*
G01X9310Y10151D01*
G01X9348Y10195D01*
G01X9385Y10240D01*
G01X9421Y10287D01*
G01X9454Y10335D01*
G01X9486Y10384D01*
G01X9516Y10434D01*
G01X9544Y10486D01*
G37*
G36*
G01X7515Y10486D02*
G01X6863Y10486D01*
G01X6891Y10434D01*
G01X6921Y10384D01*
G01X6952Y10335D01*
G01X6986Y10287D01*
G01X7021Y10240D01*
G01X7059Y10195D01*
G01X7098Y10151D01*
G01X7138Y10109D01*
G01X7180Y10069D01*
G01X7224Y10030D01*
G01X7269Y9992D01*
G01X7316Y9957D01*
G01X7364Y9923D01*
G01X7413Y9892D01*
G01X7463Y9862D01*
G01X7515Y9835D01*
G01X7515Y10486D01*
G37*
G36*
G01X49115Y10486D02*
G01X48464Y10486D01*
G01X48491Y10434D01*
G01X48521Y10384D01*
G01X48553Y10335D01*
G01X48586Y10287D01*
G01X48622Y10240D01*
G01X48659Y10195D01*
G01X48698Y10151D01*
G01X48738Y10109D01*
G01X48780Y10069D01*
G01X48824Y10030D01*
G01X48869Y9992D01*
G01X48916Y9957D01*
G01X48964Y9923D01*
G01X49013Y9892D01*
G01X49064Y9862D01*
G01X49115Y9835D01*
G01X49115Y10486D01*
G37*
G36*
G01X51143Y10486D02*
G01X50492Y10486D01*
G01X50492Y9835D01*
G01X50543Y9862D01*
G01X50594Y9892D01*
G01X50643Y9923D01*
G01X50691Y9957D01*
G01X50737Y9992D01*
G01X50783Y10030D01*
G01X50826Y10069D01*
G01X50868Y10109D01*
G01X50909Y10151D01*
G01X50948Y10195D01*
G01X50985Y10240D01*
G01X51021Y10287D01*
G01X51054Y10335D01*
G01X51086Y10384D01*
G01X51116Y10434D01*
G01X51143Y10486D01*
G37*
G36*
G01X7515Y11863D02*
G01X7515Y12514D01*
G01X7463Y12487D01*
G01X7413Y12457D01*
G01X7364Y12425D01*
G01X7316Y12392D01*
G01X7269Y12356D01*
G01X7224Y12319D01*
G01X7180Y12280D01*
G01X7138Y12240D01*
G01X7098Y12197D01*
G01X7059Y12154D01*
G01X7021Y12108D01*
G01X6986Y12062D01*
G01X6952Y12014D01*
G01X6921Y11965D01*
G01X6891Y11914D01*
G01X6863Y11863D01*
G01X7515Y11863D01*
G37*
G36*
G01X8943Y12487D02*
G01X8892Y12514D01*
G01X8892Y11863D01*
G01X9544Y11863D01*
G01X9516Y11914D01*
G01X9486Y11965D01*
G01X9454Y12014D01*
G01X9421Y12062D01*
G01X9385Y12108D01*
G01X9348Y12154D01*
G01X9310Y12197D01*
G01X9269Y12240D01*
G01X9227Y12280D01*
G01X9183Y12319D01*
G01X9138Y12356D01*
G01X9091Y12392D01*
G01X9043Y12425D01*
G01X8994Y12457D01*
G01X8943Y12487D01*
G37*
G36*
G01X49115Y11863D02*
G01X49115Y12514D01*
G01X49064Y12487D01*
G01X49013Y12457D01*
G01X48964Y12425D01*
G01X48916Y12392D01*
G01X48869Y12356D01*
G01X48824Y12319D01*
G01X48780Y12280D01*
G01X48738Y12240D01*
G01X48698Y12197D01*
G01X48659Y12154D01*
G01X48622Y12108D01*
G01X48586Y12062D01*
G01X48553Y12014D01*
G01X48521Y11965D01*
G01X48491Y11914D01*
G01X48464Y11863D01*
G01X49115Y11863D01*
G37*
G36*
G01X50543Y12487D02*
G01X50492Y12514D01*
G01X50492Y11863D01*
G01X51143Y11863D01*
G01X51116Y11914D01*
G01X51086Y11965D01*
G01X51054Y12014D01*
G01X51021Y12062D01*
G01X50985Y12108D01*
G01X50948Y12154D01*
G01X50909Y12197D01*
G01X50868Y12240D01*
G01X50826Y12280D01*
G01X50783Y12319D01*
G01X50737Y12356D01*
G01X50691Y12392D01*
G01X50643Y12425D01*
G01X50594Y12457D01*
G01X50543Y12487D01*
G37*
G36*
G01X13879Y14853D02*
G01X13228Y14853D01*
G01X13228Y14201D01*
G01X13280Y14229D01*
G01X13330Y14259D01*
G01X13379Y14291D01*
G01X13427Y14324D01*
G01X13474Y14359D01*
G01X13519Y14397D01*
G01X13562Y14435D01*
G01X13605Y14476D01*
G01X13645Y14518D01*
G01X13684Y14562D01*
G01X13721Y14607D01*
G01X13757Y14654D01*
G01X13790Y14702D01*
G01X13822Y14751D01*
G01X13852Y14801D01*
G01X13879Y14853D01*
G37*
G36*
G01X11851Y14853D02*
G01X11199Y14853D01*
G01X11227Y14801D01*
G01X11257Y14751D01*
G01X11289Y14702D01*
G01X11322Y14654D01*
G01X11358Y14607D01*
G01X11395Y14562D01*
G01X11433Y14518D01*
G01X11474Y14476D01*
G01X11516Y14435D01*
G01X11560Y14397D01*
G01X11605Y14359D01*
G01X11652Y14324D01*
G01X11700Y14291D01*
G01X11749Y14259D01*
G01X11799Y14229D01*
G01X11851Y14201D01*
G01X11851Y14853D01*
G37*
G36*
G01X44781Y14853D02*
G01X44129Y14853D01*
G01X44157Y14801D01*
G01X44187Y14751D01*
G01X44219Y14702D01*
G01X44252Y14654D01*
G01X44287Y14607D01*
G01X44325Y14562D01*
G01X44364Y14518D01*
G01X44404Y14476D01*
G01X44446Y14435D01*
G01X44490Y14397D01*
G01X44535Y14359D01*
G01X44582Y14324D01*
G01X44630Y14291D01*
G01X44679Y14259D01*
G01X44729Y14229D01*
G01X44781Y14201D01*
G01X44781Y14853D01*
G37*
G36*
G01X46810Y14853D02*
G01X46158Y14853D01*
G01X46158Y14201D01*
G01X46210Y14229D01*
G01X46260Y14259D01*
G01X46309Y14291D01*
G01X46357Y14324D01*
G01X46404Y14359D01*
G01X46449Y14397D01*
G01X46493Y14435D01*
G01X46535Y14476D01*
G01X46575Y14518D01*
G01X46614Y14562D01*
G01X46652Y14607D01*
G01X46687Y14654D01*
G01X46720Y14702D01*
G01X46752Y14751D01*
G01X46782Y14801D01*
G01X46810Y14853D01*
G37*
G36*
G01X38985Y17786D02*
G01X38174Y17786D01*
G01X38150Y17785D01*
G01X38126Y17782D01*
G01X38103Y17777D01*
G01X38081Y17769D01*
G01X38059Y17759D01*
G01X38038Y17748D01*
G01X38019Y17734D01*
G01X38000Y17719D01*
G01X37984Y17702D01*
G01X37969Y17684D01*
G01X37955Y17665D01*
G01X37944Y17644D01*
G01X37934Y17622D01*
G01X37927Y17600D01*
G01X37921Y17577D01*
G01X37918Y17554D01*
G01X37917Y17530D01*
G01X37917Y15593D01*
G01X38985Y15593D01*
G01X38985Y17786D01*
G37*
G36*
G01X41673Y17786D02*
G01X40862Y17786D01*
G01X40862Y15593D01*
G01X41930Y15593D01*
G01X41930Y17530D01*
G01X41929Y17554D01*
G01X41926Y17577D01*
G01X41920Y17600D01*
G01X41912Y17622D01*
G01X41903Y17644D01*
G01X41892Y17665D01*
G01X41878Y17684D01*
G01X41863Y17702D01*
G01X41846Y17719D01*
G01X41828Y17734D01*
G01X41808Y17748D01*
G01X41788Y17759D01*
G01X41766Y17769D01*
G01X41744Y17777D01*
G01X41720Y17782D01*
G01X41697Y17785D01*
G01X41673Y17786D01*
G37*
G36*
G01X11851Y16230D02*
G01X11851Y16881D01*
G01X11799Y16854D01*
G01X11749Y16824D01*
G01X11700Y16792D01*
G01X11652Y16759D01*
G01X11605Y16723D01*
G01X11560Y16686D01*
G01X11516Y16647D01*
G01X11474Y16607D01*
G01X11433Y16564D01*
G01X11395Y16521D01*
G01X11358Y16476D01*
G01X11322Y16429D01*
G01X11289Y16381D01*
G01X11257Y16332D01*
G01X11227Y16282D01*
G01X11199Y16230D01*
G01X11851Y16230D01*
G37*
G36*
G01X13280Y16854D02*
G01X13228Y16881D01*
G01X13228Y16230D01*
G01X13879Y16230D01*
G01X13852Y16282D01*
G01X13822Y16332D01*
G01X13790Y16381D01*
G01X13757Y16429D01*
G01X13721Y16476D01*
G01X13684Y16521D01*
G01X13645Y16564D01*
G01X13605Y16607D01*
G01X13562Y16647D01*
G01X13519Y16686D01*
G01X13474Y16723D01*
G01X13427Y16759D01*
G01X13379Y16792D01*
G01X13330Y16824D01*
G01X13280Y16854D01*
G37*
G36*
G01X44781Y16230D02*
G01X44781Y16881D01*
G01X44729Y16854D01*
G01X44679Y16824D01*
G01X44630Y16792D01*
G01X44582Y16759D01*
G01X44535Y16723D01*
G01X44490Y16686D01*
G01X44446Y16647D01*
G01X44404Y16607D01*
G01X44364Y16564D01*
G01X44325Y16521D01*
G01X44287Y16476D01*
G01X44252Y16429D01*
G01X44219Y16381D01*
G01X44187Y16332D01*
G01X44157Y16282D01*
G01X44129Y16230D01*
G01X44781Y16230D01*
G37*
G36*
G01X46210Y16854D02*
G01X46158Y16881D01*
G01X46158Y16230D01*
G01X46810Y16230D01*
G01X46782Y16282D01*
G01X46752Y16332D01*
G01X46720Y16381D01*
G01X46687Y16429D01*
G01X46652Y16476D01*
G01X46614Y16521D01*
G01X46575Y16564D01*
G01X46535Y16607D01*
G01X46493Y16647D01*
G01X46449Y16686D01*
G01X46404Y16723D01*
G01X46357Y16759D01*
G01X46309Y16792D01*
G01X46260Y16824D01*
G01X46210Y16854D01*
G37*
G36*
G01X31200Y19491D02*
G01X29007Y19491D01*
G01X29007Y18679D01*
G01X29008Y18656D01*
G01X29011Y18633D01*
G01X29017Y18609D01*
G01X29024Y18587D01*
G01X29034Y18565D01*
G01X29045Y18545D01*
G01X29059Y18525D01*
G01X29074Y18507D01*
G01X29091Y18490D01*
G01X29109Y18475D01*
G01X29128Y18461D01*
G01X29149Y18450D01*
G01X29171Y18441D01*
G01X29193Y18433D01*
G01X29217Y18427D01*
G01X29240Y18424D01*
G01X29263Y18423D01*
G01X31200Y18423D01*
G01X31200Y19491D01*
G37*
G36*
G01X37520Y19491D02*
G01X35327Y19491D01*
G01X35327Y18423D01*
G01X37263Y18423D01*
G01X37287Y18424D01*
G01X37310Y18427D01*
G01X37333Y18433D01*
G01X37356Y18441D01*
G01X37378Y18450D01*
G01X37398Y18461D01*
G01X37418Y18475D01*
G01X37436Y18490D01*
G01X37453Y18507D01*
G01X37468Y18525D01*
G01X37482Y18545D01*
G01X37493Y18565D01*
G01X37502Y18587D01*
G01X37510Y18609D01*
G01X37516Y18633D01*
G01X37519Y18656D01*
G01X37520Y18679D01*
G01X37520Y19491D01*
G37*
G36*
G01X28500Y19551D02*
G01X26307Y19551D01*
G01X26307Y18483D01*
G01X28243Y18483D01*
G01X28267Y18484D01*
G01X28290Y18487D01*
G01X28314Y18493D01*
G01X28336Y18500D01*
G01X28358Y18510D01*
G01X28378Y18521D01*
G01X28398Y18535D01*
G01X28416Y18550D01*
G01X28433Y18567D01*
G01X28448Y18585D01*
G01X28462Y18605D01*
G01X28473Y18625D01*
G01X28482Y18647D01*
G01X28490Y18669D01*
G01X28496Y18693D01*
G01X28499Y18716D01*
G01X28500Y18739D01*
G01X28500Y19551D01*
G37*
G36*
G01X22180Y19551D02*
G01X19987Y19551D01*
G01X19987Y18739D01*
G01X19988Y18716D01*
G01X19991Y18693D01*
G01X19997Y18669D01*
G01X20004Y18647D01*
G01X20014Y18625D01*
G01X20025Y18605D01*
G01X20038Y18585D01*
G01X20054Y18567D01*
G01X20070Y18550D01*
G01X20089Y18535D01*
G01X20109Y18521D01*
G01X20129Y18510D01*
G01X20151Y18500D01*
G01X20173Y18493D01*
G01X20196Y18487D01*
G01X20220Y18484D01*
G01X20243Y18483D01*
G01X22180Y18483D01*
G01X22180Y19551D01*
G37*
G36*
G01X18297Y23575D02*
G01X18243Y23576D01*
G01X18190Y23575D01*
G01X18137Y23572D01*
G01X18084Y23567D01*
G01X18031Y23560D01*
G01X17979Y23550D01*
G01X17927Y23539D01*
G01X17875Y23525D01*
G01X17824Y23510D01*
G01X17774Y23492D01*
G01X17725Y23473D01*
G01X17675Y23451D01*
G01X17628Y23428D01*
G01X17581Y23403D01*
G01X17535Y23376D01*
G01X17490Y23347D01*
G01X17446Y23317D01*
G01X17403Y23285D01*
G01X17362Y23251D01*
G01X17323Y23216D01*
G01X17284Y23179D01*
G01X17248Y23141D01*
G01X17212Y23100D01*
G01X17178Y23059D01*
G01X17146Y23017D01*
G01X17115Y22973D01*
G01X17087Y22928D01*
G01X17060Y22882D01*
G01X17035Y22835D01*
G01X17011Y22787D01*
G01X16990Y22739D01*
G01X16971Y22689D01*
G01X16953Y22639D01*
G01X16938Y22588D01*
G01X16924Y22536D01*
G01X16913Y22484D01*
G01X16904Y22432D01*
G01X16896Y22379D01*
G01X16891Y22326D01*
G01X16888Y22273D01*
G01X16887Y22220D01*
G01X16888Y22166D01*
G01X16891Y22113D01*
G01X16896Y22060D01*
G01X16904Y22007D01*
G01X16913Y21955D01*
G01X16924Y21903D01*
G01X16938Y21851D01*
G01X16953Y21800D01*
G01X16971Y21750D01*
G01X16990Y21700D01*
G01X17011Y21652D01*
G01X17035Y21604D01*
G01X17060Y21557D01*
G01X17087Y21511D01*
G01X17115Y21466D01*
G01X17146Y21422D01*
G01X17178Y21380D01*
G01X17212Y21339D01*
G01X17248Y21299D01*
G01X17284Y21260D01*
G01X17323Y21223D01*
G01X17362Y21188D01*
G01X17403Y21154D01*
G01X17446Y21122D01*
G01X17490Y21092D01*
G01X17535Y21063D01*
G01X17581Y21036D01*
G01X17628Y21011D01*
G01X17675Y20988D01*
G01X17725Y20966D01*
G01X17774Y20947D01*
G01X17824Y20929D01*
G01X17875Y20914D01*
G01X17927Y20900D01*
G01X17979Y20889D01*
G01X18031Y20880D01*
G01X18084Y20872D01*
G01X18137Y20867D01*
G01X18190Y20864D01*
G01X18243Y20863D01*
G01X18297Y20864D01*
G01X18350Y20867D01*
G01X18403Y20872D01*
G01X18456Y20880D01*
G01X18508Y20889D01*
G01X18560Y20900D01*
G01X18612Y20914D01*
G01X18663Y20929D01*
G01X18713Y20947D01*
G01X18762Y20966D01*
G01X18811Y20988D01*
G01X18859Y21011D01*
G01X18906Y21036D01*
G01X18952Y21063D01*
G01X18997Y21092D01*
G01X19041Y21122D01*
G01X19083Y21154D01*
G01X19125Y21188D01*
G01X19164Y21223D01*
G01X19203Y21260D01*
G01X19239Y21299D01*
G01X19275Y21339D01*
G01X19309Y21380D01*
G01X19341Y21422D01*
G01X19371Y21466D01*
G01X19400Y21511D01*
G01X19427Y21557D01*
G01X19452Y21604D01*
G01X19476Y21652D01*
G01X19497Y21700D01*
G01X19516Y21750D01*
G01X19534Y21800D01*
G01X19549Y21851D01*
G01X19562Y21903D01*
G01X19574Y21955D01*
G01X19583Y22007D01*
G01X19590Y22060D01*
G01X19596Y22113D01*
G01X19599Y22166D01*
G01X19600Y22220D01*
G01X19599Y22273D01*
G01X19596Y22326D01*
G01X19590Y22379D01*
G01X19583Y22432D01*
G01X19574Y22484D01*
G01X19562Y22536D01*
G01X19549Y22588D01*
G01X19534Y22639D01*
G01X19516Y22689D01*
G01X19497Y22739D01*
G01X19476Y22787D01*
G01X19452Y22835D01*
G01X19427Y22882D01*
G01X19400Y22928D01*
G01X19371Y22973D01*
G01X19341Y23017D01*
G01X19309Y23059D01*
G01X19275Y23100D01*
G01X19239Y23141D01*
G01X19203Y23179D01*
G01X19164Y23216D01*
G01X19125Y23251D01*
G01X19083Y23285D01*
G01X19041Y23317D01*
G01X18997Y23347D01*
G01X18952Y23376D01*
G01X18906Y23403D01*
G01X18859Y23428D01*
G01X18811Y23451D01*
G01X18762Y23473D01*
G01X18713Y23492D01*
G01X18663Y23510D01*
G01X18612Y23525D01*
G01X18560Y23539D01*
G01X18508Y23550D01*
G01X18456Y23560D01*
G01X18403Y23567D01*
G01X18350Y23572D01*
G01X18297Y23575D01*
G37*
G36*
G01X39786Y23665D02*
G01X39734Y23666D01*
G01X39680Y23665D01*
G01X39627Y23662D01*
G01X39574Y23657D01*
G01X39521Y23650D01*
G01X39469Y23640D01*
G01X39417Y23629D01*
G01X39365Y23615D01*
G01X39314Y23600D01*
G01X39264Y23582D01*
G01X39214Y23563D01*
G01X39166Y23541D01*
G01X39117Y23518D01*
G01X39071Y23493D01*
G01X39024Y23466D01*
G01X38980Y23438D01*
G01X38936Y23407D01*
G01X38893Y23375D01*
G01X38852Y23341D01*
G01X38813Y23306D01*
G01X38774Y23269D01*
G01X38737Y23230D01*
G01X38702Y23190D01*
G01X38668Y23149D01*
G01X38636Y23107D01*
G01X38605Y23063D01*
G01X38577Y23018D01*
G01X38550Y22972D01*
G01X38525Y22926D01*
G01X38501Y22877D01*
G01X38480Y22829D01*
G01X38461Y22779D01*
G01X38443Y22729D01*
G01X38428Y22678D01*
G01X38414Y22626D01*
G01X38403Y22574D01*
G01X38394Y22522D01*
G01X38386Y22469D01*
G01X38381Y22416D01*
G01X38378Y22363D01*
G01X38377Y22309D01*
G01X38378Y22256D01*
G01X38381Y22203D01*
G01X38386Y22150D01*
G01X38394Y22097D01*
G01X38403Y22045D01*
G01X38414Y21993D01*
G01X38428Y21941D01*
G01X38443Y21890D01*
G01X38461Y21840D01*
G01X38480Y21790D01*
G01X38501Y21742D01*
G01X38525Y21694D01*
G01X38550Y21647D01*
G01X38577Y21601D01*
G01X38605Y21556D01*
G01X38636Y21512D01*
G01X38668Y21470D01*
G01X38702Y21429D01*
G01X38737Y21389D01*
G01X38774Y21350D01*
G01X38813Y21313D01*
G01X38852Y21278D01*
G01X38893Y21244D01*
G01X38936Y21212D01*
G01X38980Y21182D01*
G01X39024Y21153D01*
G01X39071Y21126D01*
G01X39117Y21101D01*
G01X39166Y21078D01*
G01X39214Y21056D01*
G01X39264Y21037D01*
G01X39314Y21020D01*
G01X39365Y21004D01*
G01X39417Y20991D01*
G01X39469Y20979D01*
G01X39521Y20970D01*
G01X39574Y20962D01*
G01X39627Y20957D01*
G01X39680Y20954D01*
G01X39733Y20953D01*
G01X39786Y20954D01*
G01X39840Y20957D01*
G01X39893Y20962D01*
G01X39945Y20970D01*
G01X39998Y20979D01*
G01X40050Y20991D01*
G01X40101Y21004D01*
G01X40153Y21020D01*
G01X40203Y21037D01*
G01X40252Y21056D01*
G01X40301Y21078D01*
G01X40349Y21101D01*
G01X40396Y21126D01*
G01X40442Y21153D01*
G01X40487Y21182D01*
G01X40531Y21212D01*
G01X40573Y21244D01*
G01X40615Y21278D01*
G01X40654Y21313D01*
G01X40693Y21350D01*
G01X40729Y21389D01*
G01X40765Y21429D01*
G01X40799Y21470D01*
G01X40831Y21512D01*
G01X40861Y21556D01*
G01X40890Y21601D01*
G01X40917Y21647D01*
G01X40942Y21694D01*
G01X40966Y21742D01*
G01X40987Y21790D01*
G01X41006Y21840D01*
G01X41023Y21890D01*
G01X41039Y21941D01*
G01X41052Y21993D01*
G01X41064Y22045D01*
G01X41073Y22097D01*
G01X41080Y22150D01*
G01X41086Y22203D01*
G01X41089Y22256D01*
G01X41090Y22309D01*
G01X41089Y22363D01*
G01X41086Y22416D01*
G01X41080Y22469D01*
G01X41073Y22522D01*
G01X41064Y22574D01*
G01X41052Y22626D01*
G01X41039Y22678D01*
G01X41023Y22729D01*
G01X41006Y22779D01*
G01X40987Y22829D01*
G01X40966Y22877D01*
G01X40942Y22926D01*
G01X40917Y22972D01*
G01X40890Y23018D01*
G01X40861Y23063D01*
G01X40831Y23107D01*
G01X40799Y23149D01*
G01X40765Y23190D01*
G01X40729Y23230D01*
G01X40693Y23269D01*
G01X40654Y23306D01*
G01X40615Y23341D01*
G01X40573Y23375D01*
G01X40531Y23407D01*
G01X40487Y23438D01*
G01X40442Y23466D01*
G01X40396Y23493D01*
G01X40349Y23518D01*
G01X40301Y23541D01*
G01X40252Y23563D01*
G01X40203Y23582D01*
G01X40153Y23600D01*
G01X40101Y23615D01*
G01X40050Y23629D01*
G01X39998Y23640D01*
G01X39945Y23650D01*
G01X39893Y23657D01*
G01X39840Y23662D01*
G01X39786Y23665D01*
G37*
G36*
G01X31200Y22436D02*
G01X29263Y22436D01*
G01X29240Y22435D01*
G01X29217Y22432D01*
G01X29193Y22426D01*
G01X29171Y22419D01*
G01X29149Y22409D01*
G01X29128Y22398D01*
G01X29109Y22384D01*
G01X29091Y22369D01*
G01X29074Y22353D01*
G01X29059Y22334D01*
G01X29045Y22315D01*
G01X29034Y22294D01*
G01X29024Y22272D01*
G01X29017Y22250D01*
G01X29011Y22227D01*
G01X29008Y22203D01*
G01X29007Y22179D01*
G01X29007Y21368D01*
G01X31200Y21368D01*
G01X31200Y22436D01*
G37*
G36*
G01X37263Y22436D02*
G01X35327Y22436D01*
G01X35327Y21368D01*
G01X37520Y21368D01*
G01X37520Y22179D01*
G01X37519Y22203D01*
G01X37516Y22227D01*
G01X37510Y22250D01*
G01X37502Y22272D01*
G01X37493Y22294D01*
G01X37482Y22315D01*
G01X37468Y22334D01*
G01X37453Y22353D01*
G01X37436Y22369D01*
G01X37418Y22384D01*
G01X37398Y22398D01*
G01X37378Y22409D01*
G01X37356Y22419D01*
G01X37333Y22426D01*
G01X37310Y22432D01*
G01X37287Y22435D01*
G01X37263Y22436D01*
G37*
G36*
G01X28243Y22496D02*
G01X26307Y22496D01*
G01X26307Y21428D01*
G01X28500Y21428D01*
G01X28500Y22239D01*
G01X28499Y22263D01*
G01X28496Y22287D01*
G01X28490Y22309D01*
G01X28482Y22332D01*
G01X28473Y22354D01*
G01X28462Y22374D01*
G01X28448Y22394D01*
G01X28433Y22413D01*
G01X28416Y22429D01*
G01X28398Y22444D01*
G01X28378Y22458D01*
G01X28358Y22469D01*
G01X28336Y22479D01*
G01X28314Y22486D01*
G01X28290Y22492D01*
G01X28267Y22495D01*
G01X28243Y22496D01*
G37*
G36*
G01X22180Y22496D02*
G01X20243Y22496D01*
G01X20220Y22495D01*
G01X20196Y22492D01*
G01X20173Y22486D01*
G01X20151Y22479D01*
G01X20129Y22469D01*
G01X20109Y22458D01*
G01X20089Y22444D01*
G01X20070Y22429D01*
G01X20054Y22413D01*
G01X20038Y22394D01*
G01X20025Y22374D01*
G01X20014Y22354D01*
G01X20004Y22332D01*
G01X19997Y22309D01*
G01X19991Y22287D01*
G01X19988Y22263D01*
G01X19987Y22239D01*
G01X19987Y21428D01*
G01X22180Y21428D01*
G01X22180Y22496D01*
G37*
G36*
G01X13995Y25071D02*
G01X13943Y25072D01*
G01X13892Y25071D01*
G01X13841Y25068D01*
G01X13790Y25063D01*
G01X13739Y25056D01*
G01X13689Y25047D01*
G01X13639Y25035D01*
G01X13589Y25022D01*
G01X13541Y25007D01*
G01X13492Y24990D01*
G01X13398Y24950D01*
G01X13352Y24927D01*
G01X13307Y24902D01*
G01X13263Y24875D01*
G01X13221Y24847D01*
G01X13179Y24817D01*
G01X13139Y24785D01*
G01X13100Y24752D01*
G01X13062Y24717D01*
G01X13026Y24681D01*
G01X12991Y24644D01*
G01X12958Y24605D01*
G01X12926Y24564D01*
G01X12896Y24523D01*
G01X12868Y24480D01*
G01X12842Y24436D01*
G01X12817Y24391D01*
G01X12794Y24345D01*
G01X12773Y24298D01*
G01X12754Y24251D01*
G01X12736Y24203D01*
G01X12721Y24154D01*
G01X12708Y24104D01*
G01X12697Y24054D01*
G01X12687Y24004D01*
G01X12680Y23953D01*
G01X12675Y23902D01*
G01X12672Y23851D01*
G01X12671Y23800D01*
G01X12671Y23799D01*
G01X12672Y23749D01*
G01X12675Y23697D01*
G01X12680Y23647D01*
G01X12687Y23596D01*
G01X12697Y23545D01*
G01X12708Y23495D01*
G01X12721Y23446D01*
G01X12736Y23397D01*
G01X12754Y23348D01*
G01X12773Y23301D01*
G01X12794Y23254D01*
G01X12817Y23208D01*
G01X12842Y23163D01*
G01X12868Y23120D01*
G01X12896Y23077D01*
G01X12926Y23035D01*
G01X12958Y22995D01*
G01X12991Y22956D01*
G01X13026Y22918D01*
G01X13062Y22882D01*
G01X13100Y22847D01*
G01X13139Y22814D01*
G01X13179Y22782D01*
G01X13221Y22752D01*
G01X13263Y22724D01*
G01X13307Y22698D01*
G01X13352Y22673D01*
G01X13398Y22650D01*
G01X13445Y22629D01*
G01X13492Y22610D01*
G01X13541Y22592D01*
G01X13589Y22577D01*
G01X13639Y22564D01*
G01X13689Y22553D01*
G01X13739Y22544D01*
G01X13790Y22537D01*
G01X13841Y22531D01*
G01X13892Y22528D01*
G01X13943Y22527D01*
G01X13995Y22528D01*
G01X14046Y22531D01*
G01X14097Y22537D01*
G01X14148Y22544D01*
G01X14198Y22553D01*
G01X14248Y22564D01*
G01X14298Y22577D01*
G01X14346Y22592D01*
G01X14395Y22610D01*
G01X14442Y22629D01*
G01X14489Y22650D01*
G01X14535Y22673D01*
G01X14580Y22698D01*
G01X14624Y22724D01*
G01X14666Y22752D01*
G01X14708Y22782D01*
G01X14748Y22814D01*
G01X14787Y22847D01*
G01X14825Y22882D01*
G01X14861Y22918D01*
G01X14896Y22956D01*
G01X14929Y22995D01*
G01X14961Y23035D01*
G01X14991Y23077D01*
G01X15019Y23120D01*
G01X15045Y23163D01*
G01X15070Y23208D01*
G01X15093Y23254D01*
G01X15114Y23301D01*
G01X15133Y23348D01*
G01X15150Y23397D01*
G01X15166Y23446D01*
G01X15179Y23495D01*
G01X15190Y23545D01*
G01X15200Y23596D01*
G01X15207Y23647D01*
G01X15212Y23697D01*
G01X15215Y23749D01*
G01X15216Y23799D01*
G01X15215Y23851D01*
G01X15212Y23902D01*
G01X15207Y23953D01*
G01X15200Y24004D01*
G01X15190Y24054D01*
G01X15179Y24104D01*
G01X15166Y24154D01*
G01X15150Y24203D01*
G01X15133Y24251D01*
G01X15114Y24298D01*
G01X15093Y24345D01*
G01X15070Y24391D01*
G01X15045Y24436D01*
G01X15019Y24480D01*
G01X14991Y24523D01*
G01X14961Y24564D01*
G01X14929Y24605D01*
G01X14896Y24644D01*
G01X14861Y24681D01*
G01X14825Y24717D01*
G01X14787Y24752D01*
G01X14748Y24785D01*
G01X14708Y24817D01*
G01X14666Y24847D01*
G01X14624Y24875D01*
G01X14580Y24902D01*
G01X14535Y24927D01*
G01X14489Y24950D01*
G01X14395Y24990D01*
G01X14346Y25007D01*
G01X14298Y25022D01*
G01X14248Y25035D01*
G01X14198Y25047D01*
G01X14148Y25056D01*
G01X14097Y25063D01*
G01X14046Y25068D01*
G01X13995Y25071D01*
G37*
G36*
G01X44085Y25421D02*
G01X44033Y25422D01*
G01X43982Y25421D01*
G01X43931Y25418D01*
G01X43880Y25413D01*
G01X43829Y25406D01*
G01X43779Y25396D01*
G01X43729Y25385D01*
G01X43679Y25372D01*
G01X43631Y25356D01*
G01X43582Y25339D01*
G01X43534Y25320D01*
G01X43488Y25299D01*
G01X43442Y25276D01*
G01X43397Y25251D01*
G01X43353Y25225D01*
G01X43310Y25197D01*
G01X43269Y25167D01*
G01X43229Y25135D01*
G01X43190Y25102D01*
G01X43152Y25067D01*
G01X43115Y25031D01*
G01X43081Y24993D01*
G01X43048Y24954D01*
G01X43016Y24914D01*
G01X42986Y24872D01*
G01X42958Y24830D01*
G01X42931Y24785D01*
G01X42907Y24741D01*
G01X42884Y24695D01*
G01X42862Y24648D01*
G01X42844Y24601D01*
G01X42826Y24552D01*
G01X42811Y24504D01*
G01X42798Y24454D01*
G01X42787Y24404D01*
G01X42777Y24354D01*
G01X42770Y24303D01*
G01X42765Y24252D01*
G01X42762Y24201D01*
G01X42761Y24149D01*
G01X42762Y24098D01*
G01X42765Y24047D01*
G01X42770Y23996D01*
G01X42777Y23945D01*
G01X42787Y23895D01*
G01X42798Y23845D01*
G01X42811Y23795D01*
G01X42826Y23747D01*
G01X42844Y23698D01*
G01X42862Y23651D01*
G01X42884Y23604D01*
G01X42907Y23558D01*
G01X42931Y23513D01*
G01X42958Y23469D01*
G01X42986Y23427D01*
G01X43016Y23385D01*
G01X43048Y23345D01*
G01X43081Y23306D01*
G01X43115Y23268D01*
G01X43152Y23231D01*
G01X43190Y23197D01*
G01X43229Y23164D01*
G01X43269Y23132D01*
G01X43310Y23102D01*
G01X43353Y23074D01*
G01X43397Y23048D01*
G01X43442Y23023D01*
G01X43488Y23000D01*
G01X43534Y22978D01*
G01X43582Y22960D01*
G01X43631Y22942D01*
G01X43679Y22927D01*
G01X43729Y22914D01*
G01X43779Y22903D01*
G01X43829Y22893D01*
G01X43880Y22886D01*
G01X43931Y22881D01*
G01X43982Y22878D01*
G01X44033Y22877D01*
G01X44085Y22878D01*
G01X44136Y22881D01*
G01X44187Y22886D01*
G01X44238Y22893D01*
G01X44288Y22903D01*
G01X44338Y22914D01*
G01X44387Y22927D01*
G01X44436Y22942D01*
G01X44532Y22978D01*
G01X44579Y23000D01*
G01X44625Y23023D01*
G01X44669Y23048D01*
G01X44714Y23074D01*
G01X44756Y23102D01*
G01X44798Y23132D01*
G01X44838Y23164D01*
G01X44877Y23197D01*
G01X44915Y23231D01*
G01X44951Y23268D01*
G01X44986Y23306D01*
G01X45019Y23345D01*
G01X45051Y23385D01*
G01X45081Y23427D01*
G01X45109Y23469D01*
G01X45135Y23513D01*
G01X45160Y23558D01*
G01X45183Y23604D01*
G01X45204Y23651D01*
G01X45223Y23698D01*
G01X45240Y23747D01*
G01X45256Y23795D01*
G01X45269Y23845D01*
G01X45280Y23895D01*
G01X45290Y23945D01*
G01X45297Y23996D01*
G01X45302Y24047D01*
G01X45305Y24098D01*
G01X45306Y24149D01*
G01X45305Y24201D01*
G01X45302Y24252D01*
G01X45297Y24303D01*
G01X45290Y24354D01*
G01X45280Y24404D01*
G01X45269Y24454D01*
G01X45256Y24504D01*
G01X45240Y24552D01*
G01X45223Y24601D01*
G01X45204Y24648D01*
G01X45183Y24695D01*
G01X45160Y24741D01*
G01X45135Y24785D01*
G01X45109Y24830D01*
G01X45081Y24872D01*
G01X45051Y24914D01*
G01X45019Y24954D01*
G01X44986Y24993D01*
G01X44951Y25031D01*
G01X44915Y25067D01*
G01X44877Y25102D01*
G01X44838Y25135D01*
G01X44798Y25167D01*
G01X44756Y25197D01*
G01X44714Y25225D01*
G01X44669Y25251D01*
G01X44625Y25276D01*
G01X44579Y25299D01*
G01X44532Y25320D01*
G01X44484Y25339D01*
G01X44436Y25356D01*
G01X44387Y25372D01*
G01X44338Y25385D01*
G01X44288Y25396D01*
G01X44238Y25406D01*
G01X44187Y25413D01*
G01X44136Y25418D01*
G01X44085Y25421D01*
G37*
G36*
G01X18297Y28655D02*
G01X18243Y28656D01*
G01X18190Y28655D01*
G01X18137Y28652D01*
G01X18084Y28647D01*
G01X18031Y28640D01*
G01X17979Y28630D01*
G01X17927Y28619D01*
G01X17875Y28605D01*
G01X17824Y28590D01*
G01X17774Y28572D01*
G01X17725Y28553D01*
G01X17675Y28531D01*
G01X17628Y28508D01*
G01X17581Y28483D01*
G01X17535Y28456D01*
G01X17490Y28427D01*
G01X17446Y28397D01*
G01X17403Y28365D01*
G01X17362Y28331D01*
G01X17323Y28296D01*
G01X17284Y28259D01*
G01X17248Y28221D01*
G01X17212Y28180D01*
G01X17178Y28139D01*
G01X17146Y28097D01*
G01X17115Y28053D01*
G01X17087Y28008D01*
G01X17060Y27962D01*
G01X17035Y27915D01*
G01X17011Y27867D01*
G01X16990Y27819D01*
G01X16971Y27769D01*
G01X16953Y27719D01*
G01X16938Y27668D01*
G01X16924Y27616D01*
G01X16913Y27564D01*
G01X16904Y27512D01*
G01X16896Y27459D01*
G01X16891Y27406D01*
G01X16888Y27353D01*
G01X16887Y27300D01*
G01X16888Y27246D01*
G01X16891Y27193D01*
G01X16896Y27140D01*
G01X16904Y27087D01*
G01X16913Y27035D01*
G01X16924Y26983D01*
G01X16938Y26931D01*
G01X16953Y26880D01*
G01X16971Y26830D01*
G01X16990Y26780D01*
G01X17011Y26732D01*
G01X17035Y26684D01*
G01X17060Y26637D01*
G01X17087Y26591D01*
G01X17115Y26546D01*
G01X17146Y26502D01*
G01X17178Y26460D01*
G01X17212Y26419D01*
G01X17248Y26379D01*
G01X17284Y26340D01*
G01X17323Y26303D01*
G01X17362Y26268D01*
G01X17403Y26234D01*
G01X17446Y26202D01*
G01X17490Y26172D01*
G01X17535Y26143D01*
G01X17581Y26116D01*
G01X17628Y26091D01*
G01X17675Y26068D01*
G01X17725Y26046D01*
G01X17774Y26027D01*
G01X17824Y26009D01*
G01X17875Y25994D01*
G01X17927Y25980D01*
G01X17979Y25969D01*
G01X18031Y25960D01*
G01X18084Y25952D01*
G01X18137Y25947D01*
G01X18190Y25944D01*
G01X18243Y25943D01*
G01X18297Y25944D01*
G01X18350Y25947D01*
G01X18403Y25952D01*
G01X18456Y25960D01*
G01X18508Y25969D01*
G01X18560Y25980D01*
G01X18612Y25994D01*
G01X18663Y26009D01*
G01X18713Y26027D01*
G01X18762Y26046D01*
G01X18811Y26068D01*
G01X18859Y26091D01*
G01X18906Y26116D01*
G01X18952Y26143D01*
G01X18997Y26172D01*
G01X19041Y26202D01*
G01X19083Y26234D01*
G01X19125Y26268D01*
G01X19164Y26303D01*
G01X19203Y26340D01*
G01X19239Y26379D01*
G01X19275Y26419D01*
G01X19309Y26460D01*
G01X19341Y26502D01*
G01X19371Y26546D01*
G01X19400Y26591D01*
G01X19427Y26637D01*
G01X19452Y26684D01*
G01X19476Y26732D01*
G01X19497Y26780D01*
G01X19516Y26830D01*
G01X19534Y26880D01*
G01X19549Y26931D01*
G01X19562Y26983D01*
G01X19574Y27035D01*
G01X19583Y27087D01*
G01X19590Y27140D01*
G01X19596Y27193D01*
G01X19599Y27246D01*
G01X19600Y27300D01*
G01X19599Y27353D01*
G01X19596Y27406D01*
G01X19590Y27459D01*
G01X19583Y27512D01*
G01X19574Y27564D01*
G01X19562Y27616D01*
G01X19549Y27668D01*
G01X19534Y27719D01*
G01X19516Y27769D01*
G01X19497Y27819D01*
G01X19476Y27867D01*
G01X19452Y27915D01*
G01X19427Y27962D01*
G01X19400Y28008D01*
G01X19371Y28053D01*
G01X19341Y28097D01*
G01X19309Y28139D01*
G01X19275Y28180D01*
G01X19239Y28221D01*
G01X19203Y28259D01*
G01X19164Y28296D01*
G01X19125Y28331D01*
G01X19083Y28365D01*
G01X19041Y28397D01*
G01X18997Y28427D01*
G01X18952Y28456D01*
G01X18906Y28483D01*
G01X18859Y28508D01*
G01X18811Y28531D01*
G01X18762Y28553D01*
G01X18713Y28572D01*
G01X18663Y28590D01*
G01X18612Y28605D01*
G01X18560Y28619D01*
G01X18508Y28630D01*
G01X18456Y28640D01*
G01X18403Y28647D01*
G01X18350Y28652D01*
G01X18297Y28655D01*
G37*
G36*
G01X39786Y28745D02*
G01X39734Y28746D01*
G01X39680Y28745D01*
G01X39627Y28742D01*
G01X39574Y28737D01*
G01X39521Y28730D01*
G01X39469Y28720D01*
G01X39417Y28709D01*
G01X39365Y28695D01*
G01X39314Y28680D01*
G01X39264Y28662D01*
G01X39214Y28643D01*
G01X39166Y28621D01*
G01X39117Y28598D01*
G01X39071Y28573D01*
G01X39024Y28546D01*
G01X38980Y28518D01*
G01X38936Y28487D01*
G01X38893Y28455D01*
G01X38852Y28421D01*
G01X38813Y28386D01*
G01X38774Y28349D01*
G01X38737Y28310D01*
G01X38702Y28270D01*
G01X38668Y28229D01*
G01X38636Y28187D01*
G01X38605Y28143D01*
G01X38577Y28098D01*
G01X38550Y28052D01*
G01X38525Y28006D01*
G01X38501Y27957D01*
G01X38480Y27909D01*
G01X38461Y27859D01*
G01X38443Y27809D01*
G01X38428Y27758D01*
G01X38414Y27706D01*
G01X38403Y27654D01*
G01X38394Y27602D01*
G01X38386Y27549D01*
G01X38381Y27496D01*
G01X38378Y27443D01*
G01X38377Y27389D01*
G01X38378Y27336D01*
G01X38381Y27283D01*
G01X38386Y27230D01*
G01X38394Y27177D01*
G01X38403Y27125D01*
G01X38414Y27073D01*
G01X38428Y27021D01*
G01X38443Y26970D01*
G01X38461Y26920D01*
G01X38480Y26870D01*
G01X38501Y26822D01*
G01X38525Y26774D01*
G01X38550Y26727D01*
G01X38577Y26681D01*
G01X38605Y26636D01*
G01X38636Y26592D01*
G01X38668Y26550D01*
G01X38702Y26509D01*
G01X38737Y26469D01*
G01X38774Y26430D01*
G01X38813Y26393D01*
G01X38852Y26358D01*
G01X38893Y26324D01*
G01X38936Y26292D01*
G01X38980Y26262D01*
G01X39024Y26233D01*
G01X39071Y26206D01*
G01X39117Y26181D01*
G01X39166Y26158D01*
G01X39214Y26136D01*
G01X39264Y26117D01*
G01X39314Y26100D01*
G01X39365Y26084D01*
G01X39417Y26071D01*
G01X39469Y26059D01*
G01X39521Y26050D01*
G01X39574Y26042D01*
G01X39627Y26037D01*
G01X39680Y26034D01*
G01X39733Y26033D01*
G01X39786Y26034D01*
G01X39840Y26037D01*
G01X39893Y26042D01*
G01X39945Y26050D01*
G01X39998Y26059D01*
G01X40050Y26071D01*
G01X40101Y26084D01*
G01X40153Y26100D01*
G01X40203Y26117D01*
G01X40252Y26136D01*
G01X40301Y26158D01*
G01X40349Y26181D01*
G01X40396Y26206D01*
G01X40442Y26233D01*
G01X40487Y26262D01*
G01X40531Y26292D01*
G01X40573Y26324D01*
G01X40615Y26358D01*
G01X40654Y26393D01*
G01X40693Y26430D01*
G01X40729Y26469D01*
G01X40765Y26509D01*
G01X40799Y26550D01*
G01X40831Y26592D01*
G01X40861Y26636D01*
G01X40890Y26681D01*
G01X40917Y26727D01*
G01X40942Y26774D01*
G01X40966Y26822D01*
G01X40987Y26870D01*
G01X41006Y26920D01*
G01X41023Y26970D01*
G01X41039Y27021D01*
G01X41052Y27073D01*
G01X41064Y27125D01*
G01X41073Y27177D01*
G01X41080Y27230D01*
G01X41086Y27283D01*
G01X41089Y27336D01*
G01X41090Y27389D01*
G01X41089Y27443D01*
G01X41086Y27496D01*
G01X41080Y27549D01*
G01X41073Y27602D01*
G01X41064Y27654D01*
G01X41052Y27706D01*
G01X41039Y27758D01*
G01X41023Y27809D01*
G01X41006Y27859D01*
G01X40987Y27909D01*
G01X40966Y27957D01*
G01X40942Y28006D01*
G01X40917Y28052D01*
G01X40890Y28098D01*
G01X40861Y28143D01*
G01X40831Y28187D01*
G01X40799Y28229D01*
G01X40765Y28270D01*
G01X40729Y28310D01*
G01X40693Y28349D01*
G01X40654Y28386D01*
G01X40615Y28421D01*
G01X40573Y28455D01*
G01X40531Y28487D01*
G01X40487Y28518D01*
G01X40442Y28546D01*
G01X40396Y28573D01*
G01X40349Y28598D01*
G01X40301Y28621D01*
G01X40252Y28643D01*
G01X40203Y28662D01*
G01X40153Y28680D01*
G01X40101Y28695D01*
G01X40050Y28709D01*
G01X39998Y28720D01*
G01X39945Y28730D01*
G01X39893Y28737D01*
G01X39840Y28742D01*
G01X39786Y28745D01*
G37*
G36*
G01X13995Y31821D02*
G01X13943Y31822D01*
G01X13892Y31821D01*
G01X13841Y31818D01*
G01X13790Y31813D01*
G01X13739Y31806D01*
G01X13689Y31796D01*
G01X13639Y31785D01*
G01X13589Y31772D01*
G01X13541Y31757D01*
G01X13492Y31739D01*
G01X13445Y31720D01*
G01X13398Y31699D01*
G01X13352Y31676D01*
G01X13307Y31652D01*
G01X13263Y31625D01*
G01X13221Y31597D01*
G01X13179Y31567D01*
G01X13139Y31535D01*
G01X13100Y31502D01*
G01X13062Y31467D01*
G01X13026Y31431D01*
G01X12991Y31394D01*
G01X12958Y31354D01*
G01X12926Y31314D01*
G01X12896Y31273D01*
G01X12868Y31229D01*
G01X12842Y31186D01*
G01X12817Y31141D01*
G01X12794Y31095D01*
G01X12773Y31048D01*
G01X12754Y31001D01*
G01X12736Y30953D01*
G01X12721Y30903D01*
G01X12708Y30854D01*
G01X12697Y30804D01*
G01X12687Y30753D01*
G01X12680Y30703D01*
G01X12675Y30652D01*
G01X12672Y30601D01*
G01X12671Y30549D01*
G01X12672Y30498D01*
G01X12675Y30447D01*
G01X12680Y30396D01*
G01X12687Y30346D01*
G01X12697Y30295D01*
G01X12708Y30245D01*
G01X12721Y30196D01*
G01X12736Y30146D01*
G01X12754Y30098D01*
G01X12773Y30051D01*
G01X12794Y30004D01*
G01X12817Y29958D01*
G01X12842Y29913D01*
G01X12868Y29870D01*
G01X12896Y29826D01*
G01X12926Y29785D01*
G01X12958Y29745D01*
G01X12991Y29705D01*
G01X13026Y29668D01*
G01X13062Y29632D01*
G01X13100Y29597D01*
G01X13139Y29564D01*
G01X13179Y29532D01*
G01X13221Y29502D01*
G01X13263Y29474D01*
G01X13307Y29447D01*
G01X13352Y29422D01*
G01X13398Y29400D01*
G01X13445Y29379D01*
G01X13492Y29359D01*
G01X13541Y29342D01*
G01X13589Y29327D01*
G01X13639Y29314D01*
G01X13689Y29303D01*
G01X13739Y29293D01*
G01X13790Y29286D01*
G01X13841Y29281D01*
G01X13892Y29278D01*
G01X13943Y29277D01*
G01X13995Y29278D01*
G01X14046Y29281D01*
G01X14097Y29286D01*
G01X14148Y29293D01*
G01X14198Y29303D01*
G01X14248Y29314D01*
G01X14298Y29327D01*
G01X14346Y29342D01*
G01X14395Y29359D01*
G01X14442Y29379D01*
G01X14489Y29400D01*
G01X14535Y29422D01*
G01X14580Y29447D01*
G01X14624Y29474D01*
G01X14666Y29502D01*
G01X14708Y29532D01*
G01X14748Y29564D01*
G01X14787Y29597D01*
G01X14825Y29632D01*
G01X14861Y29668D01*
G01X14896Y29705D01*
G01X14929Y29745D01*
G01X14961Y29785D01*
G01X14991Y29826D01*
G01X15019Y29870D01*
G01X15045Y29913D01*
G01X15070Y29958D01*
G01X15093Y30004D01*
G01X15114Y30051D01*
G01X15133Y30098D01*
G01X15150Y30146D01*
G01X15166Y30196D01*
G01X15179Y30245D01*
G01X15190Y30295D01*
G01X15200Y30346D01*
G01X15207Y30396D01*
G01X15212Y30447D01*
G01X15215Y30498D01*
G01X15216Y30549D01*
G01X15215Y30601D01*
G01X15212Y30652D01*
G01X15207Y30703D01*
G01X15200Y30753D01*
G01X15190Y30804D01*
G01X15179Y30854D01*
G01X15166Y30903D01*
G01X15150Y30953D01*
G01X15133Y31001D01*
G01X15114Y31048D01*
G01X15093Y31095D01*
G01X15070Y31141D01*
G01X15045Y31186D01*
G01X15019Y31229D01*
G01X14991Y31273D01*
G01X14961Y31314D01*
G01X14929Y31354D01*
G01X14896Y31394D01*
G01X14861Y31431D01*
G01X14825Y31467D01*
G01X14787Y31502D01*
G01X14748Y31535D01*
G01X14708Y31567D01*
G01X14666Y31597D01*
G01X14624Y31625D01*
G01X14580Y31652D01*
G01X14535Y31676D01*
G01X14489Y31699D01*
G01X14442Y31720D01*
G01X14395Y31739D01*
G01X14346Y31757D01*
G01X14298Y31772D01*
G01X14248Y31785D01*
G01X14198Y31796D01*
G01X14148Y31806D01*
G01X14097Y31813D01*
G01X14046Y31818D01*
G01X13995Y31821D01*
G37*
G36*
G01X44115Y32111D02*
G01X44063Y32112D01*
G01X44012Y32111D01*
G01X43961Y32108D01*
G01X43910Y32103D01*
G01X43859Y32096D01*
G01X43809Y32086D01*
G01X43759Y32075D01*
G01X43709Y32062D01*
G01X43660Y32047D01*
G01X43612Y32030D01*
G01X43564Y32010D01*
G01X43518Y31989D01*
G01X43472Y31967D01*
G01X43427Y31942D01*
G01X43383Y31915D01*
G01X43340Y31887D01*
G01X43299Y31857D01*
G01X43259Y31825D01*
G01X43220Y31792D01*
G01X43182Y31757D01*
G01X43145Y31721D01*
G01X43111Y31684D01*
G01X43078Y31644D01*
G01X43046Y31604D01*
G01X43016Y31563D01*
G01X42988Y31520D01*
G01X42961Y31476D01*
G01X42937Y31431D01*
G01X42914Y31385D01*
G01X42892Y31338D01*
G01X42874Y31291D01*
G01X42856Y31243D01*
G01X42841Y31193D01*
G01X42828Y31144D01*
G01X42817Y31094D01*
G01X42807Y31044D01*
G01X42800Y30993D01*
G01X42795Y30942D01*
G01X42792Y30891D01*
G01X42791Y30839D01*
G01X42792Y30788D01*
G01X42795Y30737D01*
G01X42800Y30686D01*
G01X42807Y30636D01*
G01X42817Y30585D01*
G01X42828Y30535D01*
G01X42841Y30486D01*
G01X42856Y30436D01*
G01X42874Y30388D01*
G01X42892Y30341D01*
G01X42914Y30294D01*
G01X42937Y30248D01*
G01X42961Y30203D01*
G01X42988Y30160D01*
G01X43016Y30116D01*
G01X43046Y30075D01*
G01X43078Y30035D01*
G01X43111Y29996D01*
G01X43145Y29958D01*
G01X43182Y29922D01*
G01X43220Y29887D01*
G01X43259Y29854D01*
G01X43299Y29822D01*
G01X43340Y29792D01*
G01X43383Y29764D01*
G01X43427Y29737D01*
G01X43472Y29713D01*
G01X43518Y29690D01*
G01X43564Y29669D01*
G01X43612Y29650D01*
G01X43660Y29632D01*
G01X43709Y29617D01*
G01X43759Y29604D01*
G01X43809Y29593D01*
G01X43859Y29584D01*
G01X43910Y29576D01*
G01X43961Y29571D01*
G01X44012Y29568D01*
G01X44063Y29567D01*
G01X44115Y29568D01*
G01X44166Y29571D01*
G01X44217Y29576D01*
G01X44268Y29584D01*
G01X44318Y29593D01*
G01X44368Y29604D01*
G01X44417Y29617D01*
G01X44466Y29632D01*
G01X44514Y29650D01*
G01X44562Y29669D01*
G01X44609Y29690D01*
G01X44655Y29713D01*
G01X44700Y29737D01*
G01X44744Y29764D01*
G01X44786Y29792D01*
G01X44828Y29822D01*
G01X44868Y29854D01*
G01X44907Y29887D01*
G01X44945Y29922D01*
G01X44981Y29958D01*
G01X45016Y29996D01*
G01X45049Y30035D01*
G01X45081Y30075D01*
G01X45111Y30116D01*
G01X45139Y30160D01*
G01X45165Y30203D01*
G01X45190Y30248D01*
G01X45213Y30294D01*
G01X45234Y30341D01*
G01X45253Y30388D01*
G01X45270Y30436D01*
G01X45286Y30486D01*
G01X45299Y30535D01*
G01X45310Y30585D01*
G01X45320Y30636D01*
G01X45327Y30686D01*
G01X45332Y30737D01*
G01X45335Y30788D01*
G01X45336Y30839D01*
G01X45335Y30891D01*
G01X45332Y30942D01*
G01X45327Y30993D01*
G01X45320Y31044D01*
G01X45310Y31094D01*
G01X45299Y31144D01*
G01X45286Y31193D01*
G01X45270Y31243D01*
G01X45253Y31291D01*
G01X45234Y31338D01*
G01X45213Y31385D01*
G01X45190Y31431D01*
G01X45165Y31476D01*
G01X45139Y31520D01*
G01X45111Y31563D01*
G01X45081Y31604D01*
G01X45049Y31644D01*
G01X45016Y31684D01*
G01X44981Y31721D01*
G01X44945Y31757D01*
G01X44907Y31792D01*
G01X44868Y31825D01*
G01X44828Y31857D01*
G01X44786Y31887D01*
G01X44744Y31915D01*
G01X44700Y31942D01*
G01X44655Y31967D01*
G01X44609Y31989D01*
G01X44562Y32010D01*
G01X44514Y32030D01*
G01X44466Y32047D01*
G01X44417Y32062D01*
G01X44368Y32075D01*
G01X44318Y32086D01*
G01X44268Y32096D01*
G01X44217Y32103D01*
G01X44166Y32108D01*
G01X44115Y32111D01*
G37*
G36*
G01X18297Y33735D02*
G01X18243Y33736D01*
G01X18190Y33735D01*
G01X18137Y33732D01*
G01X18084Y33727D01*
G01X18031Y33720D01*
G01X17979Y33710D01*
G01X17927Y33699D01*
G01X17875Y33685D01*
G01X17824Y33670D01*
G01X17774Y33652D01*
G01X17725Y33633D01*
G01X17675Y33611D01*
G01X17628Y33588D01*
G01X17581Y33563D01*
G01X17535Y33536D01*
G01X17490Y33507D01*
G01X17446Y33477D01*
G01X17403Y33445D01*
G01X17362Y33411D01*
G01X17323Y33376D01*
G01X17284Y33339D01*
G01X17248Y33301D01*
G01X17212Y33260D01*
G01X17178Y33219D01*
G01X17146Y33177D01*
G01X17115Y33133D01*
G01X17087Y33088D01*
G01X17060Y33042D01*
G01X17035Y32995D01*
G01X17011Y32947D01*
G01X16990Y32899D01*
G01X16971Y32849D01*
G01X16953Y32799D01*
G01X16938Y32748D01*
G01X16924Y32696D01*
G01X16913Y32644D01*
G01X16904Y32592D01*
G01X16896Y32539D01*
G01X16891Y32486D01*
G01X16888Y32433D01*
G01X16887Y32380D01*
G01X16888Y32326D01*
G01X16891Y32273D01*
G01X16896Y32220D01*
G01X16904Y32167D01*
G01X16913Y32115D01*
G01X16924Y32063D01*
G01X16938Y32011D01*
G01X16953Y31960D01*
G01X16971Y31910D01*
G01X16990Y31860D01*
G01X17011Y31812D01*
G01X17035Y31764D01*
G01X17060Y31717D01*
G01X17087Y31671D01*
G01X17115Y31626D01*
G01X17146Y31582D01*
G01X17178Y31540D01*
G01X17212Y31499D01*
G01X17248Y31459D01*
G01X17284Y31420D01*
G01X17323Y31383D01*
G01X17362Y31348D01*
G01X17403Y31314D01*
G01X17446Y31282D01*
G01X17490Y31252D01*
G01X17535Y31223D01*
G01X17581Y31196D01*
G01X17628Y31171D01*
G01X17675Y31148D01*
G01X17725Y31126D01*
G01X17774Y31107D01*
G01X17824Y31089D01*
G01X17875Y31074D01*
G01X17927Y31060D01*
G01X17979Y31049D01*
G01X18031Y31040D01*
G01X18084Y31032D01*
G01X18137Y31027D01*
G01X18190Y31024D01*
G01X18243Y31023D01*
G01X18297Y31024D01*
G01X18350Y31027D01*
G01X18403Y31032D01*
G01X18456Y31040D01*
G01X18508Y31049D01*
G01X18560Y31060D01*
G01X18612Y31074D01*
G01X18663Y31089D01*
G01X18713Y31107D01*
G01X18762Y31126D01*
G01X18811Y31148D01*
G01X18859Y31171D01*
G01X18906Y31196D01*
G01X18952Y31223D01*
G01X18997Y31252D01*
G01X19041Y31282D01*
G01X19083Y31314D01*
G01X19125Y31348D01*
G01X19164Y31383D01*
G01X19203Y31420D01*
G01X19239Y31459D01*
G01X19275Y31499D01*
G01X19309Y31540D01*
G01X19341Y31582D01*
G01X19371Y31626D01*
G01X19400Y31671D01*
G01X19427Y31717D01*
G01X19452Y31764D01*
G01X19476Y31812D01*
G01X19497Y31860D01*
G01X19516Y31910D01*
G01X19534Y31960D01*
G01X19549Y32011D01*
G01X19562Y32063D01*
G01X19574Y32115D01*
G01X19583Y32167D01*
G01X19590Y32220D01*
G01X19596Y32273D01*
G01X19599Y32326D01*
G01X19600Y32380D01*
G01X19599Y32433D01*
G01X19596Y32486D01*
G01X19590Y32539D01*
G01X19583Y32592D01*
G01X19574Y32644D01*
G01X19562Y32696D01*
G01X19549Y32748D01*
G01X19534Y32799D01*
G01X19516Y32849D01*
G01X19497Y32899D01*
G01X19476Y32947D01*
G01X19452Y32995D01*
G01X19427Y33042D01*
G01X19400Y33088D01*
G01X19371Y33133D01*
G01X19341Y33177D01*
G01X19309Y33219D01*
G01X19275Y33260D01*
G01X19239Y33301D01*
G01X19203Y33339D01*
G01X19164Y33376D01*
G01X19125Y33411D01*
G01X19083Y33445D01*
G01X19041Y33477D01*
G01X18997Y33507D01*
G01X18952Y33536D01*
G01X18906Y33563D01*
G01X18859Y33588D01*
G01X18811Y33611D01*
G01X18762Y33633D01*
G01X18713Y33652D01*
G01X18663Y33670D01*
G01X18612Y33685D01*
G01X18560Y33699D01*
G01X18508Y33710D01*
G01X18456Y33720D01*
G01X18403Y33727D01*
G01X18350Y33732D01*
G01X18297Y33735D01*
G37*
G36*
G01X39786Y33825D02*
G01X39734Y33826D01*
G01X39680Y33825D01*
G01X39627Y33822D01*
G01X39574Y33817D01*
G01X39521Y33810D01*
G01X39469Y33800D01*
G01X39417Y33789D01*
G01X39365Y33775D01*
G01X39314Y33760D01*
G01X39264Y33742D01*
G01X39214Y33723D01*
G01X39166Y33701D01*
G01X39117Y33678D01*
G01X39071Y33653D01*
G01X39024Y33626D01*
G01X38980Y33598D01*
G01X38936Y33567D01*
G01X38893Y33535D01*
G01X38852Y33501D01*
G01X38813Y33466D01*
G01X38774Y33429D01*
G01X38737Y33390D01*
G01X38702Y33350D01*
G01X38668Y33309D01*
G01X38636Y33267D01*
G01X38605Y33223D01*
G01X38577Y33178D01*
G01X38550Y33132D01*
G01X38525Y33086D01*
G01X38501Y33037D01*
G01X38480Y32989D01*
G01X38461Y32939D01*
G01X38443Y32889D01*
G01X38428Y32838D01*
G01X38414Y32786D01*
G01X38403Y32734D01*
G01X38394Y32682D01*
G01X38386Y32629D01*
G01X38381Y32576D01*
G01X38378Y32523D01*
G01X38377Y32469D01*
G01X38378Y32416D01*
G01X38381Y32363D01*
G01X38386Y32310D01*
G01X38394Y32257D01*
G01X38403Y32205D01*
G01X38414Y32153D01*
G01X38428Y32101D01*
G01X38443Y32050D01*
G01X38461Y32000D01*
G01X38480Y31950D01*
G01X38501Y31902D01*
G01X38525Y31854D01*
G01X38550Y31807D01*
G01X38577Y31761D01*
G01X38605Y31716D01*
G01X38636Y31672D01*
G01X38668Y31630D01*
G01X38702Y31589D01*
G01X38737Y31549D01*
G01X38774Y31510D01*
G01X38813Y31473D01*
G01X38852Y31438D01*
G01X38893Y31404D01*
G01X38936Y31372D01*
G01X38980Y31342D01*
G01X39024Y31313D01*
G01X39071Y31286D01*
G01X39117Y31261D01*
G01X39166Y31238D01*
G01X39214Y31216D01*
G01X39264Y31197D01*
G01X39314Y31180D01*
G01X39365Y31164D01*
G01X39417Y31151D01*
G01X39469Y31139D01*
G01X39521Y31130D01*
G01X39574Y31122D01*
G01X39627Y31117D01*
G01X39680Y31114D01*
G01X39733Y31113D01*
G01X39786Y31114D01*
G01X39840Y31117D01*
G01X39893Y31122D01*
G01X39945Y31130D01*
G01X39998Y31139D01*
G01X40050Y31151D01*
G01X40101Y31164D01*
G01X40153Y31180D01*
G01X40203Y31197D01*
G01X40252Y31216D01*
G01X40301Y31238D01*
G01X40349Y31261D01*
G01X40396Y31286D01*
G01X40442Y31313D01*
G01X40487Y31342D01*
G01X40531Y31372D01*
G01X40573Y31404D01*
G01X40615Y31438D01*
G01X40654Y31473D01*
G01X40693Y31510D01*
G01X40729Y31549D01*
G01X40765Y31589D01*
G01X40799Y31630D01*
G01X40831Y31672D01*
G01X40861Y31716D01*
G01X40890Y31761D01*
G01X40917Y31807D01*
G01X40942Y31854D01*
G01X40966Y31902D01*
G01X40987Y31950D01*
G01X41006Y32000D01*
G01X41023Y32050D01*
G01X41039Y32101D01*
G01X41052Y32153D01*
G01X41064Y32205D01*
G01X41073Y32257D01*
G01X41080Y32310D01*
G01X41086Y32363D01*
G01X41089Y32416D01*
G01X41090Y32469D01*
G01X41089Y32523D01*
G01X41086Y32576D01*
G01X41080Y32629D01*
G01X41073Y32682D01*
G01X41064Y32734D01*
G01X41052Y32786D01*
G01X41039Y32838D01*
G01X41023Y32889D01*
G01X41006Y32939D01*
G01X40987Y32989D01*
G01X40966Y33037D01*
G01X40942Y33086D01*
G01X40917Y33132D01*
G01X40890Y33178D01*
G01X40861Y33223D01*
G01X40831Y33267D01*
G01X40799Y33309D01*
G01X40765Y33350D01*
G01X40729Y33390D01*
G01X40693Y33429D01*
G01X40654Y33466D01*
G01X40615Y33501D01*
G01X40573Y33535D01*
G01X40531Y33567D01*
G01X40487Y33598D01*
G01X40442Y33626D01*
G01X40396Y33653D01*
G01X40349Y33678D01*
G01X40301Y33701D01*
G01X40252Y33723D01*
G01X40203Y33742D01*
G01X40153Y33760D01*
G01X40101Y33775D01*
G01X40050Y33789D01*
G01X39998Y33800D01*
G01X39945Y33810D01*
G01X39893Y33817D01*
G01X39840Y33822D01*
G01X39786Y33825D01*
G37*
G36*
G01X48611Y35226D02*
G01X47768Y35226D01*
G01X47768Y34840D01*
G01X47770Y34816D01*
G01X47773Y34793D01*
G01X47778Y34770D01*
G01X47786Y34747D01*
G01X47795Y34725D01*
G01X47807Y34705D01*
G01X47820Y34685D01*
G01X47835Y34667D01*
G01X47852Y34650D01*
G01X47870Y34635D01*
G01X47890Y34621D01*
G01X47910Y34610D01*
G01X47932Y34601D01*
G01X47955Y34593D01*
G01X47978Y34587D01*
G01X48001Y34584D01*
G01X48025Y34583D01*
G01X48611Y34583D01*
G01X48611Y35226D01*
G37*
G36*
G01X50881Y35226D02*
G01X50038Y35226D01*
G01X50038Y34583D01*
G01X50625Y34583D01*
G01X50649Y34584D01*
G01X50672Y34587D01*
G01X50695Y34593D01*
G01X50718Y34601D01*
G01X50739Y34610D01*
G01X50760Y34621D01*
G01X50780Y34635D01*
G01X50798Y34650D01*
G01X50815Y34667D01*
G01X50829Y34685D01*
G01X50843Y34705D01*
G01X50855Y34725D01*
G01X50864Y34747D01*
G01X50872Y34770D01*
G01X50877Y34793D01*
G01X50880Y34816D01*
G01X50881Y34840D01*
G01X50881Y35226D01*
G37*
G36*
G01X48611Y36896D02*
G01X48025Y36896D01*
G01X48001Y36895D01*
G01X47978Y36892D01*
G01X47955Y36887D01*
G01X47932Y36879D01*
G01X47910Y36869D01*
G01X47890Y36858D01*
G01X47870Y36844D01*
G01X47852Y36829D01*
G01X47835Y36812D01*
G01X47820Y36794D01*
G01X47807Y36775D01*
G01X47795Y36754D01*
G01X47786Y36732D01*
G01X47778Y36710D01*
G01X47773Y36687D01*
G01X47770Y36663D01*
G01X47768Y36640D01*
G01X47768Y36253D01*
G01X48611Y36253D01*
G01X48611Y36896D01*
G37*
G36*
G01X50625Y36896D02*
G01X50038Y36896D01*
G01X50038Y36253D01*
G01X50881Y36253D01*
G01X50881Y36640D01*
G01X50880Y36663D01*
G01X50877Y36687D01*
G01X50872Y36710D01*
G01X50864Y36732D01*
G01X50855Y36754D01*
G01X50843Y36775D01*
G01X50829Y36794D01*
G01X50815Y36812D01*
G01X50798Y36829D01*
G01X50780Y36844D01*
G01X50760Y36858D01*
G01X50739Y36869D01*
G01X50718Y36879D01*
G01X50695Y36887D01*
G01X50672Y36892D01*
G01X50649Y36895D01*
G01X50625Y36896D01*
G37*
G36*
G01X44867Y44220D02*
G01X44833Y44221D01*
G01X44799Y44220D01*
G01X44766Y44216D01*
G01X44732Y44211D01*
G01X44699Y44204D01*
G01X44666Y44195D01*
G01X44634Y44184D01*
G01X44603Y44171D01*
G01X44572Y44157D01*
G01X44543Y44140D01*
G01X44514Y44121D01*
G01X44487Y44101D01*
G01X44461Y44080D01*
G01X44413Y44032D01*
G01X44391Y44006D01*
G01X44353Y43950D01*
G01X44321Y43890D01*
G01X44309Y43858D01*
G01X44298Y43826D01*
G01X44288Y43794D01*
G01X44281Y43761D01*
G01X44276Y43727D01*
G01X44273Y43693D01*
G01X44272Y43660D01*
G01X44273Y43625D01*
G01X44276Y43592D01*
G01X44281Y43558D01*
G01X44288Y43525D01*
G01X44298Y43492D01*
G01X44309Y43460D01*
G01X44322Y43428D01*
G01X44337Y43398D01*
G01X44354Y43368D01*
G01X44372Y43339D01*
G01X44393Y43312D01*
G01X44415Y43286D01*
G01X44438Y43261D01*
G01X44463Y43238D01*
G01X44489Y43216D01*
G01X44517Y43196D01*
G01X44545Y43178D01*
G01X44575Y43161D01*
G01X44606Y43146D01*
G01X44637Y43133D01*
G01X44670Y43122D01*
G01X44686Y43116D01*
G01X44700Y43107D01*
G01X44713Y43096D01*
G01X45017Y42783D01*
G01X45027Y42771D01*
G01X45035Y42757D01*
G01X45041Y42743D01*
G01X45045Y42728D01*
G01X45046Y42712D01*
G01X45045Y42696D01*
G01X45041Y42680D01*
G01X45035Y42666D01*
G01X45026Y42652D01*
G01X45016Y42640D01*
G01X45004Y42629D01*
G01X44989Y42621D01*
G01X44975Y42615D01*
G01X44943Y42604D01*
G01X44912Y42591D01*
G01X44881Y42576D01*
G01X44852Y42559D01*
G01X44823Y42541D01*
G01X44796Y42521D01*
G01X44770Y42499D01*
G01X44746Y42476D01*
G01X44723Y42451D01*
G01X44701Y42425D01*
G01X44681Y42398D01*
G01X44663Y42369D01*
G01X44646Y42340D01*
G01X44631Y42309D01*
G01X44618Y42278D01*
G01X44607Y42246D01*
G01X44598Y42213D01*
G01X44591Y42180D01*
G01X44586Y42147D01*
G01X44583Y42113D01*
G01X44582Y42079D01*
G01X44583Y42044D01*
G01X44587Y42008D01*
G01X44592Y41973D01*
G01X44600Y41938D01*
G01X44610Y41903D01*
G01X44623Y41869D01*
G01X44637Y41836D01*
G01X44654Y41804D01*
G01X44672Y41774D01*
G01X44693Y41745D01*
G01X44715Y41717D01*
G01X44739Y41690D01*
G01X44765Y41665D01*
G01X44792Y41641D01*
G01X44803Y41631D01*
G01X44813Y41619D01*
G01X44820Y41606D01*
G01X44826Y41592D01*
G01X44829Y41577D01*
G01X44830Y41562D01*
G01X44829Y41545D01*
G01X44825Y41530D01*
G01X44819Y41514D01*
G01X44810Y41501D01*
G01X44798Y41488D01*
G01X44774Y41463D01*
G01X44751Y41437D01*
G01X44729Y41409D01*
G01X44709Y41380D01*
G01X44691Y41349D01*
G01X44675Y41318D01*
G01X44661Y41286D01*
G01X44650Y41253D01*
G01X44640Y41219D01*
G01X44632Y41185D01*
G01X44627Y41150D01*
G01X44623Y41115D01*
G01X44622Y41080D01*
G01X44623Y41043D01*
G01X44627Y41007D01*
G01X44633Y40972D01*
G01X44640Y40937D01*
G01X44651Y40902D01*
G01X44663Y40868D01*
G01X44678Y40835D01*
G01X44695Y40803D01*
G01X44714Y40772D01*
G01X44734Y40743D01*
G01X44757Y40714D01*
G01X44782Y40688D01*
G01X44808Y40663D01*
G01X44819Y40650D01*
G01X44828Y40636D01*
G01X44835Y40621D01*
G01X44840Y40604D01*
G01X44841Y40587D01*
G01X44840Y40572D01*
G01X44836Y40557D01*
G01X44831Y40543D01*
G01X44823Y40530D01*
G01X44814Y40518D01*
G01X44803Y40508D01*
G01X44776Y40485D01*
G01X44750Y40460D01*
G01X44726Y40433D01*
G01X44703Y40405D01*
G01X44683Y40375D01*
G01X44664Y40344D01*
G01X44648Y40313D01*
G01X44633Y40280D01*
G01X44621Y40246D01*
G01X44610Y40212D01*
G01X44602Y40177D01*
G01X44597Y40141D01*
G01X44593Y40106D01*
G01X44592Y40070D01*
G01X44593Y40035D01*
G01X44597Y40000D01*
G01X44602Y39964D01*
G01X44610Y39930D01*
G01X44620Y39896D01*
G01X44632Y39863D01*
G01X44645Y39831D01*
G01X44662Y39799D01*
G01X44680Y39769D01*
G01X44699Y39740D01*
G01X44721Y39712D01*
G01X44744Y39686D01*
G01X44769Y39661D01*
G01X44795Y39637D01*
G01X44823Y39615D01*
G01X44852Y39596D01*
G01X44864Y39587D01*
G01X44875Y39577D01*
G01X44883Y39565D01*
G01X44890Y39553D01*
G01X44895Y39539D01*
G01X44898Y39525D01*
G01X44899Y39510D01*
G01X44898Y39496D01*
G01X44895Y39481D01*
G01X44890Y39467D01*
G01X44883Y39454D01*
G01X44874Y39443D01*
G01X44852Y39416D01*
G01X44832Y39389D01*
G01X44814Y39360D01*
G01X44797Y39331D01*
G01X44782Y39301D01*
G01X44769Y39269D01*
G01X44758Y39237D01*
G01X44749Y39205D01*
G01X44741Y39171D01*
G01X44736Y39137D01*
G01X44733Y39103D01*
G01X44732Y39069D01*
G01X44733Y39034D01*
G01X44736Y38999D01*
G01X44742Y38964D01*
G01X44750Y38929D01*
G01X44760Y38895D01*
G01X44772Y38861D01*
G01X44787Y38829D01*
G01X44803Y38797D01*
G01X44821Y38767D01*
G01X44841Y38737D01*
G01X44863Y38709D01*
G01X44887Y38683D01*
G01X44912Y38657D01*
G01X44939Y38635D01*
G01X44950Y38624D01*
G01X44959Y38612D01*
G01X44967Y38599D01*
G01X44972Y38585D01*
G01X44975Y38571D01*
G01X44977Y38555D01*
G01X44976Y38541D01*
G01X44972Y38526D01*
G01X44967Y38513D01*
G01X44960Y38500D01*
G01X44951Y38488D01*
G01X44941Y38478D01*
G01X44915Y38455D01*
G01X44890Y38430D01*
G01X44867Y38403D01*
G01X44847Y38376D01*
G01X44827Y38347D01*
G01X44810Y38317D01*
G01X44794Y38286D01*
G01X44781Y38254D01*
G01X44769Y38221D01*
G01X44759Y38188D01*
G01X44752Y38153D01*
G01X44746Y38119D01*
G01X44743Y38084D01*
G01X44742Y38049D01*
G01X44743Y38016D01*
G01X44746Y37982D01*
G01X44751Y37948D01*
G01X44758Y37915D01*
G01X44767Y37883D01*
G01X44791Y37819D01*
G01X44823Y37759D01*
G01X44861Y37703D01*
G01X44883Y37677D01*
G01X44931Y37629D01*
G01X44957Y37608D01*
G01X44984Y37588D01*
G01X45013Y37569D01*
G01X45042Y37553D01*
G01X45073Y37538D01*
G01X45104Y37525D01*
G01X45136Y37514D01*
G01X45169Y37505D01*
G01X45202Y37498D01*
G01X45236Y37493D01*
G01X45269Y37490D01*
G01X45303Y37488D01*
G01X45341Y37490D01*
G01X45378Y37493D01*
G01X45415Y37500D01*
G01X45451Y37508D01*
G01X45487Y37519D01*
G01X45522Y37533D01*
G01X45542Y37539D01*
G01X45562Y37541D01*
G01X45830Y37540D01*
G01X45848Y37538D01*
G01X45867Y37532D01*
G01X45883Y37524D01*
G01X45905Y37511D01*
G01X45927Y37502D01*
G01X45950Y37494D01*
G01X45973Y37488D01*
G01X45997Y37484D01*
G01X46022Y37483D01*
G01X48222Y37483D01*
G01X48246Y37484D01*
G01X48269Y37487D01*
G01X48292Y37493D01*
G01X48314Y37501D01*
G01X48336Y37510D01*
G01X48357Y37522D01*
G01X48376Y37535D01*
G01X48395Y37550D01*
G01X48411Y37567D01*
G01X48427Y37586D01*
G01X48440Y37605D01*
G01X48451Y37626D01*
G01X48461Y37647D01*
G01X48469Y37670D01*
G01X48474Y37693D01*
G01X48477Y37716D01*
G01X48478Y37740D01*
G01X48478Y38340D01*
G01X48477Y38365D01*
G01X48473Y38390D01*
G01X48467Y38415D01*
G01X48459Y38439D01*
G01X48447Y38462D01*
G01X48434Y38484D01*
G01X48427Y38496D01*
G01X48421Y38511D01*
G01X48418Y38525D01*
G01X48417Y38541D01*
G01X48418Y38555D01*
G01X48421Y38570D01*
G01X48427Y38584D01*
G01X48435Y38597D01*
G01X48448Y38619D01*
G01X48459Y38642D01*
G01X48468Y38666D01*
G01X48474Y38691D01*
G01X48478Y38716D01*
G01X48479Y38742D01*
G01X48479Y39342D01*
G01X48478Y39367D01*
G01X48474Y39392D01*
G01X48468Y39416D01*
G01X48459Y39440D01*
G01X48448Y39463D01*
G01X48435Y39485D01*
G01X48428Y39498D01*
G01X48422Y39512D01*
G01X48419Y39527D01*
G01X48418Y39541D01*
G01X48419Y39557D01*
G01X48422Y39571D01*
G01X48428Y39585D01*
G01X48435Y39598D01*
G01X48448Y39620D01*
G01X48459Y39642D01*
G01X48467Y39666D01*
G01X48473Y39691D01*
G01X48477Y39716D01*
G01X48478Y39740D01*
G01X48478Y40340D01*
G01X48477Y40366D01*
G01X48473Y40391D01*
G01X48467Y40416D01*
G01X48459Y40439D01*
G01X48448Y40462D01*
G01X48435Y40484D01*
G01X48427Y40497D01*
G01X48422Y40511D01*
G01X48418Y40526D01*
G01X48417Y40541D01*
G01X48418Y40556D01*
G01X48422Y40570D01*
G01X48427Y40584D01*
G01X48435Y40597D01*
G01X48448Y40619D01*
G01X48459Y40642D01*
G01X48467Y40666D01*
G01X48473Y40690D01*
G01X48477Y40715D01*
G01X48478Y40741D01*
G01X48478Y41341D01*
G01X48477Y41366D01*
G01X48473Y41391D01*
G01X48467Y41415D01*
G01X48459Y41439D01*
G01X48448Y41462D01*
G01X48435Y41484D01*
G01X48427Y41497D01*
G01X48422Y41511D01*
G01X48418Y41526D01*
G01X48417Y41541D01*
G01X48418Y41556D01*
G01X48422Y41570D01*
G01X48427Y41585D01*
G01X48435Y41597D01*
G01X48448Y41619D01*
G01X48459Y41642D01*
G01X48467Y41666D01*
G01X48473Y41690D01*
G01X48477Y41716D01*
G01X48478Y41740D01*
G01X48478Y42340D01*
G01X48477Y42366D01*
G01X48473Y42391D01*
G01X48467Y42416D01*
G01X48459Y42439D01*
G01X48448Y42462D01*
G01X48435Y42484D01*
G01X48428Y42497D01*
G01X48422Y42511D01*
G01X48418Y42525D01*
G01X48417Y42541D01*
G01X48418Y42555D01*
G01X48422Y42570D01*
G01X48428Y42584D01*
G01X48435Y42597D01*
G01X48448Y42619D01*
G01X48459Y42642D01*
G01X48467Y42666D01*
G01X48473Y42690D01*
G01X48477Y42715D01*
G01X48478Y42740D01*
G01X48478Y43340D01*
G01X48477Y43366D01*
G01X48473Y43390D01*
G01X48467Y43415D01*
G01X48459Y43439D01*
G01X48448Y43462D01*
G01X48435Y43483D01*
G01X48427Y43496D01*
G01X48422Y43510D01*
G01X48418Y43525D01*
G01X48417Y43540D01*
G01X48418Y43555D01*
G01X48422Y43570D01*
G01X48427Y43583D01*
G01X48435Y43597D01*
G01X48448Y43619D01*
G01X48459Y43641D01*
G01X48467Y43665D01*
G01X48473Y43690D01*
G01X48477Y43715D01*
G01X48478Y43740D01*
G01X48478Y43826D01*
G01X47735Y43826D01*
G01X47735Y43698D01*
G01X47734Y43684D01*
G01X47731Y43670D01*
G01X47726Y43656D01*
G01X47719Y43643D01*
G01X47710Y43632D01*
G01X47700Y43622D01*
G01X47688Y43613D01*
G01X47676Y43606D01*
G01X47662Y43601D01*
G01X47648Y43598D01*
G01X47634Y43597D01*
G01X46610Y43597D01*
G01X46595Y43598D01*
G01X46581Y43601D01*
G01X46568Y43606D01*
G01X46555Y43613D01*
G01X46543Y43622D01*
G01X46533Y43632D01*
G01X46525Y43643D01*
G01X46517Y43656D01*
G01X46512Y43670D01*
G01X46509Y43684D01*
G01X46508Y43698D01*
G01X46508Y43826D01*
G01X45765Y43826D01*
G01X45765Y43740D01*
G01X45766Y43723D01*
G01X45766Y43717D01*
G01X45765Y43702D01*
G01X45762Y43688D01*
G01X45756Y43674D01*
G01X45750Y43662D01*
G01X45741Y43650D01*
G01X45731Y43640D01*
G01X45719Y43631D01*
G01X45707Y43624D01*
G01X45693Y43619D01*
G01X45679Y43616D01*
G01X45665Y43615D01*
G01X45648Y43616D01*
G01X45633Y43620D01*
G01X45617Y43626D01*
G01X45604Y43635D01*
G01X45591Y43645D01*
G01X45347Y43897D01*
G01X45338Y43909D01*
G01X45330Y43921D01*
G01X45314Y43950D01*
G01X45295Y43979D01*
G01X45275Y44006D01*
G01X45254Y44032D01*
G01X45230Y44056D01*
G01X45205Y44080D01*
G01X45179Y44102D01*
G01X45152Y44121D01*
G01X45124Y44140D01*
G01X45094Y44157D01*
G01X45064Y44171D01*
G01X45033Y44184D01*
G01X45000Y44196D01*
G01X44968Y44204D01*
G01X44935Y44211D01*
G01X44901Y44216D01*
G01X44867Y44220D01*
G37*
G36*
G01X46508Y44596D02*
G01X46022Y44596D01*
G01X45998Y44595D01*
G01X45974Y44592D01*
G01X45952Y44587D01*
G01X45929Y44579D01*
G01X45907Y44570D01*
G01X45887Y44558D01*
G01X45867Y44545D01*
G01X45849Y44529D01*
G01X45832Y44513D01*
G01X45817Y44494D01*
G01X45804Y44475D01*
G01X45792Y44454D01*
G01X45782Y44432D01*
G01X45775Y44410D01*
G01X45770Y44387D01*
G01X45766Y44363D01*
G01X45765Y44340D01*
G01X45765Y44254D01*
G01X46508Y44254D01*
G01X46508Y44596D01*
G37*
G36*
G01X48222Y44596D02*
G01X47735Y44596D01*
G01X47735Y44254D01*
G01X48478Y44254D01*
G01X48478Y44340D01*
G01X48477Y44363D01*
G01X48474Y44387D01*
G01X48469Y44410D01*
G01X48461Y44432D01*
G01X48451Y44454D01*
G01X48440Y44475D01*
G01X48427Y44494D01*
G01X48411Y44513D01*
G01X48395Y44529D01*
G01X48376Y44545D01*
G01X48357Y44558D01*
G01X48336Y44570D01*
G01X48314Y44579D01*
G01X48292Y44587D01*
G01X48269Y44592D01*
G01X48246Y44595D01*
G01X48222Y44596D01*
G37*
G36*
G01X48611Y45826D02*
G01X47768Y45826D01*
G01X47768Y45440D01*
G01X47770Y45416D01*
G01X47773Y45392D01*
G01X47778Y45370D01*
G01X47786Y45347D01*
G01X47795Y45325D01*
G01X47807Y45305D01*
G01X47820Y45285D01*
G01X47835Y45267D01*
G01X47852Y45250D01*
G01X47870Y45235D01*
G01X47890Y45222D01*
G01X47910Y45210D01*
G01X47932Y45200D01*
G01X47955Y45193D01*
G01X47978Y45188D01*
G01X48001Y45184D01*
G01X48025Y45183D01*
G01X48611Y45183D01*
G01X48611Y45826D01*
G37*
G36*
G01X50881Y45826D02*
G01X50038Y45826D01*
G01X50038Y45183D01*
G01X50625Y45183D01*
G01X50649Y45184D01*
G01X50672Y45188D01*
G01X50695Y45193D01*
G01X50718Y45200D01*
G01X50739Y45210D01*
G01X50760Y45222D01*
G01X50780Y45235D01*
G01X50798Y45250D01*
G01X50815Y45267D01*
G01X50829Y45285D01*
G01X50843Y45305D01*
G01X50854Y45325D01*
G01X50864Y45347D01*
G01X50872Y45370D01*
G01X50877Y45392D01*
G01X50880Y45416D01*
G01X50881Y45440D01*
G01X50881Y45826D01*
G37*
G36*
G01X39605Y48046D02*
G01X38537Y48046D01*
G01X38537Y46110D01*
G01X38538Y46086D01*
G01X38541Y46063D01*
G01X38546Y46040D01*
G01X38554Y46017D01*
G01X38564Y45995D01*
G01X38575Y45975D01*
G01X38589Y45955D01*
G01X38604Y45937D01*
G01X38621Y45920D01*
G01X38639Y45905D01*
G01X38658Y45891D01*
G01X38679Y45880D01*
G01X38701Y45871D01*
G01X38723Y45863D01*
G01X38746Y45857D01*
G01X38770Y45854D01*
G01X38793Y45853D01*
G01X39605Y45853D01*
G01X39605Y48046D01*
G37*
G36*
G01X42550Y48046D02*
G01X41482Y48046D01*
G01X41482Y45853D01*
G01X42293Y45853D01*
G01X42317Y45854D01*
G01X42341Y45857D01*
G01X42364Y45863D01*
G01X42386Y45871D01*
G01X42408Y45880D01*
G01X42429Y45891D01*
G01X42448Y45905D01*
G01X42466Y45920D01*
G01X42483Y45937D01*
G01X42498Y45955D01*
G01X42511Y45975D01*
G01X42523Y45995D01*
G01X42533Y46017D01*
G01X42540Y46040D01*
G01X42545Y46063D01*
G01X42549Y46086D01*
G01X42550Y46110D01*
G01X42550Y48046D01*
G37*
G36*
G01X48611Y47496D02*
G01X48025Y47496D01*
G01X48001Y47495D01*
G01X47978Y47492D01*
G01X47955Y47486D01*
G01X47932Y47479D01*
G01X47910Y47469D01*
G01X47890Y47457D01*
G01X47870Y47444D01*
G01X47852Y47429D01*
G01X47835Y47412D01*
G01X47820Y47394D01*
G01X47807Y47375D01*
G01X47795Y47354D01*
G01X47786Y47332D01*
G01X47778Y47310D01*
G01X47773Y47287D01*
G01X47770Y47263D01*
G01X47768Y47240D01*
G01X47768Y46853D01*
G01X48611Y46853D01*
G01X48611Y47496D01*
G37*
G36*
G01X50625Y47496D02*
G01X50038Y47496D01*
G01X50038Y46853D01*
G01X50881Y46853D01*
G01X50881Y47240D01*
G01X50880Y47263D01*
G01X50877Y47287D01*
G01X50872Y47310D01*
G01X50864Y47332D01*
G01X50854Y47354D01*
G01X50843Y47375D01*
G01X50829Y47394D01*
G01X50815Y47412D01*
G01X50798Y47429D01*
G01X50780Y47444D01*
G01X50760Y47457D01*
G01X50739Y47469D01*
G01X50718Y47479D01*
G01X50695Y47486D01*
G01X50672Y47492D01*
G01X50649Y47495D01*
G01X50625Y47496D01*
G37*
G36*
G01X44781Y47768D02*
G01X44129Y47768D01*
G01X44157Y47717D01*
G01X44187Y47666D01*
G01X44219Y47616D01*
G01X44252Y47569D01*
G01X44287Y47522D01*
G01X44325Y47477D01*
G01X44364Y47433D01*
G01X44404Y47391D01*
G01X44446Y47350D01*
G01X44490Y47312D01*
G01X44535Y47275D01*
G01X44582Y47239D01*
G01X44630Y47206D01*
G01X44679Y47174D01*
G01X44729Y47144D01*
G01X44781Y47116D01*
G01X44781Y47768D01*
G37*
G36*
G01X46810Y47768D02*
G01X46158Y47768D01*
G01X46158Y47116D01*
G01X46210Y47144D01*
G01X46260Y47174D01*
G01X46309Y47206D01*
G01X46357Y47239D01*
G01X46404Y47275D01*
G01X46449Y47312D01*
G01X46493Y47350D01*
G01X46535Y47391D01*
G01X46575Y47433D01*
G01X46614Y47477D01*
G01X46652Y47522D01*
G01X46687Y47569D01*
G01X46720Y47616D01*
G01X46752Y47666D01*
G01X46782Y47717D01*
G01X46810Y47768D01*
G37*
G36*
G01X13879Y47773D02*
G01X13228Y47773D01*
G01X13228Y47121D01*
G01X13280Y47149D01*
G01X13330Y47179D01*
G01X13379Y47211D01*
G01X13427Y47244D01*
G01X13474Y47279D01*
G01X13519Y47317D01*
G01X13562Y47355D01*
G01X13605Y47396D01*
G01X13645Y47438D01*
G01X13684Y47482D01*
G01X13721Y47527D01*
G01X13757Y47574D01*
G01X13790Y47622D01*
G01X13822Y47671D01*
G01X13852Y47721D01*
G01X13879Y47773D01*
G37*
G36*
G01X11851Y47773D02*
G01X11199Y47773D01*
G01X11227Y47721D01*
G01X11257Y47671D01*
G01X11289Y47622D01*
G01X11322Y47574D01*
G01X11358Y47527D01*
G01X11395Y47482D01*
G01X11433Y47438D01*
G01X11474Y47396D01*
G01X11516Y47355D01*
G01X11560Y47317D01*
G01X11605Y47279D01*
G01X11652Y47244D01*
G01X11700Y47211D01*
G01X11749Y47179D01*
G01X11799Y47149D01*
G01X11851Y47121D01*
G01X11851Y47773D01*
G37*
G36*
G01X46210Y49768D02*
G01X46158Y49796D01*
G01X46158Y49145D01*
G01X46810Y49145D01*
G01X46782Y49196D01*
G01X46752Y49247D01*
G01X46720Y49296D01*
G01X46687Y49344D01*
G01X46652Y49390D01*
G01X46614Y49436D01*
G01X46575Y49479D01*
G01X46535Y49521D01*
G01X46493Y49562D01*
G01X46449Y49601D01*
G01X46404Y49638D01*
G01X46357Y49674D01*
G01X46309Y49707D01*
G01X46260Y49739D01*
G01X46210Y49768D01*
G37*
G36*
G01X44781Y49145D02*
G01X44781Y49796D01*
G01X44729Y49768D01*
G01X44679Y49739D01*
G01X44630Y49707D01*
G01X44582Y49674D01*
G01X44535Y49638D01*
G01X44490Y49601D01*
G01X44446Y49562D01*
G01X44404Y49521D01*
G01X44364Y49479D01*
G01X44325Y49436D01*
G01X44287Y49390D01*
G01X44252Y49344D01*
G01X44219Y49296D01*
G01X44187Y49247D01*
G01X44157Y49196D01*
G01X44129Y49145D01*
G01X44781Y49145D01*
G37*
G36*
G01X11851Y49150D02*
G01X11851Y49801D01*
G01X11799Y49773D01*
G01X11749Y49744D01*
G01X11700Y49712D01*
G01X11652Y49678D01*
G01X11605Y49643D01*
G01X11560Y49606D01*
G01X11516Y49567D01*
G01X11474Y49527D01*
G01X11433Y49484D01*
G01X11395Y49441D01*
G01X11358Y49396D01*
G01X11322Y49349D01*
G01X11289Y49301D01*
G01X11257Y49252D01*
G01X11227Y49201D01*
G01X11199Y49150D01*
G01X11851Y49150D01*
G37*
G36*
G01X13280Y49773D02*
G01X13228Y49801D01*
G01X13228Y49150D01*
G01X13879Y49150D01*
G01X13852Y49201D01*
G01X13822Y49252D01*
G01X13790Y49301D01*
G01X13757Y49349D01*
G01X13721Y49396D01*
G01X13684Y49441D01*
G01X13645Y49484D01*
G01X13605Y49527D01*
G01X13562Y49567D01*
G01X13519Y49606D01*
G01X13474Y49643D01*
G01X13427Y49678D01*
G01X13379Y49712D01*
G01X13330Y49744D01*
G01X13280Y49773D01*
G37*
G36*
G01X51143Y52086D02*
G01X50492Y52086D01*
G01X50492Y51434D01*
G01X50543Y51462D01*
G01X50594Y51492D01*
G01X50643Y51524D01*
G01X50691Y51557D01*
G01X50737Y51593D01*
G01X50783Y51630D01*
G01X50826Y51668D01*
G01X50868Y51709D01*
G01X50909Y51751D01*
G01X50948Y51795D01*
G01X50985Y51840D01*
G01X51021Y51887D01*
G01X51054Y51934D01*
G01X51086Y51984D01*
G01X51116Y52035D01*
G01X51143Y52086D01*
G37*
G36*
G01X49115Y52086D02*
G01X48464Y52086D01*
G01X48491Y52035D01*
G01X48521Y51984D01*
G01X48553Y51934D01*
G01X48586Y51887D01*
G01X48622Y51840D01*
G01X48659Y51795D01*
G01X48698Y51751D01*
G01X48738Y51709D01*
G01X48780Y51668D01*
G01X48824Y51630D01*
G01X48869Y51593D01*
G01X48916Y51557D01*
G01X48964Y51524D01*
G01X49013Y51492D01*
G01X49064Y51462D01*
G01X49115Y51434D01*
G01X49115Y52086D01*
G37*
G36*
G01X7511Y52113D02*
G01X6859Y52113D01*
G01X6887Y52061D01*
G01X6917Y52011D01*
G01X6949Y51962D01*
G01X6982Y51914D01*
G01X7017Y51867D01*
G01X7055Y51822D01*
G01X7094Y51778D01*
G01X7134Y51736D01*
G01X7176Y51696D01*
G01X7220Y51657D01*
G01X7265Y51620D01*
G01X7312Y51584D01*
G01X7360Y51550D01*
G01X7409Y51519D01*
G01X7459Y51489D01*
G01X7511Y51462D01*
G01X7511Y52113D01*
G37*
G36*
G01X9540Y52113D02*
G01X8888Y52113D01*
G01X8888Y51462D01*
G01X8940Y51489D01*
G01X8990Y51519D01*
G01X9039Y51550D01*
G01X9087Y51584D01*
G01X9134Y51620D01*
G01X9179Y51657D01*
G01X9223Y51696D01*
G01X9265Y51736D01*
G01X9305Y51778D01*
G01X9344Y51822D01*
G01X9381Y51867D01*
G01X9417Y51914D01*
G01X9450Y51962D01*
G01X9482Y52011D01*
G01X9512Y52061D01*
G01X9540Y52113D01*
G37*
G36*
G01X39605Y54366D02*
G01X38793Y54366D01*
G01X38770Y54365D01*
G01X38746Y54362D01*
G01X38723Y54356D01*
G01X38701Y54349D01*
G01X38679Y54339D01*
G01X38658Y54328D01*
G01X38639Y54314D01*
G01X38621Y54299D01*
G01X38604Y54282D01*
G01X38589Y54264D01*
G01X38575Y54245D01*
G01X38564Y54224D01*
G01X38554Y54202D01*
G01X38546Y54180D01*
G01X38541Y54157D01*
G01X38538Y54133D01*
G01X38537Y54110D01*
G01X38537Y52173D01*
G01X39605Y52173D01*
G01X39605Y54366D01*
G37*
G36*
G01X42293Y54366D02*
G01X41482Y54366D01*
G01X41482Y52173D01*
G01X42550Y52173D01*
G01X42550Y54110D01*
G01X42549Y54133D01*
G01X42545Y54157D01*
G01X42540Y54180D01*
G01X42533Y54202D01*
G01X42523Y54224D01*
G01X42511Y54245D01*
G01X42498Y54264D01*
G01X42483Y54282D01*
G01X42466Y54299D01*
G01X42448Y54314D01*
G01X42429Y54328D01*
G01X42408Y54339D01*
G01X42386Y54349D01*
G01X42364Y54356D01*
G01X42341Y54362D01*
G01X42317Y54365D01*
G01X42293Y54366D01*
G37*
G36*
G01X49115Y53463D02*
G01X49115Y54114D01*
G01X49064Y54086D01*
G01X49013Y54057D01*
G01X48964Y54025D01*
G01X48916Y53992D01*
G01X48869Y53956D01*
G01X48824Y53919D01*
G01X48780Y53880D01*
G01X48738Y53839D01*
G01X48698Y53797D01*
G01X48659Y53754D01*
G01X48622Y53708D01*
G01X48586Y53662D01*
G01X48553Y53614D01*
G01X48521Y53565D01*
G01X48491Y53514D01*
G01X48464Y53463D01*
G01X49115Y53463D01*
G37*
G36*
G01X50543Y54086D02*
G01X50492Y54114D01*
G01X50492Y53463D01*
G01X51143Y53463D01*
G01X51116Y53514D01*
G01X51086Y53565D01*
G01X51054Y53614D01*
G01X51021Y53662D01*
G01X50985Y53708D01*
G01X50948Y53754D01*
G01X50909Y53797D01*
G01X50868Y53839D01*
G01X50826Y53880D01*
G01X50783Y53919D01*
G01X50737Y53956D01*
G01X50691Y53992D01*
G01X50643Y54025D01*
G01X50594Y54057D01*
G01X50543Y54086D01*
G37*
G36*
G01X8940Y54114D02*
G01X8888Y54141D01*
G01X8888Y53490D01*
G01X9540Y53490D01*
G01X9512Y53541D01*
G01X9482Y53592D01*
G01X9450Y53641D01*
G01X9417Y53689D01*
G01X9381Y53735D01*
G01X9344Y53781D01*
G01X9305Y53824D01*
G01X9265Y53866D01*
G01X9223Y53907D01*
G01X9179Y53946D01*
G01X9134Y53983D01*
G01X9087Y54019D01*
G01X9039Y54052D01*
G01X8990Y54084D01*
G01X8940Y54114D01*
G37*
G36*
G01X7511Y53490D02*
G01X7511Y54141D01*
G01X7459Y54114D01*
G01X7409Y54084D01*
G01X7360Y54052D01*
G01X7312Y54019D01*
G01X7265Y53983D01*
G01X7220Y53946D01*
G01X7176Y53907D01*
G01X7134Y53866D01*
G01X7094Y53824D01*
G01X7055Y53781D01*
G01X7017Y53735D01*
G01X6982Y53689D01*
G01X6949Y53641D01*
G01X6917Y53592D01*
G01X6887Y53541D01*
G01X6859Y53490D01*
G01X7511Y53490D01*
G37*
G36*
G01X55320Y57556D02*
G01X54252Y57556D01*
G01X54252Y55363D01*
G01X55064Y55363D01*
G01X55087Y55364D01*
G01X55111Y55368D01*
G01X55134Y55373D01*
G01X55156Y55380D01*
G01X55178Y55390D01*
G01X55199Y55402D01*
G01X55218Y55415D01*
G01X55236Y55430D01*
G01X55253Y55447D01*
G01X55268Y55465D01*
G01X55281Y55484D01*
G01X55293Y55505D01*
G01X55303Y55527D01*
G01X55310Y55549D01*
G01X55316Y55572D01*
G01X55319Y55596D01*
G01X55320Y55620D01*
G01X55320Y57556D01*
G37*
G36*
G01X52375Y57556D02*
G01X51307Y57556D01*
G01X51307Y55620D01*
G01X51308Y55596D01*
G01X51311Y55572D01*
G01X51317Y55549D01*
G01X51324Y55527D01*
G01X51334Y55505D01*
G01X51345Y55484D01*
G01X51359Y55465D01*
G01X51374Y55447D01*
G01X51391Y55430D01*
G01X51409Y55415D01*
G01X51428Y55402D01*
G01X51449Y55390D01*
G01X51471Y55380D01*
G01X51493Y55373D01*
G01X51516Y55368D01*
G01X51540Y55364D01*
G01X51563Y55363D01*
G01X52375Y55363D01*
G01X52375Y57556D01*
G37*
G36*
G01X6210Y57596D02*
G01X5142Y57596D01*
G01X5142Y55403D01*
G01X5954Y55403D01*
G01X5977Y55404D01*
G01X6000Y55407D01*
G01X6024Y55413D01*
G01X6046Y55420D01*
G01X6068Y55430D01*
G01X6088Y55441D01*
G01X6108Y55455D01*
G01X6126Y55470D01*
G01X6143Y55486D01*
G01X6158Y55505D01*
G01X6172Y55525D01*
G01X6183Y55545D01*
G01X6193Y55567D01*
G01X6200Y55590D01*
G01X6206Y55612D01*
G01X6209Y55636D01*
G01X6210Y55660D01*
G01X6210Y57596D01*
G37*
G36*
G01X3265Y57596D02*
G01X2197Y57596D01*
G01X2197Y55660D01*
G01X2198Y55636D01*
G01X2201Y55612D01*
G01X2207Y55590D01*
G01X2214Y55567D01*
G01X2224Y55545D01*
G01X2235Y55525D01*
G01X2249Y55505D01*
G01X2264Y55486D01*
G01X2281Y55470D01*
G01X2299Y55455D01*
G01X2318Y55441D01*
G01X2339Y55430D01*
G01X2361Y55420D01*
G01X2383Y55413D01*
G01X2406Y55407D01*
G01X2430Y55404D01*
G01X2454Y55403D01*
G01X3265Y55403D01*
G01X3265Y57596D01*
G37*

%LPD*%
G54D11*
G01X47122Y43040D02*
G01X45483Y43030D01*
G01X44833Y43700D01*
G01X47120Y44040D02*
G01X46122Y44040D01*
G01X45155Y45010D01*
G01X45143Y42080D02*
G01X45182Y42041D01*
G01X47122Y42041D01*
G01X45183Y41080D02*
G01X45222Y41041D01*
G01X47122Y41041D01*
G01X45153Y40070D02*
G01X45182Y40041D01*
G01X47122Y40041D01*
G01X45304Y38048D02*
G01X47120Y38041D01*
G01X45294Y39069D02*
G01X45322Y39041D01*
G01X47123Y39041D01*
G54D12*
G01X26703Y59660D02*
G01X26743Y59619D01*
G01X30813Y59619D01*
G01X18043Y50111D02*
G01X24514Y50111D01*
G01X28683Y54279D01*
G01X28683Y54279D02*
G01X28683Y54279D01*
G01X28683Y59621D01*
G01X26824Y4360D02*
G01X26854Y4390D01*
G01X31343Y4390D01*
G01X17423Y13530D02*
G01X25604Y13530D01*
G01X29023Y10111D01*
G01X29023Y10111D02*
G01X29023Y10111D01*
G01X29023Y4391D01*
G01X24243Y42990D02*
G01X33203Y42990D01*
G01X33263Y42929D01*
G01X28812Y48089D02*
G01X28812Y42999D01*
G01X28812Y48089D02*
G01X28812Y54149D01*
G01X28683Y54279D01*
G54D14*
G01X4323Y4360D03*
G01X26824Y4360D03*
G01X53843Y4390D03*
G01X31344Y4390D03*
G01X39923Y13530D03*
G01X17424Y13530D03*
G01X4203Y59659D03*
G01X26703Y59659D03*
G01X53313Y59620D03*
G01X30813Y59620D03*
G01X40543Y50110D03*
G01X18044Y50110D03*
G54D15*
G01X24243Y20490D03*
G01X24243Y42990D03*
G01X33263Y20430D03*
G01X33263Y42929D03*
G54D16*
G01X47122Y44040D03*
G01X47122Y43040D03*
G01X47122Y42041D03*
G01X47122Y41041D03*
G01X47122Y40041D03*
G01X47122Y39042D03*
G01X47122Y38040D03*
G54D17*
G01X49325Y35740D03*
G01X49325Y46340D03*
G54D18*
G01X8203Y11174D03*
G01X12539Y15541D03*
G01X49803Y11174D03*
G01X45469Y15541D03*
G01X45469Y48456D03*
G01X49803Y52774D03*
G01X12539Y48461D03*
G01X8200Y52801D03*
G54D19*
G01X18243Y32380D03*
G01X18243Y27300D03*
G01X18243Y22220D03*
G01X39733Y22309D03*
G01X39733Y27389D03*
G01X39733Y32469D03*
G54D13*
G01X44833Y43659D03*
G01X45153Y45009D03*
G01X45143Y42080D03*
G01X45183Y41080D03*
G01X45153Y40070D03*
G01X45293Y39070D03*
G01X45303Y38050D03*
G54D12*
G01X29023Y10111D03*
G01X28683Y54279D03*
M00*
M02*
