G04 Layer: TopSolderMaskLayer*
G04 EasyEDA v6.3.22, 2020-01-22T11:07:26+01:00*
G04 3ac4b1cc3e28459caadfcca9b74a0810,6ac03ef627a24f5ab7c901ca926ad83b,10*
G04 Gerber Generator version 0.2*
G04 Scale: 100 percent, Rotated: No, Reflected: No *
G04 Dimensions in millimeters *
G04 leading zeros omitted , absolute positions ,3 integer and 3 decimal *
%FSLAX33Y33*%
%MOMM*%
G90*
G71D02*

%ADD31C,2.703195*%
%ADD32C,2.403196*%

%LPD*%
G54D31*
G01X8203Y11174D03*
G01X12539Y15541D03*
G01X49803Y11174D03*
G01X45469Y15541D03*
G01X45469Y48456D03*
G01X49803Y52774D03*
G01X12539Y48461D03*
G01X8200Y52801D03*
G54D32*
G01X18243Y32380D03*
G01X18243Y27300D03*
G01X18243Y22220D03*
G01X39733Y22309D03*
G01X39733Y27389D03*
G01X39733Y32469D03*
G36*
G01X2472Y258D02*
G01X2472Y8462D01*
G01X6176Y8462D01*
G01X6176Y258D01*
G01X2472Y258D01*
G37*
G36*
G01X24972Y258D02*
G01X24972Y8462D01*
G01X28675Y8462D01*
G01X28675Y258D01*
G01X24972Y258D01*
G37*
G36*
G01X51992Y289D02*
G01X51992Y8490D01*
G01X55696Y8490D01*
G01X55696Y289D01*
G01X51992Y289D01*
G37*
G36*
G01X29493Y289D02*
G01X29493Y8490D01*
G01X33196Y8490D01*
G01X33196Y289D01*
G01X29493Y289D01*
G37*
G36*
G01X38073Y9428D02*
G01X38073Y17632D01*
G01X41776Y17632D01*
G01X41776Y9428D01*
G01X38073Y9428D01*
G37*
G36*
G01X15571Y9428D02*
G01X15571Y17632D01*
G01X19274Y17632D01*
G01X19274Y9428D01*
G01X15571Y9428D01*
G37*
G36*
G01X2353Y55559D02*
G01X2353Y63761D01*
G01X6056Y63761D01*
G01X6056Y55559D01*
G01X2353Y55559D01*
G37*
G36*
G01X24852Y55559D02*
G01X24852Y63761D01*
G01X28556Y63761D01*
G01X28556Y55559D01*
G01X24852Y55559D01*
G37*
G36*
G01X51461Y55518D02*
G01X51461Y63720D01*
G01X55165Y63720D01*
G01X55165Y55518D01*
G01X51461Y55518D01*
G37*
G36*
G01X28962Y55518D02*
G01X28962Y63720D01*
G01X32665Y63720D01*
G01X32665Y55518D01*
G01X28962Y55518D01*
G37*
G36*
G01X38693Y46009D02*
G01X38693Y54210D01*
G01X42396Y54210D01*
G01X42396Y46009D01*
G01X38693Y46009D01*
G37*
G36*
G01X16191Y46009D02*
G01X16191Y54210D01*
G01X19894Y54210D01*
G01X19894Y46009D01*
G01X16191Y46009D01*
G37*
G36*
G01X20141Y18638D02*
G01X20141Y22341D01*
G01X28345Y22341D01*
G01X28345Y18638D01*
G01X20141Y18638D01*
G37*
G36*
G01X20141Y41137D02*
G01X20141Y44840D01*
G01X28345Y44840D01*
G01X28345Y41137D01*
G01X20141Y41137D01*
G37*
G36*
G01X29163Y18577D02*
G01X29163Y22280D01*
G01X37364Y22280D01*
G01X37364Y18577D01*
G01X29163Y18577D01*
G37*
G36*
G01X29163Y41079D02*
G01X29163Y44782D01*
G01X37364Y44782D01*
G01X37364Y41079D01*
G01X29163Y41079D01*
G37*
G36*
G01X45919Y43639D02*
G01X45919Y44441D01*
G01X48324Y44441D01*
G01X48324Y43639D01*
G01X45919Y43639D01*
G37*
G36*
G01X45919Y42638D02*
G01X45919Y43441D01*
G01X48324Y43441D01*
G01X48324Y42638D01*
G01X45919Y42638D01*
G37*
G36*
G01X45919Y41640D02*
G01X45919Y42443D01*
G01X48324Y42443D01*
G01X48324Y41640D01*
G01X45919Y41640D01*
G37*
G36*
G01X45919Y40639D02*
G01X45919Y41442D01*
G01X48324Y41442D01*
G01X48324Y40639D01*
G01X45919Y40639D01*
G37*
G36*
G01X45919Y39638D02*
G01X45919Y40441D01*
G01X48324Y40441D01*
G01X48324Y39638D01*
G01X45919Y39638D01*
G37*
G36*
G01X45922Y38640D02*
G01X45922Y39443D01*
G01X48324Y39443D01*
G01X48324Y38640D01*
G01X45922Y38640D01*
G37*
G36*
G01X45919Y37639D02*
G01X45919Y38442D01*
G01X48324Y38442D01*
G01X48324Y37639D01*
G01X45919Y37639D01*
G37*
G36*
G01X47923Y34739D02*
G01X47923Y36740D01*
G01X50727Y36740D01*
G01X50727Y34739D01*
G01X47923Y34739D01*
G37*
G36*
G01X47923Y45338D02*
G01X47923Y47342D01*
G01X50727Y47342D01*
G01X50727Y45338D01*
G01X47923Y45338D01*
G37*
M00*
M02*
