G04 Layer: TopSilkLayer*
G04 EasyEDA v6.3.22, 2020-01-22T11:07:26+01:00*
G04 3ac4b1cc3e28459caadfcca9b74a0810,6ac03ef627a24f5ab7c901ca926ad83b,10*
G04 Gerber Generator version 0.2*
G04 Scale: 100 percent, Rotated: No, Reflected: No *
G04 Dimensions in millimeters *
G04 leading zeros omitted , absolute positions ,3 integer and 3 decimal *
%FSLAX33Y33*%
%MOMM*%
G90*
G71D02*

%ADD10C,0.254000*%

%LPD*%
G54D10*
G01X56003Y-159D02*
G01X56003Y64299D01*
G01X1993Y63959D02*
G01X1993Y-39D01*
G01X8943Y33700D02*
G01X8943Y20900D01*
G01X8943Y33700D02*
G01X15443Y33700D01*
G01X15443Y20900D02*
G01X8943Y20900D01*
G01X15443Y33700D02*
G01X15443Y20900D01*
G01X49033Y20990D02*
G01X49033Y33790D01*
G01X49033Y20990D02*
G01X42533Y20990D01*
G01X42533Y33790D02*
G01X49033Y33790D01*
G01X42533Y20990D02*
G01X42533Y33790D01*
G01X47953Y44623D02*
G01X47953Y45123D01*
G01X47953Y36952D02*
G01X47953Y37452D01*
G01X52723Y47080D02*
G01X51025Y47080D01*
G01X53563Y48290D02*
G01X52733Y48290D01*
G01X53561Y33814D02*
G01X52732Y33814D01*
G01X52723Y48289D02*
G01X52723Y33814D01*
G01X51025Y35024D02*
G01X52703Y35024D01*
G01X53563Y33814D02*
G01X53563Y48290D01*
G75*
G01X14645Y30551D02*
G03X14645Y30551I-701J0D01*
G01*
G75*
G01X14645Y23800D02*
G03X14645Y23800I-701J0D01*
G01*
G75*
G01X44735Y24139D02*
G03X44735Y24139I-701J0D01*
G01*
G75*
G01X44735Y30890D02*
G03X44735Y30890I-701J0D01*
G01*
M00*
M02*
