;Layer: Drill PTH
;EasyEDA v6.3.22, 2020-01-22T11:07:26+01:00
;3ac4b1cc3e28459caadfcca9b74a0810,6ac03ef627a24f5ab7c901ca926ad83b,10
;Gerber Generator version 0.2
M48
METRIC,LZ,000.000
;Holesize 1 = 0.305 METRIC
T01C0.305
;Holesize 2 = 1.200 METRIC
T02C1.200
;Holesize 3 = 2.031 METRIC
T03C2.031
%
G05
G90
T01
X+044833Y+043659
X+045153Y+045009
X+045143Y+042080
X+045183Y+041080
X+045153Y+040070
X+045293Y+039070
X+045303Y+038050
X+029023Y+010111
X+028683Y+054279
T02
X+018243Y+032380
X+018243Y+027300
X+018243Y+022220
X+039733Y+022310
X+039733Y+027390
X+039733Y+032470
T03
X+008203Y+011174
X+012539Y+015541
X+049803Y+011174
X+045469Y+015541
X+045469Y+048456
X+049803Y+052774
X+012539Y+048461
X+008199Y+052801
M30
