G04 Layer: BottomSolderMaskLayer*
G04 EasyEDA v6.3.22, 2020-01-22T11:07:26+01:00*
G04 3ac4b1cc3e28459caadfcca9b74a0810,6ac03ef627a24f5ab7c901ca926ad83b,10*
G04 Gerber Generator version 0.2*
G04 Scale: 100 percent, Rotated: No, Reflected: No *
G04 Dimensions in millimeters *
G04 leading zeros omitted , absolute positions ,3 integer and 3 decimal *
%FSLAX33Y33*%
%MOMM*%
G90*
G71D02*

%ADD31C,2.703195*%
%ADD32C,2.403196*%

%LPD*%
G36*
G01X25442Y25897D02*
G01X25442Y28102D01*
G01X26646Y28102D01*
G01X26646Y25897D01*
G01X25442Y25897D01*
G37*
G36*
G01X27011Y25897D02*
G01X27011Y28102D01*
G01X28215Y28102D01*
G01X28215Y25897D01*
G01X27011Y25897D01*
G37*
G36*
G01X28492Y25897D02*
G01X28492Y28102D01*
G01X29696Y28102D01*
G01X29696Y25897D01*
G01X28492Y25897D01*
G37*
G36*
G01X30171Y25907D02*
G01X30171Y28112D01*
G01X31375Y28112D01*
G01X31375Y25907D01*
G01X30171Y25907D01*
G37*
G36*
G01X23862Y25897D02*
G01X23862Y28102D01*
G01X25066Y28102D01*
G01X25066Y25897D01*
G01X23862Y25897D01*
G37*
G54D31*
G01X8203Y11174D03*
G01X12539Y15541D03*
G01X49803Y11174D03*
G01X45469Y15541D03*
G01X45469Y48456D03*
G01X49803Y52774D03*
G01X12539Y48461D03*
G01X8200Y52801D03*
G54D32*
G01X18243Y32380D03*
G01X18243Y27300D03*
G01X18243Y22220D03*
G01X39733Y22309D03*
G01X39733Y27389D03*
G01X39733Y32469D03*
G36*
G01X13605Y42430D02*
G01X13605Y44208D01*
G01X15383Y44208D01*
G01X15383Y42430D01*
G01X13605Y42430D01*
G37*
G36*
G01X13605Y39890D02*
G01X13605Y41668D01*
G01X15383Y41668D01*
G01X15383Y39890D01*
G01X13605Y39890D01*
G37*
G36*
G01X17395Y39869D02*
G01X17395Y41647D01*
G01X19173Y41647D01*
G01X19173Y39869D01*
G01X17395Y39869D01*
G37*
G36*
G01X17395Y42409D02*
G01X17395Y44187D01*
G01X19173Y44187D01*
G01X19173Y42409D01*
G01X17395Y42409D01*
G37*
G36*
G01X25482Y13067D02*
G01X25482Y14271D01*
G01X26785Y14271D01*
G01X26785Y13067D01*
G01X25482Y13067D01*
G37*
G36*
G01X25482Y14467D02*
G01X25482Y15671D01*
G01X26785Y15671D01*
G01X26785Y14467D01*
G01X25482Y14467D01*
G37*
G36*
G01X29676Y12758D02*
G01X29676Y14261D01*
G01X30430Y14261D01*
G01X30430Y12758D01*
G01X29676Y12758D01*
G37*
G36*
G01X28726Y12758D02*
G01X28726Y14261D01*
G01X29480Y14261D01*
G01X29480Y12758D01*
G01X28726Y12758D01*
G37*
G36*
G01X27776Y12758D02*
G01X27776Y14261D01*
G01X28530Y14261D01*
G01X28530Y12758D01*
G01X27776Y12758D01*
G37*
G36*
G01X27776Y15257D02*
G01X27776Y16761D01*
G01X28530Y16761D01*
G01X28530Y15257D01*
G01X27776Y15257D01*
G37*
G36*
G01X29676Y15257D02*
G01X29676Y16761D01*
G01X30430Y16761D01*
G01X30430Y15257D01*
G01X29676Y15257D01*
G37*
G36*
G01X31591Y12968D02*
G01X31591Y14172D01*
G01X32795Y14172D01*
G01X32795Y12968D01*
G01X31591Y12968D01*
G37*
G36*
G01X31591Y15369D02*
G01X31591Y16570D01*
G01X32795Y16570D01*
G01X32795Y15369D01*
G01X31591Y15369D01*
G37*
G36*
G01X24832Y50449D02*
G01X24832Y51650D01*
G01X26135Y51650D01*
G01X26135Y50449D01*
G01X24832Y50449D01*
G37*
G36*
G01X24832Y49049D02*
G01X24832Y50250D01*
G01X26135Y50250D01*
G01X26135Y49049D01*
G01X24832Y49049D01*
G37*
G36*
G01X21187Y50459D02*
G01X21187Y51960D01*
G01X21939Y51960D01*
G01X21939Y50459D01*
G01X21187Y50459D01*
G37*
G36*
G01X22137Y50459D02*
G01X22137Y51960D01*
G01X22889Y51960D01*
G01X22889Y50459D01*
G01X22137Y50459D01*
G37*
G36*
G01X23087Y50459D02*
G01X23087Y51960D01*
G01X23839Y51960D01*
G01X23839Y50459D01*
G01X23087Y50459D01*
G37*
G36*
G01X23087Y47957D02*
G01X23087Y49461D01*
G01X23839Y49461D01*
G01X23839Y47957D01*
G01X23087Y47957D01*
G37*
G36*
G01X21187Y47957D02*
G01X21187Y49461D01*
G01X21939Y49461D01*
G01X21939Y47957D01*
G01X21187Y47957D01*
G37*
G36*
G01X18822Y50548D02*
G01X18822Y51752D01*
G01X20026Y51752D01*
G01X20026Y50548D01*
G01X18822Y50548D01*
G37*
G36*
G01X18822Y48147D02*
G01X18822Y49351D01*
G01X20026Y49351D01*
G01X20026Y48147D01*
G01X18822Y48147D01*
G37*
G36*
G01X16529Y46694D02*
G01X15678Y47545D01*
G01X16600Y48465D01*
G01X17451Y47614D01*
G01X16529Y46694D01*
G37*
G36*
G01X17517Y45704D02*
G01X16668Y46555D01*
G01X17588Y47477D01*
G01X18439Y46626D01*
G01X17517Y45704D01*
G37*
M00*
M02*
