G04 Layer: BottomPasteMaskLayer*
G04 EasyEDA v6.3.22, 2020-01-22T11:07:26+01:00*
G04 3ac4b1cc3e28459caadfcca9b74a0810,6ac03ef627a24f5ab7c901ca926ad83b,10*
G04 Gerber Generator version 0.2*
G04 Scale: 100 percent, Rotated: No, Reflected: No *
G04 Dimensions in millimeters *
G04 leading zeros omitted , absolute positions ,3 integer and 3 decimal *
%FSLAX33Y33*%
%MOMM*%
G90*
G71D02*

%ADD23R,0.999998X1.999996*%
%ADD24R,1.574800X1.574800*%

%LPD*%
G54D23*
G01X26044Y27000D03*
G01X27614Y27000D03*
G01X29093Y27000D03*
G01X30773Y27009D03*
G01X24463Y27000D03*
G36*
G01X13706Y42532D02*
G01X15281Y42532D01*
G01X15281Y44107D01*
G01X13706Y44107D01*
G01X13706Y42532D01*
G37*
G54D24*
G01X14493Y40780D03*
G36*
G01X19071Y41547D02*
G01X17496Y41547D01*
G01X17496Y39972D01*
G01X19071Y39972D01*
G01X19071Y41547D01*
G37*
G01X18283Y43300D03*
G36*
G01X26684Y13170D02*
G01X26684Y14169D01*
G01X25584Y14169D01*
G01X25584Y13170D01*
G01X26684Y13170D01*
G37*
G36*
G01X26684Y14569D02*
G01X26684Y15569D01*
G01X25584Y15569D01*
G01X25584Y14569D01*
G01X26684Y14569D01*
G37*
G36*
G01X30329Y12860D02*
G01X30329Y14160D01*
G01X29779Y14160D01*
G01X29779Y12860D01*
G01X30329Y12860D01*
G37*
G36*
G01X29379Y12860D02*
G01X29379Y14160D01*
G01X28829Y14160D01*
G01X28829Y12860D01*
G01X29379Y12860D01*
G37*
G36*
G01X28429Y12860D02*
G01X28429Y14160D01*
G01X27879Y14160D01*
G01X27879Y12860D01*
G01X28429Y12860D01*
G37*
G36*
G01X28429Y15360D02*
G01X28429Y16660D01*
G01X27879Y16660D01*
G01X27879Y15360D01*
G01X28429Y15360D01*
G37*
G36*
G01X30329Y15360D02*
G01X30329Y16660D01*
G01X29779Y16660D01*
G01X29779Y15360D01*
G01X30329Y15360D01*
G37*
G36*
G01X32694Y13070D02*
G01X32694Y14070D01*
G01X31694Y14070D01*
G01X31694Y13070D01*
G01X32694Y13070D01*
G37*
G36*
G01X32694Y15470D02*
G01X32694Y16470D01*
G01X31694Y16470D01*
G01X31694Y15470D01*
G01X32694Y15470D01*
G37*
G36*
G01X24933Y51550D02*
G01X24933Y50550D01*
G01X26033Y50550D01*
G01X26033Y51550D01*
G01X24933Y51550D01*
G37*
G36*
G01X24933Y50150D02*
G01X24933Y49150D01*
G01X26033Y49150D01*
G01X26033Y50150D01*
G01X24933Y50150D01*
G37*
G36*
G01X21288Y51860D02*
G01X21288Y50559D01*
G01X21838Y50559D01*
G01X21838Y51860D01*
G01X21288Y51860D01*
G37*
G36*
G01X22238Y51860D02*
G01X22238Y50559D01*
G01X22788Y50559D01*
G01X22788Y51860D01*
G01X22238Y51860D01*
G37*
G36*
G01X23188Y51860D02*
G01X23188Y50559D01*
G01X23738Y50559D01*
G01X23738Y51860D01*
G01X23188Y51860D01*
G37*
G36*
G01X23188Y49360D02*
G01X23188Y48060D01*
G01X23738Y48060D01*
G01X23738Y49360D01*
G01X23188Y49360D01*
G37*
G36*
G01X21288Y49360D02*
G01X21288Y48060D01*
G01X21838Y48060D01*
G01X21838Y49360D01*
G01X21288Y49360D01*
G37*
G36*
G01X18923Y51650D02*
G01X18923Y50650D01*
G01X19923Y50650D01*
G01X19923Y51650D01*
G01X18923Y51650D01*
G37*
G36*
G01X18923Y49250D02*
G01X18923Y48250D01*
G01X19923Y48250D01*
G01X19923Y49250D01*
G01X18923Y49250D01*
G37*
G36*
G01X15821Y47544D02*
G01X16528Y46837D01*
G01X17306Y47615D01*
G01X16599Y48322D01*
G01X15821Y47544D01*
G37*
G36*
G01X16811Y46554D02*
G01X17518Y45847D01*
G01X18296Y46625D01*
G01X17589Y47332D01*
G01X16811Y46554D01*
G37*
M00*
M02*
